<svg width="834" height="1194" viewBox="0 0 834 1194" fill="none" xmlns="http://www.w3.org/2000/svg">
<g clip-path="url(#clip0_0_13151)">
<rect width="834" height="1194" fill="white"/>
<path opacity="0.2" fill-rule="evenodd" clip-rule="evenodd" d="M834 1090C834 1090 747.839 1101.7 697.996 1114.79C648.152 1127.89 600.81 1149.61 587.284 1151.75C573.757 1153.89 518.355 1162.8 504.273 1165.03C490.19 1167.26 446.091 1177.84 401.621 1181.37C357.151 1184.9 242.918 1161.22 200.486 1142.46C158.054 1123.71 121.088 1119.81 97.1857 1116C73.2831 1112.19 0.648523 1124.17 0.648523 1124.17L0 1193.81L832.24 1194L834 1090Z" fill="#1B174E"/>
<rect width="834" height="1194" fill="url(#paint0_radial_0_13151)"/>
<g opacity="0.2" clip-path="url(#clip1_0_13151)">
<path fill-rule="evenodd" clip-rule="evenodd" d="M-10 1193.68C-10 1193.68 7.84048 1047.32 22.7616 1013.13C22.7616 1013.13 49.3601 960.616 81.3108 958.185C81.3108 958.185 111.964 1002.75 119.425 1008.43C126.723 1014.1 134.184 1030.14 134.184 1030.14L144.563 1026.74C144.563 1026.74 158.025 960.454 173.433 946.678L199.22 939.871C199.22 939.871 206.519 876.987 223.224 853C223.224 853 248.363 856.404 255.174 876.987L263.932 1060.61L275.448 1066.77C275.448 1066.77 291.504 1120.1 295.721 1153.64C295.721 1153.64 319.724 1149.11 325.401 1155.1C331.078 1161.26 347.458 1173.74 347.458 1173.74C347.458 1173.74 378.598 1160.45 398.223 1160.45C417.847 1160.45 486.29 1160.45 486.29 1160.45C486.29 1160.45 496.507 1037.6 506.401 1013.29C516.294 988.979 528.458 984.441 528.458 984.441C528.458 984.441 538.351 994.165 542.082 1013.29C545.812 1032.41 547.596 1053 547.596 1053V989.141C547.596 989.141 553.11 896.111 571.113 864.183L590.089 853C590.089 853 615.552 1019.45 620.418 1144.57C620.418 1144.57 637.609 1147.65 645.07 1159.8L661.451 1193.68H-10Z" fill="#1B174E"/>
<path fill-rule="evenodd" clip-rule="evenodd" d="M564.626 983.306L584.575 964.506L596.901 947.65L600.144 927.391L604.199 959.319L582.628 973.582L564.626 983.306Z" fill="#1B174E"/>
<path fill-rule="evenodd" clip-rule="evenodd" d="M557.652 910.86L586.034 900.325L593.495 877.149L590.089 853C590.089 853 575.168 859.969 571.275 864.021C567.383 868.073 557.976 905.511 557.652 910.86Z" fill="#1B174E"/>
<path fill-rule="evenodd" clip-rule="evenodd" d="M505.103 1015.72C505.103 1015.72 518.24 1028.36 526.35 1031.44C534.459 1034.52 544.19 1029.82 544.19 1029.82C544.19 1029.82 544.352 1006.97 538.838 997.568C533.161 988.168 528.62 984.279 528.62 984.279C528.62 984.279 513.05 991.896 505.103 1015.72Z" fill="#1B174E"/>
<path fill-rule="evenodd" clip-rule="evenodd" d="M495.859 1070.66L505.103 1083.63L511.591 1092.87L542.082 1108.26C542.082 1108.26 508.347 1095.46 500.562 1093.35C492.615 1091.57 495.859 1070.66 495.859 1070.66Z" fill="#1B174E"/>
<path fill-rule="evenodd" clip-rule="evenodd" d="M620.418 1144.57L577.438 1163.21L528.458 1170.01L495.697 1175.52C495.697 1175.52 542.893 1175.52 581.006 1173.9C619.12 1172.28 644.908 1159.8 644.908 1159.8C644.908 1159.8 642.475 1151.05 620.418 1144.57Z" fill="#1B174E"/>
<path fill-rule="evenodd" clip-rule="evenodd" d="M223.224 853C223.224 853 216.412 869.045 217.223 877.149C218.034 885.252 249.173 911.994 252.904 911.184C256.634 910.212 255.012 877.149 255.012 877.149C255.012 877.149 245.443 852.028 223.224 853Z" fill="#1B174E"/>
<path fill-rule="evenodd" clip-rule="evenodd" d="M199.22 939.871V970.34C199.22 970.34 183.164 973.582 176.352 967.423C169.378 961.264 173.432 946.678 173.432 946.678L199.22 939.871Z" fill="#1B174E"/>
<path fill-rule="evenodd" clip-rule="evenodd" d="M263.932 1060.78L231.982 1078.6L182.028 1093.19L130.453 1104.05C130.453 1104.05 219.493 1098.22 238.307 1095.46C257.121 1092.7 275.448 1066.94 275.448 1066.94L263.932 1060.78Z" fill="#1B174E"/>
<path fill-rule="evenodd" clip-rule="evenodd" d="M34.7634 993.355C34.7634 993.355 70.12 1006.64 82.9327 1006.32C95.9076 1006 113.262 1002.11 113.262 1002.11C113.262 1002.11 98.9892 968.071 81.1487 958.185C81.1487 958.185 57.3073 959.806 34.7634 993.355Z" fill="#1B174E"/>
<path fill-rule="evenodd" clip-rule="evenodd" d="M134.021 1030.31L108.234 1039.55L68.3359 1051.54L110.667 1052.67L144.563 1026.74L134.021 1030.31Z" fill="#1B174E"/>
<path fill-rule="evenodd" clip-rule="evenodd" d="M16.5984 1032.58L38.1692 1041.98L59.74 1049.76L22.7615 1048.62L12.8682 1046.51L16.5984 1032.58Z" fill="#1B174E"/>
<path fill-rule="evenodd" clip-rule="evenodd" d="M13.1926 1122.04L41.2508 1112.32L100.287 1106.16C100.287 1106.16 70.9309 1119.61 56.8207 1122.2C42.3861 1124.63 13.1926 1122.04 13.1926 1122.04Z" fill="#1B174E"/>
</g>
</g>
<defs>
<radialGradient id="paint0_radial_0_13151" cx="0" cy="0" r="1" gradientUnits="userSpaceOnUse" gradientTransform="translate(511.404 1796.9) rotate(-106.406) scale(1388.22 752.262)">
<stop stop-color="#87B9EB"/>
<stop offset="1" stop-color="#221476"/>
</radialGradient>
<clipPath id="clip0_0_13151">
<rect width="834" height="1194" fill="white"/>
</clipPath>
<clipPath id="clip1_0_13151">
<rect width="1460" height="341" fill="white" transform="translate(-10 853)"/>
</clipPath>
</defs>
</svg>
