<svg width="122" height="41" viewBox="0 0 122 41" fill="none" xmlns="http://www.w3.org/2000/svg">
<path d="M111.897 0.00013208H9.68721C9.31464 0.00013208 8.94655 0.000132079 8.57497 0.00216407C8.26392 0.00419607 7.95535 0.010099 7.64132 0.0150672C6.95909 0.0230955 6.27846 0.083115 5.60536 0.194604C4.9332 0.30852 4.2821 0.523285 3.67407 0.831634C3.06679 1.14259 2.5119 1.54665 2.02953 2.02915C1.54462 2.51029 1.14042 3.06643 0.832457 3.67617C0.523645 4.2847 0.309514 4.9368 0.197459 5.60994C0.0843389 6.28223 0.0234679 6.96228 0.0153924 7.64397C0.00596391 7.95547 0.00496823 8.26801 0 8.57956V32.0636C0.00496823 32.3791 0.00596391 32.6847 0.0153924 33.0002C0.0234704 33.6819 0.0843414 34.3619 0.197459 35.0342C0.309205 35.7077 0.523349 36.3602 0.832457 36.9689C1.14028 37.5767 1.54454 38.1306 2.02953 38.609C2.51007 39.0937 3.06532 39.498 3.67407 39.8066C4.28209 40.1158 4.93312 40.3318 5.60536 40.4475C6.27858 40.5581 6.95913 40.6181 7.64132 40.6271C7.95535 40.634 8.26392 40.638 8.57497 40.638C8.94654 40.64 9.31466 40.64 9.68721 40.64H111.897C112.262 40.64 112.633 40.64 112.998 40.638C113.308 40.638 113.625 40.634 113.935 40.6271C114.616 40.6186 115.295 40.5586 115.967 40.4475C116.641 40.331 117.294 40.115 117.905 39.8066C118.514 39.4978 119.068 39.0935 119.548 38.609C120.032 38.1287 120.437 37.5752 120.749 36.9689C121.056 36.3597 121.268 35.7073 121.378 35.0342C121.491 34.3618 121.554 33.682 121.566 33.0002C121.57 32.6847 121.57 32.3791 121.57 32.0636C121.578 31.6945 121.578 31.3274 121.578 30.9523V9.68882C121.578 9.31675 121.578 8.94766 121.57 8.57956C121.57 8.26801 121.57 7.95547 121.566 7.64393C121.554 6.96218 121.491 6.28228 121.378 5.6099C121.268 4.93715 121.055 4.2851 120.749 3.67613C120.122 2.45396 119.127 1.45913 117.905 0.831543C117.294 0.523947 116.641 0.30924 115.967 0.194513C115.295 0.0825323 114.616 0.0224919 113.935 0.014925C113.625 0.00996693 113.308 0.00401319 112.998 0.00203199C112.633 0 112.262 0 111.897 0V0.00013208Z" fill="black"/>
<path d="M8.57967 39.7511C8.27011 39.7511 7.96804 39.7471 7.66091 39.7402C7.02468 39.7319 6.38993 39.6765 5.76187 39.5745C5.17624 39.4736 4.60892 39.286 4.07863 39.0178C3.5532 38.7518 3.07396 38.4031 2.65928 37.9849C2.23859 37.5717 1.88836 37.0924 1.62244 36.5661C1.3536 36.0364 1.16754 35.4685 1.07076 34.8824C0.966235 34.2526 0.909685 33.6158 0.901593 32.9774C0.895152 32.7631 0.886719 32.0497 0.886719 32.0497V8.57959C0.886719 8.57959 0.8957 7.87712 0.901644 7.67074C0.909392 7.03339 0.965613 6.39755 1.06982 5.76872C1.16679 5.18099 1.35299 4.61152 1.62198 4.08003C1.88691 3.55406 2.23521 3.07443 2.65336 2.65972C3.07103 2.24107 3.5518 1.89053 4.07813 1.62089C4.6072 1.35357 5.17345 1.16727 5.7579 1.06825C6.38802 0.965193 7.02497 0.909476 7.66341 0.901565L8.58017 0.88916H112.993L113.92 0.902063C114.553 0.909581 115.184 0.964801 115.809 1.06725C116.399 1.16752 116.971 1.35511 117.506 1.62387C118.561 2.16727 119.419 3.02698 119.96 4.08251C120.225 4.61033 120.408 5.17515 120.504 5.75781C120.609 6.39179 120.668 7.03263 120.68 7.67521C120.683 7.96294 120.683 8.27201 120.683 8.57959C120.691 8.96059 120.691 9.32323 120.691 9.68884V30.9523C120.691 31.3214 120.691 31.6816 120.683 32.0447C120.683 32.3751 120.683 32.6778 120.679 32.9893C120.667 33.6204 120.609 34.2498 120.506 34.8724C120.411 35.4628 120.226 36.0351 119.957 36.5692C119.689 37.0898 119.341 37.5649 118.925 37.977C118.51 38.3974 118.03 38.7482 117.503 39.0159C116.97 39.2861 116.398 39.4744 115.809 39.5745C115.181 39.6771 114.546 39.7324 113.909 39.7402C113.612 39.7471 113.3 39.7511 112.998 39.7511L111.896 39.7531L8.57967 39.7511Z" fill="white"/>
<path fill-rule="evenodd" clip-rule="evenodd" d="M75.8735 29.5413C74.2126 29.5413 72.9972 28.7198 72.8573 27.4687L70.9244 27.4686C71.0465 29.7506 72.9356 31.1943 75.7336 31.1943C78.724 31.1943 80.6042 29.7159 80.6042 27.3555C80.6042 25.5101 79.5287 24.4702 76.9401 23.858L75.55 23.5167C73.9238 23.1149 73.2591 22.5901 73.2591 21.6981C73.2591 20.5789 74.2999 19.81 75.8209 19.81C77.3419 19.81 78.3827 20.57 78.4968 21.8291H80.4028C80.3413 19.6522 78.5137 18.157 75.8477 18.157C73.1539 18.157 71.2569 19.6522 71.2569 21.8291C71.2569 23.5872 72.3324 24.6707 74.6491 25.2303L76.2843 25.6242C77.9194 26.026 78.6099 26.6124 78.6099 27.5917C78.6099 28.7198 77.465 29.5413 75.8735 29.5413ZM42.9785 27.5741H38.1694L37.0145 30.9842H34.9775L39.5327 18.3675H41.649L46.2041 30.9842H44.1324L42.9785 27.5741ZM38.6675 26H42.4795L40.6003 20.4656H40.5477L38.6675 26ZM52.2028 31.0803C54.5116 31.0803 56.0416 29.2438 56.0416 26.3853C56.0416 23.5347 54.5026 21.6893 52.1681 21.6893C50.9668 21.6505 49.8414 22.2753 49.2392 23.3155H49.2044V21.7855H47.3768V34.0271H49.2649V29.471H49.3086C49.8853 30.5176 51.0094 31.1427 52.2028 31.0803ZM54.101 26.3852C54.101 24.5228 53.1386 23.2985 51.6702 23.2985C50.2275 23.2985 49.2572 24.5486 49.2572 26.3852C49.2572 28.2386 50.2275 29.4798 51.6702 29.4798C53.1386 29.4798 54.101 28.2644 54.101 26.3852ZM62.3272 31.0803C64.636 31.0803 66.166 29.2438 66.166 26.3853C66.166 23.5347 64.6271 21.6893 62.2925 21.6893C61.0912 21.6505 59.9658 22.2753 59.3635 23.3154H59.3288V21.7855H57.5012V34.0271H59.3893V29.4709H59.433C60.0097 30.5176 61.1338 31.1427 62.3272 31.0803ZM64.2253 26.3852C64.2253 24.5228 63.2628 23.2985 61.7944 23.2985C60.3518 23.2985 59.3814 24.5486 59.3814 26.3852C59.3814 28.2386 60.3518 29.4798 61.7944 29.4798C63.2628 29.4798 64.2253 28.2644 64.2253 26.3852ZM84.679 19.6085V21.7854H86.4282V23.2806H84.679V28.3517C84.679 29.1395 85.0292 29.5066 85.7982 29.5066C86.0058 29.503 86.2132 29.4884 86.4193 29.4629V30.9492C86.0736 31.0138 85.7222 31.043 85.3706 31.0365C83.5082 31.0365 82.7819 30.337 82.7819 28.5531V23.2806H81.4445V21.7854H82.7819V19.6085H84.679ZM91.8038 21.6724C89.1458 21.6724 87.4412 23.4911 87.4412 26.3853C87.4412 29.2874 89.1289 31.0981 91.8038 31.0981C94.4798 31.0981 96.1675 29.2874 96.1675 26.3853C96.1675 23.491 94.4708 21.6724 91.8038 21.6724ZM94.2438 26.385C94.2438 24.3997 93.334 23.2279 91.804 23.2279C90.2741 23.2279 89.3652 24.4086 89.3652 26.385C89.3652 28.3783 90.2741 29.5412 91.804 29.5412C93.334 29.5412 94.2438 28.3783 94.2438 26.385H94.2438ZM99.5253 21.7854H97.7245L97.7244 30.984H99.6126V25.5279C99.5497 24.976 99.7312 24.4241 100.11 24.0172C100.488 23.6103 101.025 23.3891 101.58 23.4116C101.867 23.4032 102.154 23.4418 102.428 23.5257V21.7596C102.216 21.712 101.999 21.6884 101.782 21.6892C100.744 21.6495 99.8201 22.3432 99.569 23.3511H99.5253V21.7854ZM111.134 28.2823C110.88 29.9522 109.253 31.0981 107.173 31.0981C104.497 31.0981 102.836 29.3053 102.836 26.4289C102.836 23.5437 104.506 21.6724 107.093 21.6724C109.638 21.6724 111.239 23.4206 111.239 26.2097V26.8566H104.742V26.9707C104.681 27.6555 104.918 28.3333 105.391 28.8318C105.865 29.3303 106.53 29.6014 107.217 29.5761C108.133 29.662 108.997 29.1358 109.341 28.2823L111.134 28.2823ZM109.35 25.5369H104.751C104.749 24.9159 104.996 24.3199 105.436 23.8815C105.876 23.4431 106.473 23.1986 107.094 23.2023C107.71 23.1891 108.304 23.4335 108.732 23.8766C109.16 24.3198 109.384 24.9216 109.35 25.5369Z" fill="black"/>
<path fill-rule="evenodd" clip-rule="evenodd" d="M60.0388 8.57202H60.9417V14.9329H60.0388V8.57202ZM40.5702 9.70083C40.0176 9.11732 39.2325 8.81235 38.431 8.86987H36.2412V14.9322H38.431C40.2367 14.9322 41.2835 13.8189 41.2835 11.8821C41.3846 11.0849 41.1228 10.2843 40.5702 9.70083ZM38.3258 14.0755H37.1828V9.72727H38.3258C38.8956 9.69565 39.4497 9.92032 39.8366 10.3398C40.2235 10.7594 40.4027 11.3298 40.3251 11.8952C40.4087 12.4629 40.2321 13.0381 39.8443 13.4611C39.4564 13.8841 38.8987 14.1098 38.3258 14.0755ZM42.3472 12.6432C42.2688 11.8232 42.662 11.0295 43.3619 10.5952C44.0619 10.1608 44.9476 10.1608 45.6475 10.5952C46.3475 11.0295 46.7407 11.8232 46.6622 12.6432C46.7422 13.4641 46.3493 14.2592 45.6488 14.6945C44.9482 15.1298 44.0613 15.1298 43.3607 14.6945C42.6601 14.2592 42.2673 13.4641 42.3472 12.6432ZM44.5061 11.072C45.2879 11.072 45.7334 11.6519 45.7334 12.6436H45.7334C45.7334 13.6392 45.288 14.2187 44.5061 14.2187C43.7213 14.2187 43.2798 13.6432 43.2798 12.6436C43.2798 11.6519 43.7213 11.072 44.5061 11.072ZM52.3979 14.9329H51.4613L50.5157 11.5635H50.4443L49.5027 14.9329H48.575L47.3139 10.358H48.2297L49.0493 13.849H49.1167L50.0573 10.358H50.9235L51.8641 13.849H51.9355L52.7511 10.358H53.654L52.3979 14.9329ZM55.584 10.3581H54.7148L54.7148 14.9331H55.6177V12.2566C55.5853 11.9522 55.6875 11.6487 55.8975 11.4259C56.1074 11.2031 56.4043 11.083 56.7101 11.0973C57.3778 11.0973 57.6973 11.4629 57.6973 12.1981V14.933H58.6002V11.9714C58.6664 11.524 58.5256 11.0709 58.2175 10.7399C57.9095 10.4089 57.4676 10.2359 57.0167 10.2698C56.4343 10.2224 55.8861 10.5498 55.6514 11.0849H55.584V10.3581ZM63.2118 10.5952C62.5118 11.0296 62.1185 11.8232 62.1969 12.6433C62.117 13.4642 62.51 14.2593 63.2106 14.6946C63.9112 15.1299 64.7981 15.1299 65.4987 14.6946C66.1993 14.2593 66.5922 13.4642 66.5124 12.6433C66.5908 11.8232 66.1975 11.0296 65.4975 10.5952C64.7975 10.1608 63.9118 10.1608 63.2118 10.5952ZM65.583 12.6436C65.583 11.6519 65.1375 11.072 64.3557 11.072C63.5709 11.072 63.1294 11.6519 63.1294 12.6436C63.1294 13.6432 63.5709 14.2187 64.3557 14.2187C65.1375 14.2187 65.583 13.6392 65.583 12.6436ZM69.1643 12.2731C68.0759 12.3406 67.4627 12.8154 67.4627 13.6389C67.4642 14.0293 67.6309 14.401 67.9214 14.6618C68.212 14.9227 68.5993 15.0485 68.9877 15.0081C69.5417 15.0337 70.0667 14.7593 70.3619 14.2898H70.4333V14.9327H71.3025V11.8068C71.3025 10.8404 70.6556 10.2694 69.5086 10.2694C68.4708 10.2694 67.7316 10.7735 67.6393 11.5593H68.5134C68.6136 11.2358 68.9629 11.0508 69.4669 11.0508C70.0841 11.0508 70.4035 11.3236 70.4035 11.8068V12.2017L69.1643 12.2731ZM70.4037 13.2482V12.8657L69.2865 12.9372C68.6565 12.9793 68.3707 13.1937 68.3707 13.597C68.3707 14.0087 68.7279 14.2483 69.2191 14.2483C69.5098 14.2778 69.8001 14.1879 70.0234 13.9994C70.2467 13.8109 70.384 13.5398 70.4037 13.2482ZM74.3882 10.2821C73.2323 10.2821 72.4892 11.1979 72.4892 12.6435C72.4892 14.0926 73.2244 15.0084 74.3882 15.0083C74.9783 15.0301 75.5317 14.7226 75.8249 14.2101H75.8963V14.9329H76.7615V8.57202H75.8586V11.0847H75.7912C75.5185 10.5679 74.9719 10.2552 74.3882 10.2821ZM73.4219 12.6433C73.4219 13.6137 73.8793 14.1976 74.6443 14.1976C75.4053 14.1976 75.8756 13.6053 75.8756 12.6473C75.8756 11.6938 75.4003 11.093 74.6443 11.093C73.8842 11.093 73.4219 11.6809 73.4219 12.6433H73.4219ZM81.512 10.5952C80.8121 11.0295 80.4189 11.8232 80.4973 12.6432C80.4174 13.4641 80.8102 14.2592 81.5108 14.6945C82.2114 15.1298 83.0983 15.1298 83.7988 14.6945C84.4994 14.2592 84.8923 13.4641 84.8123 12.6432C84.8908 11.8232 84.4976 11.0295 83.7976 10.5952C83.0977 10.1608 82.212 10.1608 81.512 10.5952ZM83.8834 12.6436C83.8834 11.6519 83.4379 11.072 82.6561 11.072C81.8713 11.072 81.4298 11.6519 81.4298 12.6436C81.4298 13.6432 81.8713 14.2187 82.6561 14.2187C83.4379 14.2187 83.8834 13.6392 83.8834 12.6436ZM86.8927 10.3581H86.0236V14.9331H86.9265V12.2566C86.8941 11.9522 86.9963 11.6487 87.2062 11.4259C87.4162 11.2031 87.713 11.083 88.0189 11.0973C88.6866 11.0973 89.0061 11.4629 89.0061 12.1981V14.933H89.909V11.9714C89.9752 11.524 89.8344 11.0709 89.5263 10.7399C89.2182 10.4089 88.7764 10.2359 88.3255 10.2698C87.7431 10.2224 87.1948 10.5498 86.9602 11.0849H86.8927V10.3581ZM95.0108 9.21882V10.3787H96.002V11.1392H95.0108V13.4917C95.0108 13.9709 95.2082 14.1807 95.6577 14.1807C95.7728 14.1804 95.8877 14.1734 96.002 14.1599V14.912C95.8398 14.941 95.6756 14.9564 95.5109 14.9581C94.5068 14.9581 94.1069 14.6049 94.1069 13.7228V11.1392H93.3806V10.3786H94.1069V9.21882H95.0108ZM98.1303 8.57202H97.2354L97.2354 14.9329H98.1383V12.261C98.1104 11.947 98.2225 11.6368 98.4446 11.4131C98.6667 11.1895 98.9761 11.0753 99.2902 11.1011C99.9282 11.1011 100.269 11.4712 100.269 12.2019V14.9329H101.172V11.9792C101.232 11.5342 101.09 11.0857 100.786 10.7558C100.481 10.426 100.045 10.2492 99.5967 10.2736C99.0055 10.2256 98.4477 10.5534 98.2018 11.0932H98.1303V8.57202ZM106.437 13.6975C106.184 14.5605 105.349 15.118 104.454 15.0211C103.844 15.0372 103.258 14.7843 102.851 14.3296C102.444 13.8748 102.258 13.2642 102.341 12.6597C102.26 12.0535 102.446 11.4419 102.85 10.9833C103.255 10.5247 103.839 10.2643 104.45 10.2695C105.723 10.2695 106.491 11.1392 106.491 12.5758V12.8909H103.261V12.9415C103.232 13.2809 103.348 13.6167 103.58 13.8663C103.812 14.1158 104.139 14.2559 104.479 14.2521C104.921 14.3051 105.351 14.086 105.568 13.6975L106.437 13.6975ZM105.572 12.2231H103.261C103.257 11.9076 103.38 11.6039 103.603 11.3807C103.826 11.1576 104.13 11.034 104.446 11.038C104.757 11.0308 105.057 11.1555 105.271 11.3812C105.486 11.6069 105.595 11.9126 105.572 12.2231Z" fill="black"/>
<path fill-rule="evenodd" clip-rule="evenodd" d="M23.5218 14.8599C23.6201 16.1443 23.2139 17.4165 22.3894 18.4063C21.5895 19.4013 20.3774 19.9743 19.1009 19.9612C19.0197 18.7137 19.4377 17.4851 20.2629 16.546C21.0985 15.5942 22.2621 14.9922 23.5218 14.8599ZM27.5592 22.4073C26.0907 23.3101 25.1871 24.9022 25.1649 26.6258C25.167 28.5759 26.3348 30.3357 28.1308 31.0954C27.7854 32.2175 27.2648 33.2779 26.5881 34.2373C25.6794 35.5966 24.7267 36.9246 23.2145 36.9492C22.4953 36.9658 22.0098 36.759 21.504 36.5435C20.9763 36.3187 20.4265 36.0845 19.566 36.0845C18.6535 36.0845 18.0791 36.3262 17.525 36.5594C17.0462 36.7609 16.5827 36.956 15.9294 36.9831C14.4893 37.0364 13.3886 35.5323 12.4469 34.1857C10.5647 31.4358 9.099 26.4361 11.0639 23.0341C11.9866 21.376 13.7119 20.3238 15.6084 20.2626C16.4252 20.2458 17.209 20.5606 17.8961 20.8366C18.4216 21.0477 18.8906 21.236 19.2746 21.236C19.6122 21.236 20.0682 21.0551 20.5995 20.8442C21.4364 20.512 22.4605 20.1056 23.5041 20.2151C25.1258 20.2659 26.6286 21.0783 27.5592 22.4073Z" fill="black"/>
</svg>
