<svg width="30" height="30" viewBox="0 0 30 30" fill="none" xmlns="http://www.w3.org/2000/svg">
<rect width="30" height="30" rx="15" fill="white"/>
<path d="M10.0234 20.7745L10.026 20.7754L9.06008 22.3854C8.70749 22.9731 7.92662 23.1745 7.31591 22.8352C6.70532 22.4959 6.49597 21.7444 6.84856 21.1566L7.56013 19.9706L7.62844 19.8567C7.75038 19.6881 8.05132 19.3969 8.65331 19.4517C8.65331 19.4517 10.0699 19.5996 10.1725 20.3082C10.1725 20.3082 10.1864 20.5413 10.0234 20.7745V20.7745ZM23.7232 16.6624H20.7112C20.506 16.6491 20.4165 16.5786 20.3812 16.5376L20.379 16.5339L17.1547 11.1594L17.1505 11.1621L16.9572 10.8953C16.6403 10.4289 16.137 11.6217 16.137 11.6217C15.5362 12.951 16.2223 14.4621 16.4615 14.9189L20.9399 22.3838C21.2924 22.9714 22.0733 23.1729 22.6841 22.8335C23.2947 22.4942 23.504 21.7427 23.1513 21.1549L22.0316 19.2883C22.0098 19.2431 21.9721 19.1203 22.2017 19.1198H23.7232C24.4284 19.1198 25 18.5697 25 17.891C25 17.2124 24.4284 16.6623 23.7232 16.6623V16.6624ZM17.8728 18.3327C17.8728 18.3327 18.0336 19.1198 17.4115 19.1198H6.27681C5.57164 19.1198 5 18.5697 5 17.891C5 17.2124 5.57164 16.6623 6.27681 16.6623H9.13942C9.60159 16.6366 9.71106 16.3798 9.71106 16.3798L9.71371 16.3811L13.4503 10.1525L13.4492 10.1523C13.5173 10.032 13.4606 9.91825 13.4508 9.9003L12.2167 7.84327C11.8641 7.25566 12.0733 6.50407 12.684 6.16486C13.2947 5.82554 14.0756 6.02679 14.4282 6.61452L15.0005 7.56853L15.5718 6.61622C15.9244 6.0286 16.7053 5.82714 17.316 6.16656C17.9267 6.50587 18.1359 7.25725 17.7833 7.84497L12.5836 16.5121C12.5609 16.5649 12.5539 16.6477 12.7231 16.6623H15.8311L15.8318 16.6915C15.8318 16.6915 17.6282 16.7184 17.8728 18.3327Z" fill="#221477"/>
</svg>
