<svg width="29" height="29" viewBox="0 0 29 29" fill="none" xmlns="http://www.w3.org/2000/svg">
<path fill-rule="evenodd" clip-rule="evenodd" d="M7.32316 21.6772C7.05123 21.4052 6.89846 21.0364 6.89846 20.6519C6.89846 20.2673 7.05123 19.8985 7.32316 19.6266L19.6268 7.32289C19.8987 7.05096 20.2676 6.8982 20.6521 6.8982C21.0367 6.8982 21.4055 7.05097 21.6774 7.32289C21.9494 7.59482 22.1021 7.96363 22.1021 8.3482C22.1021 8.73276 21.9494 9.10158 21.6774 9.3735L9.37377 21.6772C9.10184 21.9491 8.73303 22.1019 8.34846 22.1019C7.9639 22.1019 7.59508 21.9491 7.32316 21.6772Z" fill="white"/>
<path fill-rule="evenodd" clip-rule="evenodd" d="M7.32333 7.32285C7.59526 7.05092 7.96407 6.89816 8.34863 6.89816C8.7332 6.89816 9.10201 7.05092 9.37394 7.32285L21.6776 19.6265C21.9495 19.8984 22.1023 20.2673 22.1023 20.6518C22.1023 21.0364 21.9495 21.4052 21.6776 21.6771C21.4057 21.949 21.0369 22.1018 20.6523 22.1018C20.2677 22.1018 19.8989 21.949 19.627 21.6771L7.32333 9.37346C7.0514 9.10153 6.89863 8.73272 6.89863 8.34816C6.89863 7.96359 7.0514 7.59478 7.32333 7.32285Z" fill="white"/>
</svg>
