<svg width="138" height="41" viewBox="0 0 138 41" fill="none" xmlns="http://www.w3.org/2000/svg">
<rect x="0.839844" width="137.16" height="40.6399" rx="7" fill="white"/>
<path fill-rule="evenodd" clip-rule="evenodd" d="M5.91983 0H132.919C135.725 0 137.999 2.27439 137.999 5.07999V35.5599C137.999 38.3655 135.725 40.6399 132.919 40.6399H5.91983C3.11423 40.6399 0.839844 38.3655 0.839844 35.5599V5.07999C0.839844 2.27439 3.11423 0 5.91983 0ZM137.187 5.08006C137.187 2.72336 135.276 0.812876 132.92 0.812876H5.91991C3.5632 0.812876 1.65272 2.72336 1.65272 5.08006V35.56C1.65272 37.9167 3.5632 39.8272 5.91991 39.8272H132.92C135.276 39.8272 137.187 37.9167 137.187 35.56V5.08006Z" fill="black"/>
<path fill-rule="evenodd" clip-rule="evenodd" d="M49.3441 23.4291V25.2579H53.7332C53.6644 26.1193 53.3063 26.9321 52.7172 27.5642C51.8292 28.4687 50.6004 28.9558 49.3339 28.9054C46.6406 28.9054 44.4571 26.7219 44.4571 24.0286C44.4571 21.3352 46.6406 19.1518 49.3339 19.1518C50.5712 19.1316 51.766 19.6029 52.6562 20.4624L53.9466 19.1721C52.7324 17.9426 51.072 17.2572 49.3441 17.2722C46.8843 17.1765 44.5693 18.4342 43.311 20.5499C42.0526 22.6656 42.0526 25.3002 43.311 27.4158C44.5693 29.5315 46.8843 30.7892 49.3441 30.6935C51.1036 30.773 52.8114 30.0877 54.0278 28.8139C55.0923 27.6444 55.6606 26.1071 55.6128 24.5264C55.6161 24.1413 55.5821 23.7568 55.5112 23.3783L49.3441 23.4291ZM60.6115 22.0983C58.2281 22.1039 56.3 24.0396 56.3037 26.423C56.3074 28.8065 58.2416 30.7361 60.6251 30.7343C63.0085 30.7324 64.9397 28.7997 64.9397 26.4163C64.9564 25.2625 64.504 24.1513 63.6862 23.3373C62.8683 22.5233 61.7551 22.0761 60.6014 22.0983H60.6115ZM65.7729 26.4298C65.7655 24.0477 67.6885 22.1095 70.0706 22.0983C71.2243 22.0761 72.3375 22.5233 73.1554 23.3373C73.9733 24.1513 74.4256 25.2625 74.4089 26.4163C74.4089 28.7984 72.4797 30.7305 70.0976 30.7342C67.7155 30.7379 65.7804 28.8119 65.7729 26.4298ZM67.5222 27.5525C67.9862 28.5236 68.9967 29.1125 70.0703 29.0374C70.7442 29.0218 71.3833 28.7346 71.8424 28.2411C72.3015 27.7475 72.5418 27.0894 72.5087 26.4161C72.5061 25.3398 71.8458 24.3745 70.8437 23.9819C69.8416 23.5893 68.7013 23.8491 67.9682 24.6372C67.2351 25.4252 67.0583 26.5813 67.5222 27.5525ZM58.0566 27.5606C58.5238 28.5312 59.5372 29.1171 60.6115 29.0378H60.6013C61.2752 29.0221 61.9142 28.735 62.3734 28.2414C62.8325 27.7478 63.0728 27.0898 63.0397 26.4165C63.0368 25.3393 62.3752 24.3736 61.3718 23.9819C60.3684 23.5901 59.2275 23.852 58.4955 24.6423C57.7635 25.4325 57.5894 26.59 58.0566 27.5606ZM91.6807 22.098C93.3651 22.1601 94.8364 23.2555 95.3789 24.8514L95.5923 25.3086L89.8112 27.6962C90.1736 28.5214 91.0036 29.0411 91.9042 29.0068C92.7737 29.009 93.5803 28.5536 94.0276 27.8079L95.5008 28.8239C94.6988 30.0243 93.3478 30.7418 91.9042 30.734C90.7567 30.7508 89.6517 30.3003 88.8431 29.4859C88.0344 28.6716 87.5917 27.5634 87.6167 26.416C87.5465 25.2949 87.9434 24.1947 88.7133 23.3767C89.4832 22.5587 90.5574 22.0958 91.6807 22.098ZM89.486 26.2941C89.4444 25.6592 89.6601 25.0344 90.0844 24.5604C90.5088 24.0864 91.106 23.8031 91.7416 23.7744C92.4115 23.7303 93.0431 24.0901 93.3468 24.6888L89.486 26.2941ZM86.6921 30.4799H84.7922V17.7799H86.6921V30.4799ZM81.6833 23.0635H81.6122C81.033 22.416 80.2051 22.0464 79.3363 22.0475C77.0302 22.1593 75.2178 24.0617 75.2178 26.3706C75.2178 28.6795 77.0302 30.5818 79.3363 30.6936C80.2079 30.7083 81.0412 30.3363 81.6122 29.6776H81.6731V30.2974C81.6731 31.9535 80.7892 32.8374 79.3668 32.8374C78.3979 32.8147 77.5388 32.2085 77.1926 31.3032L75.5365 31.9941C76.1742 33.5454 77.6897 34.5543 79.3668 34.5443C81.5919 34.5443 83.4308 33.2336 83.4308 30.0434V22.3523H81.6833V23.0635ZM79.5059 29.0369L79.5091 29.0372H79.4989L79.5059 29.0369ZM81.2179 28.2221C80.7819 28.7155 80.1636 29.0097 79.5059 29.0369C78.149 28.9157 77.1087 27.7786 77.1087 26.4159C77.1087 25.0521 78.1506 23.9144 79.5091 23.7946C80.1655 23.8283 80.7806 24.1256 81.2148 24.6191C81.649 25.1126 81.8656 25.7605 81.8154 26.4159C81.8714 27.0743 81.6555 27.727 81.2179 28.2221ZM104.279 17.7803H99.7376V30.4802H101.638V25.6644H104.289C105.765 25.7704 107.177 25.0431 107.947 23.7797C108.717 22.5163 108.717 20.9284 107.947 19.665C107.177 18.4015 105.765 17.6742 104.289 17.7803H104.279ZM101.627 23.8763H104.279L104.32 23.9068C105.523 23.9068 106.499 22.9311 106.499 21.7275C106.499 20.5239 105.523 19.5481 104.32 19.5481H101.627V23.8763ZM115.994 22.0474C114.58 21.9629 113.251 22.7251 112.61 23.9879L114.297 24.689C114.637 24.0628 115.314 23.6962 116.024 23.7543C116.511 23.6974 117.001 23.8386 117.383 24.1461C117.765 24.4537 118.008 24.9019 118.056 25.39V25.5221C117.446 25.199 116.765 25.0315 116.075 25.0344C114.256 25.0344 112.417 26.0504 112.417 27.8894C112.454 28.6816 112.809 29.4254 113.402 29.9516C113.995 30.4779 114.776 30.7418 115.567 30.6834C116.541 30.7533 117.476 30.2858 118.005 29.4642H118.066V30.4802H119.895V25.5932C119.895 23.3682 118.208 22.0779 116.044 22.0779L115.994 22.0474ZM114.277 27.9301C114.277 28.6921 115.14 29.0071 115.76 29.0071L115.811 29.0376C116.955 29.0097 117.905 28.1429 118.036 27.0056C117.509 26.7113 116.912 26.5639 116.309 26.5788C115.354 26.5788 114.277 26.9141 114.277 27.9301ZM126.56 22.3518L124.386 27.8585H124.325L122.069 22.3518H120.037L123.42 30.0531L121.49 34.3304H123.471L128.673 22.3518H126.56ZM111.381 30.4799H109.481V17.7799H111.381V30.4799Z" fill="black"/>
<path fill-rule="evenodd" clip-rule="evenodd" d="M71.1569 7.89424C69.9583 9.16299 69.9583 11.1467 71.1569 12.4154C72.3934 13.645 74.3909 13.645 75.6273 12.4154C76.8311 11.1487 76.8311 9.16095 75.6273 7.89424C75.036 7.29861 74.2314 6.96362 73.3921 6.96362C72.5528 6.96362 71.7483 7.29861 71.1569 7.89424ZM48.2563 12.4381C48.7778 11.8936 49.0532 11.1592 49.0183 10.4061C49.0184 10.2528 49.0048 10.0998 48.9777 9.94889H46.0211V10.6804H48.2259C48.2108 11.1412 48.0305 11.5811 47.7179 11.9199C47.0215 12.5931 45.9885 12.7812 45.0996 12.3967C44.2106 12.0122 43.6403 11.1307 43.6539 10.1622C43.6317 9.52137 43.8717 8.89915 44.3184 8.43905C44.765 7.97896 45.3799 7.72071 46.0211 7.72385C46.6591 7.68899 47.2762 7.95619 47.6874 8.44521L48.2259 7.90673C47.9657 7.60758 47.6385 7.3743 47.2708 7.22601C46.8759 7.05702 46.4507 6.97058 46.0211 6.97201C45.1784 6.95323 44.3656 7.28426 43.7758 7.88641C42.868 8.80012 42.5965 10.169 43.0866 11.36C43.5768 12.5511 44.7332 13.3322 46.0211 13.3423C46.8608 13.3722 47.6736 13.0434 48.2563 12.4381ZM50.9285 7.86383H53.6717V7.11199H50.1157V13.208H53.6717V12.4561H50.9285V10.5257H53.4279V9.79423H50.9285V7.86383ZM57.0041 13.208H56.2218V7.86383H54.5149V7.11199H58.7516V7.86383H57.0041V13.208ZM61.7387 7.11199V13.208H62.521V7.11199H61.7387ZM65.9958 13.208H65.2135V7.86383H63.5066V7.11199H67.6925V7.86383H65.9958V13.208ZM71.736 11.9075C72.6518 12.8194 74.1324 12.8194 75.0482 11.9075C75.9475 10.916 75.9475 9.40388 75.0482 8.41244C74.1324 7.50051 72.6518 7.50051 71.736 8.41244C70.8367 9.40388 70.8367 10.916 71.736 11.9075ZM77.629 7.11199V13.208H78.4215V8.23975L81.5203 13.208H82.3331V7.11199H81.5507V11.8567L78.584 7.11199H77.629Z" fill="black"/>
<path d="M71.1569 12.4154L71.0842 12.4841L71.0864 12.4863L71.1569 12.4154ZM71.1569 7.89424L71.086 7.82377L71.0843 7.82557L71.1569 7.89424ZM75.6273 12.4154L75.6979 12.4864L75.6998 12.4843L75.6273 12.4154ZM75.6273 7.89424L75.6998 7.82534L75.6983 7.82379L75.6273 7.89424ZM49.0183 10.4061L48.9182 10.406L48.9184 10.4107L49.0183 10.4061ZM48.2563 12.4381L48.3284 12.5074L48.3285 12.5073L48.2563 12.4381ZM48.9777 9.94889L49.0761 9.93121L49.0613 9.84889H48.9777V9.94889ZM46.0211 9.94889V9.84889H45.9211V9.94889H46.0211ZM46.0211 10.6804H45.9211V10.7804H46.0211V10.6804ZM48.2259 10.6804L48.3258 10.6837L48.3292 10.5804H48.2259V10.6804ZM47.7179 11.9199L47.7875 11.9919L47.7913 11.9877L47.7179 11.9199ZM45.0996 12.3967L45.1393 12.3049L45.1393 12.3049L45.0996 12.3967ZM43.6539 10.1622L43.754 10.1637L43.7538 10.1588L43.6539 10.1622ZM46.0211 7.72385L46.0206 7.82403L46.0266 7.8237L46.0211 7.72385ZM47.6874 8.44521L47.6108 8.50956L47.681 8.59302L47.7581 8.51592L47.6874 8.44521ZM48.2259 7.90673L48.2966 7.97744L48.3625 7.9115L48.3013 7.84112L48.2259 7.90673ZM47.2708 7.22601L47.2315 7.31797L47.2334 7.31875L47.2708 7.22601ZM46.0211 6.97201L46.0189 7.07202L46.0215 7.07201L46.0211 6.97201ZM43.7758 7.88641L43.8467 7.95689L43.8472 7.95639L43.7758 7.88641ZM43.0866 11.36L43.1791 11.322L43.1791 11.322L43.0866 11.36ZM46.0211 13.3423L46.0247 13.2423L46.0219 13.2423L46.0211 13.3423ZM53.6717 7.86383V7.96383H53.7717V7.86383H53.6717ZM50.9285 7.86383V7.76383H50.8285V7.86383H50.9285ZM53.6717 7.11199H53.7717V7.01199H53.6717V7.11199ZM50.1157 7.11199V7.01199H50.0157V7.11199H50.1157ZM50.1157 13.208H50.0157V13.308H50.1157V13.208ZM53.6717 13.208V13.308H53.7717V13.208H53.6717ZM53.6717 12.4561H53.7717V12.3561H53.6717V12.4561ZM50.9285 12.4561H50.8285V12.5561H50.9285V12.4561ZM50.9285 10.5257V10.4257H50.8285V10.5257H50.9285ZM53.4279 10.5257V10.6257H53.5279V10.5257H53.4279ZM53.4279 9.79423H53.5279V9.69423H53.4279V9.79423ZM50.9285 9.79423H50.8285V9.89423H50.9285V9.79423ZM56.2218 13.208H56.1218V13.308H56.2218V13.208ZM57.0041 13.208V13.308H57.1041V13.208H57.0041ZM56.2218 7.86383H56.3218V7.76383H56.2218V7.86383ZM54.5149 7.86383H54.4149V7.96383H54.5149V7.86383ZM54.5149 7.11199V7.01199H54.4149V7.11199H54.5149ZM58.7516 7.11199H58.8516V7.01199H58.7516V7.11199ZM58.7516 7.86383V7.96383H58.8516V7.86383H58.7516ZM57.0041 7.86383V7.76383H56.9041V7.86383H57.0041ZM61.7387 13.208H61.6387V13.308H61.7387V13.208ZM61.7387 7.11199V7.01199H61.6387V7.11199H61.7387ZM62.521 13.208V13.308H62.621V13.208H62.521ZM62.521 7.11199H62.621V7.01199H62.521V7.11199ZM65.2135 13.208H65.1135V13.308H65.2135V13.208ZM65.9958 13.208V13.308H66.0958V13.208H65.9958ZM65.2135 7.86383H65.3135V7.76383H65.2135V7.86383ZM63.5066 7.86383H63.4066V7.96383H63.5066V7.86383ZM63.5066 7.11199V7.01199H63.4066V7.11199H63.5066ZM67.6925 7.11199H67.7925V7.01199H67.6925V7.11199ZM67.6925 7.86383V7.96383H67.7925V7.86383H67.6925ZM65.9958 7.86383V7.76383H65.8958V7.86383H65.9958ZM75.0482 11.9075L75.1188 11.9784L75.1223 11.9747L75.0482 11.9075ZM71.736 11.9075L71.6619 11.9747L71.6655 11.9783L71.736 11.9075ZM75.0482 8.41244L75.1224 8.34516L75.1188 8.34158L75.0482 8.41244ZM71.736 8.41244L71.6654 8.34149L71.662 8.34525L71.736 8.41244ZM77.629 13.208H77.529V13.308H77.629V13.208ZM77.629 7.11199V7.01199H77.529V7.11199H77.629ZM78.4215 13.208V13.308H78.5215V13.208H78.4215ZM78.4215 8.23975L78.5063 8.18683L78.3215 7.89046V8.23975H78.4215ZM81.5203 13.208L81.4354 13.2609L81.4648 13.308H81.5203V13.208ZM82.3331 13.208V13.308H82.4331V13.208H82.3331ZM82.3331 7.11199H82.4331V7.01199H82.3331V7.11199ZM81.5507 7.11199V7.01199H81.4507V7.11199H81.5507ZM81.5507 11.8567L81.466 11.9097L81.6507 12.2053V11.8567H81.5507ZM78.584 7.11199L78.6688 7.05898L78.6394 7.01199H78.584V7.11199ZM71.2296 12.3468C70.0674 11.1166 70.0674 9.19312 71.2296 7.96292L71.0843 7.82557C69.8492 9.13286 69.8492 11.1768 71.0843 12.4841L71.2296 12.3468ZM75.5568 12.3445C74.3593 13.5353 72.4249 13.5353 71.2275 12.3445L71.0864 12.4863C72.3619 13.7547 74.4224 13.7547 75.6978 12.4863L75.5568 12.3445ZM75.5548 7.96313C76.7219 9.19123 76.7219 11.1184 75.5548 12.3465L75.6998 12.4843C76.9402 11.179 76.9402 9.13066 75.6998 7.82536L75.5548 7.96313ZM73.3921 7.06362C74.2048 7.06362 74.9838 7.38798 75.5564 7.9647L75.6983 7.82379C75.0882 7.20925 74.2581 6.86362 73.3921 6.86362V7.06362ZM71.2279 7.9647C71.8004 7.38798 72.5795 7.06362 73.3921 7.06362V6.86362C72.5262 6.86362 71.6961 7.20925 71.086 7.82379L71.2279 7.9647ZM48.9184 10.4107C48.9521 11.1365 48.6867 11.8442 48.1841 12.3689L48.3285 12.5073C48.869 11.943 49.1544 11.1819 49.1182 10.4015L48.9184 10.4107ZM48.8793 9.96656C48.9053 10.1116 48.9184 10.2587 48.9183 10.406L49.1183 10.4061C49.1184 10.2469 49.1043 10.0879 49.0761 9.93121L48.8793 9.96656ZM46.0211 10.0489H48.9777V9.84889H46.0211V10.0489ZM46.1211 10.6804V9.94889H45.9211V10.6804H46.1211ZM48.2259 10.5804H46.0211V10.7804H48.2259V10.5804ZM47.7913 11.9877C48.1203 11.6313 48.31 11.1684 48.3258 10.6837L48.1259 10.6771C48.1116 11.1139 47.9407 11.531 47.6444 11.8521L47.7913 11.9877ZM45.0599 12.4885C45.9859 12.889 47.0619 12.693 47.7874 11.9918L47.6484 11.848C46.981 12.4931 45.9911 12.6733 45.1393 12.3049L45.0599 12.4885ZM43.5539 10.1608C43.5397 11.1697 44.1338 12.088 45.0599 12.4885L45.1393 12.3049C44.2874 11.9365 43.7408 11.0917 43.7539 10.1637L43.5539 10.1608ZM44.2466 8.3694C43.781 8.84901 43.5309 9.49763 43.5539 10.1657L43.7538 10.1588C43.7326 9.54511 43.9624 8.94929 44.3901 8.50871L44.2466 8.3694ZM46.0216 7.62385C45.3532 7.62057 44.7122 7.88978 44.2466 8.3694L44.3901 8.50871C44.8178 8.06813 45.4066 7.82084 46.0206 7.82385L46.0216 7.62385ZM47.7639 8.38086C47.3326 7.86777 46.685 7.58743 46.0157 7.624L46.0266 7.8237C46.6331 7.79056 47.2199 8.0446 47.6108 8.50956L47.7639 8.38086ZM48.1551 7.83602L47.6167 8.3745L47.7581 8.51592L48.2966 7.97744L48.1551 7.83602ZM47.2334 7.31875C47.5864 7.46113 47.9006 7.68511 48.1504 7.97235L48.3013 7.84112C48.0308 7.53004 47.6905 7.28747 47.3082 7.13327L47.2334 7.31875ZM46.0215 7.07201C46.4374 7.07063 46.8491 7.15432 47.2315 7.31795L47.3102 7.13408C46.9027 6.95972 46.464 6.87054 46.0208 6.87202L46.0215 7.07201ZM43.8472 7.95639C44.4177 7.37399 45.2039 7.05383 46.0189 7.07199L46.0234 6.87204C45.153 6.85264 44.3135 7.19453 43.7043 7.81644L43.8472 7.95639ZM43.1791 11.322C42.7042 10.1681 42.9673 8.84205 43.8467 7.95689L43.7048 7.81593C42.7687 8.75819 42.4887 10.1698 42.9942 11.3981L43.1791 11.322ZM46.0219 13.2423C44.7742 13.2326 43.654 12.4758 43.1791 11.322L42.9942 11.3981C43.4996 12.6263 44.6922 13.4319 46.0204 13.4423L46.0219 13.2423ZM48.1843 12.3687C47.6213 12.9536 46.836 13.2713 46.0247 13.2424L46.0176 13.4423C46.8857 13.4732 47.7259 13.1332 48.3284 12.5074L48.1843 12.3687ZM53.6717 7.76383H50.9285V7.96383H53.6717V7.76383ZM53.5717 7.11199V7.86383H53.7717V7.11199H53.5717ZM50.1157 7.21199H53.6717V7.01199H50.1157V7.21199ZM50.2157 13.208V7.11199H50.0157V13.208H50.2157ZM53.6717 13.108H50.1157V13.308H53.6717V13.108ZM53.5717 12.4561V13.208H53.7717V12.4561H53.5717ZM50.9285 12.5561H53.6717V12.3561H50.9285V12.5561ZM50.8285 10.5257V12.4561H51.0285V10.5257H50.8285ZM53.4279 10.4257H50.9285V10.6257H53.4279V10.4257ZM53.3279 9.79423V10.5257H53.5279V9.79423H53.3279ZM50.9285 9.89423H53.4279V9.69423H50.9285V9.89423ZM50.8285 7.86383V9.79423H51.0285V7.86383H50.8285ZM56.2218 13.308H57.0041V13.108H56.2218V13.308ZM56.1218 7.86383V13.208H56.3218V7.86383H56.1218ZM54.5149 7.96383H56.2218V7.76383H54.5149V7.96383ZM54.4149 7.11199V7.86383H54.6149V7.11199H54.4149ZM58.7516 7.01199H54.5149V7.21199H58.7516V7.01199ZM58.8516 7.86383V7.11199H58.6516V7.86383H58.8516ZM57.0041 7.96383H58.7516V7.76383H57.0041V7.96383ZM57.1041 13.208V7.86383H56.9041V13.208H57.1041ZM61.8387 13.208V7.11199H61.6387V13.208H61.8387ZM62.521 13.108H61.7387V13.308H62.521V13.108ZM62.421 7.11199V13.208H62.621V7.11199H62.421ZM61.7387 7.21199H62.521V7.01199H61.7387V7.21199ZM65.2135 13.308H65.9958V13.108H65.2135V13.308ZM65.1135 7.86383V13.208H65.3135V7.86383H65.1135ZM63.5066 7.96383H65.2135V7.76383H63.5066V7.96383ZM63.4066 7.11199V7.86383H63.6066V7.11199H63.4066ZM67.6925 7.01199H63.5066V7.21199H67.6925V7.01199ZM67.7925 7.86383V7.11199H67.5925V7.86383H67.7925ZM65.9958 7.96383H67.6925V7.76383H65.9958V7.96383ZM66.0958 13.208V7.86383H65.8958V13.208H66.0958ZM74.9776 11.8366C74.1009 12.7097 72.6833 12.7097 71.8066 11.8366L71.6655 11.9783C72.6202 12.9291 74.164 12.9291 75.1188 11.9783L74.9776 11.8366ZM74.9741 8.47963C75.8389 9.43295 75.8389 10.887 74.9741 11.8403L75.1223 11.9747C76.0562 10.9451 76.0562 9.37481 75.1223 8.34525L74.9741 8.47963ZM71.8066 8.4833C72.6833 7.61023 74.1009 7.61023 74.9776 8.4833L75.1188 8.34158C74.164 7.3908 72.6202 7.3908 71.6655 8.34158L71.8066 8.4833ZM71.8101 11.8403C70.9453 10.887 70.9453 9.43295 71.8101 8.47963L71.662 8.34525C70.728 9.37481 70.728 10.9451 71.662 11.9747L71.8101 11.8403ZM77.729 13.208V7.11199H77.529V13.208H77.729ZM78.4215 13.108H77.629V13.308H78.4215V13.108ZM78.3215 8.23975V13.208H78.5215V8.23975H78.3215ZM81.6051 13.1551L78.5063 8.18683L78.3366 8.29267L81.4354 13.2609L81.6051 13.1551ZM82.3331 13.108H81.5203V13.308H82.3331V13.108ZM82.2331 7.11199V13.208H82.4331V7.11199H82.2331ZM81.5507 7.21199H82.3331V7.01199H81.5507V7.21199ZM81.6507 11.8567V7.11199H81.4507V11.8567H81.6507ZM78.4992 7.16501L81.466 11.9097L81.6355 11.8037L78.6688 7.05898L78.4992 7.16501ZM77.629 7.21199H78.584V7.01199H77.629V7.21199Z" fill="white"/>
<path d="M11.4476 7.66121C11.1164 8.05857 10.9493 8.56727 10.9802 9.0836V31.5575C10.9493 32.0738 11.1164 32.5825 11.4476 32.9799L11.5187 33.051L24.1069 20.4729V20.1783L11.5187 7.59009L11.4476 7.66121Z" fill="url(#paint0_linear_0_4329)"/>
<path d="M28.272 24.6689L24.1064 20.4728V20.1782L28.272 15.9719L28.3635 16.0227L33.352 18.8574C34.7744 19.66 34.7744 20.9808 33.352 21.7936L28.3838 24.6181L28.272 24.6689Z" fill="url(#paint1_linear_0_4329)"/>
<path d="M28.3941 24.6076L24.1066 20.3201L11.4473 32.9794C12.0454 33.5052 12.9331 33.5308 13.5605 33.0404L28.4043 24.6076" fill="url(#paint2_linear_0_4329)"/>
<path d="M28.3945 16.0326L13.5508 7.59984C12.9233 7.10939 12.0356 7.135 11.4375 7.6608L24.107 20.3201L28.3945 16.0326Z" fill="url(#paint3_linear_0_4329)"/>
<path opacity="0.2" d="M28.2722 24.5161L13.5504 32.8981C12.9479 33.3485 12.1208 33.3485 11.5184 32.8981L11.4473 32.9692L11.5184 33.0403C12.1197 33.4942 12.9491 33.4942 13.5504 33.0403L28.3941 24.6076L28.2722 24.5161Z" fill="black"/>
<path opacity="0.12" fill-rule="evenodd" clip-rule="evenodd" d="M28.2726 24.5164L33.3526 21.6411C33.8776 21.382 34.2528 20.8942 34.3686 20.3203C34.3163 20.9547 33.9288 21.5127 33.3526 21.7833L28.3641 24.6078L28.2726 24.5164ZM10.978 31.6128C10.9948 32.0598 11.1588 32.4909 11.4476 32.8374L11.5187 32.9187L11.4476 32.9898C11.1261 32.6041 10.9592 32.1135 10.978 31.6128ZM10.978 31.6128C10.9786 31.5977 10.9793 31.5825 10.9802 31.5674V31.415C10.9762 31.4811 10.9755 31.5471 10.978 31.6128Z" fill="black"/>
<path opacity="0.25" d="M13.5504 7.74153L33.3521 18.9988C33.8771 19.2579 34.2523 19.7457 34.3681 20.3196C34.3158 19.6852 33.9283 19.1272 33.3521 18.8565L13.5504 7.59929C12.128 6.79666 10.9697 7.46721 10.9697 9.09281V9.24521C11.0002 7.60945 12.1381 6.93889 13.5504 7.74153V7.74153Z" fill="white"/>
<defs>
<linearGradient id="paint0_linear_0_4329" x1="18.5933" y1="-7.6793" x2="-1.5635" y2="-2.31856" gradientUnits="userSpaceOnUse">
<stop stop-color="#00A0FF"/>
<stop offset="0.01" stop-color="#00A1FF"/>
<stop offset="0.26" stop-color="#00BEFF"/>
<stop offset="0.51" stop-color="#00D2FF"/>
<stop offset="0.76" stop-color="#00DFFF"/>
<stop offset="1" stop-color="#00E3FF"/>
</linearGradient>
<linearGradient id="paint1_linear_0_4329" x1="35.2113" y1="9.9569" x2="10.6343" y2="9.9569" gradientUnits="userSpaceOnUse">
<stop stop-color="#FFE000"/>
<stop offset="0.41" stop-color="#FFBD00"/>
<stop offset="0.78" stop-color="#FFA500"/>
<stop offset="1" stop-color="#FF9C00"/>
</linearGradient>
<linearGradient id="paint2_linear_0_4329" x1="11.0753" y1="13.7441" x2="-5.11608" y2="40.9795" gradientUnits="userSpaceOnUse">
<stop stop-color="#FF3A44"/>
<stop offset="1" stop-color="#C31162"/>
</linearGradient>
<linearGradient id="paint3_linear_0_4329" x1="1.56203" y1="4.16171" x2="8.78911" y2="16.3237" gradientUnits="userSpaceOnUse">
<stop stop-color="#32A071"/>
<stop offset="0.07" stop-color="#2DA771"/>
<stop offset="0.48" stop-color="#15CF74"/>
<stop offset="0.8" stop-color="#06E775"/>
<stop offset="1" stop-color="#00F076"/>
</linearGradient>
</defs>
</svg>
