<svg width="90" height="30" viewBox="0 0 90 30" fill="none" xmlns="http://www.w3.org/2000/svg">
<rect x="0.75" y="0.75" width="88.5" height="28.5" rx="14.25" fill="black" fill-opacity="0.05" stroke="white" stroke-width="1.5"/>
<path d="M34.5869 21V9.912H41.3549V11.24H36.1389V14.536H40.7789V15.832H36.1389V19.672H41.7549V21H34.5869ZM43.6316 12.92C43.9729 12.8347 44.4262 12.744 44.9916 12.648C45.5569 12.552 46.2076 12.504 46.9436 12.504C47.6049 12.504 48.1542 12.6 48.5916 12.792C49.0289 12.9733 49.3756 13.2347 49.6316 13.576C49.8982 13.9067 50.0849 14.3067 50.1916 14.776C50.2982 15.2453 50.3516 15.7627 50.3516 16.328V21H48.8636V16.648C48.8636 16.136 48.8262 15.6987 48.7516 15.336C48.6876 14.9733 48.5756 14.68 48.4156 14.456C48.2556 14.232 48.0422 14.072 47.7756 13.976C47.5089 13.8693 47.1782 13.816 46.7836 13.816C46.6236 13.816 46.4582 13.8213 46.2876 13.832C46.1169 13.8427 45.9516 13.8587 45.7916 13.88C45.6422 13.8907 45.5036 13.9067 45.3756 13.928C45.2582 13.9493 45.1729 13.9653 45.1196 13.976V21H43.6316V12.92ZM58.0351 20.168C57.9071 20.2533 57.6564 20.3653 57.2831 20.504C56.9204 20.632 56.4937 20.696 56.0031 20.696C55.5017 20.696 55.0271 20.616 54.5791 20.456C54.1417 20.296 53.7577 20.0507 53.4271 19.72C53.0964 19.3787 52.8351 18.9573 52.6431 18.456C52.4511 17.9547 52.3551 17.3573 52.3551 16.664C52.3551 16.056 52.4457 15.5013 52.6271 15C52.8084 14.488 53.0697 14.0507 53.4111 13.688C53.7631 13.3147 54.1897 13.0267 54.6911 12.824C55.1924 12.6107 55.7577 12.504 56.3871 12.504C57.0804 12.504 57.6831 12.5573 58.1951 12.664C58.7177 12.76 59.1551 12.8507 59.5071 12.936V20.36C59.5071 21.64 59.1764 22.568 58.5151 23.144C57.8537 23.72 56.8511 24.008 55.5071 24.008C54.9844 24.008 54.4884 23.9653 54.0191 23.88C53.5604 23.7947 53.1604 23.6933 52.8191 23.576L53.0911 22.28C53.3897 22.3973 53.7524 22.4987 54.1791 22.584C54.6164 22.68 55.0697 22.728 55.5391 22.728C56.4244 22.728 57.0591 22.552 57.4431 22.2C57.8377 21.848 58.0351 21.288 58.0351 20.52V20.168ZM58.0191 13.992C57.8697 13.9493 57.6671 13.912 57.4111 13.88C57.1657 13.8373 56.8297 13.816 56.4031 13.816C55.6031 13.816 54.9844 14.0773 54.5471 14.6C54.1204 15.1227 53.9071 15.816 53.9071 16.68C53.9071 17.16 53.9657 17.5707 54.0831 17.912C54.2111 18.2533 54.3764 18.536 54.5791 18.76C54.7924 18.984 55.0324 19.1493 55.2991 19.256C55.5764 19.3627 55.8591 19.416 56.1471 19.416C56.5417 19.416 56.9044 19.3627 57.2351 19.256C57.5657 19.1387 57.8271 19.0053 58.0191 18.856V13.992Z" fill="white"/>
<path d="M67.334 13.3334L72.0007 18L76.6673 13.3334" stroke="white" stroke-width="1.5" stroke-linecap="round" stroke-linejoin="round"/>
<path d="M25 7.0625C23.5313 6.15625 21.8438 5.625 20 5.625V7.0625H25Z" fill="#ED4C5C"/>
<path d="M20 8.5H26.75C26.2188 7.96875 25.625 7.46875 25 7.0625H20V8.5Z" fill="white"/>
<path d="M20 9.9375H27.9062C27.5625 9.40625 27.1875 8.9375 26.7813 8.5H20V9.9375Z" fill="#ED4C5C"/>
<path d="M20 11.375H28.6563C28.4375 10.875 28.1875 10.375 27.9062 9.9375H20V11.375Z" fill="white"/>
<path d="M20 12.8125H29.125C29 12.3125 28.8438 11.8437 28.6563 11.375H20V12.8125Z" fill="#ED4C5C"/>
<path d="M20 14.2812H29.3438C29.3125 13.7813 29.2188 13.3125 29.125 12.8438H20V14.2812" fill="white"/>
<path d="M29.3438 14.2812H20V15H10.625C10.625 15.25 10.625 15.4687 10.6562 15.7187H29.3438C29.375 15.4687 29.375 15.25 29.375 15C29.375 14.75 29.375 14.5 29.3438 14.2812" fill="#ED4C5C"/>
<path d="M10.875 17.1563H29.125C29.25 16.6875 29.3125 16.2188 29.3438 15.7188H10.6562C10.6875 16.1875 10.75 16.6875 10.875 17.1563Z" fill="white"/>
<path d="M11.3438 18.5937H28.6563C28.8438 18.125 29 17.6562 29.125 17.1562H10.875C11 17.6562 11.1563 18.125 11.3438 18.5937Z" fill="#ED4C5C"/>
<path d="M12.0937 20.0312H27.9062C28.1875 19.5625 28.4375 19.0938 28.6563 18.5938H11.3438C11.5625 19.0938 11.8125 19.5625 12.0937 20.0312" fill="white"/>
<path d="M13.2188 21.4688H26.7812C27.1875 21.0313 27.5937 20.5313 27.9062 20.0312H12.0938C12.4062 20.5625 12.8125 21.0313 13.2188 21.4688Z" fill="#ED4C5C"/>
<path d="M14.9687 22.9062H25.0312C25.6875 22.5 26.25 22 26.7813 21.4688H13.2188C13.75 22.0312 14.3437 22.5 14.9687 22.9062Z" fill="white"/>
<path d="M20 24.375C21.8438 24.375 23.5625 23.8437 25.0313 22.9062H14.9688C16.4375 23.8437 18.1563 24.375 20 24.375Z" fill="#ED4C5C"/>
<path d="M15 7.0625C14.3438 7.46875 13.75 7.96875 13.2188 8.5C12.7813 8.9375 12.4062 9.4375 12.0937 9.9375C11.8125 10.4063 11.5313 10.875 11.3438 11.375C11.1563 11.8437 11 12.3125 10.875 12.8125C10.75 13.2812 10.6875 13.75 10.6562 14.25C10.625 14.5 10.625 14.75 10.625 15H20V5.625C18.1562 5.625 16.4687 6.15625 15 7.0625Z" fill="#428BC1"/>
<path d="M17.8125 5.9375L17.9687 6.40625H18.4375L18.0625 6.71875L18.1875 7.1875L17.8125 6.90625L17.4375 7.1875L17.5625 6.71875L17.1875 6.40625H17.6562L17.8125 5.9375Z" fill="white"/>
<path d="M19.0625 7.8125L19.2188 8.28125H19.6875L19.3125 8.59375L19.4375 9.0625L19.0625 8.78125L18.6875 9.0625L18.8125 8.59375L18.4375 8.28125H18.9062L19.0625 7.8125Z" fill="white"/>
<path d="M16.5625 7.8125L16.7188 8.28125H17.1875L16.8125 8.59375L16.9375 9.0625L16.5625 8.78125L16.1875 9.0625L16.3125 8.59375L15.9375 8.28125H16.4062L16.5625 7.8125Z" fill="white"/>
<path d="M17.8125 9.6875L17.9687 10.1562H18.4375L18.0625 10.4688L18.1875 10.9375L17.8125 10.6563L17.4375 10.9375L17.5625 10.4688L17.1875 10.1562H17.6562L17.8125 9.6875Z" fill="white"/>
<path d="M15.3125 9.6875L15.4688 10.1562H15.9375L15.5625 10.4688L15.6875 10.9375L15.3125 10.6563L14.9375 10.9375L15.0625 10.4688L14.6875 10.1562H15.1562L15.3125 9.6875Z" fill="white"/>
<path d="M12.8125 9.6875L12.9688 10.1562H13.4375L13.0625 10.4688L13.1875 10.9375L12.8125 10.6563L12.4375 10.9375L12.5625 10.4688L12.1875 10.1562H12.6562L12.8125 9.6875Z" fill="white"/>
<path d="M19.0625 11.5625L19.2188 12.0312H19.6875L19.3125 12.3438L19.4375 12.8125L19.0625 12.5313L18.6875 12.8125L18.8125 12.3438L18.4375 12.0312H18.9062L19.0625 11.5625Z" fill="white"/>
<path d="M16.5625 11.5625L16.7188 12.0312H17.1875L16.8125 12.3438L16.9375 12.8125L16.5625 12.5313L16.1875 12.8125L16.3125 12.3438L15.9375 12.0312H16.4062L16.5625 11.5625Z" fill="white"/>
<path d="M14.0625 11.5625L14.2188 12.0312H14.6875L14.3125 12.3438L14.4375 12.8125L14.0625 12.5313L13.6875 12.8125L13.8125 12.3438L13.4375 12.0312H13.9062L14.0625 11.5625Z" fill="white"/>
<path d="M17.8125 13.4375L17.9687 13.9062H18.4375L18.0625 14.2188L18.1875 14.6875L17.8125 14.4063L17.4375 14.6875L17.5625 14.2188L17.1875 13.9062H17.6562L17.8125 13.4375Z" fill="white"/>
<path d="M15.3125 13.4375L15.4688 13.9062H15.9375L15.5625 14.2188L15.6875 14.6875L15.3125 14.4063L14.9375 14.6875L15.0625 14.2188L14.6875 13.9062H15.1562L15.3125 13.4375Z" fill="white"/>
<path d="M12.8125 13.4375L12.9688 13.9062H13.4375L13.0625 14.2188L13.1875 14.6875L12.8125 14.4063L12.4375 14.6875L12.5625 14.2188L12.1875 13.9062H12.6562L12.8125 13.4375Z" fill="white"/>
<path d="M13.6875 9.0625L14.0625 8.78125L14.4375 9.0625L14.2812 8.59375L14.6562 8.28125H14.1875L14.0625 7.8125L13.9062 8.28125H13.4688L13.8437 8.5625L13.6875 9.0625" fill="white"/>
<path d="M11.1875 12.8125L11.5625 12.5313L11.9375 12.8125L11.7812 12.3438L12.1562 12.0312H11.7187L11.5625 11.5625L11.4062 12.0312H11.0937C11.0937 12.0625 11.0625 12.0937 11.0625 12.125L11.3125 12.3125L11.1875 12.8125" fill="white"/>
</svg>
