<svg width="398" height="311" viewBox="0 0 398 311" fill="none" xmlns="http://www.w3.org/2000/svg">
<g clip-path="url(#clip0_3_24)">
<path d="M225.632 0C187.164 0 154.177 23.5355 140.206 57.0883C153.158 55.046 177.171 48.4327 182.07 27.134C182.07 27.134 184.787 56.602 216.415 64.2851C216.415 64.2851 210.788 104.597 251.584 114.857C252.991 115.198 253.622 116.802 252.943 118.067L246.345 129.689C245.618 130.953 243.92 131.196 242.901 130.175C237.759 125.02 222.818 112.426 203.269 116.413C178.868 121.422 170.719 108.73 178.383 89.6685C178.383 89.6685 137.247 113.253 204.627 141.797C204.627 141.797 171.883 140.776 148.453 129.251C144.135 127.111 140.4 124.242 137.344 120.839C138.605 124.875 140.158 128.765 141.953 132.558C159.998 140.095 175.473 147.632 184.059 149.626C202.299 153.808 214.766 150.258 214.766 150.258C222.867 168.979 213.698 177.975 200.261 182.06C208.314 184.346 216.754 185.561 225.535 185.561C237.371 185.561 248.625 183.324 259.055 179.288V6.2729C248.771 2.23685 237.468 0 225.632 0Z" fill="white"/>
<path d="M203.512 89.8144C206.62 89.8144 209.139 87.2889 209.139 84.1736C209.139 81.0583 206.62 78.5329 203.512 78.5329C200.404 78.5329 197.885 81.0583 197.885 84.1736C197.885 87.2889 200.404 89.8144 203.512 89.8144Z" fill="white"/>
</g>
<path d="M69.2013 264.634C68.2739 265.407 66.5352 266.45 63.9851 267.764C61.5122 269.077 58.4598 270.237 54.8278 271.241C51.1958 272.246 47.1774 272.709 42.7726 272.632C36.0496 272.478 30.022 271.28 24.6899 269.039C19.4351 266.72 14.953 263.591 11.2438 259.65C7.61175 255.708 4.82979 251.188 2.89788 246.088C0.965958 240.987 0 235.539 0 229.744C0 223.252 0.965958 217.302 2.89788 211.893C4.90707 206.483 7.72767 201.808 11.3597 197.867C15.069 193.926 19.4737 190.873 24.574 188.71C29.6742 186.546 35.3154 185.464 41.4976 185.464C47.216 185.464 52.2777 186.237 56.6824 187.782C61.0872 189.328 64.6806 190.989 67.4625 192.767L60.8554 208.647C58.9235 207.179 56.3347 205.672 53.0891 204.126C49.9207 202.504 46.2501 201.692 42.0771 201.692C38.8315 201.692 35.7018 202.388 32.688 203.779C29.7515 205.092 27.1241 206.986 24.8058 209.458C22.5648 211.931 20.7874 214.829 19.4737 218.152C18.16 221.398 17.5032 224.952 17.5032 228.816C17.5032 232.912 18.0827 236.66 19.2419 240.06C20.4783 243.46 22.217 246.397 24.4581 248.87C26.6991 251.265 29.3651 253.12 32.4562 254.433C35.6245 255.747 39.1793 256.404 43.1204 256.404C47.6797 256.404 51.5822 255.67 54.8278 254.202C58.0734 252.733 60.5463 251.188 62.2464 249.565L69.2013 264.634Z" fill="white"/>
<path d="M157.791 186.391V271.705H140.983V237.046H102.847V271.705H86.0397V186.391H102.847V220.818H140.983V186.391H157.791Z" fill="white"/>
<path d="M173.161 245.74C173.161 240.562 174.359 235.926 176.754 231.83C179.227 227.734 182.666 224.527 187.071 222.209C191.475 219.813 196.537 218.616 202.255 218.616C208.051 218.616 213.074 219.813 217.324 222.209C221.575 224.527 224.82 227.734 227.061 231.83C229.38 235.926 230.539 240.562 230.539 245.74C230.539 250.917 229.38 255.593 227.061 259.766C224.82 263.861 221.575 267.107 217.324 269.502C213.074 271.898 207.974 273.096 202.024 273.096C196.46 273.096 191.475 272.014 187.071 269.85C182.743 267.686 179.343 264.557 176.87 260.461C174.397 256.365 173.161 251.458 173.161 245.74ZM189.505 245.856C189.505 248.483 190.046 250.879 191.128 253.042C192.209 255.129 193.678 256.79 195.532 258.027C197.387 259.263 199.473 259.881 201.792 259.881C204.342 259.881 206.544 259.263 208.399 258.027C210.254 256.79 211.683 255.129 212.688 253.042C213.692 250.879 214.195 248.483 214.195 245.856C214.195 243.151 213.692 240.755 212.688 238.669C211.683 236.583 210.254 234.921 208.399 233.685C206.544 232.448 204.342 231.83 201.792 231.83C199.473 231.83 197.387 232.448 195.532 233.685C193.678 234.921 192.209 236.583 191.128 238.669C190.046 240.755 189.505 243.151 189.505 245.856Z" fill="white"/>
<path d="M257.928 221.05L259.435 234.96L259.087 232.873C260.555 229.859 262.565 227.309 265.115 225.223C267.665 223.059 270.176 221.398 272.649 220.239C275.199 219.079 277.131 218.5 278.445 218.5L277.634 234.728C273.847 234.264 270.601 234.882 267.897 236.583C265.192 238.283 263.106 240.524 261.637 243.306C260.169 246.088 259.435 248.947 259.435 251.883V271.705H243.323V221.05H257.928Z" fill="white"/>
<path d="M307.326 272.748C303.153 272.748 299.251 272.014 295.619 270.546C292.064 269.077 289.05 267.03 286.577 264.402L293.3 255.477C295.773 257.718 298.053 259.34 300.139 260.345C302.303 261.272 304.235 261.736 305.935 261.736C307.249 261.736 308.408 261.62 309.412 261.388C310.494 261.079 311.344 260.654 311.963 260.113C312.581 259.495 312.89 258.722 312.89 257.795C312.89 256.481 312.349 255.438 311.267 254.665C310.263 253.892 308.949 253.274 307.326 252.811C305.703 252.27 303.964 251.729 302.11 251.188C297.473 249.72 294.112 247.594 292.025 244.812C290.016 241.953 289.011 238.862 289.011 235.539C289.011 232.989 289.668 230.439 290.982 227.889C292.373 225.261 294.537 223.098 297.473 221.398C300.487 219.62 304.351 218.732 309.065 218.732C313.315 218.732 316.908 219.157 319.845 220.007C322.781 220.857 325.563 222.248 328.191 224.18L322.047 233.685C320.579 232.525 318.917 231.56 317.063 230.787C315.285 229.937 313.624 229.473 312.079 229.396C310.688 229.319 309.49 229.473 308.485 229.859C307.558 230.246 306.824 230.748 306.283 231.366C305.742 231.985 305.471 232.641 305.471 233.337C305.394 234.805 305.935 235.964 307.094 236.814C308.331 237.664 309.876 238.321 311.731 238.785C313.585 239.249 315.401 239.79 317.179 240.408C319.652 241.18 321.777 242.224 323.554 243.537C325.331 244.851 326.684 246.435 327.611 248.29C328.616 250.067 329.118 252.231 329.118 254.781C329.118 257.872 328.307 260.809 326.684 263.591C325.138 266.295 322.743 268.498 319.497 270.198C316.329 271.898 312.272 272.748 307.326 272.748Z" fill="white"/>
<path d="M367.633 273.096C361.45 273.096 356.196 271.937 351.868 269.618C347.618 267.3 344.372 264.093 342.131 259.997C339.89 255.902 338.77 251.188 338.77 245.856C338.77 240.755 340.083 236.158 342.711 232.062C345.338 227.966 348.854 224.721 353.259 222.325C357.664 219.852 362.571 218.616 367.98 218.616C375.244 218.616 381.195 220.741 385.831 224.991C390.545 229.164 393.598 235.23 394.989 243.19L355.577 255.708L351.984 246.899L380.499 237.278L377.138 238.785C376.519 236.776 375.399 235.037 373.776 233.569C372.231 232.023 369.874 231.25 366.705 231.25C364.31 231.25 362.185 231.83 360.33 232.989C358.553 234.071 357.162 235.655 356.157 237.742C355.23 239.751 354.766 242.146 354.766 244.928C354.766 248.097 355.346 250.763 356.505 252.927C357.664 255.013 359.248 256.597 361.257 257.679C363.266 258.761 365.507 259.302 367.98 259.302C369.758 259.302 371.458 258.993 373.081 258.375C374.781 257.756 376.442 256.945 378.065 255.94L385.252 267.995C382.547 269.541 379.61 270.777 376.442 271.705C373.351 272.632 370.415 273.096 367.633 273.096Z" fill="white"/>
<path d="M275.622 311C274.529 311 273.486 310.868 272.492 310.603C271.499 310.371 270.522 309.957 269.561 309.361C268.601 308.765 267.607 307.986 266.581 307.026L267.972 305.436C269.396 306.794 270.721 307.705 271.946 308.168C273.171 308.665 274.364 308.914 275.523 308.914C277.543 308.914 279.149 308.582 280.342 307.92C281.534 307.291 282.395 306.43 282.925 305.337C283.455 304.277 283.736 303.085 283.769 301.76L283.819 295.451L284.365 296.047C283.703 297.769 282.511 299.177 280.789 300.27C279.1 301.363 277.179 301.909 275.026 301.909C273.204 301.909 271.532 301.462 270.009 300.568C268.518 299.64 267.326 298.415 266.432 296.891C265.538 295.335 265.09 293.613 265.09 291.725C265.09 289.705 265.554 287.933 266.481 286.409C267.409 284.886 268.667 283.694 270.257 282.833C271.847 281.938 273.602 281.491 275.523 281.491C277.311 281.491 279 281.955 280.59 282.882C282.213 283.81 283.388 285.035 284.117 286.558L283.819 287.651L284.067 282.087H286.154V301.81C286.154 303.399 285.79 304.89 285.061 306.281C284.365 307.705 283.239 308.847 281.683 309.708C280.159 310.569 278.139 311 275.622 311ZM267.425 291.675C267.425 293.199 267.79 294.59 268.518 295.848C269.247 297.074 270.224 298.067 271.449 298.829C272.708 299.558 274.099 299.922 275.622 299.922C277.079 299.922 278.404 299.607 279.596 298.978C280.789 298.316 281.766 297.438 282.527 296.345C283.289 295.252 283.72 294.076 283.819 292.818V289.937C283.554 288.678 283.024 287.569 282.229 286.608C281.468 285.648 280.507 284.886 279.348 284.323C278.222 283.76 276.98 283.478 275.622 283.478C274.099 283.478 272.708 283.826 271.449 284.522C270.224 285.217 269.247 286.178 268.518 287.403C267.79 288.628 267.425 290.053 267.425 291.675Z" fill="white"/>
<path d="M303.067 301.909C301.212 301.909 299.523 301.495 298 300.667C296.509 299.806 295.317 298.614 294.423 297.09C293.562 295.567 293.131 293.795 293.131 291.775C293.131 289.622 293.595 287.784 294.522 286.26C295.45 284.704 296.708 283.528 298.298 282.733C299.887 281.905 301.692 281.491 303.713 281.491C305.435 281.491 307.058 282.005 308.581 283.031C310.138 284.058 311.247 285.35 311.909 286.906L311.562 287.602L311.86 282.087H313.946V301.512H311.611V295.501L312.108 296.395C311.876 297.057 311.479 297.719 310.916 298.382C310.353 299.011 309.657 299.607 308.829 300.17C308.035 300.7 307.14 301.131 306.147 301.462C305.186 301.76 304.16 301.909 303.067 301.909ZM303.564 299.922C305.021 299.922 306.329 299.624 307.488 299.028C308.68 298.398 309.641 297.537 310.369 296.444C311.098 295.351 311.512 294.093 311.611 292.669V289.887C311.346 288.662 310.817 287.569 310.022 286.608C309.26 285.648 308.316 284.886 307.19 284.323C306.064 283.76 304.839 283.478 303.514 283.478C302.057 283.478 300.715 283.826 299.49 284.522C298.265 285.184 297.288 286.128 296.559 287.353C295.83 288.579 295.466 290.019 295.466 291.675C295.466 293.199 295.83 294.59 296.559 295.848C297.288 297.074 298.265 298.067 299.49 298.829C300.749 299.558 302.106 299.922 303.564 299.922Z" fill="white"/>
<path d="M324.806 282.087L325.054 287.502L324.706 287.006C325.369 285.317 326.461 283.992 327.985 283.031C329.542 282.038 331.231 281.541 333.052 281.541C334.145 281.541 335.122 281.756 335.983 282.187C336.877 282.584 337.589 283.147 338.119 283.876C338.682 284.571 339.013 285.383 339.113 286.31L338.815 286.608C339.51 284.952 340.603 283.694 342.093 282.833C343.584 281.972 345.19 281.541 346.912 281.541C348.767 281.541 350.241 282.087 351.334 283.18C352.426 284.24 352.989 285.631 353.023 287.353V301.512H350.688V287.85C350.655 286.691 350.29 285.714 349.595 284.919C348.899 284.091 347.84 283.644 346.415 283.578C345.124 283.578 343.932 283.909 342.839 284.571C341.746 285.234 340.851 286.111 340.156 287.204C339.494 288.297 339.129 289.523 339.063 290.88V301.512H336.728V287.85C336.695 286.691 336.314 285.714 335.586 284.919C334.89 284.091 333.83 283.644 332.406 283.578C331.082 283.578 329.856 283.909 328.73 284.571C327.637 285.234 326.76 286.145 326.097 287.304C325.435 288.43 325.104 289.688 325.104 291.079V301.512H322.769V282.087H324.806Z" fill="white"/>
<path d="M370.316 301.909C368.296 301.909 366.507 301.462 364.951 300.568C363.394 299.673 362.169 298.465 361.275 296.941C360.413 295.385 359.983 293.646 359.983 291.725C359.983 289.837 360.447 288.115 361.374 286.558C362.301 285.002 363.543 283.76 365.1 282.833C366.689 281.905 368.445 281.442 370.366 281.442C372.684 281.442 374.621 282.121 376.178 283.478C377.768 284.836 378.91 286.608 379.606 288.794L362.616 295.351L361.92 293.662L377.47 287.602L376.973 288.297C376.41 286.972 375.549 285.83 374.389 284.869C373.263 283.909 371.872 283.429 370.217 283.429C368.726 283.429 367.385 283.793 366.193 284.522C365 285.25 364.04 286.227 363.311 287.453C362.616 288.678 362.268 290.069 362.268 291.626C362.268 293.083 362.599 294.441 363.262 295.699C363.957 296.958 364.918 297.968 366.143 298.73C367.368 299.491 368.776 299.872 370.366 299.872C371.425 299.872 372.435 299.673 373.396 299.276C374.389 298.879 375.267 298.365 376.029 297.736L377.221 299.425C376.294 300.154 375.217 300.75 373.992 301.213C372.8 301.677 371.574 301.909 370.316 301.909Z" fill="white"/>
<path d="M390.649 301.909C389.523 301.909 388.348 301.71 387.122 301.313C385.897 300.882 384.903 300.203 384.141 299.276L385.234 297.736C385.897 298.432 386.675 298.995 387.569 299.425C388.497 299.822 389.474 300.021 390.5 300.021C391.262 300.021 391.974 299.922 392.636 299.723C393.332 299.491 393.895 299.11 394.325 298.581C394.756 298.051 394.971 297.339 394.971 296.444C394.971 295.517 394.706 294.805 394.176 294.308C393.68 293.811 393.034 293.414 392.239 293.116C391.477 292.785 390.666 292.487 389.805 292.222C388.381 291.758 387.205 291.129 386.278 290.334C385.383 289.539 384.936 288.413 384.936 286.956C384.936 285.896 385.185 284.969 385.681 284.174C386.211 283.379 386.923 282.766 387.818 282.336C388.712 281.872 389.722 281.64 390.848 281.64C391.875 281.64 392.885 281.806 393.878 282.137C394.905 282.468 395.832 283.031 396.66 283.826L395.617 285.466C395.087 284.737 394.375 284.24 393.481 283.975C392.62 283.71 391.858 283.561 391.196 283.528C390.633 283.528 390.037 283.644 389.407 283.876C388.811 284.108 388.298 284.455 387.867 284.919C387.47 285.35 387.271 285.929 387.271 286.658C387.271 287.42 387.486 288.049 387.917 288.546C388.348 289.009 388.894 289.39 389.556 289.688C390.252 289.986 390.964 290.268 391.693 290.533C392.653 290.831 393.547 291.195 394.375 291.626C395.236 292.023 395.932 292.57 396.462 293.265C397.025 293.927 397.306 294.822 397.306 295.948C397.306 297.074 397.058 298.1 396.561 299.028C396.064 299.922 395.319 300.634 394.325 301.164C393.365 301.661 392.14 301.909 390.649 301.909Z" fill="white"/>
<defs>
<clipPath id="clip0_3_24">
<rect width="121.711" height="185.464" fill="white" transform="translate(137.442)"/>
</clipPath>
</defs>
</svg>
