<svg width="126" height="98" viewBox="0 0 126 98" fill="none" xmlns="http://www.w3.org/2000/svg">
<g clip-path="url(#clip0_0_3625)">
<path d="M71.1526 0C59.0308 0 48.6363 7.41635 44.2339 17.9892C48.3153 17.3457 55.8818 15.2617 57.4257 8.55025C57.4257 8.55025 58.2817 17.836 68.2482 20.257C68.2482 20.257 66.475 32.9598 79.3306 36.193C79.7739 36.3003 79.9726 36.8059 79.7586 37.2043L77.6797 40.8665C77.4504 41.2649 76.9154 41.3415 76.5944 41.0198C74.9741 39.3955 70.266 35.4268 64.1057 36.6833C56.4169 38.2616 53.8488 34.2623 56.264 28.2557C56.264 28.2557 43.3015 35.6873 64.5337 44.682C64.5337 44.682 54.2157 44.3602 46.8325 40.7286C45.4721 40.0544 44.295 39.1503 43.332 38.0777C43.7295 39.3495 44.2186 40.5754 44.7842 41.7706C50.4706 44.1456 55.3468 46.5207 58.0525 47.149C63.8 48.4667 67.7285 47.3482 67.7285 47.3482C70.2813 53.2475 67.3922 56.0823 63.158 57.3694C65.6955 58.0896 68.3552 58.4727 71.122 58.4727C74.8518 58.4727 78.3981 57.7678 81.6846 56.496V1.97667C78.444 0.704859 74.8823 0 71.1526 0Z" fill="white"/>
<path d="M64.1824 28.3016C65.1617 28.3016 65.9555 27.5058 65.9555 26.5242C65.9555 25.5425 65.1617 24.7467 64.1824 24.7467C63.2031 24.7467 62.4092 25.5425 62.4092 26.5242C62.4092 27.5058 63.2031 28.3016 64.1824 28.3016Z" fill="white"/>
</g>
<path d="M21.8589 83.3895C21.5667 83.633 21.0188 83.9617 20.2152 84.3757C19.436 84.7896 18.4742 85.1549 17.3297 85.4715C16.1852 85.788 14.9189 85.9341 13.5309 85.9098C11.4124 85.8611 9.51304 85.4836 7.83283 84.7775C6.17697 84.0469 4.76462 83.0607 3.59578 81.8188C2.45129 80.5769 1.57466 79.1524 0.965891 77.5453C0.35712 75.9381 0.0527344 74.2214 0.0527344 72.3951C0.0527344 70.3496 0.35712 68.4746 0.965891 66.77C1.59901 65.0654 2.48782 63.5922 3.63231 62.3503C4.80115 61.1084 6.18915 60.1466 7.7963 59.4648C9.40346 58.7829 11.1811 58.442 13.1291 58.442C14.9311 58.442 16.5261 58.6855 17.9141 59.1725C19.3021 59.6596 20.4344 60.1831 21.311 60.7432L19.229 65.7473C18.6203 65.2846 17.8045 64.8098 16.7818 64.3227C15.7834 63.8114 14.6267 63.5557 13.3118 63.5557C12.289 63.5557 11.3028 63.7749 10.3531 64.2132C9.42781 64.6271 8.59988 65.2237 7.86936 66.003C7.16318 66.7822 6.60311 67.6953 6.18915 68.7424C5.77518 69.7652 5.5682 70.8853 5.5682 72.1028C5.5682 73.3934 5.75083 74.5745 6.1161 75.6459C6.50571 76.7173 7.0536 77.6427 7.75978 78.4219C8.46595 79.1768 9.30606 79.7612 10.2801 80.1751C11.2785 80.5891 12.3986 80.7961 13.6405 80.7961C15.0772 80.7961 16.3069 80.5648 17.3297 80.1021C18.3524 79.6394 19.1316 79.1524 19.6673 78.641L21.8589 83.3895Z" fill="white"/>
<path d="M49.7747 58.7342V85.6176H44.4784V74.6962H32.4612V85.6176H27.1649V58.7342H32.4612V69.5825H44.4784V58.7342H49.7747Z" fill="white"/>
<path d="M54.6178 77.4357C54.6178 75.8042 54.9953 74.3431 55.7502 73.0525C56.5294 71.7619 57.613 70.7514 59.001 70.0208C60.389 69.266 61.984 68.8885 63.7859 68.8885C65.6123 68.8885 67.1951 69.266 68.5344 70.0208C69.8736 70.7514 70.8964 71.7619 71.6026 73.0525C72.3331 74.3431 72.6983 75.8042 72.6983 77.4357C72.6983 79.0672 72.3331 80.5404 71.6026 81.8554C70.8964 83.146 69.8736 84.1687 68.5344 84.9236C67.1951 85.6784 65.5879 86.0559 63.7129 86.0559C61.9596 86.0559 60.389 85.715 59.001 85.0331C57.6373 84.3513 56.5659 83.3651 55.7867 82.0745C55.0075 80.7839 54.6178 79.2376 54.6178 77.4357ZM59.768 77.4722C59.768 78.3001 59.9385 79.055 60.2794 79.7368C60.6203 80.3943 61.083 80.9178 61.6674 81.3075C62.2518 81.6971 62.9093 81.8919 63.6398 81.8919C64.4434 81.8919 65.1374 81.6971 65.7218 81.3075C66.3063 80.9178 66.7567 80.3943 67.0733 79.7368C67.3899 79.055 67.5481 78.3001 67.5481 77.4722C67.5481 76.6199 67.3899 75.865 67.0733 75.2076C66.7567 74.5501 66.3063 74.0266 65.7218 73.6369C65.1374 73.2473 64.4434 73.0525 63.6398 73.0525C62.9093 73.0525 62.2518 73.2473 61.6674 73.6369C61.083 74.0266 60.6203 74.5501 60.2794 75.2076C59.9385 75.865 59.768 76.6199 59.768 77.4722Z" fill="white"/>
<path d="M81.3291 69.6556L81.8039 74.0387L81.6944 73.3813C82.157 72.4316 82.7902 71.628 83.5937 70.9705C84.3973 70.2887 85.1887 69.7652 85.9679 69.3999C86.7715 69.0346 87.3803 68.852 87.7943 68.852L87.5386 73.9657C86.3454 73.8196 85.3226 74.0144 84.4704 74.5501C83.6181 75.0858 82.9606 75.792 82.4979 76.6686C82.0353 77.5453 81.8039 78.4462 81.8039 79.3716V85.6176H76.7268V69.6556H81.3291Z" fill="white"/>
<path d="M96.895 85.9463C95.5801 85.9463 94.3503 85.715 93.2059 85.2523C92.0857 84.7896 91.136 84.1443 90.3568 83.3164L92.4753 80.5039C93.2545 81.2101 93.9729 81.7214 94.6304 82.038C95.3122 82.3302 95.921 82.4763 96.4567 82.4763C96.8707 82.4763 97.2359 82.4398 97.5525 82.3667C97.8934 82.2693 98.1612 82.1354 98.3561 81.9649C98.5509 81.7701 98.6483 81.5266 98.6483 81.2344C98.6483 80.8204 98.4778 80.4917 98.1369 80.2482C97.8203 80.0047 97.4064 79.8099 96.895 79.6638C96.3836 79.4933 95.8357 79.3229 95.2513 79.1524C93.7903 78.6897 92.731 78.0201 92.0735 77.1435C91.4404 76.2425 91.1239 75.2685 91.1239 74.2214C91.1239 73.4178 91.3308 72.6142 91.7448 71.8106C92.1831 70.9827 92.8649 70.3009 93.7903 69.7652C94.74 69.2051 95.9575 68.9251 97.4429 68.9251C98.7822 68.9251 99.9145 69.059 100.84 69.3268C101.765 69.5947 102.642 70.033 103.47 70.6418L101.534 73.6369C101.071 73.2717 100.548 72.9673 99.9632 72.7238C99.4031 72.4559 98.8796 72.3098 98.3926 72.2855C97.9543 72.2611 97.5768 72.3098 97.2603 72.4316C96.9681 72.5533 96.7367 72.7116 96.5663 72.9064C96.3958 73.1012 96.3106 73.3082 96.3106 73.5274C96.2862 73.99 96.4567 74.3553 96.822 74.6232C97.2116 74.891 97.6986 75.098 98.283 75.2441C98.8674 75.3902 99.4397 75.5607 99.9997 75.7555C100.779 75.999 101.449 76.3277 102.009 76.7417C102.569 77.1556 102.995 77.6548 103.287 78.2393C103.604 78.7993 103.762 79.4811 103.762 80.2847C103.762 81.2588 103.506 82.1841 102.995 83.0607C102.508 83.913 101.753 84.607 100.73 85.1427C99.7319 85.6784 98.4535 85.9463 96.895 85.9463Z" fill="white"/>
<path d="M115.898 86.0559C113.95 86.0559 112.294 85.6906 110.931 84.9601C109.591 84.2296 108.569 83.219 107.863 81.9284C107.156 80.6378 106.803 79.1524 106.803 77.4722C106.803 75.865 107.217 74.4162 108.045 73.1256C108.873 71.835 109.981 70.8122 111.369 70.0574C112.757 69.2781 114.303 68.8885 116.008 68.8885C118.297 68.8885 120.172 69.5582 121.633 70.8975C123.118 72.2124 124.08 74.124 124.519 76.6321L112.1 80.5769L110.967 77.8009L119.953 74.7693L118.894 75.2441C118.699 74.611 118.346 74.0631 117.834 73.6004C117.347 73.1134 116.605 72.8699 115.606 72.8699C114.851 72.8699 114.182 73.0525 113.597 73.4178C113.037 73.7587 112.599 74.2579 112.282 74.9154C111.99 75.5485 111.844 76.3034 111.844 77.18C111.844 78.1784 112.027 79.0185 112.392 79.7003C112.757 80.3578 113.256 80.857 113.889 81.1979C114.523 81.5388 115.229 81.7093 116.008 81.7093C116.568 81.7093 117.104 81.6118 117.615 81.417C118.151 81.2222 118.674 80.9666 119.186 80.65L121.45 84.4487C120.598 84.9357 119.673 85.3254 118.674 85.6176C117.7 85.9098 116.775 86.0559 115.898 86.0559Z" fill="white"/>
<path d="M86.9046 98C86.5602 98 86.2315 97.9582 85.9184 97.8748C85.6053 97.8017 85.2975 97.6713 84.9948 97.4834C84.6922 97.2956 84.3791 97.0503 84.0556 96.7477L84.4939 96.2467C84.9426 96.6746 85.3601 96.9616 85.7462 97.1077C86.1323 97.2642 86.508 97.3425 86.8733 97.3425C87.5099 97.3425 88.0161 97.2382 88.3918 97.0294C88.7675 96.8311 89.0388 96.5598 89.2058 96.2154C89.3727 95.8815 89.4615 95.5058 89.4719 95.0883L89.4875 93.1003L89.6597 93.2881C89.451 93.8308 89.0753 94.2743 88.5326 94.6187C88.0004 94.9631 87.3951 95.1353 86.7168 95.1353C86.1428 95.1353 85.6158 94.9944 85.1357 94.7126C84.6661 94.4204 84.2904 94.0343 84.0086 93.5542C83.7268 93.0637 83.5859 92.521 83.5859 91.9262C83.5859 91.2896 83.732 90.7313 84.0243 90.2512C84.3165 89.7711 84.713 89.3954 85.214 89.1241C85.7149 88.8423 86.268 88.7014 86.8733 88.7014C87.4369 88.7014 87.9691 88.8475 88.47 89.1398C88.9814 89.432 89.3519 89.8181 89.5815 90.2982L89.4875 90.6426L89.5658 88.8893H90.2233V95.104C90.2233 95.6049 90.1085 96.0745 89.8789 96.5128C89.6597 96.9616 89.3049 97.3216 88.8144 97.593C88.3344 97.8643 87.6978 98 86.9046 98ZM84.3217 91.9105C84.3217 92.3906 84.4365 92.8289 84.6661 93.2255C84.8957 93.6116 85.2035 93.9247 85.5897 94.1647C85.9862 94.3943 86.4246 94.5091 86.9046 94.5091C87.3638 94.5091 87.7812 94.41 88.1569 94.2117C88.5326 94.003 88.8405 93.7264 89.0805 93.382C89.3206 93.0376 89.4562 92.6672 89.4875 92.2706V91.3626C89.4041 90.9661 89.2371 90.6165 88.9866 90.3138C88.7466 90.0112 88.4439 89.7711 88.0787 89.5937C87.7238 89.4163 87.3325 89.3276 86.9046 89.3276C86.4246 89.3276 85.9862 89.4372 85.5897 89.6563C85.2035 89.8755 84.8957 90.1781 84.6661 90.5643C84.4365 90.9504 84.3217 91.3992 84.3217 91.9105Z" fill="white"/>
<path d="M95.5528 95.1353C94.9684 95.1353 94.4361 95.0048 93.9561 94.7439C93.4864 94.4726 93.1107 94.0969 92.829 93.6168C92.5576 93.1368 92.422 92.5784 92.422 91.9418C92.422 91.2635 92.5681 90.6843 92.8603 90.2042C93.1525 89.7137 93.5491 89.3433 94.05 89.0928C94.5509 88.8319 95.1197 88.7014 95.7563 88.7014C96.299 88.7014 96.8103 88.8632 97.2904 89.1867C97.7809 89.5102 98.1305 89.9172 98.3392 90.4077L98.2296 90.6269L98.3236 88.8893H98.981V95.0101H98.2453V93.1159L98.4018 93.3977C98.3288 93.6064 98.2035 93.8151 98.0261 94.0238C97.8487 94.2221 97.6296 94.41 97.3687 94.5874C97.1182 94.7544 96.8364 94.89 96.5233 94.9944C96.2207 95.0883 95.8972 95.1353 95.5528 95.1353ZM95.7093 94.5091C96.1685 94.5091 96.5807 94.4152 96.946 94.2273C97.3217 94.0291 97.6243 93.7577 97.8539 93.4133C98.0835 93.0689 98.214 92.6724 98.2453 92.2236V91.347C98.1618 90.9609 97.9948 90.6165 97.7444 90.3138C97.5043 90.0112 97.2069 89.7711 96.8521 89.5937C96.4972 89.4163 96.1111 89.3276 95.6937 89.3276C95.2345 89.3276 94.8118 89.4372 94.4257 89.6563C94.0395 89.8651 93.7317 90.1625 93.5021 90.5486C93.2725 90.9348 93.1577 91.3887 93.1577 91.9105C93.1577 92.3906 93.2725 92.8289 93.5021 93.2255C93.7317 93.6116 94.0395 93.9247 94.4257 94.1647C94.8223 94.3943 95.2501 94.5091 95.7093 94.5091Z" fill="white"/>
<path d="M102.403 88.8893L102.481 90.5956L102.372 90.4391C102.58 89.9068 102.925 89.4894 103.405 89.1867C103.895 88.8736 104.428 88.7171 105.002 88.7171C105.346 88.7171 105.654 88.7849 105.925 88.9206C106.207 89.0458 106.431 89.2232 106.598 89.4528C106.776 89.672 106.88 89.9277 106.911 90.2199L106.817 90.3138C107.037 89.792 107.381 89.3954 107.851 89.1241C108.32 88.8528 108.826 88.7171 109.369 88.7171C109.953 88.7171 110.418 88.8893 110.762 89.2337C111.107 89.5676 111.284 90.006 111.294 90.5486V95.0101H110.559V90.7052C110.548 90.3399 110.433 90.032 110.214 89.7816C109.995 89.5207 109.661 89.3798 109.212 89.3589C108.805 89.3589 108.43 89.4633 108.085 89.672C107.741 89.8807 107.459 90.1573 107.24 90.5017C107.031 90.8461 106.917 91.2322 106.896 91.6601V95.0101H106.16V90.7052C106.149 90.3399 106.029 90.032 105.8 89.7816C105.581 89.5207 105.247 89.3798 104.798 89.3589C104.381 89.3589 103.994 89.4633 103.64 89.672C103.295 89.8807 103.019 90.1677 102.81 90.533C102.601 90.8878 102.497 91.2844 102.497 91.7227V95.0101H101.761V88.8893H102.403Z" fill="white"/>
<path d="M116.744 95.1353C116.107 95.1353 115.544 94.9944 115.053 94.7126C114.563 94.4309 114.177 94.0499 113.895 93.5699C113.623 93.0794 113.488 92.5315 113.488 91.9262C113.488 91.3313 113.634 90.7887 113.926 90.2982C114.218 89.8077 114.61 89.4163 115.1 89.1241C115.601 88.8319 116.154 88.6858 116.759 88.6858C117.49 88.6858 118.1 88.8997 118.591 89.3276C119.092 89.7555 119.452 90.3138 119.671 91.0026L114.317 93.0689L114.098 92.5367L118.998 90.6269L118.841 90.8461C118.664 90.4286 118.393 90.0686 118.027 89.7659C117.673 89.4633 117.234 89.312 116.712 89.312C116.243 89.312 115.82 89.4268 115.445 89.6563C115.069 89.8859 114.766 90.1938 114.537 90.5799C114.317 90.9661 114.208 91.4044 114.208 91.8949C114.208 92.3541 114.312 92.782 114.521 93.1785C114.74 93.5751 115.043 93.8934 115.429 94.1334C115.815 94.3735 116.259 94.4935 116.759 94.4935C117.093 94.4935 117.412 94.4309 117.714 94.3056C118.027 94.1804 118.304 94.0186 118.544 93.8203L118.92 94.3526C118.628 94.5822 118.288 94.77 117.902 94.9161C117.527 95.0622 117.14 95.1353 116.744 95.1353Z" fill="white"/>
<path d="M123.151 95.1353C122.796 95.1353 122.426 95.0727 122.04 94.9474C121.654 94.8118 121.34 94.5978 121.1 94.3056L121.445 93.8203C121.654 94.0395 121.899 94.2169 122.181 94.3526C122.473 94.4778 122.781 94.5404 123.104 94.5404C123.344 94.5404 123.569 94.5091 123.777 94.4465C123.996 94.3735 124.174 94.2534 124.31 94.0865C124.445 93.9195 124.513 93.6951 124.513 93.4133C124.513 93.1211 124.43 92.8967 124.263 92.7402C124.106 92.5837 123.903 92.4584 123.652 92.3645C123.412 92.2601 123.156 92.1662 122.885 92.0827C122.436 91.9366 122.066 91.7383 121.774 91.4879C121.492 91.2374 121.351 90.8826 121.351 90.4234C121.351 90.0894 121.429 89.7972 121.586 89.5468C121.753 89.2963 121.977 89.1032 122.259 88.9676C122.541 88.8215 122.859 88.7484 123.214 88.7484C123.537 88.7484 123.856 88.8006 124.169 88.9049C124.492 89.0093 124.784 89.1867 125.045 89.4372L124.717 89.9538C124.55 89.7242 124.325 89.5676 124.043 89.4842C123.772 89.4007 123.532 89.3537 123.323 89.3433C123.146 89.3433 122.958 89.3798 122.76 89.4528C122.572 89.5259 122.41 89.6355 122.274 89.7816C122.149 89.9172 122.087 90.0999 122.087 90.3295C122.087 90.5695 122.154 90.7678 122.29 90.9243C122.426 91.0704 122.598 91.1904 122.807 91.2844C123.026 91.3783 123.25 91.467 123.48 91.5505C123.782 91.6444 124.064 91.7592 124.325 91.8949C124.597 92.0201 124.816 92.1923 124.983 92.4115C125.16 92.6202 125.249 92.902 125.249 93.2568C125.249 93.6116 125.17 93.9351 125.014 94.2273C124.857 94.5091 124.623 94.7335 124.31 94.9005C124.007 95.057 123.621 95.1353 123.151 95.1353Z" fill="white"/>
<defs>
<clipPath id="clip0_0_3625">
<rect width="38.3526" height="58.442" fill="white" transform="translate(43.3623)"/>
</clipPath>
</defs>
</svg>
