<svg width="29" height="29" viewBox="0 0 29 29" fill="none" xmlns="http://www.w3.org/2000/svg">
<path fill-rule="evenodd" clip-rule="evenodd" d="M4.3501 7.25005C4.3501 6.86549 4.50287 6.49667 4.77479 6.22474C5.04672 5.95282 5.41553 5.80005 5.8001 5.80005H23.2001C23.5847 5.80005 23.9535 5.95282 24.2254 6.22474C24.4973 6.49667 24.6501 6.86549 24.6501 7.25005C24.6501 7.63461 24.4973 8.00343 24.2254 8.27535C23.9535 8.54728 23.5847 8.70005 23.2001 8.70005H5.8001C5.41553 8.70005 5.04672 8.54728 4.77479 8.27535C4.50287 8.00343 4.3501 7.63461 4.3501 7.25005Z" fill="white"/>
<path fill-rule="evenodd" clip-rule="evenodd" d="M4.3501 14.5C4.3501 14.1155 4.50287 13.7467 4.77479 13.4747C5.04672 13.2028 5.41553 13.05 5.8001 13.05H23.2001C23.5847 13.05 23.9535 13.2028 24.2254 13.4747C24.4973 13.7467 24.6501 14.1155 24.6501 14.5C24.6501 14.8846 24.4973 15.2534 24.2254 15.5254C23.9535 15.7973 23.5847 15.9501 23.2001 15.9501H5.8001C5.41553 15.9501 5.04672 15.7973 4.77479 15.5254C4.50287 15.2534 4.3501 14.8846 4.3501 14.5Z" fill="white"/>
<path fill-rule="evenodd" clip-rule="evenodd" d="M4.3501 21.75C4.3501 21.3655 4.50287 20.9967 4.77479 20.7247C5.04672 20.4528 5.41553 20.3 5.8001 20.3H23.2001C23.5847 20.3 23.9535 20.4528 24.2254 20.7247C24.4973 20.9967 24.6501 21.3655 24.6501 21.75C24.6501 22.1346 24.4973 22.5034 24.2254 22.7754C23.9535 23.0473 23.5847 23.2001 23.2001 23.2001H5.8001C5.41553 23.2001 5.04672 23.0473 4.77479 22.7754C4.50287 22.5034 4.3501 22.1346 4.3501 21.75Z" fill="white"/>
</svg>
