<svg width="80" height="64" viewBox="0 0 80 64" fill="none" xmlns="http://www.w3.org/2000/svg">
<g clip-path="url(#clip0_0_10840)">
<path d="M45.4334 0.689209C37.6877 0.689209 31.0456 5.42822 28.2325 12.1842C30.8405 11.773 35.6755 10.4414 36.6621 6.15278C36.6621 6.15278 37.209 12.0863 43.5776 13.6334C43.5776 13.6334 42.4445 21.7504 50.6591 23.8164C50.9424 23.8849 51.0694 24.208 50.9326 24.4626L49.6042 26.8027C49.4577 27.0573 49.1159 27.1063 48.9107 26.9006C47.8754 25.8628 44.8669 23.3268 40.9305 24.1297C36.0174 25.1382 34.3764 22.5827 35.9197 18.7444C35.9197 18.7444 27.6367 23.4932 41.204 29.2408C41.204 29.2408 34.6108 29.0351 29.893 26.7146C29.0237 26.2838 28.2716 25.7061 27.6562 25.0207C27.9102 25.8334 28.2228 26.6167 28.5842 27.3804C32.2178 28.8981 35.3337 30.4157 37.0625 30.8172C40.7352 31.6592 43.2455 30.9445 43.2455 30.9445C44.8767 34.7141 43.0306 36.5255 40.3249 37.348C41.9464 37.8082 43.646 38.053 45.4139 38.053C47.7972 38.053 50.0633 37.6026 52.1634 36.7899V1.95229C50.0926 1.13961 47.8168 0.689209 45.4334 0.689209Z" fill="white"/>
<path d="M40.9792 18.7738C41.605 18.7738 42.1123 18.2653 42.1123 17.638C42.1123 17.0107 41.605 16.5022 40.9792 16.5022C40.3535 16.5022 39.8462 17.0107 39.8462 17.638C39.8462 18.2653 40.3535 18.7738 40.9792 18.7738Z" fill="white"/>
</g>
<path d="M13.934 53.9745C13.7473 54.1301 13.3972 54.3402 12.8837 54.6047C12.3858 54.8692 11.7712 55.1026 11.0399 55.3049C10.3086 55.5072 9.49943 55.6005 8.6125 55.585C7.25878 55.5539 6.04509 55.3127 4.97144 54.8614C3.91336 54.3946 3.01087 53.7644 2.26399 52.9709C1.53267 52.1773 0.972505 51.267 0.583503 50.2401C0.194501 49.2131 0 48.1161 0 46.9491C0 45.6421 0.194501 44.444 0.583503 43.3547C0.988065 42.2655 1.55601 41.3242 2.28733 40.5306C3.03421 39.737 3.92114 39.1224 4.9481 38.6867C5.97507 38.251 7.11095 38.0332 8.35576 38.0332C9.50721 38.0332 10.5264 38.1888 11.4133 38.5C12.3002 38.8112 13.0238 39.1457 13.5839 39.5036L12.2536 42.7012C11.8646 42.4056 11.3433 42.1022 10.6898 41.791C10.0518 41.4642 9.31271 41.3008 8.47246 41.3008C7.81894 41.3008 7.18876 41.4409 6.58191 41.7209C5.99063 41.9855 5.46159 42.3667 4.99478 42.8646C4.54354 43.3625 4.18566 43.946 3.92114 44.6151C3.65662 45.2686 3.52436 45.9844 3.52436 46.7624C3.52436 47.5871 3.64106 48.3418 3.87446 49.0264C4.12342 49.711 4.47352 50.3023 4.92476 50.8002C5.37601 51.2826 5.91283 51.6561 6.53523 51.9206C7.1732 52.1851 7.88896 52.3174 8.68252 52.3174C9.60057 52.3174 10.3864 52.1695 11.0399 51.8739C11.6934 51.5783 12.1913 51.267 12.5336 50.9403L13.934 53.9745Z" fill="white"/>
<path d="M31.7721 38.2199V55.3983H28.3878V48.4196H20.7089V55.3983H17.3246V38.2199H20.7089V45.1519H28.3878V38.2199H31.7721Z" fill="white"/>
<path d="M34.8668 50.1701C34.8668 49.1275 35.108 48.1939 35.5904 47.3692C36.0883 46.5446 36.7807 45.8988 37.6677 45.432C38.5546 44.9497 39.5738 44.7085 40.7252 44.7085C41.8922 44.7085 42.9036 44.9497 43.7594 45.432C44.6152 45.8988 45.2688 46.5446 45.72 47.3692C46.1868 48.1939 46.4202 49.1275 46.4202 50.1701C46.4202 51.2126 46.1868 52.154 45.72 52.9942C45.2688 53.8189 44.6152 54.4724 43.7594 54.9548C42.9036 55.4371 41.8767 55.6783 40.6785 55.6783C39.5582 55.6783 38.5546 55.4605 37.6677 55.0248C36.7963 54.5891 36.1117 53.9589 35.6137 53.1343C35.1158 52.3096 34.8668 51.3215 34.8668 50.1701ZM38.1578 50.1934C38.1578 50.7224 38.2667 51.2048 38.4846 51.6405C38.7024 52.0606 38.998 52.3952 39.3715 52.6441C39.7449 52.8931 40.1651 53.0176 40.6319 53.0176C41.1453 53.0176 41.5888 52.8931 41.9622 52.6441C42.3357 52.3952 42.6235 52.0606 42.8258 51.6405C43.0281 51.2048 43.1292 50.7224 43.1292 50.1934C43.1292 49.6488 43.0281 49.1664 42.8258 48.7463C42.6235 48.3262 42.3357 47.9917 41.9622 47.7427C41.5888 47.4937 41.1453 47.3692 40.6319 47.3692C40.1651 47.3692 39.7449 47.4937 39.3715 47.7427C38.998 47.9917 38.7024 48.3262 38.4846 48.7463C38.2667 49.1664 38.1578 49.6488 38.1578 50.1934Z" fill="white"/>
<path d="M51.9352 45.1986L52.2386 47.9994L52.1686 47.5793C52.4643 46.9725 52.8688 46.459 53.3823 46.0389C53.8958 45.6032 54.4015 45.2686 54.8994 45.0352C55.4129 44.8018 55.8019 44.6851 56.0664 44.6851L55.903 47.9528C55.1406 47.8594 54.4871 47.9839 53.9425 48.3262C53.3979 48.6685 52.9777 49.1198 52.6821 49.6799C52.3865 50.2401 52.2386 50.8158 52.2386 51.4071V55.3983H48.9944V45.1986H51.9352Z" fill="white"/>
<path d="M61.8818 55.6083C61.0415 55.6083 60.2557 55.4605 59.5244 55.1648C58.8086 54.8692 58.2018 54.4569 57.7039 53.9278L59.0576 52.1306C59.5555 52.5819 60.0145 52.9086 60.4347 53.1109C60.8703 53.2976 61.2593 53.391 61.6017 53.391C61.8662 53.391 62.0996 53.3677 62.3019 53.321C62.5197 53.2587 62.6909 53.1732 62.8154 53.0642C62.9398 52.9398 63.0021 52.7842 63.0021 52.5974C63.0021 52.3329 62.8932 52.1229 62.6753 51.9673C62.473 51.8117 62.2085 51.6872 61.8818 51.5938C61.555 51.4849 61.2049 51.376 60.8314 51.267C59.8978 50.9714 59.221 50.5435 58.8009 49.9833C58.3963 49.4076 58.194 48.7852 58.194 48.1161C58.194 47.6027 58.3263 47.0892 58.5908 46.5757C58.8709 46.0466 59.3066 45.611 59.8978 45.2686C60.5047 44.9108 61.2827 44.7318 62.2319 44.7318C63.0877 44.7318 63.8112 44.8174 64.4025 44.9886C64.9938 45.1597 65.5539 45.4398 66.083 45.8288L64.8459 47.7427C64.5503 47.5093 64.2158 47.3148 63.8423 47.1592C63.4844 46.988 63.1499 46.8947 62.8387 46.8791C62.5586 46.8635 62.3174 46.8947 62.1152 46.9725C61.9284 47.0503 61.7806 47.1514 61.6717 47.2759C61.5628 47.4004 61.5083 47.5326 61.5083 47.6727C61.4928 47.9683 61.6017 48.2017 61.8351 48.3729C62.084 48.544 62.3952 48.6763 62.7687 48.7697C63.1421 48.863 63.5078 48.9719 63.8657 49.0964C64.3636 49.252 64.7915 49.4621 65.1494 49.7266C65.5072 49.9911 65.7795 50.3101 65.9663 50.6835C66.1686 51.0414 66.2697 51.4771 66.2697 51.9906C66.2697 52.613 66.1063 53.2043 65.7795 53.7644C65.4684 54.309 64.986 54.7525 64.3325 55.0948C63.6945 55.4372 62.8776 55.6083 61.8818 55.6083Z" fill="white"/>
<path d="M74.0248 55.6783C72.78 55.6783 71.7219 55.4449 70.8506 54.9781C69.9948 54.5113 69.3412 53.8656 68.89 53.0409C68.4387 52.2162 68.2131 51.267 68.2131 50.1934C68.2131 49.1664 68.4776 48.2406 69.0067 47.4159C69.5357 46.5912 70.2437 45.9377 71.1306 45.4554C72.0176 44.9574 73.0056 44.7085 74.0948 44.7085C75.5575 44.7085 76.7556 45.1364 77.6892 45.9922C78.6384 46.8324 79.253 48.0539 79.5331 49.6566L71.5974 52.1773L70.8739 50.4035L76.6156 48.4662L75.9387 48.7697C75.8142 48.3651 75.5886 48.015 75.2618 47.7194C74.9506 47.4081 74.4761 47.2525 73.8381 47.2525C73.3557 47.2525 72.9278 47.3692 72.5544 47.6027C72.1965 47.8205 71.9164 48.1395 71.7141 48.5596C71.5274 48.9642 71.4341 49.4465 71.4341 50.0067C71.4341 50.6446 71.5508 51.1815 71.7842 51.6172C72.0176 52.0373 72.3365 52.3563 72.7411 52.5741C73.1457 52.7919 73.5969 52.9009 74.0948 52.9009C74.4527 52.9009 74.795 52.8386 75.1218 52.7141C75.4641 52.5897 75.7987 52.4263 76.1254 52.224L77.5725 54.6514C77.0279 54.9626 76.4366 55.2115 75.7987 55.3983C75.1763 55.585 74.585 55.6783 74.0248 55.6783Z" fill="white"/>
<path d="M55.4981 63.3106C55.278 63.3106 55.0679 63.2839 54.8679 63.2306C54.6678 63.1839 54.4711 63.1006 54.2777 62.9805C54.0843 62.8605 53.8843 62.7038 53.6775 62.5104L53.9576 62.1903C54.2444 62.4637 54.5111 62.6471 54.7578 62.7404C55.0046 62.8405 55.2447 62.8905 55.4781 62.8905C55.8848 62.8905 56.2083 62.8238 56.4483 62.6904C56.6884 62.5637 56.8618 62.3903 56.9685 62.1703C57.0752 61.9569 57.1319 61.7168 57.1385 61.4501L57.1485 60.1797L57.2586 60.2997C57.1252 60.6465 56.8851 60.9299 56.5384 61.15C56.1983 61.3701 55.8115 61.4801 55.378 61.4801C55.0112 61.4801 54.6745 61.3901 54.3677 61.21C54.0676 61.0233 53.8276 60.7765 53.6475 60.4698C53.4675 60.1564 53.3774 59.8096 53.3774 59.4295C53.3774 59.0227 53.4708 58.6659 53.6575 58.3592C53.8442 58.0524 54.0977 57.8124 54.4177 57.639C54.7378 57.4589 55.0913 57.3689 55.4781 57.3689C55.8382 57.3689 56.1783 57.4622 56.4983 57.649C56.8251 57.8357 57.0618 58.0824 57.2086 58.3892L57.1485 58.6092L57.1986 57.4889H57.6187V61.4601C57.6187 61.7802 57.5453 62.0803 57.3986 62.3603C57.2586 62.6471 57.0318 62.8772 56.7184 63.0505C56.4117 63.2239 56.0049 63.3106 55.4981 63.3106ZM53.8476 59.4195C53.8476 59.7262 53.9209 60.0063 54.0676 60.2597C54.2144 60.5065 54.4111 60.7065 54.6578 60.8599C54.9112 61.0066 55.1913 61.08 55.4981 61.08C55.7915 61.08 56.0582 61.0166 56.2983 60.8899C56.5384 60.7565 56.7351 60.5798 56.8885 60.3598C57.0418 60.1397 57.1285 59.903 57.1485 59.6496V59.0694C57.0952 58.816 56.9885 58.5926 56.8284 58.3992C56.6751 58.2058 56.4817 58.0524 56.2483 57.9391C56.0215 57.8257 55.7715 57.769 55.4981 57.769C55.1913 57.769 54.9112 57.839 54.6578 57.9791C54.4111 58.1191 54.2144 58.3125 54.0676 58.5592C53.9209 58.806 53.8476 59.0927 53.8476 59.4195Z" fill="white"/>
<path d="M61.0242 61.4801C60.6508 61.4801 60.3107 61.3967 60.0039 61.23C59.7038 61.0566 59.4637 60.8166 59.2837 60.5098C59.1103 60.203 59.0236 59.8463 59.0236 59.4395C59.0236 59.006 59.117 58.6359 59.3037 58.3292C59.4904 58.0157 59.7438 57.779 60.0639 57.619C60.384 57.4522 60.7474 57.3689 61.1542 57.3689C61.501 57.3689 61.8278 57.4723 62.1345 57.679C62.4479 57.8857 62.6713 58.1458 62.8047 58.4592L62.7347 58.5992L62.7947 57.4889H63.2148V61.4001H62.7447V60.1897L62.8447 60.3698C62.798 60.5031 62.718 60.6365 62.6047 60.7699C62.4913 60.8966 62.3512 61.0166 62.1845 61.13C62.0245 61.2367 61.8444 61.3234 61.6444 61.3901C61.451 61.4501 61.2443 61.4801 61.0242 61.4801ZM61.1242 61.08C61.4176 61.08 61.6811 61.02 61.9145 60.8999C62.1545 60.7732 62.3479 60.5998 62.4946 60.3798C62.6413 60.1597 62.7247 59.9063 62.7447 59.6195V59.0594C62.6913 58.8126 62.5846 58.5926 62.4246 58.3992C62.2712 58.2058 62.0812 58.0524 61.8544 57.9391C61.6277 57.8257 61.381 57.769 61.1142 57.769C60.8208 57.769 60.5507 57.839 60.304 57.9791C60.0572 58.1124 59.8605 58.3025 59.7138 58.5492C59.5671 58.796 59.4938 59.0861 59.4938 59.4195C59.4938 59.7262 59.5671 60.0063 59.7138 60.2597C59.8605 60.5065 60.0572 60.7065 60.304 60.8599C60.5574 61.0066 60.8308 61.08 61.1242 61.08Z" fill="white"/>
<path d="M65.4014 57.4889L65.4514 58.5792L65.3814 58.4792C65.5148 58.1391 65.7348 57.8724 66.0416 57.679C66.355 57.4789 66.6951 57.3789 67.0619 57.3789C67.282 57.3789 67.4787 57.4222 67.6521 57.5089C67.8321 57.589 67.9755 57.7023 68.0822 57.849C68.1955 57.9891 68.2622 58.1525 68.2822 58.3392L68.2222 58.3992C68.3623 58.0658 68.5823 57.8124 68.8824 57.639C69.1825 57.4656 69.5059 57.3789 69.8527 57.3789C70.2261 57.3789 70.5229 57.4889 70.743 57.709C70.963 57.9224 71.0764 58.2025 71.0831 58.5492V61.4001H70.6129V58.6493C70.6063 58.4159 70.5329 58.2191 70.3929 58.0591C70.2528 57.8924 70.0394 57.8023 69.7527 57.789C69.4926 57.789 69.2525 57.8557 69.0325 57.9891C68.8124 58.1224 68.6323 58.2992 68.4923 58.5192C68.3589 58.7393 68.2856 58.986 68.2722 59.2594V61.4001H67.8021V58.6493C67.7954 58.4159 67.7187 58.2191 67.572 58.0591C67.432 57.8924 67.2186 57.8023 66.9318 57.789C66.6651 57.789 66.4184 57.8557 66.1916 57.9891C65.9716 58.1224 65.7949 58.3058 65.6615 58.5392C65.5281 58.766 65.4614 59.0194 65.4614 59.2995V61.4001H64.9913V57.4889H65.4014Z" fill="white"/>
<path d="M74.5652 61.4801C74.1584 61.4801 73.7983 61.3901 73.4848 61.21C73.1714 61.03 72.9247 60.7865 72.7446 60.4798C72.5712 60.1664 72.4846 59.8163 72.4846 59.4295C72.4846 59.0494 72.5779 58.7026 72.7646 58.3892C72.9514 58.0758 73.2014 57.8257 73.5149 57.639C73.8349 57.4522 74.1884 57.3589 74.5752 57.3589C75.042 57.3589 75.4321 57.4956 75.7455 57.769C76.0656 58.0424 76.2957 58.3992 76.4357 58.8393L73.0147 60.1597L72.8747 59.8196L76.0056 58.5992L75.9056 58.7393C75.7922 58.4725 75.6188 58.2425 75.3854 58.0491C75.1587 57.8557 74.8786 57.759 74.5452 57.759C74.2451 57.759 73.975 57.8324 73.7349 57.9791C73.4949 58.1258 73.3015 58.3225 73.1548 58.5692C73.0147 58.816 72.9447 59.0961 72.9447 59.4095C72.9447 59.7029 73.0114 59.9763 73.1447 60.2297C73.2848 60.4831 73.4782 60.6865 73.7249 60.8399C73.9717 60.9933 74.2551 61.07 74.5752 61.07C74.7886 61.07 74.992 61.03 75.1853 60.9499C75.3854 60.8699 75.5621 60.7665 75.7155 60.6398L75.9556 60.9799C75.7688 61.1266 75.5521 61.2467 75.3054 61.34C75.0653 61.4334 74.8186 61.4801 74.5652 61.4801Z" fill="white"/>
<path d="M78.6594 61.4801C78.4327 61.4801 78.1959 61.4401 77.9492 61.36C77.7025 61.2734 77.5024 61.1367 77.349 60.9499L77.5691 60.6398C77.7025 60.7799 77.8592 60.8932 78.0392 60.9799C78.2259 61.06 78.4227 61.1 78.6294 61.1C78.7828 61.1 78.9261 61.08 79.0595 61.04C79.1996 60.9933 79.3129 60.9166 79.3996 60.8099C79.4863 60.7032 79.5297 60.5598 79.5297 60.3798C79.5297 60.193 79.4763 60.0497 79.3696 59.9496C79.2696 59.8496 79.1395 59.7696 78.9795 59.7096C78.8261 59.6429 78.6627 59.5829 78.4893 59.5295C78.2026 59.4362 77.9659 59.3095 77.7791 59.1494C77.5991 58.9894 77.5091 58.7626 77.5091 58.4692C77.5091 58.2558 77.5591 58.0691 77.6591 57.909C77.7658 57.749 77.9092 57.6256 78.0892 57.5389C78.2693 57.4456 78.4727 57.3989 78.6994 57.3989C78.9061 57.3989 79.1095 57.4322 79.3096 57.4989C79.5163 57.5656 79.703 57.679 79.8697 57.839L79.6597 58.1691C79.553 58.0224 79.4096 57.9224 79.2296 57.869C79.0562 57.8157 78.9028 57.7857 78.7694 57.779C78.6561 57.779 78.536 57.8023 78.4093 57.849C78.2893 57.8957 78.1859 57.9657 78.0992 58.0591C78.0192 58.1458 77.9792 58.2625 77.9792 58.4092C77.9792 58.5626 78.0225 58.6893 78.1092 58.7893C78.1959 58.8827 78.306 58.9594 78.4393 59.0194C78.5794 59.0794 78.7227 59.1361 78.8695 59.1894C79.0628 59.2494 79.2429 59.3228 79.4096 59.4095C79.583 59.4895 79.723 59.5995 79.8297 59.7396C79.9431 59.873 79.9998 60.053 79.9998 60.2797C79.9998 60.5065 79.9498 60.7132 79.8497 60.8999C79.7497 61.08 79.5997 61.2233 79.3996 61.33C79.2062 61.4301 78.9595 61.4801 78.6594 61.4801Z" fill="white"/>
<defs>
<clipPath id="clip0_0_10840">
<rect width="24.5071" height="37.3442" fill="white" transform="translate(27.6758 0.689209)"/>
</clipPath>
</defs>
</svg>
