<svg width="58" height="49" viewBox="0 0 58 49" fill="none" xmlns="http://www.w3.org/2000/svg">
<path d="M29 5C28.7348 5 28.4804 5.10536 28.2929 5.29289C28.1054 5.48043 28 5.73478 28 6V10C28 10.2652 28.1054 10.5196 28.2929 10.7071C28.4804 10.8946 28.7348 11 29 11C29.2652 11 29.5196 10.8946 29.7071 10.7071C29.8946 10.5196 30 10.2652 30 10V6C30 5.73478 29.8946 5.48043 29.7071 5.29289C29.5196 5.10536 29.2652 5 29 5Z" fill="white"/>
<path fill-rule="evenodd" clip-rule="evenodd" d="M21 8C21 5.87827 21.8429 3.84344 23.3431 2.34315C24.8434 0.842855 26.8783 0 29 0C31.1217 0 33.1566 0.842855 34.6569 2.34315C36.1571 3.84344 37 5.87827 37 8V16C37 18.1217 36.1571 20.1566 34.6569 21.6569C33.1566 23.1571 31.1217 24 29 24C26.8783 24 24.8434 23.1571 23.3431 21.6569C21.8429 20.1566 21 18.1217 21 16V8ZM35 8V16C35 17.5913 34.3679 19.1174 33.2426 20.2426C32.1174 21.3679 30.5913 22 29 22C27.4087 22 25.8826 21.3679 24.7574 20.2426C23.6321 19.1174 23 17.5913 23 16V8C23 6.4087 23.6321 4.88258 24.7574 3.75736C25.8826 2.63214 27.4087 2 29 2C30.5913 2 32.1174 2.63214 33.2426 3.75736C34.3679 4.88258 35 6.4087 35 8V8Z" fill="white"/>
<path d="M4.2645 44.896C5.88583 44.896 6.6965 44.3413 6.6965 43.232C6.6965 42.8907 6.62183 42.6027 6.4725 42.368C6.33383 42.1227 6.14183 41.9147 5.8965 41.744C5.65117 41.5627 5.3685 41.408 5.0485 41.28C4.73917 41.152 4.4085 41.024 4.0565 40.896C3.65117 40.7573 3.26717 40.6027 2.9045 40.432C2.54183 40.2507 2.22717 40.0427 1.9605 39.808C1.69383 39.5627 1.4805 39.2747 1.3205 38.944C1.17117 38.6133 1.0965 38.2133 1.0965 37.744C1.0965 36.7733 1.42717 36.016 2.0885 35.472C2.74983 34.928 3.66183 34.656 4.8245 34.656C5.4965 34.656 6.1045 34.7307 6.6485 34.88C7.20317 35.0187 7.6085 35.1733 7.8645 35.344L7.3685 36.608C7.1445 36.4693 6.8085 36.336 6.3605 36.208C5.92317 36.0693 5.41117 36 4.8245 36C4.52583 36 4.2485 36.032 3.9925 36.096C3.7365 36.16 3.5125 36.256 3.3205 36.384C3.1285 36.512 2.97383 36.6773 2.8565 36.88C2.74983 37.072 2.6965 37.3013 2.6965 37.568C2.6965 37.8667 2.75517 38.1173 2.8725 38.32C2.98983 38.5227 3.15517 38.704 3.3685 38.864C3.58183 39.0133 3.82717 39.152 4.1045 39.28C4.3925 39.408 4.70717 39.536 5.0485 39.664C5.5285 39.856 5.96583 40.048 6.3605 40.24C6.76583 40.432 7.1125 40.6613 7.4005 40.928C7.69917 41.1947 7.9285 41.5147 8.0885 41.888C8.2485 42.2507 8.3285 42.6933 8.3285 43.216C8.3285 44.1867 7.97117 44.9333 7.2565 45.456C6.5525 45.9787 5.55517 46.24 4.2645 46.24C3.82717 46.24 3.42183 46.208 3.0485 46.144C2.68583 46.0907 2.3605 46.0267 2.0725 45.952C1.7845 45.8667 1.53383 45.7813 1.3205 45.696C1.11783 45.6 0.957833 45.52 0.8405 45.456L1.3045 44.176C1.54983 44.3147 1.92317 44.4693 2.4245 44.64C2.92583 44.8107 3.53917 44.896 4.2645 44.896ZM14.9721 46.24C14.1935 46.24 13.4841 46.112 12.8441 45.856C12.2041 45.6 11.6548 45.2267 11.1961 44.736C10.7375 44.2453 10.3801 43.6427 10.1241 42.928C9.87879 42.2027 9.75613 41.376 9.75613 40.448C9.75613 39.52 9.89479 38.6987 10.1721 37.984C10.4601 37.2587 10.8441 36.6507 11.3241 36.16C11.8041 35.6693 12.3641 35.296 13.0041 35.04C13.6441 34.784 14.3268 34.656 15.0521 34.656C15.5108 34.656 15.9215 34.688 16.2841 34.752C16.6575 34.816 16.9775 34.8907 17.2441 34.976C17.5215 35.0613 17.7455 35.1467 17.9161 35.232C18.0868 35.3173 18.2041 35.3813 18.2681 35.424L17.8201 36.704C17.7241 36.64 17.5855 36.5707 17.4041 36.496C17.2228 36.4213 17.0148 36.3467 16.7801 36.272C16.5561 36.1973 16.3055 36.1387 16.0281 36.096C15.7615 36.0427 15.4895 36.016 15.2121 36.016C14.6255 36.016 14.0975 36.1173 13.6281 36.32C13.1588 36.5227 12.7588 36.816 12.4281 37.2C12.0975 37.584 11.8415 38.0533 11.6601 38.608C11.4895 39.152 11.4041 39.7653 11.4041 40.448C11.4041 41.1093 11.4788 41.712 11.6281 42.256C11.7881 42.8 12.0228 43.2693 12.3321 43.664C12.6415 44.048 13.0255 44.3467 13.4841 44.56C13.9535 44.7733 14.4975 44.88 15.1161 44.88C15.8308 44.88 16.4228 44.8053 16.8921 44.656C17.3615 44.5067 17.7135 44.3733 17.9481 44.256L18.3481 45.536C18.2735 45.5893 18.1401 45.6587 17.9481 45.744C17.7561 45.8187 17.5161 45.8933 17.2281 45.968C16.9401 46.0427 16.6041 46.1067 16.2201 46.16C15.8361 46.2133 15.4201 46.24 14.9721 46.24ZM25.55 41.36C25.7207 41.5733 25.934 41.856 26.19 42.208C26.4567 42.5493 26.7287 42.9333 27.006 43.36C27.2833 43.776 27.5553 44.2133 27.822 44.672C28.0993 45.1307 28.334 45.5733 28.526 46H26.83C26.6167 45.5947 26.382 45.184 26.126 44.768C25.8807 44.352 25.63 43.9573 25.374 43.584C25.118 43.2 24.862 42.8427 24.606 42.512C24.3607 42.1813 24.1367 41.8933 23.934 41.648C23.7953 41.6587 23.6513 41.664 23.502 41.664C23.3633 41.664 23.2193 41.664 23.07 41.664H21.678V46H20.126V35.072C20.5633 34.9653 21.0487 34.896 21.582 34.864C22.126 34.8213 22.622 34.8 23.07 34.8C24.6273 34.8 25.8113 35.0933 26.622 35.68C27.4433 36.2667 27.854 37.1413 27.854 38.304C27.854 39.04 27.6567 39.6693 27.262 40.192C26.878 40.7147 26.3073 41.104 25.55 41.36ZM23.198 36.16C22.5367 36.16 22.03 36.176 21.678 36.208V40.384H22.782C23.3153 40.384 23.7953 40.3573 24.222 40.304C24.6487 40.2507 25.006 40.1493 25.294 40C25.5927 39.8507 25.822 39.6427 25.982 39.376C26.142 39.0987 26.222 38.736 26.222 38.288C26.222 37.872 26.142 37.5253 25.982 37.248C25.822 36.9707 25.6033 36.752 25.326 36.592C25.0593 36.432 24.7393 36.32 24.366 36.256C24.0033 36.192 23.614 36.16 23.198 36.16ZM29.5686 40.448C29.5686 39.4987 29.7073 38.6613 29.9846 37.936C30.2726 37.2107 30.6566 36.608 31.1366 36.128C31.6273 35.6373 32.1926 35.2693 32.8326 35.024C33.4833 34.7787 34.1713 34.656 34.8966 34.656C35.6113 34.656 36.2833 34.7787 36.9126 35.024C37.5526 35.2693 38.1126 35.6373 38.5926 36.128C39.0726 36.608 39.4513 37.2107 39.7286 37.936C40.0166 38.6613 40.1606 39.4987 40.1606 40.448C40.1606 41.3973 40.0166 42.2347 39.7286 42.96C39.4513 43.6853 39.0726 44.2933 38.5926 44.784C38.1126 45.264 37.5526 45.6267 36.9126 45.872C36.2833 46.1173 35.6113 46.24 34.8966 46.24C34.1713 46.24 33.4833 46.1173 32.8326 45.872C32.1926 45.6267 31.6273 45.264 31.1366 44.784C30.6566 44.2933 30.2726 43.6853 29.9846 42.96C29.7073 42.2347 29.5686 41.3973 29.5686 40.448ZM31.2006 40.448C31.2006 41.12 31.286 41.7333 31.4566 42.288C31.6273 42.832 31.8673 43.296 32.1766 43.68C32.4966 44.064 32.8806 44.3627 33.3286 44.576C33.7873 44.7787 34.2993 44.88 34.8646 44.88C35.43 44.88 35.9366 44.7787 36.3846 44.576C36.8326 44.3627 37.2113 44.064 37.5206 43.68C37.8406 43.296 38.086 42.832 38.2566 42.288C38.4273 41.7333 38.5126 41.12 38.5126 40.448C38.5126 39.776 38.4273 39.168 38.2566 38.624C38.086 38.0693 37.8406 37.6 37.5206 37.216C37.2113 36.832 36.8326 36.5387 36.3846 36.336C35.9366 36.1227 35.43 36.016 34.8646 36.016C34.2993 36.016 33.7873 36.1227 33.3286 36.336C32.8806 36.5387 32.4966 36.832 32.1766 37.216C31.8673 37.6 31.6273 38.0693 31.4566 38.624C31.286 39.168 31.2006 39.776 31.2006 40.448ZM49.1418 44.656V46H42.4698V34.912H44.0218V44.656H49.1418ZM57.4386 44.656V46H50.7666V34.912H52.3186V44.656H57.4386Z" fill="white"/>
</svg>
