<svg width="320" height="568" viewBox="0 0 320 568" fill="none" xmlns="http://www.w3.org/2000/svg">
<g clip-path="url(#clip0_0_9773)">
<rect width="320" height="568" fill="white"/>
<rect x="-1" width="322" height="568" fill="url(#paint0_radial_0_9773)"/>
<path d="M23.6459 477.659C44.4706 478.429 64.6162 485.177 84.1733 492.378C94.9931 496.363 107.578 500.394 117.448 494.461C119.802 493.057 121.884 491.11 124.238 489.66C136.326 482.188 151.672 488.664 165.344 492.468C180.465 496.68 196.581 497.359 212.019 494.416C220.666 492.785 230.172 488.981 233.115 480.693C235.016 475.304 233.523 469.281 234.519 463.62C235.696 456.872 240.675 450.939 247.059 448.539C253.487 446.139 261.138 447.407 266.435 451.709C273.271 457.234 276.666 467.424 285.177 469.643C292.103 471.455 299.301 466.609 302.968 460.45C306.635 454.29 307.767 446.999 309.578 440.07C311.389 433.141 314.331 425.985 320.307 422C326.509 426.438 329.724 434.001 331.082 441.519C332.44 449.037 332.168 456.691 332.893 464.299C334.975 486.264 345.161 749.031 344.618 771.086C344.572 773.305 344.391 775.615 343.395 777.653C340.453 783.495 332.485 784.084 325.921 783.812C212.471 779.555 99.0222 775.343 -14.4271 771.086C-19.4069 770.905 -24.7036 770.633 -28.778 767.825C-35.0707 763.523 -36.3382 513.029 -35.9308 505.919C-35.5234 498.899 -32.2186 495.774 -26.7408 491.744C-12.254 481.146 5.9902 476.98 23.6459 477.659Z" fill="#1B174E"/>
<path d="M22.9215 479.38C22.1972 477.478 21.7898 475.485 21.654 473.447C21.6087 472.541 21.5634 471.545 20.9749 470.866C20.658 470.504 20.2505 470.322 19.8431 470.096C17.8965 469.1 15.9045 468.103 13.9579 467.152C13.3693 467.333 12.7355 467.696 12.147 467.967C11.5585 468.239 10.97 468.466 10.3362 468.42C9.70239 468.375 9.0686 468.013 8.88751 467.379C9.47603 466.926 10.0646 466.518 10.6531 466.065C10.9247 465.839 11.2869 465.522 11.1511 465.205C10.2909 465.069 9.70239 464.344 9.11387 463.71C8.29899 462.85 7.30303 462.171 6.21652 461.718C4.36041 461.989 1.77996 461.355 0.195468 460.359C-0.166701 460.133 -0.574142 459.725 -0.393058 459.317C-0.166702 458.864 0.467093 459 0.965074 459.136C2.73065 459.634 4.9942 458.864 5.3111 457.098C5.58272 455.558 4.26986 453.883 4.9942 452.479C6.94086 453.838 7.80101 456.6 6.98613 458.864C6.89559 459.091 6.80504 459.363 6.89559 459.634C6.98613 459.816 7.12194 459.951 7.30302 460.087C8.57061 460.993 9.79293 461.944 11.0605 462.85C11.2869 463.031 11.6038 463.212 11.8754 463.122C12.1923 463.031 12.2828 462.669 12.3281 462.352C12.5997 460.767 12.5545 459.182 12.2376 457.596C12.8261 457.279 13.4146 458.049 13.641 458.683C14.2295 460.359 14.4106 462.125 14.2295 463.891C14.1842 464.254 14.139 464.661 14.32 464.978C14.4559 465.25 14.7275 465.386 14.9538 465.567C15.7234 466.065 16.5383 466.518 17.3079 467.016C17.8965 465.386 17.8512 463.257 17.1268 461.672C16.9005 461.129 16.5836 460.631 16.5383 460.087C16.493 459.499 16.8099 458.864 17.3985 458.819C18.0323 459.725 18.6208 460.585 19.2546 461.491C19.9336 461.219 20.2958 460.45 20.3411 459.68C20.3864 458.955 20.2053 458.23 20.0242 457.506C19.662 455.966 19.4809 454.381 19.5262 452.796C20.4769 453.294 21.1107 454.245 21.4729 455.241C21.835 456.238 21.9708 457.325 22.1067 458.366C22.5141 457.778 23.0574 457.279 23.6911 457.008C24.0986 456.827 24.5513 456.736 24.9587 456.872C25.3662 457.053 25.6378 457.551 25.4115 457.959C25.2756 458.185 25.0493 458.276 24.8229 458.366C24.008 458.819 23.4195 459.68 22.8763 460.45C22.2877 461.31 21.6992 462.216 21.0654 463.076C20.2053 464.39 19.2546 465.929 19.7978 467.424C21.156 467.786 22.6499 467.832 23.8722 467.107C24.1891 466.926 24.4608 466.654 24.7324 466.382C25.004 466.111 25.2756 465.839 25.502 465.522C25.5473 465.431 25.6378 465.341 25.6378 465.205C25.6378 465.114 25.5473 465.024 25.4567 464.933C25.004 464.435 24.6418 463.891 24.4155 463.303C24.3249 463.076 24.2344 462.85 24.2797 462.578C24.3702 462.171 24.9135 461.944 25.3209 462.035C25.7736 462.125 26.0905 462.397 26.4527 462.714C26.9507 463.122 27.4487 463.574 27.9466 463.982C29.2142 461.718 30.2555 459.453 30.844 456.917C31.523 457.189 31.8852 457.959 31.9305 458.683C31.9758 459.408 31.7494 460.133 31.523 460.812C32.9264 459.997 34.4657 459.453 36.0501 459.227C36.367 459.182 36.7292 459.182 36.9103 459.453C36.9556 459.589 36.9556 459.725 36.9103 459.861C36.7292 460.676 35.9596 461.219 35.19 461.627C34.4204 461.989 33.5602 462.261 32.7001 462.397C32.4285 462.442 32.1568 462.488 31.9305 462.623C31.6136 462.805 31.4778 463.167 31.2967 463.484C30.2555 465.477 28.3541 467.016 26.1358 467.56C26.4074 468.42 26.9959 469.19 27.2676 470.005C31.0251 468.466 34.8731 466.835 37.4988 463.756C37.7704 463.439 38.2684 463.122 38.5401 463.439C38.6306 463.574 38.6306 463.756 38.6306 463.891C38.5401 465.295 37.7252 466.654 36.4576 467.379C38.1326 466.88 40.034 466.971 41.6638 467.65C42.0259 467.786 42.4334 468.103 42.3881 468.466C42.3881 468.692 42.207 468.828 42.0712 468.964C40.7131 470.096 38.6759 469.054 36.9103 469.1C35.5974 469.1 34.3298 469.734 33.1075 470.277C31.7947 470.821 30.3913 471.228 28.9426 471.455C28.4899 471.545 28.0372 471.59 27.7203 471.862C27.3128 472.224 27.2223 472.858 27.1318 473.402C26.9054 475.53 26.6338 477.704 26.4074 479.833C25.1398 480.195 24.3249 479.788 22.9215 479.38Z" fill="#1B174E"/>
<path d="M290.972 469.507C289.885 466.563 289.206 463.439 289.025 460.314C288.935 458.91 288.89 457.37 287.939 456.283C287.441 455.74 286.807 455.423 286.173 455.106C283.14 453.566 280.107 452.071 277.074 450.531C276.123 450.803 275.172 451.392 274.267 451.8C273.407 452.207 272.456 452.569 271.505 452.524C270.555 452.479 269.559 451.89 269.287 450.939C270.193 450.26 271.098 449.58 272.003 448.946C272.456 448.629 272.954 448.131 272.773 447.633C271.46 447.407 270.555 446.274 269.604 445.323C268.336 444.01 266.797 442.968 265.122 442.244C262.27 442.651 258.241 441.7 255.796 440.161C255.208 439.798 254.619 439.164 254.891 438.53C255.208 437.806 256.249 438.032 257.019 438.258C259.735 439.028 263.266 437.851 263.764 435.088C264.172 432.688 262.18 430.152 263.266 427.978C266.299 430.107 267.612 434.364 266.345 437.851C266.209 438.213 266.028 438.666 266.163 439.028C266.254 439.3 266.526 439.526 266.797 439.708C268.744 441.157 270.691 442.561 272.637 444.01C272.999 444.282 273.452 444.553 273.86 444.418C274.312 444.282 274.493 443.693 274.584 443.24C274.991 440.84 274.946 438.304 274.493 435.903C275.444 435.451 276.349 436.583 276.666 437.579C277.572 440.161 277.889 442.923 277.526 445.595C277.436 446.184 277.345 446.818 277.662 447.316C277.889 447.724 278.296 447.95 278.658 448.176C279.881 448.901 281.103 449.671 282.325 450.396C283.231 447.859 283.185 444.553 282.054 442.108C281.691 441.293 281.193 440.523 281.148 439.617C281.058 438.757 281.601 437.715 282.461 437.624C283.412 438.983 284.362 440.342 285.313 441.7C286.354 441.247 286.943 440.07 287.033 438.938C287.124 437.806 286.807 436.673 286.535 435.541C285.992 433.186 285.721 430.741 285.766 428.295C287.214 429.11 288.21 430.559 288.799 432.099C289.387 433.639 289.569 435.315 289.75 436.945C290.338 436.039 291.198 435.269 292.194 434.817C292.828 434.545 293.552 434.364 294.186 434.635C294.82 434.907 295.227 435.722 294.865 436.311C294.684 436.628 294.322 436.809 293.96 436.99C292.647 437.715 291.787 438.983 290.972 440.206C290.067 441.564 289.116 442.923 288.21 444.282C286.852 446.274 285.449 448.72 286.264 450.984C288.392 451.528 290.7 451.618 292.602 450.531C293.1 450.26 293.552 449.852 293.96 449.445C294.367 449.037 294.775 448.629 295.137 448.131C295.227 447.995 295.318 447.814 295.318 447.678C295.318 447.497 295.182 447.361 295.046 447.225C294.367 446.501 293.824 445.64 293.417 444.689C293.281 444.327 293.145 443.965 293.236 443.602C293.371 442.923 294.186 442.606 294.865 442.742C295.544 442.878 296.088 443.331 296.586 443.784C297.355 444.418 298.125 445.097 298.894 445.731C300.841 442.244 302.471 438.711 303.422 434.817C304.463 435.224 305.051 436.402 305.142 437.534C305.232 438.666 304.87 439.753 304.508 440.84C306.636 439.617 309.035 438.757 311.48 438.394C311.978 438.304 312.566 438.349 312.793 438.757C312.883 438.938 312.883 439.209 312.838 439.436C312.521 440.704 311.344 441.564 310.167 442.108C308.945 442.697 307.677 443.104 306.319 443.331C305.911 443.421 305.459 443.467 305.142 443.693C304.689 444.01 304.417 444.508 304.146 445.006C302.516 448.086 299.573 450.441 296.223 451.301C296.631 452.615 297.582 453.792 297.989 455.106C303.784 452.751 309.759 450.214 313.834 445.504C314.241 445.006 315.011 444.508 315.418 445.006C315.554 445.187 315.599 445.459 315.554 445.731C315.418 447.905 314.105 450.033 312.204 451.075C314.83 450.26 317.727 450.441 320.217 451.528C320.76 451.754 321.394 452.207 321.349 452.796C321.304 453.113 321.077 453.385 320.851 453.611C318.723 455.332 315.645 453.747 312.883 453.792C310.846 453.837 308.945 454.789 307.043 455.558C304.961 456.419 302.833 457.008 300.66 457.37C299.981 457.506 299.302 457.596 298.759 458.049C298.08 458.638 297.944 459.589 297.853 460.45C297.491 463.756 297.084 467.062 296.721 470.368C294.413 470.82 293.145 470.141 290.972 469.507Z" fill="#1B174E"/>
<path d="M27.6748 478.701C28.3539 477.116 29.0782 475.485 30.3005 474.308C31.4323 473.221 32.881 472.587 34.3296 471.998C37.1817 470.821 40.6223 469.779 43.2028 471.5C46.0096 471.455 48.8164 471.772 51.5327 472.406C52.1664 472.541 52.8455 472.723 53.2982 473.221C53.7057 473.628 53.9773 474.353 54.5658 474.308C54.8827 474.308 55.1091 474.081 55.426 474.036C55.9239 473.991 56.2861 474.534 56.7388 474.761C57.2821 475.032 57.9159 474.896 58.5497 474.942C59.1382 474.942 59.9078 475.213 59.9983 475.802C60.0436 476.21 59.8173 476.617 59.9983 476.98C60.2247 477.433 60.8132 477.387 61.2659 477.523C61.8545 477.704 62.3072 478.248 62.3977 478.837C64.5254 479.923 66.2457 481.871 67.4681 483.909C67.7397 484.362 67.9661 484.815 68.0566 485.267C68.1924 486.037 68.0113 486.852 67.785 487.622C67.5586 488.483 67.3323 489.343 66.789 490.068C65.793 491.381 64.0275 491.834 62.3977 491.698C60.768 491.562 59.2287 490.883 57.6895 490.385C53.6604 489.117 49.4049 488.8 45.2852 487.849C39.7169 486.581 34.5107 484.18 29.3046 481.78C28.3991 481.418 27.9012 479.652 27.6748 478.701Z" fill="#1B174E"/>
<path d="M72.7198 490.068C70.9543 489.117 70.0488 486.852 70.6374 484.905C71.0901 483.501 72.2218 482.233 72.1766 480.784C72.1313 479.154 70.6826 477.885 69.1887 477.206C67.6947 476.527 66.0197 476.119 64.7521 475.078C62.4886 473.13 62.3075 469.688 62.9413 466.745C62.7149 468.466 64.0278 470.051 65.567 470.866C67.061 471.726 68.8265 472.043 70.411 472.677C71.9955 473.311 73.58 474.444 74.0327 476.119C74.3496 477.387 74.4401 478.565 74.4854 479.878C74.4854 480.331 74.5307 480.874 74.8476 481.237C75.5266 482.097 76.9753 481.508 77.6544 480.603C78.8767 479.063 79.1936 476.889 78.4693 475.078C77.2017 471.817 73.3084 470.368 71.4975 467.379C70.3657 465.477 70.1847 463.167 70.5016 460.993C70.8185 458.819 71.4975 456.736 72.0408 454.562C72.7651 451.709 73.1273 448.675 72.6746 445.776C72.2218 442.878 70.7279 440.025 68.3285 438.258C71.9049 440.161 74.8476 443.331 76.4321 447.044C78.0166 450.758 78.2882 455.06 77.2017 459C76.9753 459.725 76.749 460.45 76.749 461.219C76.749 463.529 78.922 465.16 80.5065 466.88C82.3173 468.873 83.4491 471.409 83.5396 474.081C83.6754 476.753 82.7247 479.471 80.8686 481.373C81.3666 482.46 82.0457 483.501 82.5437 484.633C84.7619 484.135 86.7086 482.686 87.7951 480.739C88.8816 478.791 89.108 476.346 88.4289 474.217C87.9762 472.858 87.116 471.59 86.5275 470.277C85.8937 468.918 85.4863 467.379 85.6221 465.884C85.8937 463.031 87.8856 460.767 89.3796 458.321C90.8735 455.875 91.779 452.524 89.9681 450.35C93.0013 451.166 94.9027 453.566 95.8081 456.6C96.3513 458.412 96.623 460.45 95.7175 462.08C94.7216 463.891 92.4127 464.933 92.0958 466.926C91.8695 468.194 92.5486 469.417 93.0465 470.594C94.2689 473.493 94.631 476.889 93.2729 479.697C92.2769 481.69 90.5114 483.184 88.7911 484.633C90.0134 485.494 91.6884 484.996 93.0465 484.497C94.7668 483.863 96.6682 483.003 97.3473 481.282C97.8906 479.878 97.4378 478.338 97.6642 476.844C98.0264 474.217 100.833 472.179 103.459 472.632C102.01 473.266 101.286 474.942 101.105 476.482C100.924 478.067 101.195 479.652 101.105 481.237C101.014 483.048 100.426 484.86 99.1581 486.173C97.2115 488.121 94.2236 488.483 91.4621 488.483C88.7005 488.483 85.8032 488.347 83.3585 489.615C81.5477 490.566 80.099 492.287 78.0618 492.468C76.1604 492.83 74.4401 491.019 72.7198 490.068Z" fill="#1B174E"/>
<path d="M185.218 496.454C185.264 495.593 185.58 494.733 185.264 493.917C184.811 492.604 183.045 492.196 182.276 490.974C181.099 489.072 183.091 486.535 182.321 484.407C181.778 482.912 180.103 482.233 178.835 481.237C176.934 479.742 175.892 477.116 176.3 474.715C176.617 472.858 177.613 470.956 176.843 469.235C176.526 468.511 175.892 467.967 175.44 467.333C174.217 465.612 174.127 463.212 175.168 461.401C175.621 460.631 176.481 459.861 177.386 460.133C177.794 460.268 178.111 460.54 178.382 460.857C179.469 462.125 180.103 463.801 180.057 465.477C180.057 466.156 179.967 466.88 180.148 467.56C180.465 468.737 181.551 469.462 182.547 470.186C184.132 471.364 185.626 473.085 185.49 475.078C185.399 476.255 184.72 477.342 184.766 478.519C184.811 480.739 187.256 482.233 187.572 484.452C187.844 486.264 186.576 488.302 187.527 489.887C188.433 491.381 190.877 491.2 191.918 489.841C192.96 488.483 192.733 486.445 191.828 484.95C191.058 483.682 189.745 482.414 190.017 480.965C190.334 479.471 192.145 478.701 192.552 477.206C192.869 476.029 192.145 474.851 191.692 473.719C191.239 472.587 191.149 471.002 192.235 470.413C193.593 469.688 195.042 471.5 194.997 472.994C194.997 473.402 194.906 473.855 195.042 474.217C195.269 475.032 196.219 475.395 196.581 476.164C197.396 477.795 195.042 479.652 195.585 481.373C195.766 481.916 196.174 482.324 196.491 482.731C197.758 484.362 197.939 486.717 196.989 488.573C196.536 489.434 195.902 490.158 195.676 491.064C195.404 492.151 195.766 493.238 195.948 494.325C196.264 496.182 196.038 498.174 194.952 499.714C192.326 503.654 184.856 501.435 185.218 496.454Z" fill="#1B174E"/>
<g opacity="0.54">
<g opacity="0.54">
<path opacity="0.54" d="M-1.14253 525.016C0.30452 525.016 1.47758 523.844 1.47758 522.398C1.47758 520.952 0.30452 519.779 -1.14253 519.779C-2.58958 519.779 -3.7627 520.952 -3.7627 522.398C-3.7627 523.844 -2.58958 525.016 -1.14253 525.016Z" fill="url(#paint1_radial_0_9773)"/>
<path opacity="0.54" d="M22.4385 331.823C23.8855 331.823 25.0586 330.651 25.0586 329.205C25.0586 327.759 23.8855 326.586 22.4385 326.586C20.9914 326.586 19.8184 327.759 19.8184 329.205C19.8184 330.651 20.9914 331.823 22.4385 331.823Z" fill="url(#paint2_radial_0_9773)"/>
<path opacity="0.54" fill-rule="evenodd" clip-rule="evenodd" d="M27.1172 443.287C27.1172 444.784 25.9943 445.906 24.4971 445.906C22.9998 445.906 21.877 444.784 21.877 443.287C21.877 441.791 22.9998 440.669 24.4971 440.669C25.9943 440.669 27.1172 441.791 27.1172 443.287Z" fill="url(#paint3_radial_0_9773)"/>
<path opacity="0.54" fill-rule="evenodd" clip-rule="evenodd" d="M182.826 301.151C184.323 299.655 186.756 299.655 188.253 301.151C189.751 302.648 189.751 305.079 188.253 306.575C186.756 308.071 184.323 308.071 182.826 306.575C181.329 305.079 181.329 302.648 182.826 301.151Z" fill="url(#paint4_radial_0_9773)"/>
<path opacity="0.54" d="M27.117 318.17C29.1842 318.17 30.86 316.496 30.86 314.43C30.86 312.364 29.1842 310.69 27.117 310.69C25.0498 310.69 23.374 312.364 23.374 314.43C23.374 316.496 25.0498 318.17 27.117 318.17Z" fill="url(#paint5_radial_0_9773)"/>
<path opacity="0.54" fill-rule="evenodd" clip-rule="evenodd" d="M134.542 354.826C136.039 353.33 138.472 353.33 139.969 354.826C141.466 356.323 141.466 358.754 139.969 360.25C138.472 361.746 136.039 361.746 134.542 360.25C133.045 358.754 133.045 356.323 134.542 354.826Z" fill="url(#paint6_radial_0_9773)"/>
<path opacity="0.54" fill-rule="evenodd" clip-rule="evenodd" d="M158.871 255.144C159.994 254.022 161.678 254.022 162.614 255.144C163.737 256.267 163.737 257.95 162.614 258.885C161.491 260.007 159.807 260.007 158.871 258.885C157.748 257.763 157.748 256.08 158.871 255.144Z" fill="url(#paint7_radial_0_9773)"/>
<path opacity="0.54" fill-rule="evenodd" clip-rule="evenodd" d="M207.718 360.998C208.841 359.876 210.525 359.876 211.461 360.998C212.584 362.12 212.584 363.804 211.461 364.739C210.338 365.861 208.653 365.861 207.718 364.739C206.595 363.804 206.595 362.12 207.718 360.998Z" fill="url(#paint8_radial_0_9773)"/>
<path opacity="0.54" fill-rule="evenodd" clip-rule="evenodd" d="M84.7601 292.923C85.883 291.801 87.5674 291.801 88.5032 292.923C89.6261 294.045 89.6261 295.728 88.5032 296.663C87.3802 297.785 85.6959 297.785 84.7601 296.663C83.6372 295.728 83.6372 294.045 84.7601 292.923Z" fill="url(#paint9_radial_0_9773)"/>
<path opacity="0.54" d="M201.167 401.208C202.304 401.208 203.225 400.287 203.225 399.15C203.225 398.014 202.304 397.093 201.167 397.093C200.03 397.093 199.108 398.014 199.108 399.15C199.108 400.287 200.03 401.208 201.167 401.208Z" fill="url(#paint10_radial_0_9773)"/>
<path opacity="0.54" fill-rule="evenodd" clip-rule="evenodd" d="M168.978 308.632C169.539 308.071 170.288 308.071 170.849 308.632C171.41 309.193 171.41 309.942 170.849 310.503C170.288 311.064 169.539 311.064 168.978 310.503C168.603 309.942 168.603 309.006 168.978 308.632Z" fill="url(#paint11_radial_0_9773)"/>
<path opacity="0.54" fill-rule="evenodd" clip-rule="evenodd" d="M212.77 367.918C213.331 367.357 214.08 367.357 214.641 367.918C215.203 368.479 215.203 369.227 214.641 369.788C214.08 370.349 213.331 370.349 212.77 369.788C212.396 369.227 212.396 368.479 212.77 367.918Z" fill="url(#paint12_radial_0_9773)"/>
<path opacity="0.54" fill-rule="evenodd" clip-rule="evenodd" d="M232.982 346.037C233.544 345.476 234.292 345.476 234.854 346.037C235.415 346.598 235.415 347.346 234.854 347.907C234.292 348.468 233.544 348.468 232.982 347.907C232.421 347.346 232.421 346.411 232.982 346.037Z" fill="url(#paint13_radial_0_9773)"/>
<path opacity="0.54" fill-rule="evenodd" clip-rule="evenodd" d="M216.139 339.865C216.7 339.304 217.449 339.304 218.01 339.865C218.572 340.426 218.572 341.174 218.01 341.735C217.449 342.296 216.7 342.296 216.139 341.735C215.577 341.174 215.577 340.426 216.139 339.865Z" fill="url(#paint14_radial_0_9773)"/>
<path opacity="0.54" fill-rule="evenodd" clip-rule="evenodd" d="M103.1 358.567C103.662 358.006 104.41 358.006 104.972 358.567C105.533 359.128 105.533 359.876 104.972 360.437C104.41 360.998 103.662 360.998 103.1 360.437C102.539 359.876 102.539 359.128 103.1 358.567Z" fill="url(#paint15_radial_0_9773)"/>
<path opacity="0.54" d="M198.921 351.834C199.231 351.834 199.483 351.583 199.483 351.273C199.483 350.963 199.231 350.712 198.921 350.712C198.611 350.712 198.36 350.963 198.36 351.273C198.36 351.583 198.611 351.834 198.921 351.834Z" fill="url(#paint16_radial_0_9773)"/>
<path opacity="0.54" fill-rule="evenodd" clip-rule="evenodd" d="M247.954 412.99C248.141 412.803 248.516 412.803 248.89 412.99C249.077 413.177 249.077 413.551 248.89 413.925C248.703 414.112 248.329 414.112 247.954 413.925C247.767 413.738 247.767 413.364 247.954 412.99Z" fill="url(#paint17_radial_0_9773)"/>
<path opacity="0.54" d="M34.9774 245.606C35.2875 245.606 35.5388 245.355 35.5388 245.045C35.5388 244.735 35.2875 244.484 34.9774 244.484C34.6674 244.484 34.416 244.735 34.416 245.045C34.416 245.355 34.6674 245.606 34.9774 245.606Z" fill="url(#paint18_radial_0_9773)"/>
<path opacity="0.54" d="M212.958 351.273C213.268 351.273 213.519 351.022 213.519 350.712C213.519 350.402 213.268 350.151 212.958 350.151C212.647 350.151 212.396 350.402 212.396 350.712C212.396 351.022 212.647 351.273 212.958 351.273Z" fill="url(#paint19_radial_0_9773)"/>
<path opacity="0.54" fill-rule="evenodd" clip-rule="evenodd" d="M194.616 361.372C195.178 360.811 195.926 360.811 196.488 361.372C197.049 361.933 197.049 362.681 196.488 363.242C195.926 363.804 195.178 363.804 194.616 363.242C194.055 362.681 194.055 361.933 194.616 361.372Z" fill="url(#paint20_radial_0_9773)"/>
<path opacity="0.54" fill-rule="evenodd" clip-rule="evenodd" d="M234.853 403.452C235.415 402.891 236.163 402.891 236.725 403.452C237.286 404.013 237.286 404.761 236.725 405.322C236.163 405.883 235.415 405.883 234.853 405.322C234.292 404.761 234.292 404.013 234.853 403.452Z" fill="url(#paint21_radial_0_9773)"/>
<path opacity="0.54" fill-rule="evenodd" clip-rule="evenodd" d="M204.161 457.875C204.723 457.314 205.471 457.314 206.033 457.875C206.594 458.436 206.594 459.184 206.033 459.745C205.471 460.306 204.723 460.306 204.161 459.745C203.6 458.997 203.6 458.249 204.161 457.875Z" fill="url(#paint22_radial_0_9773)"/>
<path opacity="0.54" fill-rule="evenodd" clip-rule="evenodd" d="M153.256 417.291C153.818 416.73 154.566 416.73 155.128 417.291C155.689 417.852 155.689 418.601 155.128 419.162C154.566 419.723 153.818 419.723 153.256 419.162C152.882 418.601 152.882 417.852 153.256 417.291Z" fill="url(#paint23_radial_0_9773)"/>
<path opacity="0.54" d="M288.378 430.757C290.445 430.757 292.121 429.082 292.121 427.017C292.121 424.951 290.445 423.276 288.378 423.276C286.311 423.276 284.635 424.951 284.635 427.017C284.635 429.082 286.311 430.757 288.378 430.757Z" fill="url(#paint24_radial_0_9773)"/>
<path opacity="0.54" d="M300.17 470.406C302.237 470.406 303.913 468.731 303.913 466.665C303.913 464.599 302.237 462.925 300.17 462.925C298.103 462.925 296.427 464.599 296.427 466.665C296.427 468.731 298.103 470.406 300.17 470.406Z" fill="url(#paint25_radial_0_9773)"/>
<path opacity="0.54" fill-rule="evenodd" clip-rule="evenodd" d="M309.901 324.529C311.023 323.407 312.708 323.407 313.644 324.529C314.766 325.651 314.766 327.335 313.644 328.27C312.521 329.392 310.836 329.392 309.901 328.27C308.965 327.148 308.965 325.651 309.901 324.529Z" fill="url(#paint26_radial_0_9773)"/>
<path opacity="0.54" fill-rule="evenodd" clip-rule="evenodd" d="M235.789 362.307C236.912 361.185 238.596 361.185 239.532 362.307C240.655 363.43 240.655 365.113 239.532 366.048C238.409 367.17 236.724 367.17 235.789 366.048C234.853 365.113 234.853 363.43 235.789 362.307Z" fill="url(#paint27_radial_0_9773)"/>
<path opacity="0.54" d="M292.309 458.81C293.446 458.81 294.367 457.889 294.367 456.753C294.367 455.617 293.446 454.696 292.309 454.696C291.172 454.696 290.25 455.617 290.25 456.753C290.25 457.889 291.172 458.81 292.309 458.81Z" fill="url(#paint28_radial_0_9773)"/>
<path opacity="0.54" d="M177.399 531.374C178.536 531.374 179.458 530.453 179.458 529.317C179.458 528.181 178.536 527.26 177.399 527.26C176.262 527.26 175.34 528.181 175.34 529.317C175.34 530.453 176.262 531.374 177.399 531.374Z" fill="url(#paint29_radial_0_9773)"/>
<path opacity="0.54" fill-rule="evenodd" clip-rule="evenodd" d="M320.194 378.017C320.755 377.456 321.504 377.456 322.065 378.017C322.626 378.578 322.626 379.326 322.065 379.887C321.504 380.448 320.755 380.448 320.194 379.887C319.632 379.326 319.632 378.578 320.194 378.017Z" fill="url(#paint30_radial_0_9773)"/>
<path opacity="0.54" fill-rule="evenodd" clip-rule="evenodd" d="M300.544 453.761C301.105 453.2 301.854 453.2 302.415 453.761C302.977 454.322 302.977 455.07 302.415 455.631C301.854 456.192 301.105 456.192 300.544 455.631C299.982 455.07 299.982 454.322 300.544 453.761Z" fill="url(#paint31_radial_0_9773)"/>
<path opacity="0.54" fill-rule="evenodd" clip-rule="evenodd" d="M113.393 322.472C113.954 321.911 114.703 321.911 115.264 322.472C115.826 323.033 115.826 323.781 115.264 324.342C114.703 324.903 113.954 324.903 113.393 324.342C112.831 323.781 112.831 322.846 113.393 322.472Z" fill="url(#paint32_radial_0_9773)"/>
<path opacity="0.54" fill-rule="evenodd" clip-rule="evenodd" d="M254.318 427.952C254.88 427.391 255.628 427.391 256.19 427.952C256.751 428.513 256.751 429.261 256.19 429.822C255.628 430.383 254.88 430.383 254.318 429.822C253.757 429.261 253.757 428.513 254.318 427.952Z" fill="url(#paint33_radial_0_9773)"/>
<path opacity="0.54" fill-rule="evenodd" clip-rule="evenodd" d="M249.265 440.856C249.452 440.669 249.826 440.669 250.201 440.856C250.388 441.043 250.388 441.417 250.201 441.791C250.013 441.978 249.639 441.978 249.265 441.791C249.078 441.417 249.078 441.043 249.265 440.856Z" fill="url(#paint34_radial_0_9773)"/>
<path opacity="0.54" d="M267.23 430.196C267.54 430.196 267.792 429.945 267.792 429.635C267.792 429.325 267.54 429.074 267.23 429.074C266.92 429.074 266.669 429.325 266.669 429.635C266.669 429.945 266.92 430.196 267.23 430.196Z" fill="url(#paint35_radial_0_9773)"/>
<path opacity="0.54" d="M152.321 317.983C152.631 317.983 152.882 317.732 152.882 317.422C152.882 317.113 152.631 316.861 152.321 316.861C152.011 316.861 151.759 317.113 151.759 317.422C151.759 317.732 152.011 317.983 152.321 317.983Z" fill="url(#paint36_radial_0_9773)"/>
<path opacity="0.54" fill-rule="evenodd" clip-rule="evenodd" d="M7.65354 470.032C7.84069 469.845 8.21497 469.845 8.58926 470.032C8.7764 470.219 8.7764 470.593 8.58926 470.967C8.40212 471.154 8.02783 471.154 7.65354 470.967C7.4664 470.593 7.4664 470.219 7.65354 470.032Z" fill="url(#paint37_radial_0_9773)"/>
<path opacity="0.54" fill-rule="evenodd" clip-rule="evenodd" d="M296.053 461.803C296.24 461.616 296.614 461.616 296.988 461.803C297.176 461.99 297.176 462.364 296.988 462.738C296.801 462.925 296.427 462.925 296.053 462.738C295.678 462.364 295.678 461.99 296.053 461.803Z" fill="url(#paint38_radial_0_9773)"/>
<path opacity="0.54" fill-rule="evenodd" clip-rule="evenodd" d="M291.748 452.265C291.935 452.078 292.309 452.078 292.684 452.265C292.871 452.452 292.871 452.826 292.684 453.2C292.496 453.387 292.122 453.387 291.748 453.2C291.561 453.013 291.561 452.639 291.748 452.265Z" fill="url(#paint39_radial_0_9773)"/>
<path opacity="0.54" fill-rule="evenodd" clip-rule="evenodd" d="M268.167 451.329C268.728 450.768 269.477 450.768 270.038 451.329C270.6 451.89 270.6 452.639 270.038 453.2C269.477 453.761 268.728 453.761 268.167 453.2C267.605 452.639 267.605 451.703 268.167 451.329Z" fill="url(#paint40_radial_0_9773)"/>
<path opacity="0.54" fill-rule="evenodd" clip-rule="evenodd" d="M285.01 452.452C285.571 451.89 286.32 451.89 286.881 452.452C287.443 453.013 287.443 453.761 286.881 454.322C286.32 454.883 285.571 454.883 285.01 454.322C284.449 453.761 284.449 453.013 285.01 452.452Z" fill="url(#paint41_radial_0_9773)"/>
<path opacity="0.54" fill-rule="evenodd" clip-rule="evenodd" d="M16.4506 305.079C17.5735 303.957 19.2578 303.957 20.1936 305.079C21.3165 306.201 21.3165 307.884 20.1936 308.82C19.0707 309.942 17.3863 309.942 16.4506 308.82C15.3277 307.697 15.3277 306.014 16.4506 305.079Z" fill="url(#paint42_radial_0_9773)"/>
<path opacity="0.54" fill-rule="evenodd" clip-rule="evenodd" d="M41.715 289.93C42.2765 289.369 43.0251 289.369 43.5865 289.93C44.148 290.491 44.148 291.239 43.5865 291.801C43.0251 292.362 42.2765 292.362 41.715 291.801C41.1536 291.239 41.1536 290.491 41.715 289.93Z" fill="url(#paint43_radial_0_9773)"/>
<path opacity="0.54" fill-rule="evenodd" clip-rule="evenodd" d="M24.684 283.759C25.2455 283.198 25.9941 283.198 26.5556 283.759C27.117 284.32 27.117 285.068 26.5556 285.629C25.9941 286.19 25.2455 286.19 24.684 285.629C24.3097 285.068 24.3097 284.32 24.684 283.759Z" fill="url(#paint44_radial_0_9773)"/>
<path opacity="0.54" d="M7.46669 295.728C7.77676 295.728 8.02816 295.477 8.02816 295.167C8.02816 294.857 7.77676 294.606 7.46669 294.606C7.15662 294.606 6.90527 294.857 6.90527 295.167C6.90527 295.477 7.15662 295.728 7.46669 295.728Z" fill="url(#paint45_radial_0_9773)"/>
<path opacity="0.54" d="M21.5028 295.167C21.8129 295.167 22.0643 294.916 22.0643 294.606C22.0643 294.296 21.8129 294.045 21.5028 294.045C21.1927 294.045 20.9414 294.296 20.9414 294.606C20.9414 294.916 21.1927 295.167 21.5028 295.167Z" fill="url(#paint46_radial_0_9773)"/>
<path opacity="0.54" fill-rule="evenodd" clip-rule="evenodd" d="M3.16181 305.453C3.72325 304.892 4.47184 304.892 5.03328 305.453C5.59473 306.014 5.59473 306.762 5.03328 307.323C4.47184 307.884 3.72325 307.884 3.16181 307.323C2.60036 306.575 2.60036 305.827 3.16181 305.453Z" fill="url(#paint47_radial_0_9773)"/>
<path opacity="0.54" fill-rule="evenodd" clip-rule="evenodd" d="M308.779 168.367C309.527 168.18 310.089 168.554 310.276 169.302C310.463 170.05 310.089 170.611 309.34 170.798C308.591 170.985 308.03 170.611 307.843 169.863C307.843 169.302 308.217 168.554 308.779 168.367Z" fill="url(#paint48_radial_0_9773)"/>
<path opacity="0.54" fill-rule="evenodd" clip-rule="evenodd" d="M83.8236 455.444C84.9465 454.322 86.6309 454.322 87.5666 455.444C88.6895 456.566 88.6895 458.249 87.5666 459.184C86.4437 460.306 84.7594 460.306 83.8236 459.184C82.7007 458.249 82.7007 456.566 83.8236 455.444Z" fill="url(#paint49_radial_0_9773)"/>
<path opacity="0.54" fill-rule="evenodd" clip-rule="evenodd" d="M87.3793 373.342C88.5022 372.22 90.1865 372.22 91.1223 373.342C92.2452 374.464 92.2452 376.147 91.1223 377.082C89.9994 378.204 88.315 378.204 87.3793 377.082C86.2564 376.147 86.2564 374.464 87.3793 373.342Z" fill="url(#paint50_radial_0_9773)"/>
<path opacity="0.54" d="M77.087 495.653C78.2239 495.653 79.1456 494.732 79.1456 493.596C79.1456 492.46 78.2239 491.539 77.087 491.539C75.95 491.539 75.0283 492.46 75.0283 493.596C75.0283 494.732 75.95 495.653 77.087 495.653Z" fill="url(#paint51_radial_0_9773)"/>
<path opacity="0.54" fill-rule="evenodd" clip-rule="evenodd" d="M88.8762 462.364C89.4376 461.802 90.1862 461.802 90.7477 462.364C91.3092 462.925 91.3092 463.673 90.7477 464.234C90.1862 464.795 89.4376 464.795 88.8762 464.234C88.3147 463.673 88.3147 462.925 88.8762 462.364Z" fill="url(#paint52_radial_0_9773)"/>
<path opacity="0.54" d="M109.838 442.539C110.561 442.539 111.148 441.953 111.148 441.23C111.148 440.507 110.561 439.921 109.838 439.921C109.114 439.921 108.528 440.507 108.528 441.23C108.528 441.953 109.114 442.539 109.838 442.539Z" fill="url(#paint53_radial_0_9773)"/>
<path opacity="0.54" fill-rule="evenodd" clip-rule="evenodd" d="M132.483 364.739C133.044 364.178 133.793 364.178 134.354 364.739C134.916 365.3 134.916 366.048 134.354 366.609C133.793 367.17 133.044 367.17 132.483 366.609C132.109 366.048 132.109 365.3 132.483 364.739Z" fill="url(#paint54_radial_0_9773)"/>
<path opacity="0.54" fill-rule="evenodd" clip-rule="evenodd" d="M92.0586 434.311C92.62 433.75 93.3686 433.75 93.9301 434.311C94.4915 434.872 94.4915 435.62 93.9301 436.181C93.3686 436.742 92.62 436.742 92.0586 436.181C91.6843 435.62 91.6843 434.685 92.0586 434.311Z" fill="url(#paint55_radial_0_9773)"/>
<path opacity="0.54" d="M74.8402 446.28C75.1503 446.28 75.4017 446.029 75.4017 445.719C75.4017 445.409 75.1503 445.158 74.8402 445.158C74.5302 445.158 74.2788 445.409 74.2788 445.719C74.2788 446.029 74.5302 446.28 74.8402 446.28Z" fill="url(#paint56_radial_0_9773)"/>
<path opacity="0.54" fill-rule="evenodd" clip-rule="evenodd" d="M50.1369 497.524C50.3241 497.337 50.6984 497.337 51.0727 497.524C51.2598 497.711 51.2598 498.085 51.0727 498.459C50.8855 498.646 50.5112 498.646 50.1369 498.459C49.9498 498.085 49.9498 497.711 50.1369 497.524Z" fill="url(#paint57_radial_0_9773)"/>
<path opacity="0.54" fill-rule="evenodd" clip-rule="evenodd" d="M124.061 507.436C124.248 507.249 124.622 507.249 124.996 507.436C125.183 507.623 125.183 507.997 124.996 508.371C124.809 508.558 124.435 508.558 124.061 508.371C123.686 508.184 123.686 507.81 124.061 507.436Z" fill="url(#paint58_radial_0_9773)"/>
<path opacity="0.54" d="M88.8768 445.719C89.1869 445.719 89.4383 445.468 89.4383 445.158C89.4383 444.848 89.1869 444.597 88.8768 444.597C88.5668 444.597 88.3154 444.848 88.3154 445.158C88.3154 445.468 88.5668 445.719 88.8768 445.719Z" fill="url(#paint59_radial_0_9773)"/>
<path opacity="0.54" fill-rule="evenodd" clip-rule="evenodd" d="M70.5358 455.818C71.0973 455.257 71.8459 455.257 72.4073 455.818C72.9688 456.379 72.9688 457.127 72.4073 457.688C71.8459 458.249 71.0973 458.249 70.5358 457.688C69.9744 457.127 69.9744 456.379 70.5358 455.818Z" fill="url(#paint60_radial_0_9773)"/>
<path opacity="0.54" fill-rule="evenodd" clip-rule="evenodd" d="M110.774 497.898C111.336 497.337 112.084 497.337 112.646 497.898C113.207 498.459 113.207 499.207 112.646 499.768C112.084 500.329 111.336 500.329 110.774 499.768C110.213 499.207 110.4 498.459 110.774 497.898Z" fill="url(#paint61_radial_0_9773)"/>
<path opacity="0.54" fill-rule="evenodd" clip-rule="evenodd" d="M304.474 486.863C305.036 486.302 305.784 486.302 306.346 486.863C306.907 487.424 306.907 488.173 306.346 488.734C305.784 489.295 305.036 489.295 304.474 488.734C304.1 488.173 304.1 487.237 304.474 486.863Z" fill="url(#paint62_radial_0_9773)"/>
<path opacity="0.54" fill-rule="evenodd" clip-rule="evenodd" d="M187.131 136.947C188.628 135.451 191.061 135.451 192.559 136.947C194.056 138.443 194.056 140.875 192.559 142.371C191.061 143.867 188.628 143.867 187.131 142.371C185.634 140.688 185.634 138.256 187.131 136.947Z" fill="url(#paint63_radial_0_9773)"/>
<path opacity="0.54" fill-rule="evenodd" clip-rule="evenodd" d="M264.424 81.7761C265.921 80.2799 268.354 80.2799 269.851 81.7761C271.348 83.2722 271.348 85.7035 269.851 87.1997C268.354 88.6958 265.921 88.6958 264.424 87.1997C262.926 85.5165 262.926 83.2722 264.424 81.7761Z" fill="url(#paint64_radial_0_9773)"/>
<path opacity="0.54" d="M153.443 236.442C155.51 236.442 157.186 234.768 157.186 232.702C157.186 230.636 155.51 228.962 153.443 228.962C151.376 228.962 149.7 230.636 149.7 232.702C149.7 234.768 151.376 236.442 153.443 236.442Z" fill="url(#paint65_radial_0_9773)"/>
<path opacity="0.54" fill-rule="evenodd" clip-rule="evenodd" d="M163.176 90.7527C164.299 89.6306 165.983 89.6306 166.919 90.7527C168.042 91.8749 168.042 93.558 166.919 94.4931C165.796 95.6153 164.112 95.6153 163.176 94.4931C162.053 93.371 162.053 91.6878 163.176 90.7527Z" fill="url(#paint66_radial_0_9773)"/>
<path opacity="0.54" fill-rule="evenodd" clip-rule="evenodd" d="M313.269 20.807C314.392 19.6849 316.077 19.6849 317.012 20.807C318.135 21.9292 318.135 23.6124 317.012 24.5475C315.889 25.6696 314.205 25.6696 313.269 24.5475C312.147 23.6124 312.147 21.9292 313.269 20.807Z" fill="url(#paint67_radial_0_9773)"/>
<path opacity="0.54" fill-rule="evenodd" clip-rule="evenodd" d="M291.748 41.7536C292.871 40.6315 294.556 40.6315 295.491 41.7536C296.427 42.8757 296.614 44.5589 295.491 45.494C294.369 46.6161 292.684 46.6161 291.748 45.494C290.626 44.5589 290.626 42.8757 291.748 41.7536Z" fill="url(#paint68_radial_0_9773)"/>
<path opacity="0.54" fill-rule="evenodd" clip-rule="evenodd" d="M212.021 196.607C213.144 195.485 214.828 195.485 215.764 196.607C216.887 197.729 216.887 199.412 215.764 200.347C214.641 201.469 212.957 201.469 212.021 200.347C211.085 199.412 211.085 197.729 212.021 196.607Z" fill="url(#paint69_radial_0_9773)"/>
<path opacity="0.54" fill-rule="evenodd" clip-rule="evenodd" d="M204.16 233.45C204.909 232.702 206.219 232.702 206.968 233.45C207.716 234.198 207.716 235.507 206.968 236.255C206.219 237.004 204.909 237.004 204.16 236.255C203.225 235.32 203.225 234.198 204.16 233.45Z" fill="url(#paint70_radial_0_9773)"/>
<path opacity="0.54" d="M221.379 275.53C222.516 275.53 223.438 274.609 223.438 273.472C223.438 272.336 222.516 271.415 221.379 271.415C220.242 271.415 219.32 272.336 219.32 273.472C219.32 274.609 220.242 275.53 221.379 275.53Z" fill="url(#paint71_radial_0_9773)"/>
<path opacity="0.54" d="M174.217 146.485C174.941 146.485 175.527 145.899 175.527 145.176C175.527 144.453 174.941 143.867 174.217 143.867C173.494 143.867 172.907 144.453 172.907 145.176C172.907 145.899 173.494 146.485 174.217 146.485Z" fill="url(#paint72_radial_0_9773)"/>
<path opacity="0.54" fill-rule="evenodd" clip-rule="evenodd" d="M217.074 203.527C217.636 202.966 218.384 202.966 218.946 203.527C219.507 204.088 219.507 204.836 218.946 205.397C218.384 205.958 217.636 205.958 217.074 205.397C216.7 204.836 216.7 204.088 217.074 203.527Z" fill="url(#paint73_radial_0_9773)"/>
<path opacity="0.54" fill-rule="evenodd" clip-rule="evenodd" d="M153.631 219.985C154.192 219.423 154.941 219.423 155.502 219.985C156.063 220.546 156.063 221.294 155.502 221.855C154.941 222.416 154.192 222.416 153.631 221.855C153.069 221.294 153.069 220.546 153.631 219.985Z" fill="url(#paint74_radial_0_9773)"/>
<path opacity="0.54" fill-rule="evenodd" clip-rule="evenodd" d="M295.303 192.305C295.865 191.744 296.613 191.744 297.175 192.305C297.736 192.867 297.736 193.615 297.175 194.176C296.613 194.737 295.865 194.737 295.303 194.176C294.929 193.615 294.929 192.867 295.303 192.305Z" fill="url(#paint75_radial_0_9773)"/>
<path opacity="0.54" fill-rule="evenodd" clip-rule="evenodd" d="M237.287 181.645C237.848 181.084 238.597 181.084 239.158 181.645C239.72 182.206 239.72 182.954 239.158 183.515C238.597 184.076 237.848 184.076 237.287 183.515C236.912 182.954 236.912 182.019 237.287 181.645Z" fill="url(#paint76_radial_0_9773)"/>
<path opacity="0.54" fill-rule="evenodd" clip-rule="evenodd" d="M220.443 175.473C221.005 174.912 221.753 174.912 222.315 175.473C222.876 176.034 222.876 176.783 222.315 177.344C221.753 177.905 221.005 177.905 220.443 177.344C219.882 176.783 219.882 176.034 220.443 175.473Z" fill="url(#paint77_radial_0_9773)"/>
<path opacity="0.54" fill-rule="evenodd" clip-rule="evenodd" d="M202.664 186.508C202.851 186.321 203.226 186.321 203.6 186.508C203.787 186.695 203.787 187.069 203.6 187.443C203.413 187.63 203.039 187.63 202.664 187.443C202.477 187.069 202.477 186.695 202.664 186.508Z" fill="url(#paint78_radial_0_9773)"/>
<path opacity="0.54" fill-rule="evenodd" clip-rule="evenodd" d="M252.258 248.599C252.445 248.411 252.82 248.411 253.194 248.599C253.381 248.786 253.381 249.16 253.194 249.534C253.007 249.721 252.632 249.721 252.258 249.534C252.071 249.347 252.071 248.973 252.258 248.599Z" fill="url(#paint79_radial_0_9773)"/>
<path opacity="0.54" d="M253.382 294.232C253.692 294.232 253.943 293.981 253.943 293.671C253.943 293.361 253.692 293.11 253.382 293.11C253.072 293.11 252.82 293.361 252.82 293.671C252.82 293.981 253.072 294.232 253.382 294.232Z" fill="url(#paint80_radial_0_9773)"/>
<path opacity="0.54" d="M229.239 294.793C229.549 294.793 229.801 294.542 229.801 294.232C229.801 293.922 229.549 293.671 229.239 293.671C228.929 293.671 228.678 293.922 228.678 294.232C228.678 294.542 228.929 294.793 229.239 294.793Z" fill="url(#paint81_radial_0_9773)"/>
<path opacity="0.54" d="M228.491 286.564C228.801 286.564 229.053 286.313 229.053 286.003C229.053 285.693 228.801 285.442 228.491 285.442C228.181 285.442 227.93 285.693 227.93 286.003C227.93 286.313 228.181 286.564 228.491 286.564Z" fill="url(#paint82_radial_0_9773)"/>
<path opacity="0.54" fill-rule="evenodd" clip-rule="evenodd" d="M216.888 185.947C217.075 185.76 217.449 185.76 217.823 185.947C218.011 186.134 218.011 186.508 217.823 186.882C217.636 187.069 217.262 187.069 216.888 186.882C216.513 186.508 216.513 186.134 216.888 185.947Z" fill="url(#paint83_radial_0_9773)"/>
<path opacity="0.54" fill-rule="evenodd" clip-rule="evenodd" d="M198.922 196.981C199.483 196.42 200.232 196.42 200.793 196.981C201.355 197.542 201.355 198.29 200.793 198.851C200.232 199.412 199.483 199.412 198.922 198.851C198.36 198.29 198.36 197.542 198.922 196.981Z" fill="url(#paint84_radial_0_9773)"/>
<path opacity="0.54" fill-rule="evenodd" clip-rule="evenodd" d="M239.157 239.061C239.719 238.5 240.467 238.5 241.029 239.061C241.59 239.622 241.59 240.37 241.029 240.931C240.467 241.492 239.719 241.492 239.157 240.931C238.596 240.37 238.596 239.622 239.157 239.061Z" fill="url(#paint85_radial_0_9773)"/>
<path opacity="0.54" fill-rule="evenodd" clip-rule="evenodd" d="M185.259 284.507C185.821 283.946 186.569 283.946 187.131 284.507C187.692 285.068 187.692 285.816 187.131 286.377C186.569 286.938 185.821 286.938 185.259 286.377C184.698 285.629 184.698 284.881 185.259 284.507Z" fill="url(#paint86_radial_0_9773)"/>
<path opacity="0.54" fill-rule="evenodd" clip-rule="evenodd" d="M208.466 293.484C209.028 292.922 209.777 292.922 210.338 293.484C210.899 294.045 210.899 294.793 210.338 295.354C209.777 295.915 209.028 295.915 208.466 295.354C207.905 294.793 207.905 293.858 208.466 293.484Z" fill="url(#paint87_radial_0_9773)"/>
<path opacity="0.54" fill-rule="evenodd" clip-rule="evenodd" d="M226.433 350.712C226.994 350.151 227.743 350.151 228.304 350.712C228.866 351.273 228.866 352.021 228.304 352.582C227.743 353.143 226.994 353.143 226.433 352.582C225.871 352.021 225.871 351.273 226.433 350.712Z" fill="url(#paint88_radial_0_9773)"/>
<path opacity="0.54" fill-rule="evenodd" clip-rule="evenodd" d="M157.748 253.087C158.31 252.526 159.058 252.526 159.62 253.087C160.181 253.648 160.181 254.396 159.62 254.957C159.058 255.518 158.31 255.518 157.748 254.957C157.187 254.209 157.187 253.461 157.748 253.087Z" fill="url(#paint89_radial_0_9773)"/>
</g>
</g>
</g>
<defs>
<radialGradient id="paint0_radial_0_9773" cx="0" cy="0" r="1" gradientUnits="userSpaceOnUse" gradientTransform="translate(196.449 854.807) rotate(-103.44) scale(651.339 294.478)">
<stop stop-color="#312D88"/>
<stop offset="1" stop-color="#355EA7"/>
</radialGradient>
<radialGradient id="paint1_radial_0_9773" cx="0" cy="0" r="1" gradientUnits="userSpaceOnUse" gradientTransform="translate(-1.14256 522.398) rotate(90) scale(2.61831 2.62014)">
<stop stop-color="white" stop-opacity="0"/>
<stop offset="1" stop-color="white"/>
</radialGradient>
<radialGradient id="paint2_radial_0_9773" cx="0" cy="0" r="1" gradientUnits="userSpaceOnUse" gradientTransform="translate(22.4385 329.205) rotate(90) scale(2.6183 2.62014)">
<stop stop-color="white" stop-opacity="0"/>
<stop offset="1" stop-color="white"/>
</radialGradient>
<radialGradient id="paint3_radial_0_9773" cx="0" cy="0" r="1" gradientUnits="userSpaceOnUse" gradientTransform="translate(24.4971 443.287) rotate(90) scale(2.6183 2.6201)">
<stop stop-color="white" stop-opacity="0"/>
<stop offset="1" stop-color="white"/>
</radialGradient>
<radialGradient id="paint4_radial_0_9773" cx="0" cy="0" r="1" gradientUnits="userSpaceOnUse" gradientTransform="translate(185.54 303.863) rotate(90) scale(3.83393 3.83657)">
<stop stop-color="white" stop-opacity="0"/>
<stop offset="1" stop-color="white"/>
</radialGradient>
<radialGradient id="paint5_radial_0_9773" cx="0" cy="0" r="1" gradientUnits="userSpaceOnUse" gradientTransform="translate(27.117 314.43) rotate(90) scale(3.7404 3.74299)">
<stop stop-color="white" stop-opacity="0"/>
<stop offset="1" stop-color="white"/>
</radialGradient>
<radialGradient id="paint6_radial_0_9773" cx="0" cy="0" r="1" gradientUnits="userSpaceOnUse" gradientTransform="translate(137.256 357.538) rotate(90) scale(3.83395 3.83657)">
<stop stop-color="white" stop-opacity="0"/>
<stop offset="1" stop-color="white"/>
</radialGradient>
<radialGradient id="paint7_radial_0_9773" cx="0" cy="0" r="1" gradientUnits="userSpaceOnUse" gradientTransform="translate(160.742 257.015) rotate(90) scale(2.71181 2.71364)">
<stop stop-color="white" stop-opacity="0"/>
<stop offset="1" stop-color="white"/>
</radialGradient>
<radialGradient id="paint8_radial_0_9773" cx="0" cy="0" r="1" gradientUnits="userSpaceOnUse" gradientTransform="translate(209.589 362.869) rotate(90) scale(2.71182 2.71368)">
<stop stop-color="white" stop-opacity="0"/>
<stop offset="1" stop-color="white"/>
</radialGradient>
<radialGradient id="paint9_radial_0_9773" cx="0" cy="0" r="1" gradientUnits="userSpaceOnUse" gradientTransform="translate(86.6316 294.793) rotate(90) scale(2.71181 2.71368)">
<stop stop-color="white" stop-opacity="0"/>
<stop offset="1" stop-color="white"/>
</radialGradient>
<radialGradient id="paint10_radial_0_9773" cx="0" cy="0" r="1" gradientUnits="userSpaceOnUse" gradientTransform="translate(201.167 399.151) rotate(90) scale(2.05724 2.05865)">
<stop stop-color="white" stop-opacity="0"/>
<stop offset="1" stop-color="white"/>
</radialGradient>
<radialGradient id="paint11_radial_0_9773" cx="0" cy="0" r="1" gradientUnits="userSpaceOnUse" gradientTransform="translate(169.983 309.567) rotate(90) scale(1.35591 1.28666)">
<stop stop-color="white" stop-opacity="0"/>
<stop offset="1" stop-color="white"/>
</radialGradient>
<radialGradient id="paint12_radial_0_9773" cx="0" cy="0" r="1" gradientUnits="userSpaceOnUse" gradientTransform="translate(213.776 368.853) rotate(90) scale(1.35591 1.28663)">
<stop stop-color="white" stop-opacity="0"/>
<stop offset="1" stop-color="white"/>
</radialGradient>
<radialGradient id="paint13_radial_0_9773" cx="0" cy="0" r="1" gradientUnits="userSpaceOnUse" gradientTransform="translate(233.918 346.972) rotate(90) scale(1.35591 1.35682)">
<stop stop-color="white" stop-opacity="0"/>
<stop offset="1" stop-color="white"/>
</radialGradient>
<radialGradient id="paint14_radial_0_9773" cx="0" cy="0" r="1" gradientUnits="userSpaceOnUse" gradientTransform="translate(217.075 340.8) rotate(90) scale(1.35591 1.35682)">
<stop stop-color="white" stop-opacity="0"/>
<stop offset="1" stop-color="white"/>
</radialGradient>
<radialGradient id="paint15_radial_0_9773" cx="0" cy="0" r="1" gradientUnits="userSpaceOnUse" gradientTransform="translate(104.036 359.502) rotate(90) scale(1.35591 1.35686)">
<stop stop-color="white" stop-opacity="0"/>
<stop offset="1" stop-color="white"/>
</radialGradient>
<radialGradient id="paint16_radial_0_9773" cx="0" cy="0" r="1" gradientUnits="userSpaceOnUse" gradientTransform="translate(198.921 351.273) rotate(90) scale(0.56107 0.561481)">
<stop stop-color="white" stop-opacity="0"/>
<stop offset="1" stop-color="white"/>
</radialGradient>
<radialGradient id="paint17_radial_0_9773" cx="0" cy="0" r="1" gradientUnits="userSpaceOnUse" gradientTransform="translate(248.422 413.458) rotate(90) scale(0.607806 0.608217)">
<stop stop-color="white" stop-opacity="0"/>
<stop offset="1" stop-color="white"/>
</radialGradient>
<radialGradient id="paint18_radial_0_9773" cx="0" cy="0" r="1" gradientUnits="userSpaceOnUse" gradientTransform="translate(34.9774 245.045) rotate(90) scale(0.56107 0.561409)">
<stop stop-color="white" stop-opacity="0"/>
<stop offset="1" stop-color="white"/>
</radialGradient>
<radialGradient id="paint19_radial_0_9773" cx="0" cy="0" r="1" gradientUnits="userSpaceOnUse" gradientTransform="translate(212.957 350.712) rotate(90) scale(0.56107 0.561481)">
<stop stop-color="white" stop-opacity="0"/>
<stop offset="1" stop-color="white"/>
</radialGradient>
<radialGradient id="paint20_radial_0_9773" cx="0" cy="0" r="1" gradientUnits="userSpaceOnUse" gradientTransform="translate(195.552 362.307) rotate(90) scale(1.35591 1.35682)">
<stop stop-color="white" stop-opacity="0"/>
<stop offset="1" stop-color="white"/>
</radialGradient>
<radialGradient id="paint21_radial_0_9773" cx="0" cy="0" r="1" gradientUnits="userSpaceOnUse" gradientTransform="translate(235.789 404.387) rotate(90) scale(1.35591 1.35682)">
<stop stop-color="white" stop-opacity="0"/>
<stop offset="1" stop-color="white"/>
</radialGradient>
<radialGradient id="paint22_radial_0_9773" cx="0" cy="0" r="1" gradientUnits="userSpaceOnUse" gradientTransform="translate(205.097 458.81) rotate(90) scale(1.35593 1.35682)">
<stop stop-color="white" stop-opacity="0"/>
<stop offset="1" stop-color="white"/>
</radialGradient>
<radialGradient id="paint23_radial_0_9773" cx="0" cy="0" r="1" gradientUnits="userSpaceOnUse" gradientTransform="translate(154.262 418.226) rotate(90) scale(1.35589 1.28666)">
<stop stop-color="white" stop-opacity="0"/>
<stop offset="1" stop-color="white"/>
</radialGradient>
<radialGradient id="paint24_radial_0_9773" cx="0" cy="0" r="1" gradientUnits="userSpaceOnUse" gradientTransform="translate(288.378 427.017) rotate(90) scale(3.74042 3.74299)">
<stop stop-color="white" stop-opacity="0"/>
<stop offset="1" stop-color="white"/>
</radialGradient>
<radialGradient id="paint25_radial_0_9773" cx="0" cy="0" r="1" gradientUnits="userSpaceOnUse" gradientTransform="translate(300.17 466.665) rotate(90) scale(3.74044 3.74299)">
<stop stop-color="white" stop-opacity="0"/>
<stop offset="1" stop-color="white"/>
</radialGradient>
<radialGradient id="paint26_radial_0_9773" cx="0" cy="0" r="1" gradientUnits="userSpaceOnUse" gradientTransform="translate(311.842 326.399) rotate(90) scale(2.71181 2.64349)">
<stop stop-color="white" stop-opacity="0"/>
<stop offset="1" stop-color="white"/>
</radialGradient>
<radialGradient id="paint27_radial_0_9773" cx="0" cy="0" r="1" gradientUnits="userSpaceOnUse" gradientTransform="translate(237.73 364.178) rotate(90) scale(2.71181 2.64349)">
<stop stop-color="white" stop-opacity="0"/>
<stop offset="1" stop-color="white"/>
</radialGradient>
<radialGradient id="paint28_radial_0_9773" cx="0" cy="0" r="1" gradientUnits="userSpaceOnUse" gradientTransform="translate(292.309 456.753) rotate(90) scale(2.05721 2.05862)">
<stop stop-color="white" stop-opacity="0"/>
<stop offset="1" stop-color="white"/>
</radialGradient>
<radialGradient id="paint29_radial_0_9773" cx="0" cy="0" r="1" gradientUnits="userSpaceOnUse" gradientTransform="translate(177.399 529.317) rotate(90) scale(2.05724 2.05865)">
<stop stop-color="white" stop-opacity="0"/>
<stop offset="1" stop-color="white"/>
</radialGradient>
<radialGradient id="paint30_radial_0_9773" cx="0" cy="0" r="1" gradientUnits="userSpaceOnUse" gradientTransform="translate(321.129 378.952) rotate(90) scale(1.35589 1.35679)">
<stop stop-color="white" stop-opacity="0"/>
<stop offset="1" stop-color="white"/>
</radialGradient>
<radialGradient id="paint31_radial_0_9773" cx="0" cy="0" r="1" gradientUnits="userSpaceOnUse" gradientTransform="translate(301.479 454.696) rotate(90) scale(1.35589 1.35682)">
<stop stop-color="white" stop-opacity="0"/>
<stop offset="1" stop-color="white"/>
</radialGradient>
<radialGradient id="paint32_radial_0_9773" cx="0" cy="0" r="1" gradientUnits="userSpaceOnUse" gradientTransform="translate(114.329 323.407) rotate(90) scale(1.35591 1.35682)">
<stop stop-color="white" stop-opacity="0"/>
<stop offset="1" stop-color="white"/>
</radialGradient>
<radialGradient id="paint33_radial_0_9773" cx="0" cy="0" r="1" gradientUnits="userSpaceOnUse" gradientTransform="translate(255.254 428.887) rotate(90) scale(1.35589 1.35686)">
<stop stop-color="white" stop-opacity="0"/>
<stop offset="1" stop-color="white"/>
</radialGradient>
<radialGradient id="paint34_radial_0_9773" cx="0" cy="0" r="1" gradientUnits="userSpaceOnUse" gradientTransform="translate(249.733 441.324) rotate(90) scale(0.607806 0.608217)">
<stop stop-color="white" stop-opacity="0"/>
<stop offset="1" stop-color="white"/>
</radialGradient>
<radialGradient id="paint35_radial_0_9773" cx="0" cy="0" r="1" gradientUnits="userSpaceOnUse" gradientTransform="translate(267.23 429.635) rotate(90) scale(0.56107 0.561409)">
<stop stop-color="white" stop-opacity="0"/>
<stop offset="1" stop-color="white"/>
</radialGradient>
<radialGradient id="paint36_radial_0_9773" cx="0" cy="0" r="1" gradientUnits="userSpaceOnUse" gradientTransform="translate(152.321 317.422) rotate(90) scale(0.56107 0.561445)">
<stop stop-color="white" stop-opacity="0"/>
<stop offset="1" stop-color="white"/>
</radialGradient>
<radialGradient id="paint37_radial_0_9773" cx="0" cy="0" r="1" gradientUnits="userSpaceOnUse" gradientTransform="translate(8.1214 470.499) rotate(90) scale(0.607824 0.608217)">
<stop stop-color="white" stop-opacity="0"/>
<stop offset="1" stop-color="white"/>
</radialGradient>
<radialGradient id="paint38_radial_0_9773" cx="0" cy="0" r="1" gradientUnits="userSpaceOnUse" gradientTransform="translate(296.45 462.27) rotate(90) scale(0.607806 0.678375)">
<stop stop-color="white" stop-opacity="0"/>
<stop offset="1" stop-color="white"/>
</radialGradient>
<radialGradient id="paint39_radial_0_9773" cx="0" cy="0" r="1" gradientUnits="userSpaceOnUse" gradientTransform="translate(292.216 452.732) rotate(90) scale(0.607806 0.608253)">
<stop stop-color="white" stop-opacity="0"/>
<stop offset="1" stop-color="white"/>
</radialGradient>
<radialGradient id="paint40_radial_0_9773" cx="0" cy="0" r="1" gradientUnits="userSpaceOnUse" gradientTransform="translate(269.102 452.264) rotate(90) scale(1.35591 1.35686)">
<stop stop-color="white" stop-opacity="0"/>
<stop offset="1" stop-color="white"/>
</radialGradient>
<radialGradient id="paint41_radial_0_9773" cx="0" cy="0" r="1" gradientUnits="userSpaceOnUse" gradientTransform="translate(285.946 453.387) rotate(90) scale(1.35591 1.35686)">
<stop stop-color="white" stop-opacity="0"/>
<stop offset="1" stop-color="white"/>
</radialGradient>
<radialGradient id="paint42_radial_0_9773" cx="0" cy="0" r="1" gradientUnits="userSpaceOnUse" gradientTransform="translate(18.3221 306.949) rotate(90) scale(2.71181 2.71368)">
<stop stop-color="white" stop-opacity="0"/>
<stop offset="1" stop-color="white"/>
</radialGradient>
<radialGradient id="paint43_radial_0_9773" cx="0" cy="0" r="1" gradientUnits="userSpaceOnUse" gradientTransform="translate(42.6508 290.865) rotate(90) scale(1.3559 1.35682)">
<stop stop-color="white" stop-opacity="0"/>
<stop offset="1" stop-color="white"/>
</radialGradient>
<radialGradient id="paint44_radial_0_9773" cx="0" cy="0" r="1" gradientUnits="userSpaceOnUse" gradientTransform="translate(25.69 284.694) rotate(90) scale(1.3559 1.28666)">
<stop stop-color="white" stop-opacity="0"/>
<stop offset="1" stop-color="white"/>
</radialGradient>
<radialGradient id="paint45_radial_0_9773" cx="0" cy="0" r="1" gradientUnits="userSpaceOnUse" gradientTransform="translate(7.46672 295.167) rotate(90) scale(0.561061 0.561445)">
<stop stop-color="white" stop-opacity="0"/>
<stop offset="1" stop-color="white"/>
</radialGradient>
<radialGradient id="paint46_radial_0_9773" cx="0" cy="0" r="1" gradientUnits="userSpaceOnUse" gradientTransform="translate(21.5029 294.606) rotate(90) scale(0.561061 0.561445)">
<stop stop-color="white" stop-opacity="0"/>
<stop offset="1" stop-color="white"/>
</radialGradient>
<radialGradient id="paint47_radial_0_9773" cx="0" cy="0" r="1" gradientUnits="userSpaceOnUse" gradientTransform="translate(4.09754 306.388) rotate(90) scale(1.35591 1.35682)">
<stop stop-color="white" stop-opacity="0"/>
<stop offset="1" stop-color="white"/>
</radialGradient>
<radialGradient id="paint48_radial_0_9773" cx="0" cy="0" r="1" gradientUnits="userSpaceOnUse" gradientTransform="translate(309.083 169.582) rotate(90) scale(1.2633 1.24036)">
<stop stop-color="white" stop-opacity="0"/>
<stop offset="1" stop-color="white"/>
</radialGradient>
<radialGradient id="paint49_radial_0_9773" cx="0" cy="0" r="1" gradientUnits="userSpaceOnUse" gradientTransform="translate(85.6951 457.314) rotate(90) scale(2.71181 2.71368)">
<stop stop-color="white" stop-opacity="0"/>
<stop offset="1" stop-color="white"/>
</radialGradient>
<radialGradient id="paint50_radial_0_9773" cx="0" cy="0" r="1" gradientUnits="userSpaceOnUse" gradientTransform="translate(89.2508 375.212) rotate(90) scale(2.71181 2.71368)">
<stop stop-color="white" stop-opacity="0"/>
<stop offset="1" stop-color="white"/>
</radialGradient>
<radialGradient id="paint51_radial_0_9773" cx="0" cy="0" r="1" gradientUnits="userSpaceOnUse" gradientTransform="translate(77.087 493.596) rotate(90) scale(2.05724 2.05865)">
<stop stop-color="white" stop-opacity="0"/>
<stop offset="1" stop-color="white"/>
</radialGradient>
<radialGradient id="paint52_radial_0_9773" cx="0" cy="0" r="1" gradientUnits="userSpaceOnUse" gradientTransform="translate(89.8119 463.299) rotate(90) scale(1.35591 1.35686)">
<stop stop-color="white" stop-opacity="0"/>
<stop offset="1" stop-color="white"/>
</radialGradient>
<radialGradient id="paint53_radial_0_9773" cx="0" cy="0" r="1" gradientUnits="userSpaceOnUse" gradientTransform="translate(109.838 441.23) rotate(90) scale(1.30914 1.31005)">
<stop stop-color="white" stop-opacity="0"/>
<stop offset="1" stop-color="white"/>
</radialGradient>
<radialGradient id="paint54_radial_0_9773" cx="0" cy="0" r="1" gradientUnits="userSpaceOnUse" gradientTransform="translate(133.489 365.674) rotate(90) scale(1.35591 1.28666)">
<stop stop-color="white" stop-opacity="0"/>
<stop offset="1" stop-color="white"/>
</radialGradient>
<radialGradient id="paint55_radial_0_9773" cx="0" cy="0" r="1" gradientUnits="userSpaceOnUse" gradientTransform="translate(93.0645 435.246) rotate(90) scale(1.35589 1.28666)">
<stop stop-color="white" stop-opacity="0"/>
<stop offset="1" stop-color="white"/>
</radialGradient>
<radialGradient id="paint56_radial_0_9773" cx="0" cy="0" r="1" gradientUnits="userSpaceOnUse" gradientTransform="translate(74.8403 445.719) rotate(90) scale(0.56107 0.561445)">
<stop stop-color="white" stop-opacity="0"/>
<stop offset="1" stop-color="white"/>
</radialGradient>
<radialGradient id="paint57_radial_0_9773" cx="0" cy="0" r="1" gradientUnits="userSpaceOnUse" gradientTransform="translate(50.6048 497.991) rotate(90) scale(0.607806 0.608217)">
<stop stop-color="white" stop-opacity="0"/>
<stop offset="1" stop-color="white"/>
</radialGradient>
<radialGradient id="paint58_radial_0_9773" cx="0" cy="0" r="1" gradientUnits="userSpaceOnUse" gradientTransform="translate(124.458 507.903) rotate(90) scale(0.607806 0.678411)">
<stop stop-color="white" stop-opacity="0"/>
<stop offset="1" stop-color="white"/>
</radialGradient>
<radialGradient id="paint59_radial_0_9773" cx="0" cy="0" r="1" gradientUnits="userSpaceOnUse" gradientTransform="translate(88.8769 445.158) rotate(90) scale(0.56107 0.561445)">
<stop stop-color="white" stop-opacity="0"/>
<stop offset="1" stop-color="white"/>
</radialGradient>
<radialGradient id="paint60_radial_0_9773" cx="0" cy="0" r="1" gradientUnits="userSpaceOnUse" gradientTransform="translate(71.4716 456.753) rotate(90) scale(1.35589 1.35682)">
<stop stop-color="white" stop-opacity="0"/>
<stop offset="1" stop-color="white"/>
</radialGradient>
<radialGradient id="paint61_radial_0_9773" cx="0" cy="0" r="1" gradientUnits="userSpaceOnUse" gradientTransform="translate(111.743 498.833) rotate(90) scale(1.35589 1.32347)">
<stop stop-color="white" stop-opacity="0"/>
<stop offset="1" stop-color="white"/>
</radialGradient>
<radialGradient id="paint62_radial_0_9773" cx="0" cy="0" r="1" gradientUnits="userSpaceOnUse" gradientTransform="translate(305.48 487.799) rotate(90) scale(1.35591 1.28663)">
<stop stop-color="white" stop-opacity="0"/>
<stop offset="1" stop-color="white"/>
</radialGradient>
<radialGradient id="paint63_radial_0_9773" cx="0" cy="0" r="1" gradientUnits="userSpaceOnUse" gradientTransform="translate(189.845 139.659) rotate(90) scale(3.83393 3.83657)">
<stop stop-color="white" stop-opacity="0"/>
<stop offset="1" stop-color="white"/>
</radialGradient>
<radialGradient id="paint64_radial_0_9773" cx="0" cy="0" r="1" gradientUnits="userSpaceOnUse" gradientTransform="translate(267.137 84.4879) rotate(90) scale(3.83393 3.83657)">
<stop stop-color="white" stop-opacity="0"/>
<stop offset="1" stop-color="white"/>
</radialGradient>
<radialGradient id="paint65_radial_0_9773" cx="0" cy="0" r="1" gradientUnits="userSpaceOnUse" gradientTransform="translate(153.443 232.702) rotate(90) scale(3.74042 3.74303)">
<stop stop-color="white" stop-opacity="0"/>
<stop offset="1" stop-color="white"/>
</radialGradient>
<radialGradient id="paint66_radial_0_9773" cx="0" cy="0" r="1" gradientUnits="userSpaceOnUse" gradientTransform="translate(165.048 92.6229) rotate(90) scale(2.71181 2.71368)">
<stop stop-color="white" stop-opacity="0"/>
<stop offset="1" stop-color="white"/>
</radialGradient>
<radialGradient id="paint67_radial_0_9773" cx="0" cy="0" r="1" gradientUnits="userSpaceOnUse" gradientTransform="translate(315.141 22.6773) rotate(90) scale(2.71181 2.71364)">
<stop stop-color="white" stop-opacity="0"/>
<stop offset="1" stop-color="white"/>
</radialGradient>
<radialGradient id="paint68_radial_0_9773" cx="0" cy="0" r="1" gradientUnits="userSpaceOnUse" gradientTransform="translate(293.586 43.6238) rotate(90) scale(2.7118 2.6794)">
<stop stop-color="white" stop-opacity="0"/>
<stop offset="1" stop-color="white"/>
</radialGradient>
<radialGradient id="paint69_radial_0_9773" cx="0" cy="0" r="1" gradientUnits="userSpaceOnUse" gradientTransform="translate(213.963 198.477) rotate(90) scale(2.71181 2.64356)">
<stop stop-color="white" stop-opacity="0"/>
<stop offset="1" stop-color="white"/>
</radialGradient>
<radialGradient id="paint70_radial_0_9773" cx="0" cy="0" r="1" gradientUnits="userSpaceOnUse" gradientTransform="translate(205.494 234.853) rotate(90) scale(1.96373 2.03523)">
<stop stop-color="white" stop-opacity="0"/>
<stop offset="1" stop-color="white"/>
</radialGradient>
<radialGradient id="paint71_radial_0_9773" cx="0" cy="0" r="1" gradientUnits="userSpaceOnUse" gradientTransform="translate(221.379 273.473) rotate(90) scale(2.05723 2.05869)">
<stop stop-color="white" stop-opacity="0"/>
<stop offset="1" stop-color="white"/>
</radialGradient>
<radialGradient id="paint72_radial_0_9773" cx="0" cy="0" r="1" gradientUnits="userSpaceOnUse" gradientTransform="translate(174.217 145.176) rotate(90) scale(1.30915 1.31005)">
<stop stop-color="white" stop-opacity="0"/>
<stop offset="1" stop-color="white"/>
</radialGradient>
<radialGradient id="paint73_radial_0_9773" cx="0" cy="0" r="1" gradientUnits="userSpaceOnUse" gradientTransform="translate(218.08 204.462) rotate(90) scale(1.35591 1.28663)">
<stop stop-color="white" stop-opacity="0"/>
<stop offset="1" stop-color="white"/>
</radialGradient>
<radialGradient id="paint74_radial_0_9773" cx="0" cy="0" r="1" gradientUnits="userSpaceOnUse" gradientTransform="translate(154.566 220.92) rotate(90) scale(1.3559 1.35682)">
<stop stop-color="white" stop-opacity="0"/>
<stop offset="1" stop-color="white"/>
</radialGradient>
<radialGradient id="paint75_radial_0_9773" cx="0" cy="0" r="1" gradientUnits="userSpaceOnUse" gradientTransform="translate(296.309 193.241) rotate(90) scale(1.3559 1.28666)">
<stop stop-color="white" stop-opacity="0"/>
<stop offset="1" stop-color="white"/>
</radialGradient>
<radialGradient id="paint76_radial_0_9773" cx="0" cy="0" r="1" gradientUnits="userSpaceOnUse" gradientTransform="translate(238.293 182.58) rotate(90) scale(1.35591 1.28666)">
<stop stop-color="white" stop-opacity="0"/>
<stop offset="1" stop-color="white"/>
</radialGradient>
<radialGradient id="paint77_radial_0_9773" cx="0" cy="0" r="1" gradientUnits="userSpaceOnUse" gradientTransform="translate(221.379 176.409) rotate(90) scale(1.3559 1.35686)">
<stop stop-color="white" stop-opacity="0"/>
<stop offset="1" stop-color="white"/>
</radialGradient>
<radialGradient id="paint78_radial_0_9773" cx="0" cy="0" r="1" gradientUnits="userSpaceOnUse" gradientTransform="translate(203.132 186.975) rotate(90) scale(0.607815 0.608217)">
<stop stop-color="white" stop-opacity="0"/>
<stop offset="1" stop-color="white"/>
</radialGradient>
<radialGradient id="paint79_radial_0_9773" cx="0" cy="0" r="1" gradientUnits="userSpaceOnUse" gradientTransform="translate(252.726 249.066) rotate(90) scale(0.607824 0.608253)">
<stop stop-color="white" stop-opacity="0"/>
<stop offset="1" stop-color="white"/>
</radialGradient>
<radialGradient id="paint80_radial_0_9773" cx="0" cy="0" r="1" gradientUnits="userSpaceOnUse" gradientTransform="translate(253.382 293.671) rotate(90) scale(0.56107 0.561445)">
<stop stop-color="white" stop-opacity="0"/>
<stop offset="1" stop-color="white"/>
</radialGradient>
<radialGradient id="paint81_radial_0_9773" cx="0" cy="0" r="1" gradientUnits="userSpaceOnUse" gradientTransform="translate(229.239 294.232) rotate(90) scale(0.561079 0.561445)">
<stop stop-color="white" stop-opacity="0"/>
<stop offset="1" stop-color="white"/>
</radialGradient>
<radialGradient id="paint82_radial_0_9773" cx="0" cy="0" r="1" gradientUnits="userSpaceOnUse" gradientTransform="translate(228.491 286.003) rotate(90) scale(0.561052 0.561445)">
<stop stop-color="white" stop-opacity="0"/>
<stop offset="1" stop-color="white"/>
</radialGradient>
<radialGradient id="paint83_radial_0_9773" cx="0" cy="0" r="1" gradientUnits="userSpaceOnUse" gradientTransform="translate(217.285 186.414) rotate(90) scale(0.607833 0.678411)">
<stop stop-color="white" stop-opacity="0"/>
<stop offset="1" stop-color="white"/>
</radialGradient>
<radialGradient id="paint84_radial_0_9773" cx="0" cy="0" r="1" gradientUnits="userSpaceOnUse" gradientTransform="translate(199.857 197.916) rotate(90) scale(1.3559 1.35686)">
<stop stop-color="white" stop-opacity="0"/>
<stop offset="1" stop-color="white"/>
</radialGradient>
<radialGradient id="paint85_radial_0_9773" cx="0" cy="0" r="1" gradientUnits="userSpaceOnUse" gradientTransform="translate(240.093 239.996) rotate(90) scale(1.35591 1.35682)">
<stop stop-color="white" stop-opacity="0"/>
<stop offset="1" stop-color="white"/>
</radialGradient>
<radialGradient id="paint86_radial_0_9773" cx="0" cy="0" r="1" gradientUnits="userSpaceOnUse" gradientTransform="translate(186.195 285.442) rotate(90) scale(1.3559 1.35682)">
<stop stop-color="white" stop-opacity="0"/>
<stop offset="1" stop-color="white"/>
</radialGradient>
<radialGradient id="paint87_radial_0_9773" cx="0" cy="0" r="1" gradientUnits="userSpaceOnUse" gradientTransform="translate(209.402 294.419) rotate(90) scale(1.3559 1.35682)">
<stop stop-color="white" stop-opacity="0"/>
<stop offset="1" stop-color="white"/>
</radialGradient>
<radialGradient id="paint88_radial_0_9773" cx="0" cy="0" r="1" gradientUnits="userSpaceOnUse" gradientTransform="translate(227.369 351.647) rotate(90) scale(1.35591 1.35686)">
<stop stop-color="white" stop-opacity="0"/>
<stop offset="1" stop-color="white"/>
</radialGradient>
<radialGradient id="paint89_radial_0_9773" cx="0" cy="0" r="1" gradientUnits="userSpaceOnUse" gradientTransform="translate(158.684 254.022) rotate(90) scale(1.3559 1.35682)">
<stop stop-color="white" stop-opacity="0"/>
<stop offset="1" stop-color="white"/>
</radialGradient>
<clipPath id="clip0_0_9773">
<rect width="320" height="568" fill="white"/>
</clipPath>
</defs>
</svg>
