<svg width="834" height="1194" viewBox="0 0 834 1194" fill="none" xmlns="http://www.w3.org/2000/svg">
<g clip-path="url(#clip0_0_13413)">
<rect width="834" height="1194" fill="white"/>
<rect width="834" height="1194" fill="url(#paint0_radial_0_13413)"/>
<g opacity="0.54">
<path opacity="0.54" d="M3.54405 1186.87C6.57852 1186.87 9.03842 1184.41 9.03842 1181.37C9.03842 1178.34 6.57852 1175.88 3.54405 1175.88C0.509581 1175.88 -1.95044 1178.34 -1.95044 1181.37C-1.95044 1184.41 0.509581 1186.87 3.54405 1186.87Z" fill="url(#paint1_radial_0_13413)"/>
<path opacity="0.54" d="M52.9927 781.739C56.0271 781.739 58.4872 779.281 58.4872 776.249C58.4872 773.217 56.0271 770.758 52.9927 770.758C49.9582 770.758 47.4983 773.217 47.4983 776.249C47.4983 779.281 49.9582 781.739 52.9927 781.739Z" fill="url(#paint2_radial_0_13413)"/>
<path opacity="0.54" fill-rule="evenodd" clip-rule="evenodd" d="M62.8044 1015.48C62.8044 1018.62 60.4497 1020.97 57.31 1020.97C54.1704 1020.97 51.8157 1018.62 51.8157 1015.48C51.8157 1012.34 54.1704 1009.99 57.31 1009.99C60.4497 1009.99 62.8044 1012.34 62.8044 1015.48Z" fill="url(#paint3_radial_0_13413)"/>
<path opacity="0.54" fill-rule="evenodd" clip-rule="evenodd" d="M389.325 717.421C392.465 714.283 397.567 714.283 400.707 717.421C403.846 720.558 403.846 725.657 400.707 728.794C397.567 731.932 392.465 731.932 389.325 728.794C386.186 725.657 386.186 720.558 389.325 717.421Z" fill="url(#paint4_radial_0_13413)"/>
<path opacity="0.54" d="M62.8032 753.11C67.1381 753.11 70.6522 749.598 70.6522 745.266C70.6522 740.934 67.1381 737.423 62.8032 737.423C58.4682 737.423 54.9541 740.934 54.9541 745.266C54.9541 749.598 58.4682 753.11 62.8032 753.11Z" fill="url(#paint5_radial_0_13413)"/>
<path opacity="0.54" fill-rule="evenodd" clip-rule="evenodd" d="M288.073 829.978C291.213 826.84 296.315 826.84 299.454 829.978C302.594 833.115 302.594 838.214 299.454 841.351C296.315 844.488 291.213 844.488 288.073 841.351C284.934 838.214 284.934 833.115 288.073 829.978Z" fill="url(#paint6_radial_0_13413)"/>
<path opacity="0.54" fill-rule="evenodd" clip-rule="evenodd" d="M339.091 620.944C341.446 618.591 344.978 618.591 346.94 620.944C349.295 623.297 349.295 626.827 346.94 628.788C344.586 631.141 341.054 631.141 339.091 628.788C336.737 626.435 336.737 622.905 339.091 620.944Z" fill="url(#paint7_radial_0_13413)"/>
<path opacity="0.54" fill-rule="evenodd" clip-rule="evenodd" d="M441.523 842.92C443.877 840.567 447.409 840.567 449.372 842.92C451.726 845.273 451.726 848.803 449.372 850.764C447.017 853.117 443.485 853.117 441.523 850.764C439.168 848.803 439.168 845.273 441.523 842.92Z" fill="url(#paint8_radial_0_13413)"/>
<path opacity="0.54" fill-rule="evenodd" clip-rule="evenodd" d="M183.681 700.165C186.035 697.812 189.567 697.812 191.53 700.165C193.884 702.518 193.884 706.048 191.53 708.009C189.175 710.362 185.643 710.362 183.681 708.009C181.326 706.048 181.326 702.518 183.681 700.165Z" fill="url(#paint9_radial_0_13413)"/>
<path opacity="0.54" d="M427.787 927.239C430.171 927.239 432.104 925.308 432.104 922.925C432.104 920.543 430.171 918.611 427.787 918.611C425.402 918.611 423.47 920.543 423.47 922.925C423.47 925.308 425.402 927.239 427.787 927.239Z" fill="url(#paint10_radial_0_13413)"/>
<path opacity="0.54" fill-rule="evenodd" clip-rule="evenodd" d="M360.284 733.109C361.462 731.932 363.032 731.932 364.209 733.109C365.386 734.285 365.386 735.854 364.209 737.031C363.032 738.207 361.462 738.207 360.284 737.031C359.5 735.854 359.5 733.893 360.284 733.109Z" fill="url(#paint11_radial_0_13413)"/>
<path opacity="0.54" fill-rule="evenodd" clip-rule="evenodd" d="M452.119 857.431C453.296 856.254 454.866 856.254 456.043 857.431C457.22 858.607 457.22 860.176 456.043 861.353C454.866 862.529 453.296 862.529 452.119 861.353C451.334 860.176 451.334 858.607 452.119 857.431Z" fill="url(#paint12_radial_0_13413)"/>
<path opacity="0.54" fill-rule="evenodd" clip-rule="evenodd" d="M494.504 811.546C495.681 810.369 497.251 810.369 498.429 811.546C499.606 812.722 499.606 814.291 498.429 815.467C497.251 816.644 495.681 816.644 494.504 815.467C493.327 814.291 493.327 812.33 494.504 811.546Z" fill="url(#paint13_radial_0_13413)"/>
<path opacity="0.54" fill-rule="evenodd" clip-rule="evenodd" d="M459.184 798.604C460.361 797.427 461.931 797.427 463.109 798.604C464.286 799.78 464.286 801.349 463.109 802.525C461.931 803.702 460.361 803.702 459.184 802.525C458.007 801.349 458.007 799.78 459.184 798.604Z" fill="url(#paint14_radial_0_13413)"/>
<path opacity="0.54" fill-rule="evenodd" clip-rule="evenodd" d="M222.14 837.822C223.317 836.645 224.887 836.645 226.065 837.822C227.242 838.998 227.242 840.567 226.065 841.744C224.887 842.92 223.317 842.92 222.14 841.744C220.963 840.567 220.963 838.998 222.14 837.822Z" fill="url(#paint15_radial_0_13413)"/>
<path opacity="0.54" d="M423.078 823.703C423.728 823.703 424.255 823.176 424.255 822.526C424.255 821.877 423.728 821.35 423.078 821.35C422.428 821.35 421.9 821.877 421.9 822.526C421.9 823.176 422.428 823.703 423.078 823.703Z" fill="url(#paint16_radial_0_13413)"/>
<path opacity="0.54" fill-rule="evenodd" clip-rule="evenodd" d="M525.9 951.947C526.293 951.555 527.078 951.555 527.862 951.947C528.255 952.339 528.255 953.123 527.862 953.908C527.47 954.3 526.685 954.3 525.9 953.908C525.508 953.516 525.508 952.731 525.9 951.947Z" fill="url(#paint17_radial_0_13413)"/>
<path opacity="0.54" d="M79.2876 600.942C79.9378 600.942 80.4649 600.416 80.4649 599.766C80.4649 599.116 79.9378 598.589 79.2876 598.589C78.6374 598.589 78.1104 599.116 78.1104 599.766C78.1104 600.416 78.6374 600.942 79.2876 600.942Z" fill="url(#paint18_radial_0_13413)"/>
<path opacity="0.54" d="M452.511 822.526C453.161 822.526 453.688 822 453.688 821.35C453.688 820.7 453.161 820.173 452.511 820.173C451.861 820.173 451.333 820.7 451.333 821.35C451.333 822 451.861 822.526 452.511 822.526Z" fill="url(#paint19_radial_0_13413)"/>
<path opacity="0.54" fill-rule="evenodd" clip-rule="evenodd" d="M414.05 843.704C415.228 842.528 416.797 842.528 417.975 843.704C419.152 844.881 419.152 846.45 417.975 847.626C416.797 848.803 415.228 848.803 414.05 847.626C412.873 846.45 412.873 844.881 414.05 843.704Z" fill="url(#paint20_radial_0_13413)"/>
<path opacity="0.54" fill-rule="evenodd" clip-rule="evenodd" d="M498.428 931.945C499.606 930.769 501.176 930.769 502.353 931.945C503.53 933.122 503.53 934.691 502.353 935.867C501.176 937.044 499.606 937.044 498.428 935.867C497.251 934.691 497.251 933.122 498.428 931.945Z" fill="url(#paint21_radial_0_13413)"/>
<path opacity="0.54" fill-rule="evenodd" clip-rule="evenodd" d="M434.065 1046.07C435.242 1044.89 436.812 1044.89 437.99 1046.07C439.167 1047.25 439.167 1048.82 437.99 1049.99C436.812 1051.17 435.242 1051.17 434.065 1049.99C432.888 1048.42 432.888 1046.86 434.065 1046.07Z" fill="url(#paint22_radial_0_13413)"/>
<path opacity="0.54" fill-rule="evenodd" clip-rule="evenodd" d="M327.317 960.967C328.495 959.791 330.064 959.791 331.242 960.967C332.419 962.144 332.419 963.712 331.242 964.889C330.064 966.065 328.495 966.065 327.317 964.889C326.532 963.712 326.532 962.144 327.317 960.967Z" fill="url(#paint23_radial_0_13413)"/>
<path opacity="0.54" d="M711.924 876.648C716.259 876.648 719.774 873.136 719.774 868.804C719.774 864.472 716.259 860.961 711.924 860.961C707.59 860.961 704.075 864.472 704.075 868.804C704.075 873.136 707.59 876.648 711.924 876.648Z" fill="url(#paint24_radial_0_13413)"/>
<path opacity="0.54" d="M610.67 989.204C615.005 989.204 618.519 985.693 618.519 981.361C618.519 977.029 615.005 973.517 610.67 973.517C606.335 973.517 602.821 977.029 602.821 981.361C602.821 985.693 606.335 989.204 610.67 989.204Z" fill="url(#paint25_radial_0_13413)"/>
<path opacity="0.54" d="M635.395 1072.35C639.73 1072.35 643.245 1068.84 643.245 1064.5C643.245 1060.17 639.73 1056.66 635.395 1056.66C631.061 1056.66 627.546 1060.17 627.546 1064.5C627.546 1068.84 631.061 1072.35 635.395 1072.35Z" fill="url(#paint26_radial_0_13413)"/>
<path opacity="0.54" fill-rule="evenodd" clip-rule="evenodd" d="M655.802 766.444C658.156 764.091 661.688 764.091 663.651 766.444C666.005 768.797 666.005 772.327 663.651 774.288C661.296 776.641 657.764 776.641 655.802 774.288C653.839 771.935 653.839 768.797 655.802 766.444Z" fill="url(#paint27_radial_0_13413)"/>
<path opacity="0.54" fill-rule="evenodd" clip-rule="evenodd" d="M500.39 845.665C502.745 843.312 506.277 843.312 508.239 845.665C510.594 848.018 510.594 851.548 508.239 853.509C505.884 855.862 502.352 855.862 500.39 853.509C498.428 851.548 498.428 848.018 500.39 845.665Z" fill="url(#paint28_radial_0_13413)"/>
<path opacity="0.54" d="M618.911 1048.03C621.295 1048.03 623.228 1046.1 623.228 1043.72C623.228 1041.34 621.295 1039.4 618.911 1039.4C616.527 1039.4 614.594 1041.34 614.594 1043.72C614.594 1046.1 616.527 1048.03 618.911 1048.03Z" fill="url(#paint29_radial_0_13413)"/>
<path opacity="0.54" d="M377.945 1200.2C380.329 1200.2 382.262 1198.27 382.262 1195.89C382.262 1193.5 380.329 1191.57 377.945 1191.57C375.561 1191.57 373.628 1193.5 373.628 1195.89C373.628 1198.27 375.561 1200.2 377.945 1200.2Z" fill="url(#paint30_radial_0_13413)"/>
<path opacity="0.54" fill-rule="evenodd" clip-rule="evenodd" d="M677.387 878.608C678.564 877.432 680.134 877.432 681.311 878.608C682.489 879.785 682.489 881.354 681.311 882.53C680.134 883.707 678.564 883.707 677.387 882.53C676.21 881.354 676.21 879.785 677.387 878.608Z" fill="url(#paint31_radial_0_13413)"/>
<path opacity="0.54" fill-rule="evenodd" clip-rule="evenodd" d="M636.18 1037.44C637.357 1036.27 638.927 1036.27 640.105 1037.44C641.282 1038.62 641.282 1040.19 640.105 1041.36C638.927 1042.54 637.357 1042.54 636.18 1041.36C635.003 1040.19 635.003 1038.62 636.18 1037.44Z" fill="url(#paint32_radial_0_13413)"/>
<path opacity="0.54" fill-rule="evenodd" clip-rule="evenodd" d="M243.725 762.13C244.902 760.954 246.472 760.954 247.649 762.13C248.827 763.307 248.827 764.876 247.649 766.052C246.472 767.229 244.902 767.229 243.725 766.052C242.547 764.876 242.547 762.915 243.725 762.13Z" fill="url(#paint33_radial_0_13413)"/>
<path opacity="0.54" fill-rule="evenodd" clip-rule="evenodd" d="M539.245 983.322C540.422 982.145 541.992 982.145 543.169 983.322C544.347 984.498 544.347 986.067 543.169 987.244C541.992 988.42 540.422 988.42 539.245 987.244C538.067 986.067 538.067 984.498 539.245 983.322Z" fill="url(#paint34_radial_0_13413)"/>
<path opacity="0.54" fill-rule="evenodd" clip-rule="evenodd" d="M528.648 1010.38C529.041 1009.99 529.826 1009.99 530.611 1010.38C531.003 1010.77 531.003 1011.56 530.611 1012.34C530.218 1012.74 529.433 1012.74 528.648 1012.34C528.256 1011.56 528.256 1010.77 528.648 1010.38Z" fill="url(#paint35_radial_0_13413)"/>
<path opacity="0.54" d="M566.323 988.028C566.973 988.028 567.5 987.501 567.5 986.852C567.5 986.202 566.973 985.675 566.323 985.675C565.672 985.675 565.145 986.202 565.145 986.852C565.145 987.501 565.672 988.028 566.323 988.028Z" fill="url(#paint36_radial_0_13413)"/>
<path opacity="0.54" d="M325.357 752.718C326.007 752.718 326.534 752.191 326.534 751.541C326.534 750.892 326.007 750.365 325.357 750.365C324.707 750.365 324.18 750.892 324.18 751.541C324.18 752.191 324.707 752.718 325.357 752.718Z" fill="url(#paint37_radial_0_13413)"/>
<path opacity="0.54" fill-rule="evenodd" clip-rule="evenodd" d="M21.9889 1071.56C22.3814 1071.17 23.1662 1071.17 23.9511 1071.56C24.3436 1071.96 24.3436 1072.74 23.9511 1073.52C23.5587 1073.92 22.7738 1073.92 21.9889 1073.52C21.5965 1072.74 21.5965 1071.96 21.9889 1071.56Z" fill="url(#paint38_radial_0_13413)"/>
<path opacity="0.54" fill-rule="evenodd" clip-rule="evenodd" d="M626.762 1054.31C627.155 1053.91 627.94 1053.91 628.725 1054.31C629.117 1054.7 629.117 1055.48 628.725 1056.27C628.332 1056.66 627.547 1056.66 626.762 1056.27C625.978 1055.48 625.978 1054.7 626.762 1054.31Z" fill="url(#paint39_radial_0_13413)"/>
<path opacity="0.54" fill-rule="evenodd" clip-rule="evenodd" d="M617.735 1034.31C618.127 1033.91 618.912 1033.91 619.697 1034.31C620.09 1034.7 620.09 1035.48 619.697 1036.27C619.305 1036.66 618.52 1036.66 617.735 1036.27C617.343 1035.87 617.343 1035.09 617.735 1034.31Z" fill="url(#paint40_radial_0_13413)"/>
<path opacity="0.54" fill-rule="evenodd" clip-rule="evenodd" d="M568.285 1032.34C569.463 1031.17 571.033 1031.17 572.21 1032.34C573.387 1033.52 573.387 1035.09 572.21 1036.27C571.033 1037.44 569.463 1037.44 568.285 1036.27C567.108 1035.09 567.108 1033.13 568.285 1032.34Z" fill="url(#paint41_radial_0_13413)"/>
<path opacity="0.54" fill-rule="evenodd" clip-rule="evenodd" d="M603.605 1034.7C604.783 1033.52 606.353 1033.52 607.53 1034.7C608.707 1035.87 608.707 1037.44 607.53 1038.62C606.353 1039.8 604.783 1039.8 603.605 1038.62C602.428 1037.44 602.428 1035.87 603.605 1034.7Z" fill="url(#paint42_radial_0_13413)"/>
<path opacity="0.54" fill-rule="evenodd" clip-rule="evenodd" d="M-4.30633 813.898C-3.12897 812.722 -1.55914 812.722 -0.381771 813.898C0.795599 815.075 0.795599 816.644 -0.381771 817.82C-1.55914 818.997 -3.12897 818.997 -4.30633 817.82C-5.09125 816.644 -5.09125 815.075 -4.30633 813.898Z" fill="url(#paint43_radial_0_13413)"/>
<path opacity="0.54" fill-rule="evenodd" clip-rule="evenodd" d="M40.4355 725.657C42.7902 723.304 46.3223 723.304 48.2846 725.657C50.6393 728.011 50.6393 731.54 48.2846 733.501C45.9298 735.854 42.3978 735.854 40.4355 733.501C38.0808 731.148 38.0808 727.618 40.4355 725.657Z" fill="url(#paint44_radial_0_13413)"/>
<path opacity="0.54" fill-rule="evenodd" clip-rule="evenodd" d="M93.4165 693.89C94.5938 692.713 96.1636 692.713 97.341 693.89C98.5183 695.067 98.5183 696.635 97.341 697.812C96.1636 698.988 94.5938 698.988 93.4165 697.812C92.2391 696.635 92.2391 695.067 93.4165 693.89Z" fill="url(#paint45_radial_0_13413)"/>
<path opacity="0.54" fill-rule="evenodd" clip-rule="evenodd" d="M57.7015 680.948C58.8788 679.772 60.4487 679.772 61.626 680.948C62.8034 682.125 62.8034 683.693 61.626 684.87C60.4487 686.046 58.8788 686.046 57.7015 684.87C56.9166 683.693 56.9166 682.125 57.7015 680.948Z" fill="url(#paint46_radial_0_13413)"/>
<path opacity="0.54" d="M21.5972 706.048C22.2474 706.048 22.7746 705.521 22.7746 704.871C22.7746 704.222 22.2474 703.695 21.5972 703.695C20.947 703.695 20.4199 704.222 20.4199 704.871C20.4199 705.521 20.947 706.048 21.5972 706.048Z" fill="url(#paint47_radial_0_13413)"/>
<path opacity="0.54" d="M51.0303 704.871C51.6805 704.871 52.2077 704.344 52.2077 703.695C52.2077 703.045 51.6805 702.518 51.0303 702.518C50.3801 702.518 49.853 703.045 49.853 703.695C49.853 704.344 50.3801 704.871 51.0303 704.871Z" fill="url(#paint48_radial_0_13413)"/>
<path opacity="0.54" fill-rule="evenodd" clip-rule="evenodd" d="M12.5698 726.441C13.7471 725.264 15.3169 725.264 16.4943 726.441C17.6716 727.618 17.6716 729.186 16.4943 730.363C15.3169 731.539 13.7471 731.539 12.5698 730.363C11.3924 728.794 11.3924 727.225 12.5698 726.441Z" fill="url(#paint49_radial_0_13413)"/>
<path opacity="0.54" fill-rule="evenodd" clip-rule="evenodd" d="M828.484 254.645C830.053 254.252 831.231 255.037 831.623 256.606C832.016 258.174 831.231 259.351 829.661 259.743C828.091 260.135 826.914 259.351 826.521 257.782C826.129 256.606 826.914 255.037 828.484 254.645Z" fill="url(#paint50_radial_0_13413)"/>
<path opacity="0.54" fill-rule="evenodd" clip-rule="evenodd" d="M653.448 438.971C655.018 438.579 656.196 439.363 656.588 440.932C656.981 442.501 656.196 443.677 654.626 444.07C653.056 444.462 651.879 443.677 651.486 442.109C651.486 440.932 652.271 439.363 653.448 438.971Z" fill="url(#paint51_radial_0_13413)"/>
<path opacity="0.54" fill-rule="evenodd" clip-rule="evenodd" d="M833.191 392.301C834.369 391.125 835.938 391.125 837.116 392.301C838.293 393.478 838.293 395.046 837.116 396.223C835.938 397.4 834.369 397.4 833.191 396.223C832.014 395.046 832.014 393.478 833.191 392.301Z" fill="url(#paint52_radial_0_13413)"/>
<path opacity="0.54" fill-rule="evenodd" clip-rule="evenodd" d="M181.718 1040.97C184.073 1038.62 187.605 1038.62 189.567 1040.97C191.922 1043.33 191.922 1046.86 189.567 1048.82C187.212 1051.17 183.68 1051.17 181.718 1048.82C179.363 1046.86 179.363 1043.33 181.718 1040.97Z" fill="url(#paint53_radial_0_13413)"/>
<path opacity="0.54" fill-rule="evenodd" clip-rule="evenodd" d="M189.174 868.804C191.529 866.451 195.061 866.451 197.023 868.804C199.378 871.157 199.378 874.687 197.023 876.648C194.669 879.001 191.137 879.001 189.174 876.648C186.82 874.687 186.82 871.157 189.174 868.804Z" fill="url(#paint54_radial_0_13413)"/>
<path opacity="0.54" d="M167.589 1125.29C169.973 1125.29 171.906 1123.36 171.906 1120.98C171.906 1118.6 169.973 1116.66 167.589 1116.66C165.205 1116.66 163.272 1118.6 163.272 1120.98C163.272 1123.36 165.205 1125.29 167.589 1125.29Z" fill="url(#paint55_radial_0_13413)"/>
<path opacity="0.54" fill-rule="evenodd" clip-rule="evenodd" d="M192.314 1055.48C193.491 1054.31 195.061 1054.31 196.239 1055.48C197.416 1056.66 197.416 1058.23 196.239 1059.4C195.061 1060.58 193.491 1060.58 192.314 1059.4C191.137 1058.23 191.137 1056.66 192.314 1055.48Z" fill="url(#paint56_radial_0_13413)"/>
<path opacity="0.54" d="M236.269 1013.91C237.786 1013.91 239.016 1012.68 239.016 1011.17C239.016 1009.65 237.786 1008.42 236.269 1008.42C234.751 1008.42 233.521 1009.65 233.521 1011.17C233.521 1012.68 234.751 1013.91 236.269 1013.91Z" fill="url(#paint57_radial_0_13413)"/>
<path opacity="0.54" fill-rule="evenodd" clip-rule="evenodd" d="M283.755 850.764C284.933 849.587 286.503 849.587 287.68 850.764C288.857 851.94 288.857 853.509 287.68 854.686C286.503 855.862 284.933 855.862 283.755 854.686C282.971 853.509 282.971 851.94 283.755 850.764Z" fill="url(#paint58_radial_0_13413)"/>
<path opacity="0.54" fill-rule="evenodd" clip-rule="evenodd" d="M198.987 996.656C200.164 995.48 201.734 995.48 202.911 996.656C204.089 997.833 204.089 999.402 202.911 1000.58C201.734 1001.75 200.164 1001.75 198.987 1000.58C198.202 999.402 198.202 997.441 198.987 996.656Z" fill="url(#paint59_radial_0_13413)"/>
<path opacity="0.54" d="M162.88 1021.76C163.53 1021.76 164.058 1021.23 164.058 1020.58C164.058 1019.93 163.53 1019.4 162.88 1019.4C162.23 1019.4 161.703 1019.93 161.703 1020.58C161.703 1021.23 162.23 1021.76 162.88 1021.76Z" fill="url(#paint60_radial_0_13413)"/>
<path opacity="0.54" fill-rule="evenodd" clip-rule="evenodd" d="M111.077 1129.21C111.47 1128.82 112.255 1128.82 113.039 1129.21C113.432 1129.61 113.432 1130.39 113.039 1131.18C112.647 1131.57 111.862 1131.57 111.077 1131.18C110.685 1130.39 110.685 1129.61 111.077 1129.21Z" fill="url(#paint61_radial_0_13413)"/>
<path opacity="0.54" fill-rule="evenodd" clip-rule="evenodd" d="M266.096 1150C266.488 1149.61 267.273 1149.61 268.058 1150C268.45 1150.39 268.45 1151.18 268.058 1151.96C267.665 1152.35 266.88 1152.35 266.096 1151.96C265.311 1151.57 265.311 1150.78 266.096 1150Z" fill="url(#paint62_radial_0_13413)"/>
<path opacity="0.54" d="M192.313 1020.58C192.964 1020.58 193.491 1020.05 193.491 1019.4C193.491 1018.75 192.964 1018.23 192.313 1018.23C191.663 1018.23 191.136 1018.75 191.136 1019.4C191.136 1020.05 191.663 1020.58 192.313 1020.58Z" fill="url(#paint63_radial_0_13413)"/>
<path opacity="0.54" fill-rule="evenodd" clip-rule="evenodd" d="M153.853 1041.76C155.03 1040.58 156.6 1040.58 157.777 1041.76C158.955 1042.93 158.955 1044.5 157.777 1045.68C156.6 1046.86 155.03 1046.86 153.853 1045.68C152.675 1044.5 152.675 1042.93 153.853 1041.76Z" fill="url(#paint64_radial_0_13413)"/>
<path opacity="0.54" fill-rule="evenodd" clip-rule="evenodd" d="M238.232 1130C239.409 1128.82 240.979 1128.82 242.157 1130C243.334 1131.17 243.334 1132.74 242.157 1133.92C240.979 1135.1 239.409 1135.1 238.232 1133.92C237.055 1132.74 237.447 1131.17 238.232 1130Z" fill="url(#paint65_radial_0_13413)"/>
<path opacity="0.54" fill-rule="evenodd" clip-rule="evenodd" d="M644.422 1106.86C645.599 1105.68 647.169 1105.68 648.346 1106.86C649.524 1108.04 649.524 1109.61 648.346 1110.78C647.169 1111.96 645.599 1111.96 644.422 1110.78C643.637 1109.61 643.637 1107.64 644.422 1106.86Z" fill="url(#paint66_radial_0_13413)"/>
<path opacity="0.54" fill-rule="evenodd" clip-rule="evenodd" d="M800.618 260.135C799.048 262.88 795.909 264.057 792.769 262.488C790.022 260.919 788.845 257.782 790.415 254.644C791.984 251.899 795.124 250.723 798.264 252.291C801.011 254.252 801.796 257.39 800.618 260.135Z" fill="url(#paint67_radial_0_13413)"/>
<path opacity="0.54" fill-rule="evenodd" clip-rule="evenodd" d="M794.339 181.698C793.162 183.659 790.807 184.444 788.845 183.267C786.882 182.091 786.098 179.737 787.275 177.777C788.452 175.816 790.807 175.031 792.769 176.208C794.731 176.992 795.516 179.737 794.339 181.698Z" fill="url(#paint68_radial_0_13413)"/>
<path opacity="0.54" fill-rule="evenodd" clip-rule="evenodd" d="M786.098 249.546C785.313 250.723 783.743 251.507 782.566 250.723C781.388 249.938 780.603 248.37 781.388 247.193C782.173 246.016 783.743 245.232 784.92 246.016C786.49 246.409 786.883 248.37 786.098 249.546Z" fill="url(#paint69_radial_0_13413)"/>
<path opacity="0.54" fill-rule="evenodd" clip-rule="evenodd" d="M759.019 305.629C758.234 306.805 756.664 307.59 755.487 306.805C754.31 306.021 753.525 304.452 754.31 303.275C755.095 302.099 756.664 301.315 757.842 302.099C759.019 302.883 759.411 304.452 759.019 305.629Z" fill="url(#paint70_radial_0_13413)"/>
<path opacity="0.54" fill-rule="evenodd" clip-rule="evenodd" d="M796.695 307.982C795.91 309.158 794.34 309.943 793.163 309.158C791.986 308.374 791.2 306.805 791.985 305.629C792.77 304.452 794.34 303.668 795.517 304.452C796.695 304.844 797.087 306.413 796.695 307.982Z" fill="url(#paint71_radial_0_13413)"/>
<path opacity="0.54" fill-rule="evenodd" clip-rule="evenodd" d="M728.407 284.451C727.622 285.627 726.053 286.412 724.875 285.627C723.698 284.843 722.913 283.274 723.698 282.098C724.483 280.921 726.052 280.137 727.23 280.921C728.407 281.706 728.8 283.274 728.407 284.451Z" fill="url(#paint72_radial_0_13413)"/>
<path opacity="0.54" fill-rule="evenodd" clip-rule="evenodd" d="M825.342 275.038C824.949 275.823 824.164 275.823 823.379 275.431C822.594 275.038 822.594 274.254 822.987 273.47C823.379 272.685 824.164 272.685 824.949 273.077C825.342 273.862 825.734 274.646 825.342 275.038Z" fill="url(#paint73_radial_0_13413)"/>
<path opacity="0.54" fill-rule="evenodd" clip-rule="evenodd" d="M797.48 284.843C797.088 285.627 796.303 285.627 795.518 285.235C794.733 284.843 794.733 284.059 795.125 283.274C795.518 282.49 796.303 282.49 797.088 282.882C797.48 283.274 797.872 284.059 797.48 284.843Z" fill="url(#paint74_radial_0_13413)"/>
<path opacity="0.54" fill-rule="evenodd" clip-rule="evenodd" d="M826.914 251.507C826.129 252.684 824.559 253.468 823.382 252.684C822.204 251.9 821.419 250.331 822.204 249.154C822.989 247.978 824.559 247.193 825.737 247.978C826.914 248.762 827.699 250.331 826.914 251.507Z" fill="url(#paint75_radial_0_13413)"/>
<path opacity="0.54" fill-rule="evenodd" clip-rule="evenodd" d="M398.353 373.084C401.493 369.947 406.595 369.947 409.734 373.084C412.874 376.222 412.874 381.32 409.734 384.457C406.595 387.595 401.493 387.595 398.353 384.457C395.213 380.928 395.213 375.829 398.353 373.084Z" fill="url(#paint76_radial_0_13413)"/>
<path opacity="0.54" fill-rule="evenodd" clip-rule="evenodd" d="M788.454 211.897C791.593 208.759 796.695 208.759 799.835 211.897C802.974 215.034 802.974 220.132 799.835 223.27C796.695 226.407 791.593 226.407 788.454 223.27C785.314 219.74 785.314 215.034 788.454 211.897Z" fill="url(#paint77_radial_0_13413)"/>
<path opacity="0.54" fill-rule="evenodd" clip-rule="evenodd" d="M560.437 257.39C563.577 254.252 568.679 254.252 571.818 257.39C574.958 260.527 574.958 265.626 571.818 268.763C568.679 271.901 563.577 271.901 560.437 268.763C557.298 265.234 557.298 260.527 560.437 257.39Z" fill="url(#paint78_radial_0_13413)"/>
<path opacity="0.54" d="M327.711 581.726C332.046 581.726 335.56 578.214 335.56 573.882C335.56 569.551 332.046 566.039 327.711 566.039C323.376 566.039 319.862 569.551 319.862 573.882C319.862 578.214 323.376 581.726 327.711 581.726Z" fill="url(#paint79_radial_0_13413)"/>
<path opacity="0.54" fill-rule="evenodd" clip-rule="evenodd" d="M348.12 276.214C350.474 273.861 354.006 273.861 355.969 276.214C358.323 278.567 358.323 282.097 355.969 284.058C353.614 286.411 350.082 286.411 348.12 284.058C345.765 281.705 345.765 278.175 348.12 276.214Z" fill="url(#paint80_radial_0_13413)"/>
<path opacity="0.54" fill-rule="evenodd" clip-rule="evenodd" d="M662.867 129.538C665.222 127.185 668.754 127.185 670.716 129.538C673.071 131.891 673.071 135.421 670.716 137.382C668.361 139.735 664.829 139.735 662.867 137.382C660.512 135.421 660.512 131.891 662.867 129.538Z" fill="url(#paint81_radial_0_13413)"/>
<path opacity="0.54" fill-rule="evenodd" clip-rule="evenodd" d="M617.736 173.463C620.09 171.11 623.622 171.11 625.585 173.463C627.547 175.816 627.939 179.346 625.585 181.306C623.23 183.66 619.698 183.66 617.736 181.306C615.381 179.346 615.381 175.816 617.736 173.463Z" fill="url(#paint82_radial_0_13413)"/>
<path opacity="0.54" fill-rule="evenodd" clip-rule="evenodd" d="M450.549 498.191C452.903 495.838 456.436 495.838 458.398 498.191C460.753 500.544 460.753 504.073 458.398 506.034C456.043 508.387 452.511 508.387 450.549 506.034C448.586 504.073 448.586 500.544 450.549 498.191Z" fill="url(#paint83_radial_0_13413)"/>
<path opacity="0.54" fill-rule="evenodd" clip-rule="evenodd" d="M434.065 575.451C435.635 573.882 438.382 573.882 439.951 575.451C441.521 577.02 441.521 579.765 439.951 581.334C438.382 582.903 435.635 582.903 434.065 581.334C432.102 579.373 432.102 577.02 434.065 575.451Z" fill="url(#paint84_radial_0_13413)"/>
<path opacity="0.54" d="M470.172 663.692C472.557 663.692 474.489 661.761 474.489 659.378C474.489 656.995 472.557 655.064 470.172 655.064C467.788 655.064 465.855 656.995 465.855 659.378C465.855 661.761 467.788 663.692 470.172 663.692Z" fill="url(#paint85_radial_0_13413)"/>
<path opacity="0.54" d="M371.274 393.085C372.792 393.085 374.022 391.856 374.022 390.34C374.022 388.823 372.792 387.594 371.274 387.594C369.757 387.594 368.527 388.823 368.527 390.34C368.527 391.856 369.757 393.085 371.274 393.085Z" fill="url(#paint86_radial_0_13413)"/>
<path opacity="0.54" fill-rule="evenodd" clip-rule="evenodd" d="M461.144 512.702C462.321 511.525 463.891 511.525 465.069 512.702C466.246 513.878 466.246 515.447 465.069 516.623C463.891 517.8 462.321 517.8 461.144 516.623C460.359 515.447 460.359 513.878 461.144 512.702Z" fill="url(#paint87_radial_0_13413)"/>
<path opacity="0.54" fill-rule="evenodd" clip-rule="evenodd" d="M328.103 547.214C329.28 546.037 330.85 546.037 332.027 547.214C333.205 548.391 333.205 549.959 332.027 551.136C330.85 552.312 329.28 552.312 328.103 551.136C326.926 549.959 326.926 548.391 328.103 547.214Z" fill="url(#paint88_radial_0_13413)"/>
<path opacity="0.54" fill-rule="evenodd" clip-rule="evenodd" d="M625.19 489.171C626.368 487.994 627.938 487.994 629.115 489.171C630.292 490.347 630.292 491.916 629.115 493.093C627.938 494.269 626.368 494.269 625.19 493.093C624.406 491.916 624.406 490.347 625.19 489.171Z" fill="url(#paint89_radial_0_13413)"/>
<path opacity="0.54" fill-rule="evenodd" clip-rule="evenodd" d="M706.43 469.169C707.607 467.993 709.177 467.993 710.354 469.169C711.532 470.346 711.532 471.915 710.354 473.091C709.177 474.268 707.607 474.268 706.43 473.091C705.252 471.915 705.252 470.346 706.43 469.169Z" fill="url(#paint90_radial_0_13413)"/>
<path opacity="0.54" fill-rule="evenodd" clip-rule="evenodd" d="M503.53 466.816C504.707 465.639 506.277 465.639 507.454 466.816C508.632 467.992 508.632 469.561 507.454 470.738C506.277 471.914 504.707 471.914 503.53 470.738C502.745 469.561 502.745 467.6 503.53 466.816Z" fill="url(#paint91_radial_0_13413)"/>
<path opacity="0.54" fill-rule="evenodd" clip-rule="evenodd" d="M468.209 453.874C469.387 452.697 470.957 452.697 472.134 453.874C473.311 455.05 473.311 456.619 472.134 457.795C470.957 458.972 469.387 458.972 468.209 457.795C467.032 456.619 467.032 455.05 468.209 453.874Z" fill="url(#paint92_radial_0_13413)"/>
<path opacity="0.54" fill-rule="evenodd" clip-rule="evenodd" d="M430.925 477.012C431.318 476.62 432.103 476.62 432.887 477.012C433.28 477.405 433.28 478.189 432.887 478.973C432.495 479.365 431.71 479.365 430.925 478.973C430.533 478.189 430.533 477.405 430.925 477.012Z" fill="url(#paint93_radial_0_13413)"/>
<path opacity="0.54" fill-rule="evenodd" clip-rule="evenodd" d="M534.926 607.217C535.318 606.825 536.103 606.825 536.888 607.217C537.28 607.609 537.28 608.394 536.888 609.178C536.496 609.57 535.711 609.57 534.926 609.178C534.533 608.786 534.533 608.002 534.926 607.217Z" fill="url(#paint94_radial_0_13413)"/>
<path opacity="0.54" d="M537.282 702.91C537.932 702.91 538.459 702.383 538.459 701.734C538.459 701.084 537.932 700.557 537.282 700.557C536.632 700.557 536.105 701.084 536.105 701.734C536.105 702.383 536.632 702.91 537.282 702.91Z" fill="url(#paint95_radial_0_13413)"/>
<path opacity="0.54" d="M486.654 704.087C487.305 704.087 487.832 703.56 487.832 702.91C487.832 702.26 487.305 701.733 486.654 701.733C486.004 701.733 485.477 702.26 485.477 702.91C485.477 703.56 486.004 704.087 486.654 704.087Z" fill="url(#paint96_radial_0_13413)"/>
<path opacity="0.54" d="M485.085 686.831C485.736 686.831 486.263 686.304 486.263 685.655C486.263 685.005 485.736 684.478 485.085 684.478C484.435 684.478 483.908 685.005 483.908 685.655C483.908 686.304 484.435 686.831 485.085 686.831Z" fill="url(#paint97_radial_0_13413)"/>
<path opacity="0.54" fill-rule="evenodd" clip-rule="evenodd" d="M460.753 475.836C461.146 475.444 461.931 475.444 462.716 475.836C463.108 476.228 463.108 477.013 462.716 477.797C462.323 478.189 461.538 478.189 460.753 477.797C459.969 477.013 459.969 476.228 460.753 475.836Z" fill="url(#paint98_radial_0_13413)"/>
<path opacity="0.54" fill-rule="evenodd" clip-rule="evenodd" d="M423.078 498.975C424.255 497.798 425.825 497.798 427.002 498.975C428.18 500.151 428.18 501.72 427.002 502.897C425.825 504.073 424.255 504.073 423.078 502.897C421.9 501.72 421.9 500.151 423.078 498.975Z" fill="url(#paint99_radial_0_13413)"/>
<path opacity="0.54" fill-rule="evenodd" clip-rule="evenodd" d="M507.454 587.217C508.631 586.04 510.201 586.04 511.378 587.217C512.556 588.393 512.556 589.962 511.378 591.139C510.201 592.315 508.631 592.315 507.454 591.139C506.276 589.962 506.276 588.393 507.454 587.217Z" fill="url(#paint100_radial_0_13413)"/>
<path opacity="0.54" fill-rule="evenodd" clip-rule="evenodd" d="M823.381 344.847C824.558 343.67 826.128 343.67 827.305 344.847C828.482 346.023 828.482 347.592 827.305 348.769C826.128 349.945 824.558 349.945 823.381 348.769C822.596 347.592 822.596 346.023 823.381 344.847Z" fill="url(#paint101_radial_0_13413)"/>
<path opacity="0.54" fill-rule="evenodd" clip-rule="evenodd" d="M757.057 589.962C758.234 588.785 759.804 588.785 760.981 589.962C762.159 591.138 762.159 592.707 760.981 593.883C759.804 595.06 758.234 595.06 757.057 593.883C755.879 592.707 755.879 591.138 757.057 589.962Z" fill="url(#paint102_radial_0_13413)"/>
<path opacity="0.54" fill-rule="evenodd" clip-rule="evenodd" d="M394.428 682.517C395.605 681.341 397.175 681.341 398.352 682.517C399.53 683.694 399.53 685.262 398.352 686.439C397.175 687.616 395.605 687.616 394.428 686.439C393.25 684.87 393.25 683.302 394.428 682.517Z" fill="url(#paint103_radial_0_13413)"/>
<path opacity="0.54" fill-rule="evenodd" clip-rule="evenodd" d="M443.093 701.341C444.271 700.165 445.84 700.165 447.018 701.341C448.195 702.518 448.195 704.087 447.018 705.263C445.84 706.44 444.271 706.44 443.093 705.263C441.916 704.087 441.916 702.126 443.093 701.341Z" fill="url(#paint104_radial_0_13413)"/>
<path opacity="0.54" fill-rule="evenodd" clip-rule="evenodd" d="M480.768 821.35C481.946 820.173 483.516 820.173 484.693 821.35C485.87 822.526 485.87 824.095 484.693 825.272C483.516 826.448 481.946 826.448 480.768 825.272C479.591 824.095 479.591 822.526 480.768 821.35Z" fill="url(#paint105_radial_0_13413)"/>
<path opacity="0.54" fill-rule="evenodd" clip-rule="evenodd" d="M336.737 616.63C337.915 615.453 339.484 615.453 340.662 616.63C341.839 617.807 341.839 619.375 340.662 620.552C339.484 621.728 337.915 621.728 336.737 620.552C335.56 618.983 335.56 617.414 336.737 616.63Z" fill="url(#paint106_radial_0_13413)"/>
</g>
<g opacity="0.2" clip-path="url(#clip1_0_13413)">
<path opacity="0.2" fill-rule="evenodd" clip-rule="evenodd" d="M1450 1015.48C1450 1015.48 1299.17 1035.9 1211.91 1058.75C1124.65 1081.6 1041.78 1119.53 1018.1 1123.26C994.419 1126.98 897.432 1142.54 872.779 1146.43C848.127 1150.32 770.926 1168.8 693.077 1174.96C615.228 1181.12 415.252 1139.79 340.971 1107.05C266.69 1074.31 201.977 1067.5 160.133 1060.86C118.289 1054.21 -8.8647 1075.12 -8.8647 1075.12L-10 1196.68L1446.92 1197L1450 1015.48Z" fill="#1B174E"/>
<path fill-rule="evenodd" clip-rule="evenodd" d="M-10 1196.68C-10 1196.68 7.84048 1050.32 22.7616 1016.13C22.7616 1016.13 49.3601 963.616 81.3108 961.185C81.3108 961.185 111.964 1005.75 119.425 1011.43C126.723 1017.1 134.184 1033.14 134.184 1033.14L144.563 1029.74C144.563 1029.74 158.025 963.454 173.433 949.678L199.22 942.871C199.22 942.871 206.519 879.987 223.224 856C223.224 856 248.363 859.404 255.174 879.987L263.932 1063.61L275.448 1069.77C275.448 1069.77 291.504 1123.1 295.721 1156.64C295.721 1156.64 319.724 1152.11 325.401 1158.1C331.078 1164.26 347.458 1176.74 347.458 1176.74C347.458 1176.74 378.598 1163.45 398.223 1163.45C417.847 1163.45 486.29 1163.45 486.29 1163.45C486.29 1163.45 496.507 1040.6 506.401 1016.29C516.294 991.979 528.458 987.441 528.458 987.441C528.458 987.441 538.351 997.165 542.082 1016.29C545.812 1035.41 547.596 1056 547.596 1056V992.141C547.596 992.141 553.11 899.111 571.113 867.183L590.089 856C590.089 856 615.552 1022.45 620.418 1147.57C620.418 1147.57 637.609 1150.65 645.07 1162.8L661.451 1196.68H-10Z" fill="#1B174E"/>
<path fill-rule="evenodd" clip-rule="evenodd" d="M564.625 986.306L584.574 967.506L596.901 950.65L600.144 930.391L604.199 962.319L582.628 976.582L564.625 986.306Z" fill="#1B174E"/>
<path fill-rule="evenodd" clip-rule="evenodd" d="M557.652 913.86L586.034 903.325L593.495 880.149L590.089 856C590.089 856 575.168 862.969 571.275 867.021C567.383 871.073 557.976 908.511 557.652 913.86Z" fill="#1B174E"/>
<path fill-rule="evenodd" clip-rule="evenodd" d="M505.103 1018.72C505.103 1018.72 518.24 1031.36 526.35 1034.44C534.459 1037.52 544.19 1032.82 544.19 1032.82C544.19 1032.82 544.352 1009.97 538.838 1000.57C533.161 991.168 528.62 987.279 528.62 987.279C528.62 987.279 513.05 994.896 505.103 1018.72Z" fill="#1B174E"/>
<path fill-rule="evenodd" clip-rule="evenodd" d="M495.859 1073.66L505.103 1086.63L511.591 1095.87L542.082 1111.26C542.082 1111.26 508.347 1098.46 500.562 1096.35C492.615 1094.57 495.859 1073.66 495.859 1073.66Z" fill="#1B174E"/>
<path fill-rule="evenodd" clip-rule="evenodd" d="M620.418 1147.57L577.438 1166.21L528.458 1173.01L495.697 1178.52C495.697 1178.52 542.893 1178.52 581.006 1176.9C619.12 1175.28 644.908 1162.8 644.908 1162.8C644.908 1162.8 642.475 1154.05 620.418 1147.57Z" fill="#1B174E"/>
<path fill-rule="evenodd" clip-rule="evenodd" d="M223.224 856C223.224 856 216.412 872.045 217.223 880.149C218.034 888.252 249.173 914.994 252.904 914.184C256.634 913.211 255.012 880.149 255.012 880.149C255.012 880.149 245.443 855.027 223.224 856Z" fill="#1B174E"/>
<path fill-rule="evenodd" clip-rule="evenodd" d="M199.22 942.871V973.34C199.22 973.34 183.164 976.582 176.352 970.423C169.378 964.264 173.432 949.678 173.432 949.678L199.22 942.871Z" fill="#1B174E"/>
<path fill-rule="evenodd" clip-rule="evenodd" d="M263.932 1063.78L231.982 1081.6L182.028 1096.19L130.453 1107.05C130.453 1107.05 219.493 1101.22 238.307 1098.46C257.121 1095.7 275.448 1069.94 275.448 1069.94L263.932 1063.78Z" fill="#1B174E"/>
<path fill-rule="evenodd" clip-rule="evenodd" d="M279.989 1085.66L264.743 1096.03L306.75 1100.73L346.161 1109.16L305.452 1086.79L279.989 1085.66Z" fill="#1B174E"/>
<path fill-rule="evenodd" clip-rule="evenodd" d="M34.7634 996.354C34.7634 996.354 70.12 1009.64 82.9327 1009.32C95.9076 1009 113.262 1005.11 113.262 1005.11C113.262 1005.11 98.9892 971.071 81.1487 961.185C81.1487 961.185 57.3073 962.806 34.7634 996.354Z" fill="#1B174E"/>
<path fill-rule="evenodd" clip-rule="evenodd" d="M134.021 1033.31L108.234 1042.55L68.3359 1054.54L110.667 1055.67L144.563 1029.74L134.021 1033.31Z" fill="#1B174E"/>
<path fill-rule="evenodd" clip-rule="evenodd" d="M16.5984 1035.58L38.1692 1044.98L59.74 1052.76L22.7615 1051.62L12.8682 1049.51L16.5984 1035.58Z" fill="#1B174E"/>
<path fill-rule="evenodd" clip-rule="evenodd" d="M13.1926 1125.04L41.2508 1115.32L100.287 1109.16C100.287 1109.16 70.9309 1122.61 56.8207 1125.2C42.3861 1127.63 13.1926 1125.04 13.1926 1125.04Z" fill="#1B174E"/>
</g>
<path d="M85.8476 1031.03C140.483 1033.05 193.337 1050.75 244.646 1069.64C273.033 1080.1 306.052 1090.67 331.944 1075.11C338.121 1071.42 343.584 1066.31 349.76 1062.51C381.472 1042.91 421.736 1059.9 457.606 1069.88C497.276 1080.93 539.559 1082.71 580.06 1074.99C602.746 1070.71 627.688 1060.73 635.408 1038.99C640.397 1024.85 636.477 1009.05 639.09 994.193C642.178 976.489 655.243 960.924 671.99 954.627C688.856 948.329 708.928 951.656 722.825 962.944C740.76 977.44 749.667 1004.17 771.997 1010C790.169 1014.75 809.054 1002.03 818.674 985.876C828.295 969.717 831.264 950.587 836.015 932.408C840.766 914.229 848.486 895.456 864.164 885C880.436 896.644 888.869 916.487 892.432 936.21C895.995 955.934 895.283 976.014 897.183 995.975C902.647 1053.6 929.37 1742.99 927.945 1800.86C927.826 1806.68 927.351 1812.74 924.738 1818.09C917.018 1833.41 896.114 1834.96 878.892 1834.25C581.248 1823.08 283.604 1812.03 -14.0402 1800.86C-27.1051 1800.38 -41.0015 1799.67 -51.6911 1792.3C-68.2005 1781.02 -71.5261 1123.82 -70.4571 1105.17C-69.3882 1086.75 -60.7178 1078.55 -46.3463 1067.98C-8.33908 1040.18 39.5263 1029.24 85.8476 1031.03Z" fill="#1B174E"/>
<path d="M83.9473 1035.54C82.047 1030.55 80.978 1025.32 80.6217 1019.98C80.5029 1017.6 80.3841 1014.99 78.8401 1013.2C78.0087 1012.25 76.9397 1011.78 75.8708 1011.18C70.7636 1008.57 65.5376 1005.96 60.4303 1003.46C58.8863 1003.94 57.2235 1004.89 55.6794 1005.6C54.1354 1006.31 52.5914 1006.91 50.9285 1006.79C49.2657 1006.67 47.6029 1005.72 47.1278 1004.05C48.6719 1002.87 50.2159 1001.8 51.7599 1000.61C52.4726 1000.01 53.4228 999.183 53.0665 998.351C50.8098 997.995 49.2657 996.094 47.7217 994.431C45.5838 992.173 42.9708 990.391 40.1202 989.203C35.2506 989.915 28.4805 988.252 24.3235 985.638C23.3733 985.044 22.3044 983.975 22.7794 982.905C23.3733 981.717 25.0361 982.074 26.3426 982.43C30.9747 983.737 36.9134 981.717 37.7448 977.083C38.4574 973.043 35.013 968.647 36.9134 964.964C42.0206 968.528 44.2773 975.776 42.1394 981.717C41.9018 982.311 41.6643 983.024 41.9018 983.737C42.1394 984.212 42.4957 984.569 42.9708 984.925C46.2964 987.301 49.5033 989.797 52.8289 992.173C53.4228 992.648 54.2542 993.124 54.9668 992.886C55.7982 992.648 56.0358 991.698 56.1545 990.866C56.8672 986.707 56.7484 982.549 55.917 978.39C57.461 977.558 59.0051 979.578 59.5989 981.242C61.143 985.638 61.6181 990.272 61.143 994.906C61.0242 995.856 60.9054 996.926 61.3805 997.757C61.7369 998.47 62.4495 998.827 63.0433 999.302C65.0625 1000.61 67.2004 1001.8 69.2195 1003.1C70.7636 998.827 70.6448 993.242 68.7444 989.084C68.1506 987.658 67.3192 986.351 67.2004 984.925C67.0816 983.381 67.913 981.717 69.4571 981.598C71.1199 983.975 72.6639 986.232 74.3267 988.608C76.1083 987.896 77.0585 985.876 77.1773 983.856C77.2961 981.955 76.821 980.054 76.3459 978.153C75.3957 974.113 74.9206 969.954 75.0394 965.796C77.5336 967.103 79.1964 969.598 80.1466 972.212C81.0968 974.826 81.4531 977.677 81.8094 980.41C82.8784 978.865 84.3036 977.558 85.9665 976.846C87.0354 976.37 88.2231 976.133 89.2921 976.489C90.361 976.964 91.0737 978.271 90.4798 979.341C90.1235 979.935 89.5296 980.172 88.9358 980.41C86.7979 981.598 85.2538 983.856 83.8285 985.876C82.2845 988.133 80.7405 990.51 79.0776 992.767C76.821 996.213 74.3268 1000.25 75.752 1004.17C79.3152 1005.12 83.2347 1005.24 86.4416 1003.34C87.273 1002.87 87.9856 1002.15 88.6982 1001.44C89.4109 1000.73 90.1235 1000.01 90.7174 999.183C90.8361 998.946 91.0737 998.708 91.0737 998.351C91.0737 998.114 90.8361 997.876 90.5986 997.639C89.4109 996.332 88.4607 994.906 87.8668 993.361C87.6293 992.767 87.3917 992.173 87.5105 991.46C87.748 990.391 89.1733 989.797 90.2423 990.034C91.43 990.272 92.2614 990.985 93.2116 991.817C94.5181 992.886 95.8246 994.074 97.1311 995.143C100.457 989.203 103.188 983.262 104.733 976.608C106.514 977.321 107.464 979.341 107.583 981.242C107.702 983.143 107.108 985.044 106.514 986.826C110.196 984.688 114.234 983.262 118.391 982.668C119.223 982.549 120.173 982.549 120.648 983.262C120.767 983.618 120.767 983.975 120.648 984.331C120.173 986.47 118.154 987.896 116.135 988.965C114.116 989.915 111.859 990.628 109.602 990.985C108.89 991.104 108.177 991.222 107.583 991.579C106.752 992.054 106.395 993.005 105.92 993.836C103.188 999.064 98.2 1003.1 92.3802 1004.53C93.0928 1006.79 94.6369 1008.81 95.3495 1010.95C105.208 1006.91 115.303 1002.63 122.192 994.549C122.905 993.718 124.211 992.886 124.924 993.718C125.161 994.074 125.161 994.549 125.161 994.906C124.924 998.589 122.786 1002.15 119.46 1004.05C123.855 1002.75 128.843 1002.99 133.119 1004.77C134.069 1005.12 135.138 1005.96 135.02 1006.91C135.02 1007.5 134.544 1007.86 134.188 1008.21C130.625 1011.18 125.28 1008.45 120.648 1008.57C117.204 1008.57 113.878 1010.23 110.671 1011.66C107.227 1013.08 103.545 1014.15 99.7441 1014.75C98.5564 1014.99 97.3686 1015.1 96.5372 1015.82C95.4683 1016.77 95.2307 1018.43 94.9932 1019.86C94.3993 1025.44 93.6867 1031.14 93.0928 1036.73C89.7672 1037.68 87.6293 1036.61 83.9473 1035.54Z" fill="#1B174E"/>
<path d="M787.2 1009.64C784.349 1001.92 782.568 993.718 782.093 985.519C781.855 981.836 781.737 977.796 779.242 974.944C777.936 973.519 776.273 972.687 774.61 971.855C766.652 967.815 758.695 963.895 750.737 959.855C748.243 960.568 745.748 962.112 743.373 963.182C741.116 964.251 738.622 965.201 736.128 965.083C733.634 964.964 731.021 963.419 730.308 960.924C732.683 959.142 735.059 957.36 737.434 955.696C738.622 954.864 739.929 953.557 739.453 952.25C736.009 951.656 733.634 948.686 731.139 946.191C727.814 942.745 723.775 940.012 719.381 938.111C711.898 939.181 701.327 936.685 694.914 932.646C693.37 931.695 691.826 930.032 692.538 928.368C693.37 926.467 696.101 927.061 698.121 927.655C705.247 929.675 714.511 926.586 715.818 919.338C716.887 913.041 711.661 906.387 714.511 900.684C722.469 906.268 725.913 917.437 722.588 926.586C722.231 927.536 721.756 928.725 722.113 929.675C722.35 930.388 723.063 930.982 723.775 931.457C728.883 935.26 733.99 938.943 739.097 942.745C740.047 943.458 741.235 944.171 742.304 943.814C743.492 943.458 743.967 941.913 744.204 940.725C745.273 934.428 745.155 927.774 743.967 921.477C746.461 920.289 748.836 923.259 749.668 925.873C752.043 932.646 752.875 939.893 751.925 946.904C751.687 948.448 751.449 950.112 752.281 951.419C752.875 952.488 753.944 953.082 754.894 953.676C758.101 955.577 761.308 957.597 764.514 959.498C766.89 952.845 766.771 944.171 763.802 937.755C762.852 935.616 761.545 933.596 761.426 931.22C761.189 928.962 762.614 926.23 764.871 925.992C767.365 929.556 769.859 933.121 772.353 936.685C775.085 935.497 776.629 932.408 776.867 929.438C777.104 926.467 776.273 923.497 775.56 920.526C774.135 914.348 773.422 907.932 773.541 901.516C777.342 903.654 779.955 907.456 781.499 911.496C783.043 915.536 783.518 919.932 783.993 924.21C785.537 921.833 787.794 919.813 790.407 918.625C792.07 917.912 793.97 917.437 795.633 918.15C797.296 918.863 798.365 921.002 797.414 922.546C796.939 923.378 795.989 923.853 795.039 924.328C791.595 926.23 789.338 929.556 787.2 932.764C784.825 936.329 782.33 939.893 779.955 943.458C776.392 948.686 772.71 955.102 774.848 961.043C780.43 962.469 786.487 962.706 791.476 959.855C792.782 959.142 793.97 958.072 795.039 957.003C796.108 955.934 797.177 954.864 798.127 953.557C798.365 953.201 798.602 952.726 798.602 952.369C798.602 951.894 798.246 951.538 797.89 951.181C796.108 949.28 794.683 947.022 793.614 944.527C793.257 943.577 792.901 942.626 793.139 941.676C793.495 939.893 795.633 939.062 797.414 939.418C799.196 939.775 800.621 940.963 801.928 942.151C803.947 943.814 805.966 945.597 807.985 947.26C813.092 938.111 817.368 928.843 819.862 918.625C822.594 919.695 824.138 922.784 824.376 925.754C824.613 928.725 823.663 931.576 822.713 934.428C828.295 931.22 834.59 928.962 841.004 928.012C842.311 927.774 843.855 927.893 844.448 928.962C844.686 929.438 844.686 930.15 844.567 930.745C843.736 934.071 840.648 936.329 837.56 937.755C834.353 939.299 831.027 940.369 827.464 940.963C826.395 941.2 825.207 941.319 824.376 941.913C823.188 942.745 822.475 944.052 821.763 945.359C817.487 953.439 809.767 959.617 800.978 961.875C802.047 965.32 804.541 968.41 805.61 971.855C820.813 965.677 836.491 959.023 847.18 946.666C848.249 945.359 850.268 944.052 851.337 945.359C851.694 945.834 851.812 946.547 851.694 947.26C851.337 952.963 847.893 958.548 842.904 961.281C849.793 959.142 857.395 959.617 863.927 962.469C865.352 963.063 867.015 964.251 866.896 965.796C866.778 966.627 866.184 967.34 865.59 967.934C860.008 972.449 851.931 968.291 844.686 968.41C839.341 968.528 834.353 971.024 829.364 973.043C823.901 975.301 818.318 976.846 812.617 977.796C810.836 978.153 809.054 978.39 807.629 979.578C805.847 981.123 805.491 983.618 805.253 985.876C804.303 994.549 803.234 1003.22 802.284 1011.9C796.227 1013.08 792.901 1011.3 787.2 1009.64Z" fill="#1B174E"/>
<path d="M96.418 1033.76C98.1996 1029.6 100.1 1025.32 103.307 1022.23C106.276 1019.38 110.077 1017.72 113.878 1016.17C121.36 1013.08 130.387 1010.35 137.157 1014.87C144.521 1014.75 151.885 1015.58 159.011 1017.24C160.674 1017.6 162.456 1018.08 163.643 1019.38C164.712 1020.45 165.425 1022.35 166.969 1022.23C167.8 1022.23 168.394 1021.64 169.226 1021.52C170.532 1021.4 171.482 1022.83 172.67 1023.42C174.095 1024.13 175.758 1023.78 177.421 1023.9C178.965 1023.9 180.984 1024.61 181.222 1026.15C181.34 1027.22 180.746 1028.29 181.222 1029.24C181.815 1030.43 183.359 1030.31 184.547 1030.67C186.091 1031.14 187.279 1032.57 187.517 1034.12C193.099 1036.97 197.612 1042.08 200.819 1047.42C201.532 1048.61 202.126 1049.8 202.363 1050.99C202.719 1053.01 202.244 1055.15 201.65 1057.17C201.057 1059.42 200.463 1061.68 199.037 1063.58C196.424 1067.03 191.792 1068.22 187.517 1067.86C183.241 1067.5 179.202 1065.72 175.164 1064.41C164.593 1061.09 153.429 1060.26 142.62 1057.76C128.011 1054.43 114.353 1048.14 100.694 1041.84C98.3183 1040.89 97.0118 1036.25 96.418 1033.76Z" fill="#1B174E"/>
<path d="M214.597 1063.58C209.965 1061.09 207.59 1055.15 209.134 1050.04C210.321 1046.35 213.291 1043.03 213.172 1039.22C213.053 1034.95 209.253 1031.62 205.333 1029.84C201.414 1028.06 197.019 1026.99 193.693 1024.25C187.755 1019.14 187.28 1010.11 188.942 1002.39C188.349 1006.91 191.793 1011.07 195.831 1013.2C199.751 1015.46 204.383 1016.29 208.54 1017.96C212.697 1019.62 216.854 1022.59 218.042 1026.99C218.873 1030.31 219.111 1033.4 219.229 1036.85C219.229 1038.04 219.348 1039.46 220.18 1040.41C221.961 1042.67 225.762 1041.13 227.543 1038.75C230.75 1034.71 231.582 1029.01 229.681 1024.25C226.356 1015.7 216.141 1011.9 211.39 1004.05C208.421 999.065 207.946 993.005 208.777 987.302C209.609 981.598 211.39 976.133 212.816 970.43C214.716 962.944 215.666 954.983 214.479 947.379C213.291 939.775 209.371 932.289 203.076 927.656C212.459 932.646 220.18 940.963 224.337 950.706C228.494 960.449 229.206 971.737 226.356 982.074C225.762 983.975 225.168 985.876 225.168 987.896C225.168 993.955 230.869 998.233 235.026 1002.75C239.777 1007.98 242.746 1014.63 242.984 1021.64C243.34 1028.65 240.846 1035.78 235.976 1040.77C237.283 1043.62 239.064 1046.35 240.371 1049.32C246.191 1048.02 251.298 1044.22 254.149 1039.11C256.999 1034 257.593 1027.58 255.811 1022C254.624 1018.43 252.367 1015.1 250.823 1011.66C249.16 1008.09 248.091 1004.05 248.447 1000.13C249.16 992.648 254.386 986.708 258.306 980.291C262.225 973.875 264.601 965.083 259.85 959.38C267.807 961.518 272.796 967.816 275.171 975.776C276.597 980.529 277.309 985.876 274.934 990.153C272.321 994.906 266.263 997.639 265.432 1002.87C264.838 1006.19 266.62 1009.4 267.926 1012.49C271.133 1020.1 272.083 1029.01 268.52 1036.37C265.907 1041.6 261.275 1045.52 256.762 1049.32C259.968 1051.58 264.363 1050.27 267.926 1048.97C272.44 1047.3 277.428 1045.05 279.21 1040.53C280.635 1036.85 279.447 1032.81 280.041 1028.89C280.991 1022 288.355 1016.65 295.244 1017.84C291.443 1019.5 289.543 1023.9 289.068 1027.94C288.593 1032.1 289.305 1036.25 289.068 1040.41C288.83 1045.17 287.286 1049.92 283.96 1053.36C278.853 1058.47 271.014 1059.42 263.769 1059.42C256.524 1059.42 248.923 1059.07 242.509 1062.39C237.758 1064.89 233.957 1069.4 228.612 1069.88C223.624 1070.83 219.111 1066.08 214.597 1063.58Z" fill="#1B174E"/>
<path d="M509.747 1080.34C509.865 1078.08 510.697 1075.82 509.865 1073.68C508.678 1070.24 504.045 1069.17 502.026 1065.96C498.938 1060.97 504.164 1054.31 502.145 1048.73C500.72 1044.81 496.325 1043.03 493 1040.41C488.011 1036.49 485.279 1029.6 486.348 1023.3C487.18 1018.43 489.793 1013.44 487.774 1008.93C486.942 1007.03 485.279 1005.6 484.092 1003.94C480.885 999.421 480.647 993.123 483.379 988.371C484.567 986.351 486.823 984.331 489.199 985.044C490.268 985.4 491.099 986.113 491.812 986.945C494.662 990.272 496.325 994.668 496.206 999.064C496.206 1000.85 495.969 1002.75 496.444 1004.53C497.275 1007.62 500.126 1009.52 502.739 1011.42C506.896 1014.51 510.815 1019.03 510.459 1024.25C510.222 1027.34 508.44 1030.19 508.559 1033.28C508.678 1039.11 515.091 1043.03 515.923 1048.85C516.635 1053.6 513.31 1058.95 515.804 1063.11C518.179 1067.03 524.593 1066.55 527.325 1062.99C530.057 1059.42 529.463 1054.08 527.087 1050.16C525.068 1046.83 521.624 1043.5 522.336 1039.7C523.168 1035.78 527.919 1033.76 528.988 1029.84C529.819 1026.75 527.919 1023.66 526.731 1020.69C525.543 1017.72 525.306 1013.56 528.156 1012.02C531.719 1010.11 535.52 1014.87 535.401 1018.79C535.401 1019.86 535.164 1021.05 535.52 1022C536.114 1024.13 538.608 1025.09 539.558 1027.11C541.696 1031.38 535.52 1036.25 536.945 1040.77C537.421 1042.19 538.49 1043.26 539.321 1044.33C542.647 1048.61 543.122 1054.79 540.627 1059.66C539.44 1061.92 537.777 1063.82 537.183 1066.2C536.47 1069.05 537.421 1071.9 537.896 1074.75C538.727 1079.62 538.133 1084.85 535.283 1088.89C528.394 1099.23 508.796 1093.41 509.747 1080.34Z" fill="#1B174E"/>
</g>
<defs>
<radialGradient id="paint0_radial_0_13413" cx="0" cy="0" r="1" gradientUnits="userSpaceOnUse" gradientTransform="translate(511.404 1796.9) rotate(-106.406) scale(1388.22 752.262)">
<stop stop-color="#312D88"/>
<stop offset="1" stop-color="#355EA7"/>
</radialGradient>
<radialGradient id="paint1_radial_0_13413" cx="0" cy="0" r="1" gradientUnits="userSpaceOnUse" gradientTransform="translate(3.54399 1181.37) rotate(90) scale(5.49061 5.49443)">
<stop stop-color="white" stop-opacity="0"/>
<stop offset="1" stop-color="white"/>
</radialGradient>
<radialGradient id="paint2_radial_0_13413" cx="0" cy="0" r="1" gradientUnits="userSpaceOnUse" gradientTransform="translate(52.9927 776.249) rotate(90) scale(5.49058 5.49443)">
<stop stop-color="white" stop-opacity="0"/>
<stop offset="1" stop-color="white"/>
</radialGradient>
<radialGradient id="paint3_radial_0_13413" cx="0" cy="0" r="1" gradientUnits="userSpaceOnUse" gradientTransform="translate(57.31 1015.48) rotate(90) scale(5.49058 5.49436)">
<stop stop-color="white" stop-opacity="0"/>
<stop offset="1" stop-color="white"/>
</radialGradient>
<radialGradient id="paint4_radial_0_13413" cx="0" cy="0" r="1" gradientUnits="userSpaceOnUse" gradientTransform="translate(395.016 723.107) rotate(90) scale(8.03976 8.0453)">
<stop stop-color="white" stop-opacity="0"/>
<stop offset="1" stop-color="white"/>
</radialGradient>
<radialGradient id="paint5_radial_0_13413" cx="0" cy="0" r="1" gradientUnits="userSpaceOnUse" gradientTransform="translate(62.8032 745.266) rotate(90) scale(7.84363 7.84906)">
<stop stop-color="white" stop-opacity="0"/>
<stop offset="1" stop-color="white"/>
</radialGradient>
<radialGradient id="paint6_radial_0_13413" cx="0" cy="0" r="1" gradientUnits="userSpaceOnUse" gradientTransform="translate(293.764 835.664) rotate(90) scale(8.03979 8.0453)">
<stop stop-color="white" stop-opacity="0"/>
<stop offset="1" stop-color="white"/>
</radialGradient>
<radialGradient id="paint7_radial_0_13413" cx="0" cy="0" r="1" gradientUnits="userSpaceOnUse" gradientTransform="translate(343.016 624.866) rotate(90) scale(5.68666 5.69052)">
<stop stop-color="white" stop-opacity="0"/>
<stop offset="1" stop-color="white"/>
</radialGradient>
<radialGradient id="paint8_radial_0_13413" cx="0" cy="0" r="1" gradientUnits="userSpaceOnUse" gradientTransform="translate(445.447 846.842) rotate(90) scale(5.6867 5.6906)">
<stop stop-color="white" stop-opacity="0"/>
<stop offset="1" stop-color="white"/>
</radialGradient>
<radialGradient id="paint9_radial_0_13413" cx="0" cy="0" r="1" gradientUnits="userSpaceOnUse" gradientTransform="translate(187.605 704.087) rotate(90) scale(5.68666 5.6906)">
<stop stop-color="white" stop-opacity="0"/>
<stop offset="1" stop-color="white"/>
</radialGradient>
<radialGradient id="paint10_radial_0_13413" cx="0" cy="0" r="1" gradientUnits="userSpaceOnUse" gradientTransform="translate(427.787 922.925) rotate(90) scale(4.31405 4.31701)">
<stop stop-color="white" stop-opacity="0"/>
<stop offset="1" stop-color="white"/>
</radialGradient>
<radialGradient id="paint11_radial_0_13413" cx="0" cy="0" r="1" gradientUnits="userSpaceOnUse" gradientTransform="translate(362.394 735.07) rotate(90) scale(2.84335 2.69814)">
<stop stop-color="white" stop-opacity="0"/>
<stop offset="1" stop-color="white"/>
</radialGradient>
<radialGradient id="paint12_radial_0_13413" cx="0" cy="0" r="1" gradientUnits="userSpaceOnUse" gradientTransform="translate(454.228 859.392) rotate(90) scale(2.84335 2.69806)">
<stop stop-color="white" stop-opacity="0"/>
<stop offset="1" stop-color="white"/>
</radialGradient>
<radialGradient id="paint13_radial_0_13413" cx="0" cy="0" r="1" gradientUnits="userSpaceOnUse" gradientTransform="translate(496.466 813.506) rotate(90) scale(2.84335 2.84526)">
<stop stop-color="white" stop-opacity="0"/>
<stop offset="1" stop-color="white"/>
</radialGradient>
<radialGradient id="paint14_radial_0_13413" cx="0" cy="0" r="1" gradientUnits="userSpaceOnUse" gradientTransform="translate(461.146 800.565) rotate(90) scale(2.84335 2.84526)">
<stop stop-color="white" stop-opacity="0"/>
<stop offset="1" stop-color="white"/>
</radialGradient>
<radialGradient id="paint15_radial_0_13413" cx="0" cy="0" r="1" gradientUnits="userSpaceOnUse" gradientTransform="translate(224.102 839.783) rotate(90) scale(2.84335 2.84534)">
<stop stop-color="white" stop-opacity="0"/>
<stop offset="1" stop-color="white"/>
</radialGradient>
<radialGradient id="paint16_radial_0_13413" cx="0" cy="0" r="1" gradientUnits="userSpaceOnUse" gradientTransform="translate(423.078 822.526) rotate(90) scale(1.17657 1.17743)">
<stop stop-color="white" stop-opacity="0"/>
<stop offset="1" stop-color="white"/>
</radialGradient>
<radialGradient id="paint17_radial_0_13413" cx="0" cy="0" r="1" gradientUnits="userSpaceOnUse" gradientTransform="translate(526.881 952.927) rotate(90) scale(1.27457 1.27543)">
<stop stop-color="white" stop-opacity="0"/>
<stop offset="1" stop-color="white"/>
</radialGradient>
<radialGradient id="paint18_radial_0_13413" cx="0" cy="0" r="1" gradientUnits="userSpaceOnUse" gradientTransform="translate(79.2876 599.766) rotate(90) scale(1.17657 1.17728)">
<stop stop-color="white" stop-opacity="0"/>
<stop offset="1" stop-color="white"/>
</radialGradient>
<radialGradient id="paint19_radial_0_13413" cx="0" cy="0" r="1" gradientUnits="userSpaceOnUse" gradientTransform="translate(452.511 821.35) rotate(90) scale(1.17657 1.17743)">
<stop stop-color="white" stop-opacity="0"/>
<stop offset="1" stop-color="white"/>
</radialGradient>
<radialGradient id="paint20_radial_0_13413" cx="0" cy="0" r="1" gradientUnits="userSpaceOnUse" gradientTransform="translate(416.012 845.665) rotate(90) scale(2.84335 2.84526)">
<stop stop-color="white" stop-opacity="0"/>
<stop offset="1" stop-color="white"/>
</radialGradient>
<radialGradient id="paint21_radial_0_13413" cx="0" cy="0" r="1" gradientUnits="userSpaceOnUse" gradientTransform="translate(500.391 933.906) rotate(90) scale(2.84335 2.84526)">
<stop stop-color="white" stop-opacity="0"/>
<stop offset="1" stop-color="white"/>
</radialGradient>
<radialGradient id="paint22_radial_0_13413" cx="0" cy="0" r="1" gradientUnits="userSpaceOnUse" gradientTransform="translate(436.027 1048.03) rotate(90) scale(2.84339 2.84526)">
<stop stop-color="white" stop-opacity="0"/>
<stop offset="1" stop-color="white"/>
</radialGradient>
<radialGradient id="paint23_radial_0_13413" cx="0" cy="0" r="1" gradientUnits="userSpaceOnUse" gradientTransform="translate(329.427 962.928) rotate(90) scale(2.84331 2.69814)">
<stop stop-color="white" stop-opacity="0"/>
<stop offset="1" stop-color="white"/>
</radialGradient>
<radialGradient id="paint24_radial_0_13413" cx="0" cy="0" r="1" gradientUnits="userSpaceOnUse" gradientTransform="translate(711.924 868.804) rotate(90) scale(7.84367 7.84906)">
<stop stop-color="white" stop-opacity="0"/>
<stop offset="1" stop-color="white"/>
</radialGradient>
<radialGradient id="paint25_radial_0_13413" cx="0" cy="0" r="1" gradientUnits="userSpaceOnUse" gradientTransform="translate(610.67 981.361) rotate(90) scale(7.84367 7.84906)">
<stop stop-color="white" stop-opacity="0"/>
<stop offset="1" stop-color="white"/>
</radialGradient>
<radialGradient id="paint26_radial_0_13413" cx="0" cy="0" r="1" gradientUnits="userSpaceOnUse" gradientTransform="translate(635.395 1064.5) rotate(90) scale(7.84371 7.84906)">
<stop stop-color="white" stop-opacity="0"/>
<stop offset="1" stop-color="white"/>
</radialGradient>
<radialGradient id="paint27_radial_0_13413" cx="0" cy="0" r="1" gradientUnits="userSpaceOnUse" gradientTransform="translate(659.873 770.366) rotate(90) scale(5.68666 5.5434)">
<stop stop-color="white" stop-opacity="0"/>
<stop offset="1" stop-color="white"/>
</radialGradient>
<radialGradient id="paint28_radial_0_13413" cx="0" cy="0" r="1" gradientUnits="userSpaceOnUse" gradientTransform="translate(504.462 849.587) rotate(90) scale(5.68666 5.5434)">
<stop stop-color="white" stop-opacity="0"/>
<stop offset="1" stop-color="white"/>
</radialGradient>
<radialGradient id="paint29_radial_0_13413" cx="0" cy="0" r="1" gradientUnits="userSpaceOnUse" gradientTransform="translate(618.911 1043.72) rotate(90) scale(4.31397 4.31693)">
<stop stop-color="white" stop-opacity="0"/>
<stop offset="1" stop-color="white"/>
</radialGradient>
<radialGradient id="paint30_radial_0_13413" cx="0" cy="0" r="1" gradientUnits="userSpaceOnUse" gradientTransform="translate(377.945 1195.89) rotate(90) scale(4.31405 4.31701)">
<stop stop-color="white" stop-opacity="0"/>
<stop offset="1" stop-color="white"/>
</radialGradient>
<radialGradient id="paint31_radial_0_13413" cx="0" cy="0" r="1" gradientUnits="userSpaceOnUse" gradientTransform="translate(679.349 880.569) rotate(90) scale(2.84331 2.84519)">
<stop stop-color="white" stop-opacity="0"/>
<stop offset="1" stop-color="white"/>
</radialGradient>
<radialGradient id="paint32_radial_0_13413" cx="0" cy="0" r="1" gradientUnits="userSpaceOnUse" gradientTransform="translate(638.142 1039.4) rotate(90) scale(2.84331 2.84526)">
<stop stop-color="white" stop-opacity="0"/>
<stop offset="1" stop-color="white"/>
</radialGradient>
<radialGradient id="paint33_radial_0_13413" cx="0" cy="0" r="1" gradientUnits="userSpaceOnUse" gradientTransform="translate(245.687 764.091) rotate(90) scale(2.84335 2.84526)">
<stop stop-color="white" stop-opacity="0"/>
<stop offset="1" stop-color="white"/>
</radialGradient>
<radialGradient id="paint34_radial_0_13413" cx="0" cy="0" r="1" gradientUnits="userSpaceOnUse" gradientTransform="translate(541.207 985.283) rotate(90) scale(2.84331 2.84534)">
<stop stop-color="white" stop-opacity="0"/>
<stop offset="1" stop-color="white"/>
</radialGradient>
<radialGradient id="paint35_radial_0_13413" cx="0" cy="0" r="1" gradientUnits="userSpaceOnUse" gradientTransform="translate(529.629 1011.36) rotate(90) scale(1.27457 1.27543)">
<stop stop-color="white" stop-opacity="0"/>
<stop offset="1" stop-color="white"/>
</radialGradient>
<radialGradient id="paint36_radial_0_13413" cx="0" cy="0" r="1" gradientUnits="userSpaceOnUse" gradientTransform="translate(566.323 986.852) rotate(90) scale(1.17657 1.17728)">
<stop stop-color="white" stop-opacity="0"/>
<stop offset="1" stop-color="white"/>
</radialGradient>
<radialGradient id="paint37_radial_0_13413" cx="0" cy="0" r="1" gradientUnits="userSpaceOnUse" gradientTransform="translate(325.357 751.541) rotate(90) scale(1.17657 1.17735)">
<stop stop-color="white" stop-opacity="0"/>
<stop offset="1" stop-color="white"/>
</radialGradient>
<radialGradient id="paint38_radial_0_13413" cx="0" cy="0" r="1" gradientUnits="userSpaceOnUse" gradientTransform="translate(22.97 1072.54) rotate(90) scale(1.27461 1.27543)">
<stop stop-color="white" stop-opacity="0"/>
<stop offset="1" stop-color="white"/>
</radialGradient>
<radialGradient id="paint39_radial_0_13413" cx="0" cy="0" r="1" gradientUnits="userSpaceOnUse" gradientTransform="translate(627.596 1055.29) rotate(90) scale(1.27457 1.42256)">
<stop stop-color="white" stop-opacity="0"/>
<stop offset="1" stop-color="white"/>
</radialGradient>
<radialGradient id="paint40_radial_0_13413" cx="0" cy="0" r="1" gradientUnits="userSpaceOnUse" gradientTransform="translate(618.716 1035.29) rotate(90) scale(1.27457 1.27551)">
<stop stop-color="white" stop-opacity="0"/>
<stop offset="1" stop-color="white"/>
</radialGradient>
<radialGradient id="paint41_radial_0_13413" cx="0" cy="0" r="1" gradientUnits="userSpaceOnUse" gradientTransform="translate(570.248 1034.31) rotate(90) scale(2.84335 2.84534)">
<stop stop-color="white" stop-opacity="0"/>
<stop offset="1" stop-color="white"/>
</radialGradient>
<radialGradient id="paint42_radial_0_13413" cx="0" cy="0" r="1" gradientUnits="userSpaceOnUse" gradientTransform="translate(605.568 1036.66) rotate(90) scale(2.84335 2.84534)">
<stop stop-color="white" stop-opacity="0"/>
<stop offset="1" stop-color="white"/>
</radialGradient>
<radialGradient id="paint43_radial_0_13413" cx="0" cy="0" r="1" gradientUnits="userSpaceOnUse" gradientTransform="translate(-2.19688 815.859) rotate(90) scale(2.84335 2.69814)">
<stop stop-color="white" stop-opacity="0"/>
<stop offset="1" stop-color="white"/>
</radialGradient>
<radialGradient id="paint44_radial_0_13413" cx="0" cy="0" r="1" gradientUnits="userSpaceOnUse" gradientTransform="translate(44.36 729.579) rotate(90) scale(5.68666 5.6906)">
<stop stop-color="white" stop-opacity="0"/>
<stop offset="1" stop-color="white"/>
</radialGradient>
<radialGradient id="paint45_radial_0_13413" cx="0" cy="0" r="1" gradientUnits="userSpaceOnUse" gradientTransform="translate(95.3787 695.851) rotate(90) scale(2.84333 2.84526)">
<stop stop-color="white" stop-opacity="0"/>
<stop offset="1" stop-color="white"/>
</radialGradient>
<radialGradient id="paint46_radial_0_13413" cx="0" cy="0" r="1" gradientUnits="userSpaceOnUse" gradientTransform="translate(59.8109 682.909) rotate(90) scale(2.84333 2.69814)">
<stop stop-color="white" stop-opacity="0"/>
<stop offset="1" stop-color="white"/>
</radialGradient>
<radialGradient id="paint47_radial_0_13413" cx="0" cy="0" r="1" gradientUnits="userSpaceOnUse" gradientTransform="translate(21.5973 704.871) rotate(90) scale(1.17655 1.17735)">
<stop stop-color="white" stop-opacity="0"/>
<stop offset="1" stop-color="white"/>
</radialGradient>
<radialGradient id="paint48_radial_0_13413" cx="0" cy="0" r="1" gradientUnits="userSpaceOnUse" gradientTransform="translate(51.0304 703.695) rotate(90) scale(1.17655 1.17735)">
<stop stop-color="white" stop-opacity="0"/>
<stop offset="1" stop-color="white"/>
</radialGradient>
<radialGradient id="paint49_radial_0_13413" cx="0" cy="0" r="1" gradientUnits="userSpaceOnUse" gradientTransform="translate(14.532 728.402) rotate(90) scale(2.84335 2.84526)">
<stop stop-color="white" stop-opacity="0"/>
<stop offset="1" stop-color="white"/>
</radialGradient>
<radialGradient id="paint50_radial_0_13413" cx="0" cy="0" r="1" gradientUnits="userSpaceOnUse" gradientTransform="translate(829.072 257.194) rotate(90) scale(2.64913 2.65089)">
<stop stop-color="white" stop-opacity="0"/>
<stop offset="1" stop-color="white"/>
</radialGradient>
<radialGradient id="paint51_radial_0_13413" cx="0" cy="0" r="1" gradientUnits="userSpaceOnUse" gradientTransform="translate(654.087 441.52) rotate(90) scale(2.64913 2.60103)">
<stop stop-color="white" stop-opacity="0"/>
<stop offset="1" stop-color="white"/>
</radialGradient>
<radialGradient id="paint52_radial_0_13413" cx="0" cy="0" r="1" gradientUnits="userSpaceOnUse" gradientTransform="translate(835.153 394.262) rotate(90) scale(2.84333 2.84534)">
<stop stop-color="white" stop-opacity="0"/>
<stop offset="1" stop-color="white"/>
</radialGradient>
<radialGradient id="paint53_radial_0_13413" cx="0" cy="0" r="1" gradientUnits="userSpaceOnUse" gradientTransform="translate(185.642 1044.89) rotate(90) scale(5.68666 5.6906)">
<stop stop-color="white" stop-opacity="0"/>
<stop offset="1" stop-color="white"/>
</radialGradient>
<radialGradient id="paint54_radial_0_13413" cx="0" cy="0" r="1" gradientUnits="userSpaceOnUse" gradientTransform="translate(193.099 872.726) rotate(90) scale(5.68666 5.6906)">
<stop stop-color="white" stop-opacity="0"/>
<stop offset="1" stop-color="white"/>
</radialGradient>
<radialGradient id="paint55_radial_0_13413" cx="0" cy="0" r="1" gradientUnits="userSpaceOnUse" gradientTransform="translate(167.589 1120.98) rotate(90) scale(4.31405 4.31701)">
<stop stop-color="white" stop-opacity="0"/>
<stop offset="1" stop-color="white"/>
</radialGradient>
<radialGradient id="paint56_radial_0_13413" cx="0" cy="0" r="1" gradientUnits="userSpaceOnUse" gradientTransform="translate(194.276 1057.44) rotate(90) scale(2.84335 2.84534)">
<stop stop-color="white" stop-opacity="0"/>
<stop offset="1" stop-color="white"/>
</radialGradient>
<radialGradient id="paint57_radial_0_13413" cx="0" cy="0" r="1" gradientUnits="userSpaceOnUse" gradientTransform="translate(236.269 1011.17) rotate(90) scale(2.74527 2.74718)">
<stop stop-color="white" stop-opacity="0"/>
<stop offset="1" stop-color="white"/>
</radialGradient>
<radialGradient id="paint58_radial_0_13413" cx="0" cy="0" r="1" gradientUnits="userSpaceOnUse" gradientTransform="translate(285.865 852.725) rotate(90) scale(2.84335 2.69814)">
<stop stop-color="white" stop-opacity="0"/>
<stop offset="1" stop-color="white"/>
</radialGradient>
<radialGradient id="paint59_radial_0_13413" cx="0" cy="0" r="1" gradientUnits="userSpaceOnUse" gradientTransform="translate(201.096 998.617) rotate(90) scale(2.84331 2.69814)">
<stop stop-color="white" stop-opacity="0"/>
<stop offset="1" stop-color="white"/>
</radialGradient>
<radialGradient id="paint60_radial_0_13413" cx="0" cy="0" r="1" gradientUnits="userSpaceOnUse" gradientTransform="translate(162.88 1020.58) rotate(90) scale(1.17657 1.17735)">
<stop stop-color="white" stop-opacity="0"/>
<stop offset="1" stop-color="white"/>
</radialGradient>
<radialGradient id="paint61_radial_0_13413" cx="0" cy="0" r="1" gradientUnits="userSpaceOnUse" gradientTransform="translate(112.058 1130.19) rotate(90) scale(1.27457 1.27543)">
<stop stop-color="white" stop-opacity="0"/>
<stop offset="1" stop-color="white"/>
</radialGradient>
<radialGradient id="paint62_radial_0_13413" cx="0" cy="0" r="1" gradientUnits="userSpaceOnUse" gradientTransform="translate(266.929 1150.98) rotate(90) scale(1.27457 1.42263)">
<stop stop-color="white" stop-opacity="0"/>
<stop offset="1" stop-color="white"/>
</radialGradient>
<radialGradient id="paint63_radial_0_13413" cx="0" cy="0" r="1" gradientUnits="userSpaceOnUse" gradientTransform="translate(192.313 1019.4) rotate(90) scale(1.17657 1.17735)">
<stop stop-color="white" stop-opacity="0"/>
<stop offset="1" stop-color="white"/>
</radialGradient>
<radialGradient id="paint64_radial_0_13413" cx="0" cy="0" r="1" gradientUnits="userSpaceOnUse" gradientTransform="translate(155.815 1043.72) rotate(90) scale(2.84331 2.84526)">
<stop stop-color="white" stop-opacity="0"/>
<stop offset="1" stop-color="white"/>
</radialGradient>
<radialGradient id="paint65_radial_0_13413" cx="0" cy="0" r="1" gradientUnits="userSpaceOnUse" gradientTransform="translate(240.264 1131.96) rotate(90) scale(2.84331 2.77533)">
<stop stop-color="white" stop-opacity="0"/>
<stop offset="1" stop-color="white"/>
</radialGradient>
<radialGradient id="paint66_radial_0_13413" cx="0" cy="0" r="1" gradientUnits="userSpaceOnUse" gradientTransform="translate(646.531 1108.82) rotate(90) scale(2.84335 2.69806)">
<stop stop-color="white" stop-opacity="0"/>
<stop offset="1" stop-color="white"/>
</radialGradient>
<radialGradient id="paint67_radial_0_13413" cx="0" cy="0" r="1" gradientUnits="userSpaceOnUse" gradientTransform="translate(795.43 257.39) rotate(90) scale(5.80102 5.7183)">
<stop stop-color="white" stop-opacity="0"/>
<stop offset="1" stop-color="white"/>
</radialGradient>
<radialGradient id="paint68_radial_0_13413" cx="0" cy="0" r="1" gradientUnits="userSpaceOnUse" gradientTransform="translate(790.807 179.737) rotate(90) scale(4.08245 4.0852)">
<stop stop-color="white" stop-opacity="0"/>
<stop offset="1" stop-color="white"/>
</radialGradient>
<radialGradient id="paint69_radial_0_13413" cx="0" cy="0" r="1" gradientUnits="userSpaceOnUse" gradientTransform="translate(783.781 248.37) rotate(90) scale(2.66884 2.70892)">
<stop stop-color="white" stop-opacity="0"/>
<stop offset="1" stop-color="white"/>
</radialGradient>
<radialGradient id="paint70_radial_0_13413" cx="0" cy="0" r="1" gradientUnits="userSpaceOnUse" gradientTransform="translate(756.58 304.452) rotate(90) scale(2.66884 2.58628)">
<stop stop-color="white" stop-opacity="0"/>
<stop offset="1" stop-color="white"/>
</radialGradient>
<radialGradient id="paint71_radial_0_13413" cx="0" cy="0" r="1" gradientUnits="userSpaceOnUse" gradientTransform="translate(794.256 306.805) rotate(90) scale(2.66884 2.58621)">
<stop stop-color="white" stop-opacity="0"/>
<stop offset="1" stop-color="white"/>
</radialGradient>
<radialGradient id="paint72_radial_0_13413" cx="0" cy="0" r="1" gradientUnits="userSpaceOnUse" gradientTransform="translate(725.968 283.274) rotate(90) scale(2.66884 2.58635)">
<stop stop-color="white" stop-opacity="0"/>
<stop offset="1" stop-color="white"/>
</radialGradient>
<radialGradient id="paint73_radial_0_13413" cx="0" cy="0" r="1" gradientUnits="userSpaceOnUse" gradientTransform="translate(824.117 274.254) rotate(90) scale(1.43415 1.38759)">
<stop stop-color="white" stop-opacity="0"/>
<stop offset="1" stop-color="white"/>
</radialGradient>
<radialGradient id="paint74_radial_0_13413" cx="0" cy="0" r="1" gradientUnits="userSpaceOnUse" gradientTransform="translate(796.255 284.059) rotate(90) scale(1.43416 1.38744)">
<stop stop-color="white" stop-opacity="0"/>
<stop offset="1" stop-color="white"/>
</radialGradient>
<radialGradient id="paint75_radial_0_13413" cx="0" cy="0" r="1" gradientUnits="userSpaceOnUse" gradientTransform="translate(824.559 250.331) rotate(90) scale(2.66884 2.67074)">
<stop stop-color="white" stop-opacity="0"/>
<stop offset="1" stop-color="white"/>
</radialGradient>
<radialGradient id="paint76_radial_0_13413" cx="0" cy="0" r="1" gradientUnits="userSpaceOnUse" gradientTransform="translate(404.044 378.771) rotate(90) scale(8.03977 8.0453)">
<stop stop-color="white" stop-opacity="0"/>
<stop offset="1" stop-color="white"/>
</radialGradient>
<radialGradient id="paint77_radial_0_13413" cx="0" cy="0" r="1" gradientUnits="userSpaceOnUse" gradientTransform="translate(794.144 217.583) rotate(90) scale(8.03977 8.04522)">
<stop stop-color="white" stop-opacity="0"/>
<stop offset="1" stop-color="white"/>
</radialGradient>
<radialGradient id="paint78_radial_0_13413" cx="0" cy="0" r="1" gradientUnits="userSpaceOnUse" gradientTransform="translate(566.128 263.077) rotate(90) scale(8.03976 8.0453)">
<stop stop-color="white" stop-opacity="0"/>
<stop offset="1" stop-color="white"/>
</radialGradient>
<radialGradient id="paint79_radial_0_13413" cx="0" cy="0" r="1" gradientUnits="userSpaceOnUse" gradientTransform="translate(327.711 573.882) rotate(90) scale(7.84367 7.84913)">
<stop stop-color="white" stop-opacity="0"/>
<stop offset="1" stop-color="white"/>
</radialGradient>
<radialGradient id="paint80_radial_0_13413" cx="0" cy="0" r="1" gradientUnits="userSpaceOnUse" gradientTransform="translate(352.044 280.136) rotate(90) scale(5.68666 5.6906)">
<stop stop-color="white" stop-opacity="0"/>
<stop offset="1" stop-color="white"/>
</radialGradient>
<radialGradient id="paint81_radial_0_13413" cx="0" cy="0" r="1" gradientUnits="userSpaceOnUse" gradientTransform="translate(666.791 133.46) rotate(90) scale(5.68666 5.69052)">
<stop stop-color="white" stop-opacity="0"/>
<stop offset="1" stop-color="white"/>
</radialGradient>
<radialGradient id="paint82_radial_0_13413" cx="0" cy="0" r="1" gradientUnits="userSpaceOnUse" gradientTransform="translate(621.588 177.385) rotate(90) scale(5.68666 5.61872)">
<stop stop-color="white" stop-opacity="0"/>
<stop offset="1" stop-color="white"/>
</radialGradient>
<radialGradient id="paint83_radial_0_13413" cx="0" cy="0" r="1" gradientUnits="userSpaceOnUse" gradientTransform="translate(454.62 502.112) rotate(90) scale(5.68666 5.54355)">
<stop stop-color="white" stop-opacity="0"/>
<stop offset="1" stop-color="white"/>
</radialGradient>
<radialGradient id="paint84_radial_0_13413" cx="0" cy="0" r="1" gradientUnits="userSpaceOnUse" gradientTransform="translate(436.861 578.393) rotate(90) scale(4.11794 4.26789)">
<stop stop-color="white" stop-opacity="0"/>
<stop offset="1" stop-color="white"/>
</radialGradient>
<radialGradient id="paint85_radial_0_13413" cx="0" cy="0" r="1" gradientUnits="userSpaceOnUse" gradientTransform="translate(470.172 659.378) rotate(90) scale(4.31401 4.31708)">
<stop stop-color="white" stop-opacity="0"/>
<stop offset="1" stop-color="white"/>
</radialGradient>
<radialGradient id="paint86_radial_0_13413" cx="0" cy="0" r="1" gradientUnits="userSpaceOnUse" gradientTransform="translate(371.275 390.34) rotate(90) scale(2.74529 2.74718)">
<stop stop-color="white" stop-opacity="0"/>
<stop offset="1" stop-color="white"/>
</radialGradient>
<radialGradient id="paint87_radial_0_13413" cx="0" cy="0" r="1" gradientUnits="userSpaceOnUse" gradientTransform="translate(463.253 514.662) rotate(90) scale(2.84335 2.69806)">
<stop stop-color="white" stop-opacity="0"/>
<stop offset="1" stop-color="white"/>
</radialGradient>
<radialGradient id="paint88_radial_0_13413" cx="0" cy="0" r="1" gradientUnits="userSpaceOnUse" gradientTransform="translate(330.065 549.175) rotate(90) scale(2.84333 2.84526)">
<stop stop-color="white" stop-opacity="0"/>
<stop offset="1" stop-color="white"/>
</radialGradient>
<radialGradient id="paint89_radial_0_13413" cx="0" cy="0" r="1" gradientUnits="userSpaceOnUse" gradientTransform="translate(627.3 491.132) rotate(90) scale(2.84333 2.69814)">
<stop stop-color="white" stop-opacity="0"/>
<stop offset="1" stop-color="white"/>
</radialGradient>
<radialGradient id="paint90_radial_0_13413" cx="0" cy="0" r="1" gradientUnits="userSpaceOnUse" gradientTransform="translate(708.392 471.13) rotate(90) scale(2.84333 2.84534)">
<stop stop-color="white" stop-opacity="0"/>
<stop offset="1" stop-color="white"/>
</radialGradient>
<radialGradient id="paint91_radial_0_13413" cx="0" cy="0" r="1" gradientUnits="userSpaceOnUse" gradientTransform="translate(505.639 468.777) rotate(90) scale(2.84335 2.69814)">
<stop stop-color="white" stop-opacity="0"/>
<stop offset="1" stop-color="white"/>
</radialGradient>
<radialGradient id="paint92_radial_0_13413" cx="0" cy="0" r="1" gradientUnits="userSpaceOnUse" gradientTransform="translate(470.172 455.835) rotate(90) scale(2.84333 2.84534)">
<stop stop-color="white" stop-opacity="0"/>
<stop offset="1" stop-color="white"/>
</radialGradient>
<radialGradient id="paint93_radial_0_13413" cx="0" cy="0" r="1" gradientUnits="userSpaceOnUse" gradientTransform="translate(431.906 477.993) rotate(90) scale(1.27459 1.27543)">
<stop stop-color="white" stop-opacity="0"/>
<stop offset="1" stop-color="white"/>
</radialGradient>
<radialGradient id="paint94_radial_0_13413" cx="0" cy="0" r="1" gradientUnits="userSpaceOnUse" gradientTransform="translate(535.907 608.198) rotate(90) scale(1.27461 1.27551)">
<stop stop-color="white" stop-opacity="0"/>
<stop offset="1" stop-color="white"/>
</radialGradient>
<radialGradient id="paint95_radial_0_13413" cx="0" cy="0" r="1" gradientUnits="userSpaceOnUse" gradientTransform="translate(537.282 701.734) rotate(90) scale(1.17657 1.17735)">
<stop stop-color="white" stop-opacity="0"/>
<stop offset="1" stop-color="white"/>
</radialGradient>
<radialGradient id="paint96_radial_0_13413" cx="0" cy="0" r="1" gradientUnits="userSpaceOnUse" gradientTransform="translate(486.654 702.91) rotate(90) scale(1.17658 1.17735)">
<stop stop-color="white" stop-opacity="0"/>
<stop offset="1" stop-color="white"/>
</radialGradient>
<radialGradient id="paint97_radial_0_13413" cx="0" cy="0" r="1" gradientUnits="userSpaceOnUse" gradientTransform="translate(485.086 685.655) rotate(90) scale(1.17653 1.17735)">
<stop stop-color="white" stop-opacity="0"/>
<stop offset="1" stop-color="white"/>
</radialGradient>
<radialGradient id="paint98_radial_0_13413" cx="0" cy="0" r="1" gradientUnits="userSpaceOnUse" gradientTransform="translate(461.587 476.817) rotate(90) scale(1.27463 1.42263)">
<stop stop-color="white" stop-opacity="0"/>
<stop offset="1" stop-color="white"/>
</radialGradient>
<radialGradient id="paint99_radial_0_13413" cx="0" cy="0" r="1" gradientUnits="userSpaceOnUse" gradientTransform="translate(425.04 500.936) rotate(90) scale(2.84333 2.84534)">
<stop stop-color="white" stop-opacity="0"/>
<stop offset="1" stop-color="white"/>
</radialGradient>
<radialGradient id="paint100_radial_0_13413" cx="0" cy="0" r="1" gradientUnits="userSpaceOnUse" gradientTransform="translate(509.416 589.178) rotate(90) scale(2.84335 2.84526)">
<stop stop-color="white" stop-opacity="0"/>
<stop offset="1" stop-color="white"/>
</radialGradient>
<radialGradient id="paint101_radial_0_13413" cx="0" cy="0" r="1" gradientUnits="userSpaceOnUse" gradientTransform="translate(825.49 346.808) rotate(90) scale(2.84332 2.69806)">
<stop stop-color="white" stop-opacity="0"/>
<stop offset="1" stop-color="white"/>
</radialGradient>
<radialGradient id="paint102_radial_0_13413" cx="0" cy="0" r="1" gradientUnits="userSpaceOnUse" gradientTransform="translate(759.019 591.922) rotate(90) scale(2.84331 2.84534)">
<stop stop-color="white" stop-opacity="0"/>
<stop offset="1" stop-color="white"/>
</radialGradient>
<radialGradient id="paint103_radial_0_13413" cx="0" cy="0" r="1" gradientUnits="userSpaceOnUse" gradientTransform="translate(396.39 684.478) rotate(90) scale(2.84333 2.84526)">
<stop stop-color="white" stop-opacity="0"/>
<stop offset="1" stop-color="white"/>
</radialGradient>
<radialGradient id="paint104_radial_0_13413" cx="0" cy="0" r="1" gradientUnits="userSpaceOnUse" gradientTransform="translate(445.055 703.302) rotate(90) scale(2.84333 2.84526)">
<stop stop-color="white" stop-opacity="0"/>
<stop offset="1" stop-color="white"/>
</radialGradient>
<radialGradient id="paint105_radial_0_13413" cx="0" cy="0" r="1" gradientUnits="userSpaceOnUse" gradientTransform="translate(482.731 823.311) rotate(90) scale(2.84335 2.84534)">
<stop stop-color="white" stop-opacity="0"/>
<stop offset="1" stop-color="white"/>
</radialGradient>
<radialGradient id="paint106_radial_0_13413" cx="0" cy="0" r="1" gradientUnits="userSpaceOnUse" gradientTransform="translate(338.7 618.591) rotate(90) scale(2.84333 2.84526)">
<stop stop-color="white" stop-opacity="0"/>
<stop offset="1" stop-color="white"/>
</radialGradient>
<clipPath id="clip0_0_13413">
<rect width="834" height="1194" fill="white"/>
</clipPath>
<clipPath id="clip1_0_13413">
<rect width="1460" height="341" fill="white" transform="translate(-10 856)"/>
</clipPath>
</defs>
</svg>
