<svg width="1440" height="900" viewBox="0 0 1440 900" fill="none" xmlns="http://www.w3.org/2000/svg">
<g clip-path="url(#clip0_0_4140)">
<rect width="1440" height="900" fill="#345BA4"/>
<rect x="-318" width="2076" height="900" fill="url(#paint0_radial_0_4140)"/>
<g opacity="0.2" clip-path="url(#clip1_0_4140)">
<path opacity="0.2" fill-rule="evenodd" clip-rule="evenodd" d="M1450 675.479C1450 675.479 1299.17 695.9 1211.91 718.752C1124.65 741.604 1041.78 779.529 1018.1 783.257C994.419 786.985 897.432 802.544 872.779 806.433C848.127 810.323 770.926 828.799 693.077 834.958C615.228 841.117 415.252 799.788 340.971 767.05C266.69 734.311 201.977 727.504 160.133 720.859C118.289 714.214 -8.8647 735.122 -8.8647 735.122L-10 856.676L1446.92 857L1450 675.479Z" fill="#1B174E"/>
<path fill-rule="evenodd" clip-rule="evenodd" d="M-10 856.676C-10 856.676 7.84048 710.325 22.7616 676.127C22.7616 676.127 49.3601 623.616 81.3108 621.185C81.3108 621.185 111.964 665.755 119.425 671.427C126.723 677.1 134.184 693.145 134.184 693.145L144.563 689.741C144.563 689.741 158.025 623.454 173.433 609.678L199.22 602.871C199.22 602.871 206.519 539.987 223.224 516C223.224 516 248.363 519.404 255.174 539.987L263.932 723.615L275.448 729.773C275.448 729.773 291.504 783.095 295.721 816.644C295.721 816.644 319.724 812.106 325.401 818.103C331.078 824.261 347.458 836.741 347.458 836.741C347.458 836.741 378.598 823.451 398.223 823.451C417.847 823.451 486.29 823.451 486.29 823.451C486.29 823.451 496.507 700.6 506.401 676.289C516.294 651.979 528.458 647.441 528.458 647.441C528.458 647.441 538.351 657.165 542.082 676.289C545.812 695.414 547.596 715.997 547.596 715.997V652.141C547.596 652.141 553.11 559.111 571.113 527.183L590.089 516C590.089 516 615.552 682.448 620.418 807.568C620.418 807.568 637.609 810.647 645.07 822.803L661.451 856.676H-10Z" fill="#1B174E"/>
<path fill-rule="evenodd" clip-rule="evenodd" d="M564.626 646.306L584.575 627.506L596.901 610.65L600.145 590.391L604.199 622.319L582.629 636.582L564.626 646.306Z" fill="#1B174E"/>
<path fill-rule="evenodd" clip-rule="evenodd" d="M557.651 573.86L586.034 563.325L593.495 540.149L590.089 516C590.089 516 575.167 522.969 571.275 527.021C567.383 531.073 557.976 568.511 557.651 573.86Z" fill="#1B174E"/>
<path fill-rule="evenodd" clip-rule="evenodd" d="M505.104 678.721C505.104 678.721 518.241 691.362 526.35 694.442C534.459 697.521 544.19 692.821 544.19 692.821C544.19 692.821 544.353 669.969 538.838 660.568C533.162 651.168 528.62 647.279 528.62 647.279C528.62 647.279 513.051 654.896 505.104 678.721Z" fill="#1B174E"/>
<path fill-rule="evenodd" clip-rule="evenodd" d="M495.858 733.663L505.103 746.629L511.59 755.867L542.081 771.264C542.081 771.264 508.347 758.46 500.562 756.353C492.615 754.57 495.858 733.663 495.858 733.663Z" fill="#1B174E"/>
<path fill-rule="evenodd" clip-rule="evenodd" d="M620.418 807.568L577.438 826.206L528.458 833.013L495.696 838.524C495.696 838.524 542.892 838.524 581.006 836.903C619.12 835.282 644.908 822.803 644.908 822.803C644.908 822.803 642.475 814.051 620.418 807.568Z" fill="#1B174E"/>
<path fill-rule="evenodd" clip-rule="evenodd" d="M223.224 516C223.224 516 216.412 532.045 217.223 540.149C218.034 548.252 249.174 574.994 252.904 574.184C256.635 573.211 255.013 540.149 255.013 540.149C255.013 540.149 245.444 515.027 223.224 516Z" fill="#1B174E"/>
<path fill-rule="evenodd" clip-rule="evenodd" d="M199.219 602.871V633.34C199.219 633.34 183.163 636.582 176.351 630.423C169.377 624.264 173.432 609.678 173.432 609.678L199.219 602.871Z" fill="#1B174E"/>
<path fill-rule="evenodd" clip-rule="evenodd" d="M263.932 723.777L231.982 741.605L182.028 756.191L130.453 767.05C130.453 767.05 219.493 761.215 238.307 758.46C257.121 755.705 275.448 729.935 275.448 729.935L263.932 723.777Z" fill="#1B174E"/>
<path fill-rule="evenodd" clip-rule="evenodd" d="M279.989 745.656L264.743 756.029L306.749 760.729L346.161 769.157L305.452 746.791L279.989 745.656Z" fill="#1B174E"/>
<path fill-rule="evenodd" clip-rule="evenodd" d="M34.7637 656.354C34.7637 656.354 70.1203 669.644 82.933 669.32C95.9079 668.996 113.262 665.106 113.262 665.106C113.262 665.106 98.9894 631.071 81.1489 621.185C81.1489 621.185 57.3075 622.806 34.7637 656.354Z" fill="#1B174E"/>
<path fill-rule="evenodd" clip-rule="evenodd" d="M134.021 693.307L108.234 702.545L68.3359 714.539L110.667 715.673L144.563 689.741L134.021 693.307Z" fill="#1B174E"/>
<path fill-rule="evenodd" clip-rule="evenodd" d="M16.5994 695.576L38.1702 704.976L59.7409 712.756L22.7625 711.621L12.8691 709.514L16.5994 695.576Z" fill="#1B174E"/>
<path fill-rule="evenodd" clip-rule="evenodd" d="M13.1934 785.04L41.2516 775.315L100.287 769.157C100.287 769.157 70.9316 782.609 56.8214 785.202C42.3869 787.633 13.1934 785.04 13.1934 785.04Z" fill="#1B174E"/>
</g>
<path d="M183.158 767.832C271.768 771.108 357.489 799.821 440.705 830.461C486.744 847.418 540.296 864.569 582.289 839.325C592.306 833.351 601.167 825.065 611.184 818.898C662.616 787.102 727.918 814.659 786.093 830.846C850.431 848.767 919.008 851.658 984.695 839.132C1021.49 832.195 1061.94 816.008 1074.46 780.743C1082.55 757.811 1076.19 732.182 1080.43 708.094C1085.44 679.381 1106.63 654.137 1133.79 643.924C1161.14 633.711 1193.7 639.106 1216.24 657.413C1245.32 680.923 1259.77 724.281 1295.99 733.724C1325.46 741.432 1356.09 720.812 1371.69 694.605C1387.29 668.397 1392.11 637.372 1399.81 607.889C1407.52 578.405 1420.04 547.958 1445.47 531C1471.86 549.885 1485.54 582.066 1491.31 614.055C1497.09 646.044 1495.94 678.611 1499.02 710.985C1507.88 804.446 1551.22 1922.53 1548.91 2016.38C1548.72 2025.82 1547.95 2035.65 1543.71 2044.32C1531.19 2069.18 1497.29 2071.69 1469.35 2070.53C986.621 2052.42 503.888 2034.5 21.1554 2016.38C-0.0339813 2015.61 -22.5718 2014.45 -39.9086 2002.51C-66.6843 1984.2 -72.0779 918.333 -70.3442 888.079C-68.6106 858.21 -54.5485 844.913 -31.2402 827.763C30.4017 782.67 108.032 764.941 183.158 767.832Z" fill="#1B174E"/>
<path d="M180.076 775.155C176.994 767.061 175.26 758.582 174.682 749.911C174.489 746.057 174.297 741.817 171.793 738.927C170.444 737.385 168.71 736.614 166.977 735.651C158.694 731.411 150.218 727.172 141.935 723.125C139.431 723.896 136.734 725.437 134.229 726.594C131.725 727.75 129.221 728.713 126.524 728.521C123.827 728.328 121.131 726.786 120.36 724.089C122.864 722.161 125.368 720.427 127.873 718.5C129.028 717.537 130.57 716.188 129.992 714.839C126.332 714.261 123.827 711.177 121.323 708.48C117.856 704.818 113.618 701.928 108.995 700.001C101.097 701.157 90.117 698.459 83.375 694.22C81.8339 693.256 80.1002 691.522 80.8707 689.787C81.8339 687.86 84.5307 688.438 86.6497 689.017C94.1623 691.136 103.794 687.86 105.142 680.345C106.298 673.793 100.712 666.663 103.794 660.689C112.077 666.47 115.737 678.225 112.27 687.86C111.884 688.824 111.499 689.98 111.884 691.136C112.27 691.907 112.847 692.485 113.618 693.063C119.012 696.917 124.213 700.964 129.606 704.818C130.57 705.589 131.918 706.36 133.074 705.974C134.422 705.589 134.807 704.047 135 702.698C136.156 695.954 135.963 689.209 134.615 682.465C137.119 681.116 139.623 684.392 140.586 687.09C143.091 694.22 143.861 701.735 143.091 709.25C142.898 710.792 142.705 712.526 143.476 713.875C144.054 715.031 145.209 715.61 146.173 716.38C149.447 718.5 152.915 720.427 156.189 722.547C158.694 715.61 158.501 706.553 155.419 699.808C154.456 697.495 153.107 695.376 152.915 693.063C152.722 690.558 154.071 687.86 156.575 687.668C159.272 691.522 161.776 695.183 164.473 699.037C167.362 697.881 168.903 694.605 169.096 691.329C169.288 688.246 168.518 685.162 167.747 682.079C166.206 675.527 165.436 668.783 165.628 662.038C169.674 664.158 172.37 668.205 173.911 672.444C175.453 676.684 176.03 681.308 176.608 685.741C178.342 683.235 180.654 681.116 183.35 679.96C185.084 679.189 187.01 678.803 188.744 679.381C190.478 680.152 191.634 682.272 190.67 684.006C190.092 684.97 189.129 685.355 188.166 685.741C184.699 687.668 182.195 691.329 179.883 694.605C177.379 698.266 174.875 702.12 172.178 705.782C168.518 711.37 164.473 717.922 166.784 724.281C172.563 725.823 178.92 726.016 184.121 722.932C185.469 722.161 186.625 721.005 187.781 719.849C188.937 718.693 190.092 717.537 191.056 716.188C191.248 715.802 191.634 715.417 191.634 714.839C191.634 714.453 191.248 714.068 190.863 713.683C188.937 711.563 187.396 709.25 186.432 706.745C186.047 705.782 185.662 704.818 185.855 703.662C186.24 701.928 188.551 700.964 190.285 701.35C192.211 701.735 193.56 702.891 195.101 704.24C197.22 705.974 199.339 707.901 201.458 709.636C206.851 700.001 211.282 690.365 213.786 679.574C216.676 680.73 218.217 684.006 218.409 687.09C218.602 690.173 217.639 693.256 216.676 696.147C222.647 692.678 229.197 690.365 235.939 689.402C237.287 689.209 238.828 689.209 239.599 690.365C239.791 690.944 239.791 691.522 239.599 692.1C238.828 695.568 235.553 697.881 232.279 699.615C229.004 701.157 225.344 702.313 221.684 702.891C220.528 703.084 219.372 703.277 218.409 703.855C217.061 704.626 216.483 706.167 215.712 707.516C211.282 715.995 203.191 722.547 193.752 724.859C194.908 728.521 197.412 731.797 198.568 735.265C214.557 728.713 230.93 721.776 242.103 708.672C243.259 707.323 245.378 705.974 246.533 707.323C246.919 707.901 246.919 708.672 246.919 709.25C246.533 715.224 243.066 721.005 237.672 724.089C244.8 721.969 252.89 722.354 259.825 725.245C261.366 725.823 263.1 727.172 262.907 728.713C262.907 729.677 262.136 730.255 261.559 730.833C255.78 735.651 247.111 731.219 239.599 731.411C234.012 731.411 228.619 734.109 223.418 736.421C217.831 738.734 211.86 740.468 205.696 741.432C203.769 741.817 201.843 742.01 200.495 743.166C198.761 744.708 198.376 747.406 197.99 749.718C197.027 758.775 195.871 768.025 194.908 777.082C189.515 778.623 186.047 776.889 180.076 775.155Z" fill="#1B174E"/>
<path d="M1320.64 733.145C1316.02 720.62 1313.13 707.323 1312.36 694.027C1311.98 688.053 1311.78 681.501 1307.74 676.876C1305.62 674.564 1302.92 673.215 1300.23 671.866C1287.32 665.314 1274.41 658.955 1261.51 652.403C1257.46 653.559 1253.42 656.064 1249.56 657.799C1245.9 659.533 1241.86 661.075 1237.81 660.882C1233.77 660.689 1229.53 658.184 1228.37 654.137C1232.23 651.247 1236.08 648.356 1239.93 645.658C1241.86 644.309 1243.98 642.19 1243.21 640.07C1237.62 639.106 1233.77 634.289 1229.72 630.242C1224.33 624.654 1217.78 620.221 1210.65 617.138C1198.52 618.873 1181.37 614.826 1170.97 608.274C1168.47 606.732 1165.96 604.034 1167.12 601.337C1168.47 598.253 1172.9 599.217 1176.17 600.18C1187.73 603.456 1202.75 598.446 1204.87 586.691C1206.61 576.478 1198.13 565.687 1202.75 556.437C1215.66 565.494 1221.25 583.608 1215.85 598.446C1215.28 599.988 1214.5 601.915 1215.08 603.456C1215.47 604.613 1216.62 605.576 1217.78 606.347C1226.06 612.513 1234.35 618.487 1242.63 624.654C1244.17 625.81 1246.1 626.966 1247.83 626.388C1249.76 625.81 1250.53 623.305 1250.91 621.378C1252.65 611.164 1252.45 600.373 1250.53 590.16C1254.57 588.233 1258.42 593.05 1259.77 597.29C1263.63 608.274 1264.97 620.029 1263.43 631.398C1263.05 633.903 1262.66 636.601 1264.01 638.721C1264.97 640.455 1266.71 641.419 1268.25 642.382C1273.45 645.466 1278.65 648.742 1283.85 651.825C1287.7 641.033 1287.51 626.966 1282.7 616.56C1281.15 613.091 1279.04 609.815 1278.84 605.961C1278.46 602.3 1280.77 597.868 1284.43 597.483C1288.47 603.264 1292.52 609.045 1296.57 614.826C1301 612.899 1303.5 607.888 1303.89 603.071C1304.27 598.253 1302.92 593.436 1301.77 588.618C1299.45 578.598 1298.3 568.192 1298.49 557.786C1304.66 561.254 1308.89 567.421 1311.4 573.973C1313.9 580.525 1314.67 587.655 1315.44 594.592C1317.95 590.738 1321.61 587.462 1325.85 585.535C1328.54 584.379 1331.62 583.608 1334.32 584.764C1337.02 585.92 1338.75 589.389 1337.21 591.894C1336.44 593.243 1334.9 594.014 1333.36 594.785C1327.77 597.868 1324.11 603.264 1320.64 608.467C1316.79 614.248 1312.75 620.029 1308.89 625.81C1303.11 634.289 1297.14 644.695 1300.61 654.33C1309.66 656.642 1319.49 657.028 1327.58 652.403C1329.7 651.247 1331.62 649.512 1333.36 647.778C1335.09 646.044 1336.83 644.309 1338.37 642.19C1338.75 641.612 1339.14 640.841 1339.14 640.263C1339.14 639.492 1338.56 638.914 1337.98 638.336C1335.09 635.252 1332.78 631.591 1331.05 627.544C1330.47 626.003 1329.89 624.461 1330.28 622.919C1330.85 620.029 1334.32 618.68 1337.21 619.258C1340.1 619.836 1342.41 621.763 1344.53 623.69C1347.81 626.388 1351.08 629.279 1354.35 631.976C1362.64 617.138 1369.57 602.107 1373.62 585.535C1378.05 587.269 1380.55 592.28 1380.94 597.097C1381.32 601.915 1379.78 606.54 1378.24 611.164C1387.29 605.961 1397.5 602.3 1407.91 600.758C1410.02 600.373 1412.53 600.566 1413.49 602.3C1413.88 603.071 1413.88 604.227 1413.68 605.191C1412.34 610.586 1407.33 614.248 1402.32 616.56C1397.12 619.065 1391.72 620.8 1385.95 621.763C1384.21 622.148 1382.29 622.341 1380.94 623.305C1379.01 624.654 1377.86 626.773 1376.7 628.893C1369.77 641.997 1357.24 652.017 1342.99 655.679C1344.72 661.267 1348.77 666.277 1350.5 671.866C1375.16 661.845 1400.59 651.054 1417.92 631.013C1419.66 628.893 1422.93 626.773 1424.66 628.893C1425.24 629.664 1425.44 630.82 1425.24 631.976C1424.66 641.226 1419.08 650.283 1410.99 654.715C1422.16 651.247 1434.49 652.017 1445.08 656.642C1447.4 657.606 1450.09 659.533 1449.9 662.038C1449.71 663.387 1448.74 664.543 1447.78 665.507C1438.73 672.829 1425.63 666.085 1413.88 666.277C1405.21 666.47 1397.12 670.517 1389.03 673.793C1380.17 677.454 1371.11 679.959 1361.87 681.501C1358.98 682.079 1356.09 682.465 1353.78 684.392C1350.89 686.897 1350.31 690.943 1349.92 694.605C1348.38 708.672 1346.65 722.739 1345.11 736.807C1335.28 738.734 1329.89 735.843 1320.64 733.145Z" fill="#1B174E"/>
<path d="M200.301 772.264C203.19 765.52 206.272 758.582 211.473 753.572C216.289 748.947 222.453 746.249 228.618 743.744C240.753 738.734 255.393 734.302 266.373 741.624C278.316 741.432 290.259 742.781 301.817 745.478C304.514 746.057 307.404 746.827 309.33 748.947C311.064 750.681 312.219 753.765 314.724 753.572C316.072 753.572 317.035 752.608 318.384 752.416C320.502 752.223 322.043 754.535 323.97 755.499C326.281 756.655 328.978 756.077 331.675 756.27C334.179 756.27 337.454 757.426 337.839 759.931C338.032 761.665 337.069 763.4 337.839 764.941C338.802 766.868 341.307 766.676 343.233 767.254C345.737 768.025 347.663 770.337 348.049 772.842C357.102 777.467 364.422 785.753 369.623 794.425C370.779 796.352 371.742 798.279 372.128 800.206C372.705 803.482 371.935 806.951 370.972 810.227C370.009 813.888 369.045 817.549 366.734 820.633C362.496 826.221 354.983 828.148 348.049 827.57C341.114 826.992 334.565 824.101 328.015 821.982C310.871 816.586 292.764 815.237 275.234 811.19C251.541 805.794 229.388 795.581 207.236 785.368C203.383 783.826 201.264 776.311 200.301 772.264Z" fill="#1B174E"/>
<path d="M391.97 820.633C384.457 816.586 380.605 806.951 383.109 798.665C385.035 792.691 389.851 787.295 389.658 781.129C389.466 774.191 383.301 768.796 376.945 765.905C370.588 763.015 363.46 761.28 358.067 756.848C348.435 748.562 347.665 733.916 350.362 721.391C349.398 728.713 354.985 735.458 361.534 738.927C367.891 742.588 375.404 743.937 382.146 746.635C388.888 749.333 395.63 754.15 397.556 761.28C398.905 766.676 399.29 771.686 399.482 777.275C399.482 779.202 399.675 781.514 401.024 783.056C403.913 786.717 410.077 784.212 412.967 780.358C418.168 773.806 419.516 764.556 416.434 756.848C411.04 742.973 394.474 736.807 386.769 724.088C381.953 715.995 381.183 706.167 382.531 696.917C383.879 687.668 386.769 678.803 389.08 669.554C392.162 657.413 393.703 644.502 391.777 632.169C389.851 619.836 383.494 607.696 373.285 600.18C388.502 608.274 401.024 621.763 407.766 637.565C414.508 653.366 415.663 671.673 411.04 688.438C410.077 691.522 409.114 694.605 409.114 697.881C409.114 707.709 418.36 714.646 425.102 721.969C432.808 730.448 437.623 741.239 438.009 752.609C438.587 763.978 434.541 775.54 426.643 783.634C428.762 788.259 431.652 792.691 433.771 797.508C443.21 795.389 451.493 789.222 456.116 780.936C460.739 772.65 461.702 762.244 458.813 753.187C456.886 747.406 453.226 742.01 450.722 736.421C448.025 730.64 446.292 724.088 446.87 717.729C448.025 705.589 456.501 695.954 462.858 685.548C469.215 675.142 473.067 660.882 465.362 651.632C478.269 655.101 486.359 665.314 490.212 678.225C492.523 685.933 493.679 694.605 489.826 701.542C485.588 709.25 475.764 713.683 474.416 722.161C473.453 727.557 476.342 732.76 478.461 737.77C483.662 750.103 485.203 764.556 479.424 776.504C475.186 784.983 467.674 791.342 460.354 797.508C465.555 801.17 472.682 799.05 478.461 796.93C485.781 794.232 493.872 790.571 496.761 783.248C499.073 777.275 497.146 770.723 498.109 764.363C499.651 753.187 511.594 744.515 522.766 746.442C516.602 749.14 513.52 756.27 512.749 762.822C511.979 769.566 513.135 776.311 512.749 783.056C512.364 790.764 509.86 798.472 504.466 804.06C496.183 812.346 483.47 813.888 471.719 813.888C459.969 813.888 447.64 813.31 437.238 818.706C429.533 822.752 423.369 830.075 414.7 830.846C406.61 832.388 399.29 824.679 391.97 820.633Z" fill="#1B174E"/>
<path d="M870.657 847.804C870.85 844.142 872.198 840.481 870.85 837.012C868.923 831.424 861.411 829.689 858.136 824.487C853.128 816.393 861.603 805.602 858.329 796.545C856.017 790.185 848.89 787.295 843.496 783.055C835.406 776.696 830.975 765.519 832.709 755.306C834.057 747.405 838.295 739.312 835.02 731.989C833.672 728.906 830.975 726.593 829.049 723.895C823.848 716.573 823.462 706.36 827.893 698.651C829.819 695.375 833.479 692.099 837.332 693.256C839.066 693.834 840.414 694.99 841.57 696.339C846.193 701.735 848.89 708.865 848.697 715.995C848.697 718.885 848.312 721.968 849.082 724.859C850.431 729.869 855.054 732.953 859.292 736.036C866.034 741.046 872.391 748.369 871.813 756.848C871.427 761.858 868.538 766.483 868.731 771.493C868.923 780.936 879.325 787.295 880.674 796.737C881.83 804.445 876.436 813.117 880.481 819.862C884.334 826.221 894.736 825.45 899.166 819.669C903.597 813.888 902.634 805.216 898.781 798.857C895.506 793.461 889.92 788.066 891.076 781.899C892.424 775.54 900.13 772.264 901.863 765.905C903.212 760.894 900.129 755.884 898.203 751.067C896.277 746.249 895.892 739.504 900.515 736.999C906.294 733.916 912.458 741.624 912.265 747.983C912.265 749.718 911.88 751.645 912.458 753.186C913.421 756.655 917.466 758.197 919.007 761.473C922.475 768.41 912.458 776.311 914.769 783.633C915.54 785.946 917.274 787.68 918.622 789.415C924.016 796.352 924.786 806.372 920.741 814.273C918.815 817.935 916.118 821.018 915.155 824.872C913.999 829.497 915.54 834.122 916.311 838.747C917.659 846.647 916.696 855.126 912.073 861.678C900.9 878.443 869.116 869.001 870.657 847.804Z" fill="#1B174E"/>
<g opacity="0.54">
<g opacity="0.54">
<path opacity="0.54" fill-rule="evenodd" clip-rule="evenodd" d="M137.126 759.978C137.126 764.725 133.24 768.608 128.49 768.608C123.74 768.608 119.854 764.725 119.854 759.978C119.854 755.231 123.74 751.348 128.49 751.348C133.24 751.348 137.126 755.231 137.126 759.978Z" fill="url(#paint1_radial_0_4140)"/>
<path opacity="0.54" fill-rule="evenodd" clip-rule="evenodd" d="M8.01651 869.582C8.01651 873.034 5.42569 875.623 1.97121 875.623C-1.48326 875.623 -4.07422 873.034 -4.07422 869.582C-4.07422 866.13 -1.48326 863.541 1.97121 863.541C4.99388 863.109 8.01651 866.13 8.01651 869.582Z" fill="url(#paint2_radial_0_4140)"/>
<path opacity="0.54" d="M308.986 522.647C312.325 522.647 315.031 519.942 315.031 516.606C315.031 513.269 312.325 510.565 308.986 510.565C305.647 510.565 302.94 513.269 302.94 516.606C302.94 519.942 305.647 522.647 308.986 522.647Z" fill="url(#paint3_radial_0_4140)"/>
<path opacity="0.54" fill-rule="evenodd" clip-rule="evenodd" d="M319.782 779.828C319.782 783.28 317.191 785.869 313.737 785.869C310.282 785.869 307.691 783.28 307.691 779.828C307.691 776.376 310.282 773.787 313.737 773.787C317.191 773.787 319.782 776.376 319.782 779.828Z" fill="url(#paint4_radial_0_4140)"/>
<path opacity="0.54" fill-rule="evenodd" clip-rule="evenodd" d="M156.559 892.021C156.559 893.747 155.264 895.042 153.536 895.042C151.809 895.042 150.514 893.747 150.514 892.021C150.514 890.295 151.809 889 153.536 889C155.264 889 156.559 890.295 156.559 892.021Z" fill="url(#paint5_radial_0_4140)"/>
<path opacity="0.54" d="M179.876 705.608C181.545 705.608 182.899 704.255 182.899 702.587C182.899 700.919 181.545 699.567 179.876 699.567C178.207 699.567 176.854 700.919 176.854 702.587C176.854 704.255 178.207 705.608 179.876 705.608Z" fill="url(#paint6_radial_0_4140)"/>
<path opacity="0.54" fill-rule="evenodd" clip-rule="evenodd" d="M39.5382 870.876C39.5382 871.739 38.6746 872.171 38.2428 872.171C37.3792 872.171 36.9473 871.308 36.9473 870.876C36.9473 870.013 37.811 869.582 38.2428 869.582C39.1064 869.582 39.5382 870.013 39.5382 870.876Z" fill="url(#paint7_radial_0_4140)"/>
<path opacity="0.54" fill-rule="evenodd" clip-rule="evenodd" d="M17.5145 894.61C17.5145 895.473 16.651 895.904 16.2192 895.904C15.3556 895.904 14.9238 895.041 14.9238 894.61C14.9238 893.747 15.7874 893.315 16.2192 893.315C17.0828 893.315 17.5145 893.747 17.5145 894.61Z" fill="url(#paint8_radial_0_4140)"/>
<path opacity="0.54" fill-rule="evenodd" clip-rule="evenodd" d="M28.7426 847.143C28.7426 848.869 27.4472 850.164 25.72 850.164C23.9928 850.164 22.6973 848.869 22.6973 847.143C22.6973 845.417 23.9928 844.123 25.72 844.123C27.4472 844.123 28.7426 845.849 28.7426 847.143Z" fill="url(#paint9_radial_0_4140)"/>
<path opacity="0.54" fill-rule="evenodd" clip-rule="evenodd" d="M4.5629 688.778C4.5629 690.504 3.26755 691.799 1.54031 691.799C-0.186937 691.799 -1.48242 690.504 -1.48242 688.778C-1.48242 687.052 -0.186937 685.758 1.54031 685.758C3.26755 685.758 4.5629 687.052 4.5629 688.778Z" fill="url(#paint10_radial_0_4140)"/>
<path opacity="0.54" fill-rule="evenodd" clip-rule="evenodd" d="M679.046 451.879C682.5 448.427 688.114 448.427 691.568 451.879C695.023 455.331 695.023 460.94 691.568 464.392C688.114 467.845 682.5 467.845 679.046 464.392C675.591 460.94 675.591 455.331 679.046 451.879Z" fill="url(#paint11_radial_0_4140)"/>
<path opacity="0.54" d="M319.781 491.147C324.55 491.147 328.417 487.283 328.417 482.516C328.417 477.75 324.55 473.886 319.781 473.886C315.011 473.886 311.145 477.75 311.145 482.516C311.145 487.283 315.011 491.147 319.781 491.147Z" fill="url(#paint12_radial_0_4140)"/>
<path opacity="0.54" fill-rule="evenodd" clip-rule="evenodd" d="M567.641 575.723C571.095 572.271 576.709 572.271 580.163 575.723C583.618 579.175 583.618 584.784 580.163 588.237C576.709 591.689 571.095 591.689 567.641 588.237C564.186 584.784 564.186 579.175 567.641 575.723Z" fill="url(#paint13_radial_0_4140)"/>
<path opacity="0.54" fill-rule="evenodd" clip-rule="evenodd" d="M623.775 345.727C626.366 343.138 630.252 343.138 632.411 345.727C635.002 348.316 635.002 352.2 632.411 354.357C629.82 356.947 625.934 356.947 623.775 354.357C621.184 351.768 621.184 347.885 623.775 345.727Z" fill="url(#paint14_radial_0_4140)"/>
<path opacity="0.54" fill-rule="evenodd" clip-rule="evenodd" d="M736.478 589.963C739.069 587.374 742.955 587.374 745.114 589.963C747.705 592.552 747.705 596.436 745.114 598.593C742.524 601.182 738.637 601.182 736.478 598.593C733.887 596.436 733.887 592.552 736.478 589.963Z" fill="url(#paint15_radial_0_4140)"/>
<path opacity="0.54" fill-rule="evenodd" clip-rule="evenodd" d="M452.779 432.892C455.37 430.303 459.256 430.303 461.415 432.892C464.006 435.482 464.006 439.365 461.415 441.523C458.824 444.112 454.938 444.112 452.779 441.523C450.188 439.365 450.188 435.482 452.779 432.892Z" fill="url(#paint16_radial_0_4140)"/>
<path opacity="0.54" d="M721.364 682.737C723.987 682.737 726.114 680.612 726.114 677.991C726.114 675.369 723.987 673.244 721.364 673.244C718.741 673.244 716.614 675.369 716.614 677.991C716.614 680.612 718.741 682.737 721.364 682.737Z" fill="url(#paint17_radial_0_4140)"/>
<path opacity="0.54" fill-rule="evenodd" clip-rule="evenodd" d="M647.093 469.139C648.388 467.845 650.116 467.845 651.411 469.139C652.707 470.434 652.707 472.16 651.411 473.455C650.116 474.749 648.388 474.749 647.093 473.455C646.229 472.16 646.229 470.002 647.093 469.139Z" fill="url(#paint18_radial_0_4140)"/>
<path opacity="0.54" fill-rule="evenodd" clip-rule="evenodd" d="M748.136 605.928C749.431 604.634 751.159 604.634 752.454 605.928C753.749 607.223 753.749 608.949 752.454 610.244C751.159 611.538 749.431 611.538 748.136 610.244C747.272 608.949 747.272 607.223 748.136 605.928Z" fill="url(#paint19_radial_0_4140)"/>
<path opacity="0.54" fill-rule="evenodd" clip-rule="evenodd" d="M794.772 555.442C796.068 554.147 797.795 554.147 799.09 555.442C800.386 556.736 800.386 558.462 799.09 559.757C797.795 561.052 796.068 561.052 794.772 559.757C793.477 558.462 793.477 556.305 794.772 555.442Z" fill="url(#paint20_radial_0_4140)"/>
<path opacity="0.54" fill-rule="evenodd" clip-rule="evenodd" d="M755.91 541.202C757.205 539.908 758.933 539.908 760.228 541.202C761.523 542.497 761.523 544.223 760.228 545.517C758.933 546.812 757.205 546.812 755.91 545.517C754.615 544.223 754.615 542.497 755.91 541.202Z" fill="url(#paint21_radial_0_4140)"/>
<path opacity="0.54" fill-rule="evenodd" clip-rule="evenodd" d="M495.096 584.353C496.391 583.058 498.118 583.058 499.414 584.353C500.709 585.648 500.709 587.374 499.414 588.668C498.118 589.963 496.391 589.963 495.096 588.668C493.8 587.374 493.8 585.648 495.096 584.353Z" fill="url(#paint22_radial_0_4140)"/>
<path opacity="0.54" d="M716.183 568.819C716.899 568.819 717.479 568.239 717.479 567.524C717.479 566.809 716.899 566.229 716.183 566.229C715.468 566.229 714.888 566.809 714.888 567.524C714.888 568.239 715.468 568.819 716.183 568.819Z" fill="url(#paint23_radial_0_4140)"/>
<path opacity="0.54" fill-rule="evenodd" clip-rule="evenodd" d="M829.317 709.923C829.749 709.491 830.612 709.491 831.476 709.923C831.908 710.354 831.908 711.217 831.476 712.08C831.044 712.512 830.181 712.512 829.317 712.08C828.885 711.649 828.885 710.786 829.317 709.923Z" fill="url(#paint24_radial_0_4140)"/>
<path opacity="0.54" d="M337.918 323.72C338.634 323.72 339.214 323.141 339.214 322.426C339.214 321.711 338.634 321.131 337.918 321.131C337.203 321.131 336.623 321.711 336.623 322.426C336.623 323.141 337.203 323.72 337.918 323.72Z" fill="url(#paint25_radial_0_4140)"/>
<path opacity="0.54" d="M748.568 567.524C749.284 567.524 749.863 566.945 749.863 566.23C749.863 565.515 749.284 564.935 748.568 564.935C747.853 564.935 747.272 565.515 747.272 566.23C747.272 566.945 747.853 567.524 748.568 567.524Z" fill="url(#paint26_radial_0_4140)"/>
<path opacity="0.54" fill-rule="evenodd" clip-rule="evenodd" d="M706.251 590.825C707.546 589.531 709.273 589.531 710.569 590.825C711.864 592.12 711.864 593.846 710.569 595.141C709.273 596.435 707.546 596.435 706.251 595.141C704.955 593.846 704.955 592.12 706.251 590.825Z" fill="url(#paint27_radial_0_4140)"/>
<path opacity="0.54" fill-rule="evenodd" clip-rule="evenodd" d="M799.09 687.916C800.385 686.621 802.112 686.621 803.408 687.916C804.703 689.21 804.703 690.936 803.408 692.231C802.112 693.525 800.385 693.525 799.09 692.231C797.794 690.936 797.794 689.21 799.09 687.916Z" fill="url(#paint28_radial_0_4140)"/>
<path opacity="0.54" fill-rule="evenodd" clip-rule="evenodd" d="M217.013 323.288C218.308 321.994 220.035 321.994 221.331 323.288C222.626 324.583 222.626 326.309 221.331 327.603C220.035 328.898 218.308 328.898 217.013 327.603C215.717 326.309 215.717 324.583 217.013 323.288Z" fill="url(#paint29_radial_0_4140)"/>
<path opacity="0.54" fill-rule="evenodd" clip-rule="evenodd" d="M728.272 813.486C729.568 812.191 731.295 812.191 732.59 813.486C733.886 814.78 733.886 816.506 732.59 817.801C731.295 819.095 729.568 819.095 728.272 817.801C726.977 816.075 726.977 814.349 728.272 813.486Z" fill="url(#paint30_radial_0_4140)"/>
<path opacity="0.54" fill-rule="evenodd" clip-rule="evenodd" d="M610.82 719.847C612.115 718.553 613.842 718.553 615.138 719.847C616.433 721.142 616.433 722.868 615.138 724.162C613.842 725.457 612.115 725.457 610.82 724.162C609.956 722.868 609.956 721.142 610.82 719.847Z" fill="url(#paint31_radial_0_4140)"/>
<path opacity="0.54" d="M1034 627.073C1038.77 627.073 1042.63 623.209 1042.63 618.442C1042.63 613.676 1038.77 609.812 1034 609.812C1029.23 609.812 1025.36 613.676 1025.36 618.442C1025.36 623.209 1029.23 627.073 1034 627.073Z" fill="url(#paint32_radial_0_4140)"/>
<path opacity="0.54" fill-rule="evenodd" clip-rule="evenodd" d="M1205.85 485.105C1209.31 481.653 1214.92 481.653 1218.38 485.105C1221.83 488.558 1221.83 494.167 1218.38 497.619C1214.92 501.071 1209.31 501.071 1205.85 497.619C1202.83 494.167 1202.83 488.558 1205.85 485.105Z" fill="url(#paint33_radial_0_4140)"/>
<path opacity="0.54" d="M922.586 750.916C927.356 750.916 931.223 747.052 931.223 742.286C931.223 737.52 927.356 733.656 922.586 733.656C917.817 733.656 913.95 737.52 913.95 742.286C913.95 747.052 917.817 750.916 922.586 750.916Z" fill="url(#paint34_radial_0_4140)"/>
<path opacity="0.54" d="M949.791 842.397C954.561 842.397 958.428 838.533 958.428 833.767C958.428 829.001 954.561 825.137 949.791 825.137C945.022 825.137 941.155 829.001 941.155 833.767C941.155 838.533 945.022 842.397 949.791 842.397Z" fill="url(#paint35_radial_0_4140)"/>
<path opacity="0.54" fill-rule="evenodd" clip-rule="evenodd" d="M972.244 505.818C974.835 503.229 978.721 503.229 980.88 505.818C983.471 508.407 983.471 512.291 980.88 514.448C978.29 517.037 974.403 517.037 972.244 514.448C970.085 511.859 970.085 508.407 972.244 505.818Z" fill="url(#paint36_radial_0_4140)"/>
<path opacity="0.54" fill-rule="evenodd" clip-rule="evenodd" d="M1318.99 344.433C1321.58 341.844 1325.47 341.844 1327.62 344.433C1330.22 347.022 1330.22 350.906 1327.62 353.063C1325.03 355.652 1321.15 355.652 1318.99 353.063C1316.4 350.906 1316.4 347.022 1318.99 344.433Z" fill="url(#paint37_radial_0_4140)"/>
<path opacity="0.54" fill-rule="evenodd" clip-rule="evenodd" d="M1268.9 392.762C1271.49 390.173 1275.37 390.173 1277.53 392.762C1279.69 395.351 1280.12 399.235 1277.53 401.392C1274.94 403.981 1271.06 403.981 1268.9 401.392C1266.74 399.235 1266.74 395.351 1268.9 392.762Z" fill="url(#paint38_radial_0_4140)"/>
<path opacity="0.54" fill-rule="evenodd" clip-rule="evenodd" d="M801.248 592.983C803.839 590.394 807.725 590.394 809.884 592.983C812.475 595.572 812.475 599.456 809.884 601.614C807.293 604.203 803.407 604.203 801.248 601.614C799.089 599.456 799.089 595.572 801.248 592.983Z" fill="url(#paint39_radial_0_4140)"/>
<path opacity="0.54" d="M1250.76 73.8751C1253.39 73.8751 1255.51 71.75 1255.51 69.1285C1255.51 66.507 1253.39 64.3818 1250.76 64.3818C1248.14 64.3818 1246.01 66.507 1246.01 69.1285C1246.01 71.75 1248.14 73.8751 1250.76 73.8751Z" fill="url(#paint40_radial_0_4140)"/>
<path opacity="0.54" d="M931.654 815.643C934.277 815.643 936.404 813.518 936.404 810.896C936.404 808.275 934.277 806.15 931.654 806.15C929.031 806.15 926.904 808.275 926.904 810.896C926.904 813.518 929.031 815.643 931.654 815.643Z" fill="url(#paint41_radial_0_4140)"/>
<path opacity="0.54" fill-rule="evenodd" clip-rule="evenodd" d="M995.994 629.23C997.289 627.936 999.017 627.936 1000.31 629.23C1001.61 630.525 1001.61 632.251 1000.31 633.545C999.017 634.84 997.289 634.84 995.994 633.545C994.699 632.251 994.699 630.525 995.994 629.23Z" fill="url(#paint42_radial_0_4140)"/>
<path opacity="0.54" fill-rule="evenodd" clip-rule="evenodd" d="M950.655 803.992C951.951 802.698 953.678 802.698 954.973 803.992C956.269 805.287 956.269 807.013 954.973 808.307C953.678 809.602 951.951 809.602 950.655 808.307C949.36 807.013 949.36 805.287 950.655 803.992Z" fill="url(#paint43_radial_0_4140)"/>
<path opacity="0.54" fill-rule="evenodd" clip-rule="evenodd" d="M518.845 501.071C520.14 499.777 521.867 499.777 523.163 501.071C524.458 502.366 524.458 504.092 523.163 505.387C521.867 506.681 520.14 506.681 518.845 505.387C517.549 504.092 517.549 501.935 518.845 501.071Z" fill="url(#paint44_radial_0_4140)"/>
<path opacity="0.54" fill-rule="evenodd" clip-rule="evenodd" d="M843.999 744.444C845.294 743.149 847.022 743.149 848.317 744.444C849.613 745.738 849.613 747.464 848.317 748.759C847.022 750.053 845.294 750.053 843.999 748.759C842.703 747.464 842.703 745.738 843.999 744.444Z" fill="url(#paint45_radial_0_4140)"/>
<path opacity="0.54" fill-rule="evenodd" clip-rule="evenodd" d="M177.718 480.359C179.013 479.064 180.74 479.064 182.036 480.359C183.331 481.653 183.331 483.379 182.036 484.674C180.74 485.968 179.013 485.968 177.718 484.674C176.422 483.379 176.422 481.653 177.718 480.359Z" fill="url(#paint46_radial_0_4140)"/>
<path opacity="0.54" fill-rule="evenodd" clip-rule="evenodd" d="M832.34 774.218C832.772 773.787 833.636 773.787 834.499 774.218C834.931 774.65 834.931 775.513 834.499 776.376C834.068 776.807 833.204 776.807 832.34 776.376C831.909 775.513 831.909 774.65 832.34 774.218Z" fill="url(#paint47_radial_0_4140)"/>
<path opacity="0.54" d="M873.792 749.622C874.508 749.622 875.088 749.042 875.088 748.328C875.088 747.613 874.508 747.033 873.792 747.033C873.077 747.033 872.497 747.613 872.497 748.328C872.497 749.042 873.077 749.622 873.792 749.622Z" fill="url(#paint48_radial_0_4140)"/>
<path opacity="0.54" d="M608.663 490.715C609.378 490.715 609.958 490.135 609.958 489.421C609.958 488.706 609.378 488.126 608.663 488.126C607.947 488.126 607.367 488.706 607.367 489.421C607.367 490.135 607.947 490.715 608.663 490.715Z" fill="url(#paint49_radial_0_4140)"/>
<path opacity="0.54" fill-rule="evenodd" clip-rule="evenodd" d="M1322.44 11.7375C1322.88 11.3059 1323.74 11.3059 1324.6 11.7375C1325.03 12.169 1325.03 13.032 1324.6 13.895C1324.17 14.3265 1323.31 14.3265 1322.44 13.895C1321.58 13.032 1321.58 12.169 1322.44 11.7375Z" fill="url(#paint50_radial_0_4140)"/>
<path opacity="0.54" fill-rule="evenodd" clip-rule="evenodd" d="M1323.74 114.437C1324.17 114.005 1325.03 114.005 1325.9 114.437C1326.33 114.868 1326.33 115.731 1325.9 116.594C1325.47 117.026 1324.6 117.026 1323.74 116.594C1323.31 116.163 1323.31 114.868 1323.74 114.437Z" fill="url(#paint51_radial_0_4140)"/>
<path opacity="0.54" fill-rule="evenodd" clip-rule="evenodd" d="M274.874 841.534C275.305 841.103 276.169 841.103 277.033 841.534C277.464 841.966 277.464 842.829 277.033 843.692C276.601 844.123 275.737 844.123 274.874 843.692C274.442 842.829 274.442 841.966 274.874 841.534Z" fill="url(#paint52_radial_0_4140)"/>
<path opacity="0.54" fill-rule="evenodd" clip-rule="evenodd" d="M1268.04 115.732C1268.47 115.3 1269.33 115.3 1270.2 115.732C1270.63 116.163 1270.63 117.026 1270.2 117.889C1269.76 118.321 1268.9 118.321 1268.04 117.889C1267.17 117.458 1267.17 116.595 1268.04 115.732Z" fill="url(#paint53_radial_0_4140)"/>
<path opacity="0.54" fill-rule="evenodd" clip-rule="evenodd" d="M1266.31 96.745C1266.74 96.3135 1267.6 96.3135 1268.47 96.745C1268.9 97.1765 1268.9 98.0396 1268.47 98.9026C1268.03 99.3341 1267.17 99.3341 1266.31 98.9026C1265.88 98.0396 1265.88 97.1765 1266.31 96.745Z" fill="url(#paint54_radial_0_4140)"/>
<path opacity="0.54" fill-rule="evenodd" clip-rule="evenodd" d="M940.293 822.547C940.725 822.116 941.589 822.116 942.452 822.547C942.884 822.979 942.884 823.842 942.452 824.705C942.02 825.136 941.157 825.136 940.293 824.705C939.43 823.842 939.43 822.979 940.293 822.547Z" fill="url(#paint55_radial_0_4140)"/>
<path opacity="0.54" fill-rule="evenodd" clip-rule="evenodd" d="M930.36 800.54C930.792 800.109 931.655 800.109 932.519 800.54C932.951 800.972 932.951 801.835 932.519 802.698C932.087 803.129 931.224 803.129 930.36 802.698C929.928 802.266 929.928 801.403 930.36 800.54Z" fill="url(#paint56_radial_0_4140)"/>
<path opacity="0.54" fill-rule="evenodd" clip-rule="evenodd" d="M875.952 798.383C877.248 797.088 878.975 797.088 880.27 798.383C881.566 799.677 881.566 801.403 880.27 802.698C878.975 803.992 877.248 803.992 875.952 802.698C874.657 801.403 874.657 799.246 875.952 798.383Z" fill="url(#paint57_radial_0_4140)"/>
<path opacity="0.54" fill-rule="evenodd" clip-rule="evenodd" d="M914.813 800.972C916.109 799.677 917.836 799.677 919.132 800.972C920.427 802.266 920.427 803.992 919.132 805.287C917.836 806.582 916.109 806.582 914.813 805.287C913.518 803.992 913.518 802.266 914.813 800.972Z" fill="url(#paint58_radial_0_4140)"/>
<path opacity="0.54" fill-rule="evenodd" clip-rule="evenodd" d="M245.941 558.03C247.236 556.736 248.963 556.736 250.259 558.03C251.554 559.325 251.554 561.051 250.259 562.346C248.963 563.64 247.236 563.64 245.941 562.346C245.077 561.051 245.077 559.325 245.941 558.03Z" fill="url(#paint59_radial_0_4140)"/>
<path opacity="0.54" fill-rule="evenodd" clip-rule="evenodd" d="M295.17 460.941C297.761 458.352 301.647 458.352 303.806 460.941C306.397 463.53 306.397 467.414 303.806 469.571C301.215 472.16 297.329 472.16 295.17 469.571C292.579 466.982 292.579 463.099 295.17 460.941Z" fill="url(#paint60_radial_0_4140)"/>
<path opacity="0.54" fill-rule="evenodd" clip-rule="evenodd" d="M353.464 425.988C354.759 424.694 356.486 424.694 357.782 425.988C359.077 427.283 359.077 429.009 357.782 430.303C356.486 431.598 354.759 431.598 353.464 430.303C352.168 429.009 352.168 427.283 353.464 425.988Z" fill="url(#paint61_radial_0_4140)"/>
<path opacity="0.54" fill-rule="evenodd" clip-rule="evenodd" d="M314.167 411.748C315.463 410.454 317.19 410.454 318.485 411.748C319.781 413.043 319.781 414.769 318.485 416.064C317.19 417.358 315.463 417.358 314.167 416.064C313.304 414.769 313.304 413.043 314.167 411.748Z" fill="url(#paint62_radial_0_4140)"/>
<path opacity="0.54" d="M274.443 439.365C275.158 439.365 275.738 438.785 275.738 438.07C275.738 437.355 275.158 436.776 274.443 436.776C273.727 436.776 273.147 437.355 273.147 438.07C273.147 438.785 273.727 439.365 274.443 439.365Z" fill="url(#paint63_radial_0_4140)"/>
<path opacity="0.54" d="M306.828 438.071C307.543 438.071 308.123 437.491 308.123 436.776C308.123 436.061 307.543 435.481 306.828 435.481C306.112 435.481 305.532 436.061 305.532 436.776C305.532 437.491 306.112 438.071 306.828 438.071Z" fill="url(#paint64_radial_0_4140)"/>
<path opacity="0.54" fill-rule="evenodd" clip-rule="evenodd" d="M264.51 461.803C265.805 460.509 267.532 460.509 268.828 461.803C270.123 463.098 270.123 464.824 268.828 466.119C267.532 467.413 265.805 467.413 264.51 466.119C263.214 464.393 263.214 462.666 264.51 461.803Z" fill="url(#paint65_radial_0_4140)"/>
<path opacity="0.54" fill-rule="evenodd" clip-rule="evenodd" d="M969.655 145.506C971.382 145.075 972.678 145.938 973.11 147.664C973.542 149.39 972.678 150.684 970.951 151.116C969.223 151.547 967.928 150.684 967.496 148.958C967.496 147.664 968.36 145.938 969.655 145.506Z" fill="url(#paint66_radial_0_4140)"/>
<path opacity="0.54" fill-rule="evenodd" clip-rule="evenodd" d="M1167.42 94.156C1168.72 92.8614 1170.44 92.8614 1171.74 94.156C1173.04 95.4505 1173.04 97.1765 1171.74 98.4711C1170.44 99.7656 1168.72 99.7656 1167.42 98.4711C1166.13 97.1765 1166.13 95.4505 1167.42 94.156Z" fill="url(#paint67_radial_0_4140)"/>
<path opacity="0.54" fill-rule="evenodd" clip-rule="evenodd" d="M450.62 807.876C453.211 805.287 457.097 805.287 459.256 807.876C461.847 810.465 461.847 814.349 459.256 816.506C456.665 819.095 452.779 819.095 450.62 816.506C448.029 814.349 448.029 810.465 450.62 807.876Z" fill="url(#paint68_radial_0_4140)"/>
<path opacity="0.54" fill-rule="evenodd" clip-rule="evenodd" d="M458.824 618.442C461.415 615.853 465.301 615.853 467.46 618.442C470.051 621.031 470.051 624.915 467.46 627.073C464.869 629.662 460.983 629.662 458.824 627.073C456.233 624.915 456.233 621.031 458.824 618.442Z" fill="url(#paint69_radial_0_4140)"/>
<path opacity="0.54" d="M435.074 900.651C437.697 900.651 439.824 898.525 439.824 895.904C439.824 893.282 437.697 891.157 435.074 891.157C432.451 891.157 430.324 893.282 430.324 895.904C430.324 898.525 432.451 900.651 435.074 900.651Z" fill="url(#paint70_radial_0_4140)"/>
<path opacity="0.54" fill-rule="evenodd" clip-rule="evenodd" d="M462.278 823.842C463.574 822.547 465.301 822.547 466.596 823.842C467.892 825.136 467.892 826.862 466.596 828.157C465.301 829.451 463.574 829.451 462.278 828.157C460.983 826.862 460.983 825.136 462.278 823.842Z" fill="url(#paint71_radial_0_4140)"/>
<path opacity="0.54" d="M510.641 778.102C512.31 778.102 513.663 776.749 513.663 775.081C513.663 773.413 512.31 772.061 510.641 772.061C508.971 772.061 507.618 773.413 507.618 775.081C507.618 776.749 508.971 778.102 510.641 778.102Z" fill="url(#paint72_radial_0_4140)"/>
<path opacity="0.54" fill-rule="evenodd" clip-rule="evenodd" d="M562.89 598.593C564.185 597.298 565.913 597.298 567.208 598.593C568.503 599.887 568.503 601.613 567.208 602.908C565.913 604.202 564.185 604.202 562.89 602.908C562.026 601.613 562.026 599.887 562.89 598.593Z" fill="url(#paint73_radial_0_4140)"/>
<path opacity="0.54" fill-rule="evenodd" clip-rule="evenodd" d="M469.62 759.115C470.916 757.821 472.643 757.821 473.938 759.115C475.234 760.41 475.234 762.136 473.938 763.43C472.643 764.725 470.916 764.725 469.62 763.43C468.757 762.136 468.757 759.978 469.62 759.115Z" fill="url(#paint74_radial_0_4140)"/>
<path opacity="0.54" d="M429.893 786.732C430.608 786.732 431.188 786.152 431.188 785.437C431.188 784.722 430.608 784.143 429.893 784.143C429.178 784.143 428.598 784.722 428.598 785.437C428.598 786.152 429.178 786.732 429.893 786.732Z" fill="url(#paint75_radial_0_4140)"/>
<path opacity="0.54" d="M462.278 785.437C462.993 785.437 463.573 784.858 463.573 784.143C463.573 783.428 462.993 782.848 462.278 782.848C461.562 782.848 460.982 783.428 460.982 784.143C460.982 784.858 461.562 785.437 462.278 785.437Z" fill="url(#paint76_radial_0_4140)"/>
<path opacity="0.54" fill-rule="evenodd" clip-rule="evenodd" d="M419.961 808.739C421.256 807.445 422.983 807.445 424.279 808.739C425.574 810.034 425.574 811.76 424.279 813.054C422.983 814.349 421.256 814.349 419.961 813.054C418.665 811.76 418.665 810.034 419.961 808.739Z" fill="url(#paint77_radial_0_4140)"/>
<path opacity="0.54" fill-rule="evenodd" clip-rule="evenodd" d="M220.032 807.012C221.328 805.718 223.055 805.718 224.35 807.012C225.646 808.307 225.646 810.033 224.35 811.328C223.055 812.622 221.328 812.622 220.032 811.328C218.737 810.033 218.737 808.307 220.032 807.012Z" fill="url(#paint78_radial_0_4140)"/>
<path opacity="0.54" fill-rule="evenodd" clip-rule="evenodd" d="M1220.97 114.869C1222.26 113.574 1223.99 113.574 1225.29 114.869C1226.58 116.163 1226.58 117.889 1225.29 119.184C1223.99 120.478 1222.26 120.478 1220.97 119.184C1220.1 117.889 1220.1 116.163 1220.97 114.869Z" fill="url(#paint79_radial_0_4140)"/>
<path opacity="0.54" fill-rule="evenodd" clip-rule="evenodd" d="M1262.42 246.911C1263.72 245.616 1265.44 245.616 1266.74 246.911C1268.03 248.205 1268.03 249.931 1266.74 251.226C1265.44 252.52 1263.72 252.52 1262.42 251.226C1261.13 249.931 1261.13 248.205 1262.42 246.911Z" fill="url(#paint80_radial_0_4140)"/>
<path opacity="0.54" fill-rule="evenodd" clip-rule="evenodd" d="M959.724 880.37C961.019 879.075 962.746 879.075 964.042 880.37C965.337 881.664 965.337 883.39 964.042 884.685C962.746 885.98 961.019 885.98 959.724 884.685C958.86 883.39 958.86 881.233 959.724 880.37Z" fill="url(#paint81_radial_0_4140)"/>
<path opacity="0.54" fill-rule="evenodd" clip-rule="evenodd" d="M1085.81 -1.20796C1084.95 0.0865712 1083.22 0.949591 1081.93 0.0865679C1080.63 -0.776455 1079.77 -2.50249 1080.63 -3.79703C1081.49 -5.09156 1083.22 -5.9546 1084.52 -5.09157C1085.81 -4.22855 1086.24 -2.5025 1085.81 -1.20796Z" fill="url(#paint82_radial_0_4140)"/>
<path opacity="0.54" fill-rule="evenodd" clip-rule="evenodd" d="M1127.27 1.38138C1126.4 2.67591 1124.67 3.53895 1123.38 2.67593C1122.08 1.8129 1121.22 0.0868506 1122.08 -1.20768C1122.95 -2.50222 1124.67 -3.36524 1125.97 -2.50222C1127.27 -2.0707 1127.7 -0.344667 1127.27 1.38138Z" fill="url(#paint83_radial_0_4140)"/>
<path opacity="0.54" fill-rule="evenodd" clip-rule="evenodd" d="M1413.99 226.199C1413.99 227.925 1412.69 229.219 1410.97 229.219C1409.24 229.219 1407.94 227.925 1407.94 226.199C1407.94 224.473 1409.24 223.178 1410.97 223.178C1412.69 223.178 1413.99 224.473 1413.99 226.199Z" fill="url(#paint84_radial_0_4140)"/>
<path opacity="0.54" fill-rule="evenodd" clip-rule="evenodd" d="M688.98 73.0122C692.434 69.5601 698.048 69.5601 701.502 73.0122C704.956 76.4643 704.956 82.0739 701.502 85.526C698.048 88.9781 692.434 88.9781 688.98 85.526C685.525 81.6424 685.525 76.0327 688.98 73.0122Z" fill="url(#paint85_radial_0_4140)"/>
<path opacity="0.54" d="M611.253 302.576C616.023 302.576 619.89 298.712 619.89 293.946C619.89 289.18 616.023 285.316 611.253 285.316C606.484 285.316 602.617 289.18 602.617 293.946C602.617 298.712 606.484 302.576 611.253 302.576Z" fill="url(#paint86_radial_0_4140)"/>
<path opacity="0.54" fill-rule="evenodd" clip-rule="evenodd" d="M746.408 210.664C748.999 208.075 752.886 208.075 755.045 210.664C757.636 213.253 757.636 217.137 755.045 219.294C752.454 221.883 748.567 221.883 746.408 219.294C744.249 217.137 744.249 213.253 746.408 210.664Z" fill="url(#paint87_radial_0_4140)"/>
<path opacity="0.54" fill-rule="evenodd" clip-rule="evenodd" d="M728.272 295.672C729.999 293.946 733.021 293.946 734.749 295.672C736.476 297.398 736.476 300.419 734.749 302.145C733.021 303.871 729.999 303.871 728.272 302.145C726.113 299.987 726.113 297.398 728.272 295.672Z" fill="url(#paint88_radial_0_4140)"/>
<path opacity="0.54" d="M768 392.762C770.623 392.762 772.75 390.637 772.75 388.015C772.75 385.394 770.623 383.269 768 383.269C765.377 383.269 763.25 385.394 763.25 388.015C763.25 390.637 765.377 392.762 768 392.762Z" fill="url(#paint89_radial_0_4140)"/>
<path opacity="0.54" d="M659.185 95.0187C660.854 95.0187 662.207 93.6663 662.207 91.9981C662.207 90.3299 660.854 88.9775 659.185 88.9775C657.515 88.9775 656.162 90.3299 656.162 91.9981C656.162 93.6663 657.515 95.0187 659.185 95.0187Z" fill="url(#paint90_radial_0_4140)"/>
<path opacity="0.54" fill-rule="evenodd" clip-rule="evenodd" d="M758.067 226.63C759.362 225.336 761.089 225.336 762.385 226.63C763.68 227.925 763.68 229.651 762.385 230.945C761.089 232.24 759.362 232.24 758.067 230.945C757.203 229.651 757.203 227.925 758.067 226.63Z" fill="url(#paint91_radial_0_4140)"/>
<path opacity="0.54" fill-rule="evenodd" clip-rule="evenodd" d="M611.684 264.603C612.98 263.309 614.707 263.309 616.002 264.603C617.298 265.898 617.298 267.624 616.002 268.918C614.707 270.213 612.98 270.213 611.684 268.918C610.389 267.624 610.389 265.898 611.684 264.603Z" fill="url(#paint92_radial_0_4140)"/>
<path opacity="0.54" fill-rule="evenodd" clip-rule="evenodd" d="M938.564 200.739C939.859 199.445 941.586 199.445 942.882 200.739C944.177 202.034 944.177 203.76 942.882 205.055C941.586 206.349 939.859 206.349 938.564 205.055C937.7 203.76 937.7 202.034 938.564 200.739Z" fill="url(#paint93_radial_0_4140)"/>
<path opacity="0.54" fill-rule="evenodd" clip-rule="evenodd" d="M1027.95 178.732C1029.24 177.438 1030.97 177.438 1032.27 178.732C1033.56 180.027 1033.56 181.753 1032.27 183.047C1030.97 184.342 1029.24 184.342 1027.95 183.047C1026.65 181.753 1026.65 180.027 1027.95 178.732Z" fill="url(#paint94_radial_0_4140)"/>
<path opacity="0.54" fill-rule="evenodd" clip-rule="evenodd" d="M804.702 176.143C805.998 174.848 807.725 174.848 809.021 176.143C810.316 177.438 810.316 179.164 809.021 180.458C807.725 181.753 805.998 181.753 804.702 180.458C803.839 179.164 803.839 177.006 804.702 176.143Z" fill="url(#paint95_radial_0_4140)"/>
<path opacity="0.54" fill-rule="evenodd" clip-rule="evenodd" d="M765.841 161.903C767.136 160.609 768.863 160.609 770.159 161.903C771.454 163.198 771.454 164.924 770.159 166.218C768.863 167.513 767.136 167.513 765.841 166.218C764.545 164.924 764.545 163.198 765.841 161.903Z" fill="url(#paint96_radial_0_4140)"/>
<path opacity="0.54" fill-rule="evenodd" clip-rule="evenodd" d="M724.818 187.362C725.25 186.931 726.113 186.931 726.977 187.362C727.409 187.794 727.409 188.657 726.977 189.52C726.545 189.951 725.682 189.951 724.818 189.52C724.386 188.657 724.386 187.794 724.818 187.362Z" fill="url(#paint97_radial_0_4140)"/>
<path opacity="0.54" fill-rule="evenodd" clip-rule="evenodd" d="M839.247 330.624C839.679 330.192 840.542 330.192 841.406 330.624C841.838 331.055 841.838 331.918 841.406 332.782C840.974 333.213 840.11 333.213 839.247 332.782C838.815 332.35 838.815 331.487 839.247 330.624Z" fill="url(#paint98_radial_0_4140)"/>
<path opacity="0.54" d="M841.839 435.913C842.555 435.913 843.135 435.333 843.135 434.618C843.135 433.903 842.555 433.324 841.839 433.324C841.124 433.324 840.544 433.903 840.544 434.618C840.544 435.333 841.124 435.913 841.839 435.913Z" fill="url(#paint99_radial_0_4140)"/>
<path opacity="0.54" d="M786.135 437.207C786.851 437.207 787.431 436.628 787.431 435.913C787.431 435.198 786.851 434.618 786.135 434.618C785.42 434.618 784.84 435.198 784.84 435.913C784.84 436.628 785.42 437.207 786.135 437.207Z" fill="url(#paint100_radial_0_4140)"/>
<path opacity="0.54" d="M784.409 418.221C785.124 418.221 785.704 417.642 785.704 416.927C785.704 416.212 785.124 415.632 784.409 415.632C783.693 415.632 783.113 416.212 783.113 416.927C783.113 417.642 783.693 418.221 784.409 418.221Z" fill="url(#paint101_radial_0_4140)"/>
<path opacity="0.54" fill-rule="evenodd" clip-rule="evenodd" d="M757.637 186.068C758.069 185.637 758.932 185.637 759.796 186.068C760.228 186.5 760.228 187.363 759.796 188.226C759.364 188.657 758.501 188.657 757.637 188.226C756.773 187.363 756.773 186.5 757.637 186.068Z" fill="url(#paint102_radial_0_4140)"/>
<path opacity="0.54" fill-rule="evenodd" clip-rule="evenodd" d="M716.183 211.527C717.479 210.233 719.206 210.233 720.502 211.527C721.797 212.822 721.797 214.548 720.502 215.842C719.206 217.137 717.479 217.137 716.183 215.842C714.888 214.548 714.888 212.822 716.183 211.527Z" fill="url(#paint103_radial_0_4140)"/>
<path opacity="0.54" fill-rule="evenodd" clip-rule="evenodd" d="M809.02 308.617C810.316 307.323 812.043 307.323 813.338 308.617C814.634 309.912 814.634 311.638 813.338 312.933C812.043 314.227 810.316 314.227 809.02 312.933C807.725 311.638 807.725 309.912 809.02 308.617Z" fill="url(#paint104_radial_0_4140)"/>
<path opacity="0.54" fill-rule="evenodd" clip-rule="evenodd" d="M1156.63 41.9431C1157.92 40.6485 1159.65 40.6485 1160.95 41.9431C1162.24 43.2376 1162.24 44.9636 1160.95 46.2582C1159.65 47.5527 1157.92 47.5527 1156.63 46.2582C1155.76 44.9636 1155.76 43.2376 1156.63 41.9431Z" fill="url(#paint105_radial_0_4140)"/>
<path opacity="0.54" fill-rule="evenodd" clip-rule="evenodd" d="M1083.65 311.638C1084.95 310.343 1086.68 310.343 1087.97 311.638C1089.27 312.932 1089.27 314.658 1087.97 315.953C1086.68 317.247 1084.95 317.247 1083.65 315.953C1082.36 314.658 1082.36 312.932 1083.65 311.638Z" fill="url(#paint106_radial_0_4140)"/>
<path opacity="0.54" fill-rule="evenodd" clip-rule="evenodd" d="M684.66 413.475C685.955 412.18 687.683 412.18 688.978 413.475C690.273 414.769 690.273 416.495 688.978 417.79C687.683 419.084 685.955 419.084 684.66 417.79C683.365 416.064 683.365 414.338 684.66 413.475Z" fill="url(#paint107_radial_0_4140)"/>
<path opacity="0.54" fill-rule="evenodd" clip-rule="evenodd" d="M1197.22 15.6213C1198.51 14.3268 1200.24 14.3268 1201.54 15.6213C1202.83 16.9158 1202.83 18.6419 1201.54 19.9364C1200.24 21.2309 1198.51 21.2309 1197.22 19.9364C1196.36 18.6419 1196.36 16.9158 1197.22 15.6213Z" fill="url(#paint108_radial_0_4140)"/>
<path opacity="0.54" fill-rule="evenodd" clip-rule="evenodd" d="M738.206 434.187C739.501 432.892 741.229 432.892 742.524 434.187C743.819 435.481 743.819 437.207 742.524 438.502C741.229 439.796 739.501 439.796 738.206 438.502C736.911 437.207 736.911 435.05 738.206 434.187Z" fill="url(#paint109_radial_0_4140)"/>
<path opacity="0.54" fill-rule="evenodd" clip-rule="evenodd" d="M779.659 566.23C780.955 564.935 782.682 564.935 783.977 566.23C785.273 567.524 785.273 569.25 783.977 570.545C782.682 571.839 780.955 571.839 779.659 570.545C778.364 569.25 778.364 567.524 779.659 566.23Z" fill="url(#paint110_radial_0_4140)"/>
<path opacity="0.54" fill-rule="evenodd" clip-rule="evenodd" d="M621.184 340.981C622.48 339.686 624.207 339.686 625.502 340.981C626.798 342.275 626.798 344.001 625.502 345.296C624.207 346.59 622.48 346.59 621.184 345.296C619.889 343.57 619.889 341.844 621.184 340.981Z" fill="url(#paint111_radial_0_4140)"/>
</g>
</g>
</g>
<defs>
<radialGradient id="paint0_radial_0_4140" cx="0" cy="0" r="1" gradientUnits="userSpaceOnUse" gradientTransform="translate(954.992 1354.45) rotate(-134.196) scale(1400.07 1399.51)">
<stop stop-color="#312D88"/>
<stop offset="1" stop-color="#355EA7"/>
</radialGradient>
<radialGradient id="paint1_radial_0_4140" cx="0" cy="0" r="1" gradientUnits="userSpaceOnUse" gradientTransform="translate(128.49 759.978) rotate(90) scale(8.63022 8.6362)">
<stop stop-color="white" stop-opacity="0"/>
<stop offset="1" stop-color="white"/>
</radialGradient>
<radialGradient id="paint2_radial_0_4140" cx="0" cy="0" r="1" gradientUnits="userSpaceOnUse" gradientTransform="translate(1.97115 869.561) rotate(90) scale(6.06184 6.04537)">
<stop stop-color="white" stop-opacity="0"/>
<stop offset="1" stop-color="white"/>
</radialGradient>
<radialGradient id="paint3_radial_0_4140" cx="0" cy="0" r="1" gradientUnits="userSpaceOnUse" gradientTransform="translate(308.986 516.606) rotate(90) scale(6.04117 6.04541)">
<stop stop-color="white" stop-opacity="0"/>
<stop offset="1" stop-color="white"/>
</radialGradient>
<radialGradient id="paint4_radial_0_4140" cx="0" cy="0" r="1" gradientUnits="userSpaceOnUse" gradientTransform="translate(313.737 779.828) rotate(90) scale(6.04117 6.04533)">
<stop stop-color="white" stop-opacity="0"/>
<stop offset="1" stop-color="white"/>
</radialGradient>
<radialGradient id="paint5_radial_0_4140" cx="0" cy="0" r="1" gradientUnits="userSpaceOnUse" gradientTransform="translate(153.536 892.021) rotate(90) scale(3.02064 3.02266)">
<stop stop-color="white" stop-opacity="0"/>
<stop offset="1" stop-color="white"/>
</radialGradient>
<radialGradient id="paint6_radial_0_4140" cx="0" cy="0" r="1" gradientUnits="userSpaceOnUse" gradientTransform="translate(179.876 702.587) rotate(90) scale(3.02056 3.02266)">
<stop stop-color="white" stop-opacity="0"/>
<stop offset="1" stop-color="white"/>
</radialGradient>
<radialGradient id="paint7_radial_0_4140" cx="0" cy="0" r="1" gradientUnits="userSpaceOnUse" gradientTransform="translate(38.2427 870.876) rotate(90) scale(1.29455 1.29546)">
<stop stop-color="white" stop-opacity="0"/>
<stop offset="1" stop-color="white"/>
</radialGradient>
<radialGradient id="paint8_radial_0_4140" cx="0" cy="0" r="1" gradientUnits="userSpaceOnUse" gradientTransform="translate(16.2192 894.61) rotate(90) scale(1.29459 1.29533)">
<stop stop-color="white" stop-opacity="0"/>
<stop offset="1" stop-color="white"/>
</radialGradient>
<radialGradient id="paint9_radial_0_4140" cx="0" cy="0" r="1" gradientUnits="userSpaceOnUse" gradientTransform="translate(25.7199 847.143) rotate(90) scale(3.02056 3.02266)">
<stop stop-color="white" stop-opacity="0"/>
<stop offset="1" stop-color="white"/>
</radialGradient>
<radialGradient id="paint10_radial_0_4140" cx="0" cy="0" r="1" gradientUnits="userSpaceOnUse" gradientTransform="translate(1.54024 688.778) rotate(90) scale(3.02064 3.02266)">
<stop stop-color="white" stop-opacity="0"/>
<stop offset="1" stop-color="white"/>
</radialGradient>
<radialGradient id="paint11_radial_0_4140" cx="0" cy="0" r="1" gradientUnits="userSpaceOnUse" gradientTransform="translate(685.307 458.136) rotate(90) scale(8.84598 8.85207)">
<stop stop-color="white" stop-opacity="0"/>
<stop offset="1" stop-color="white"/>
</radialGradient>
<radialGradient id="paint12_radial_0_4140" cx="0" cy="0" r="1" gradientUnits="userSpaceOnUse" gradientTransform="translate(319.781 482.516) rotate(90) scale(8.63018 8.63616)">
<stop stop-color="white" stop-opacity="0"/>
<stop offset="1" stop-color="white"/>
</radialGradient>
<radialGradient id="paint13_radial_0_4140" cx="0" cy="0" r="1" gradientUnits="userSpaceOnUse" gradientTransform="translate(573.902 581.98) rotate(90) scale(8.84602 8.85207)">
<stop stop-color="white" stop-opacity="0"/>
<stop offset="1" stop-color="white"/>
</radialGradient>
<radialGradient id="paint14_radial_0_4140" cx="0" cy="0" r="1" gradientUnits="userSpaceOnUse" gradientTransform="translate(628.093 350.042) rotate(90) scale(6.25692 6.26116)">
<stop stop-color="white" stop-opacity="0"/>
<stop offset="1" stop-color="white"/>
</radialGradient>
<radialGradient id="paint15_radial_0_4140" cx="0" cy="0" r="1" gradientUnits="userSpaceOnUse" gradientTransform="translate(740.796 594.278) rotate(90) scale(6.25696 6.26124)">
<stop stop-color="white" stop-opacity="0"/>
<stop offset="1" stop-color="white"/>
</radialGradient>
<radialGradient id="paint16_radial_0_4140" cx="0" cy="0" r="1" gradientUnits="userSpaceOnUse" gradientTransform="translate(457.097 437.208) rotate(90) scale(6.25692 6.26124)">
<stop stop-color="white" stop-opacity="0"/>
<stop offset="1" stop-color="white"/>
</radialGradient>
<radialGradient id="paint17_radial_0_4140" cx="0" cy="0" r="1" gradientUnits="userSpaceOnUse" gradientTransform="translate(721.364 677.991) rotate(90) scale(4.74666 4.74991)">
<stop stop-color="white" stop-opacity="0"/>
<stop offset="1" stop-color="white"/>
</radialGradient>
<radialGradient id="paint18_radial_0_4140" cx="0" cy="0" r="1" gradientUnits="userSpaceOnUse" gradientTransform="translate(649.414 471.297) rotate(90) scale(3.12848 2.9687)">
<stop stop-color="white" stop-opacity="0"/>
<stop offset="1" stop-color="white"/>
</radialGradient>
<radialGradient id="paint19_radial_0_4140" cx="0" cy="0" r="1" gradientUnits="userSpaceOnUse" gradientTransform="translate(750.457 608.086) rotate(90) scale(3.12848 2.96862)">
<stop stop-color="white" stop-opacity="0"/>
<stop offset="1" stop-color="white"/>
</radialGradient>
<radialGradient id="paint20_radial_0_4140" cx="0" cy="0" r="1" gradientUnits="userSpaceOnUse" gradientTransform="translate(796.931 557.599) rotate(90) scale(3.12848 3.13058)">
<stop stop-color="white" stop-opacity="0"/>
<stop offset="1" stop-color="white"/>
</radialGradient>
<radialGradient id="paint21_radial_0_4140" cx="0" cy="0" r="1" gradientUnits="userSpaceOnUse" gradientTransform="translate(758.069 543.36) rotate(90) scale(3.12848 3.13058)">
<stop stop-color="white" stop-opacity="0"/>
<stop offset="1" stop-color="white"/>
</radialGradient>
<radialGradient id="paint22_radial_0_4140" cx="0" cy="0" r="1" gradientUnits="userSpaceOnUse" gradientTransform="translate(497.255 586.511) rotate(90) scale(3.12848 3.13066)">
<stop stop-color="white" stop-opacity="0"/>
<stop offset="1" stop-color="white"/>
</radialGradient>
<radialGradient id="paint23_radial_0_4140" cx="0" cy="0" r="1" gradientUnits="userSpaceOnUse" gradientTransform="translate(716.183 567.524) rotate(90) scale(1.29455 1.2955)">
<stop stop-color="white" stop-opacity="0"/>
<stop offset="1" stop-color="white"/>
</radialGradient>
<radialGradient id="paint24_radial_0_4140" cx="0" cy="0" r="1" gradientUnits="userSpaceOnUse" gradientTransform="translate(830.396 711.002) rotate(90) scale(1.40238 1.40333)">
<stop stop-color="white" stop-opacity="0"/>
<stop offset="1" stop-color="white"/>
</radialGradient>
<radialGradient id="paint25_radial_0_4140" cx="0" cy="0" r="1" gradientUnits="userSpaceOnUse" gradientTransform="translate(337.918 322.426) rotate(90) scale(1.29455 1.29533)">
<stop stop-color="white" stop-opacity="0"/>
<stop offset="1" stop-color="white"/>
</radialGradient>
<radialGradient id="paint26_radial_0_4140" cx="0" cy="0" r="1" gradientUnits="userSpaceOnUse" gradientTransform="translate(748.568 566.23) rotate(90) scale(1.29455 1.2955)">
<stop stop-color="white" stop-opacity="0"/>
<stop offset="1" stop-color="white"/>
</radialGradient>
<radialGradient id="paint27_radial_0_4140" cx="0" cy="0" r="1" gradientUnits="userSpaceOnUse" gradientTransform="translate(708.41 592.983) rotate(90) scale(3.12848 3.13058)">
<stop stop-color="white" stop-opacity="0"/>
<stop offset="1" stop-color="white"/>
</radialGradient>
<radialGradient id="paint28_radial_0_4140" cx="0" cy="0" r="1" gradientUnits="userSpaceOnUse" gradientTransform="translate(801.249 690.073) rotate(90) scale(3.12848 3.13058)">
<stop stop-color="white" stop-opacity="0"/>
<stop offset="1" stop-color="white"/>
</radialGradient>
<radialGradient id="paint29_radial_0_4140" cx="0" cy="0" r="1" gradientUnits="userSpaceOnUse" gradientTransform="translate(219.172 325.446) rotate(90) scale(3.12846 3.13058)">
<stop stop-color="white" stop-opacity="0"/>
<stop offset="1" stop-color="white"/>
</radialGradient>
<radialGradient id="paint30_radial_0_4140" cx="0" cy="0" r="1" gradientUnits="userSpaceOnUse" gradientTransform="translate(730.431 815.643) rotate(90) scale(3.12852 3.13058)">
<stop stop-color="white" stop-opacity="0"/>
<stop offset="1" stop-color="white"/>
</radialGradient>
<radialGradient id="paint31_radial_0_4140" cx="0" cy="0" r="1" gradientUnits="userSpaceOnUse" gradientTransform="translate(613.141 722.005) rotate(90) scale(3.12844 2.9687)">
<stop stop-color="white" stop-opacity="0"/>
<stop offset="1" stop-color="white"/>
</radialGradient>
<radialGradient id="paint32_radial_0_4140" cx="0" cy="0" r="1" gradientUnits="userSpaceOnUse" gradientTransform="translate(1034 618.442) rotate(90) scale(8.63022 8.63616)">
<stop stop-color="white" stop-opacity="0"/>
<stop offset="1" stop-color="white"/>
</radialGradient>
<radialGradient id="paint33_radial_0_4140" cx="0" cy="0" r="1" gradientUnits="userSpaceOnUse" gradientTransform="translate(1212.28 491.362) rotate(90) scale(8.84602 8.69028)">
<stop stop-color="white" stop-opacity="0"/>
<stop offset="1" stop-color="white"/>
</radialGradient>
<radialGradient id="paint34_radial_0_4140" cx="0" cy="0" r="1" gradientUnits="userSpaceOnUse" gradientTransform="translate(922.586 742.286) rotate(90) scale(8.63022 8.63616)">
<stop stop-color="white" stop-opacity="0"/>
<stop offset="1" stop-color="white"/>
</radialGradient>
<radialGradient id="paint35_radial_0_4140" cx="0" cy="0" r="1" gradientUnits="userSpaceOnUse" gradientTransform="translate(949.791 833.767) rotate(90) scale(8.63027 8.63616)">
<stop stop-color="white" stop-opacity="0"/>
<stop offset="1" stop-color="white"/>
</radialGradient>
<radialGradient id="paint36_radial_0_4140" cx="0" cy="0" r="1" gradientUnits="userSpaceOnUse" gradientTransform="translate(976.724 510.133) rotate(90) scale(6.25692 6.09928)">
<stop stop-color="white" stop-opacity="0"/>
<stop offset="1" stop-color="white"/>
</radialGradient>
<radialGradient id="paint37_radial_0_4140" cx="0" cy="0" r="1" gradientUnits="userSpaceOnUse" gradientTransform="translate(1323.31 348.748) rotate(90) scale(6.25694 6.26124)">
<stop stop-color="white" stop-opacity="0"/>
<stop offset="1" stop-color="white"/>
</radialGradient>
<radialGradient id="paint38_radial_0_4140" cx="0" cy="0" r="1" gradientUnits="userSpaceOnUse" gradientTransform="translate(1273.3 397.077) rotate(90) scale(6.25692 6.0202)">
<stop stop-color="white" stop-opacity="0"/>
<stop offset="1" stop-color="white"/>
</radialGradient>
<radialGradient id="paint39_radial_0_4140" cx="0" cy="0" r="1" gradientUnits="userSpaceOnUse" gradientTransform="translate(805.728 597.298) rotate(90) scale(6.25692 6.09928)">
<stop stop-color="white" stop-opacity="0"/>
<stop offset="1" stop-color="white"/>
</radialGradient>
<radialGradient id="paint40_radial_0_4140" cx="0" cy="0" r="1" gradientUnits="userSpaceOnUse" gradientTransform="translate(1250.76 69.1285) rotate(90) scale(4.74664 4.74991)">
<stop stop-color="white" stop-opacity="0"/>
<stop offset="1" stop-color="white"/>
</radialGradient>
<radialGradient id="paint41_radial_0_4140" cx="0" cy="0" r="1" gradientUnits="userSpaceOnUse" gradientTransform="translate(931.654 810.896) rotate(90) scale(4.74657 4.74983)">
<stop stop-color="white" stop-opacity="0"/>
<stop offset="1" stop-color="white"/>
</radialGradient>
<radialGradient id="paint42_radial_0_4140" cx="0" cy="0" r="1" gradientUnits="userSpaceOnUse" gradientTransform="translate(998.153 631.388) rotate(90) scale(3.12844 3.1305)">
<stop stop-color="white" stop-opacity="0"/>
<stop offset="1" stop-color="white"/>
</radialGradient>
<radialGradient id="paint43_radial_0_4140" cx="0" cy="0" r="1" gradientUnits="userSpaceOnUse" gradientTransform="translate(952.814 806.15) rotate(90) scale(3.12844 3.13058)">
<stop stop-color="white" stop-opacity="0"/>
<stop offset="1" stop-color="white"/>
</radialGradient>
<radialGradient id="paint44_radial_0_4140" cx="0" cy="0" r="1" gradientUnits="userSpaceOnUse" gradientTransform="translate(521.004 503.229) rotate(90) scale(3.12848 3.13058)">
<stop stop-color="white" stop-opacity="0"/>
<stop offset="1" stop-color="white"/>
</radialGradient>
<radialGradient id="paint45_radial_0_4140" cx="0" cy="0" r="1" gradientUnits="userSpaceOnUse" gradientTransform="translate(846.158 746.601) rotate(90) scale(3.12844 3.13066)">
<stop stop-color="white" stop-opacity="0"/>
<stop offset="1" stop-color="white"/>
</radialGradient>
<radialGradient id="paint46_radial_0_4140" cx="0" cy="0" r="1" gradientUnits="userSpaceOnUse" gradientTransform="translate(179.877 482.516) rotate(90) scale(3.12848 3.13058)">
<stop stop-color="white" stop-opacity="0"/>
<stop offset="1" stop-color="white"/>
</radialGradient>
<radialGradient id="paint47_radial_0_4140" cx="0" cy="0" r="1" gradientUnits="userSpaceOnUse" gradientTransform="translate(833.42 775.297) rotate(90) scale(1.40238 1.40333)">
<stop stop-color="white" stop-opacity="0"/>
<stop offset="1" stop-color="white"/>
</radialGradient>
<radialGradient id="paint48_radial_0_4140" cx="0" cy="0" r="1" gradientUnits="userSpaceOnUse" gradientTransform="translate(873.792 748.328) rotate(90) scale(1.29455 1.29533)">
<stop stop-color="white" stop-opacity="0"/>
<stop offset="1" stop-color="white"/>
</radialGradient>
<radialGradient id="paint49_radial_0_4140" cx="0" cy="0" r="1" gradientUnits="userSpaceOnUse" gradientTransform="translate(608.663 489.421) rotate(90) scale(1.29455 1.29542)">
<stop stop-color="white" stop-opacity="0"/>
<stop offset="1" stop-color="white"/>
</radialGradient>
<radialGradient id="paint50_radial_0_4140" cx="0" cy="0" r="1" gradientUnits="userSpaceOnUse" gradientTransform="translate(1323.36 12.8162) rotate(90) scale(1.40241 1.56529)">
<stop stop-color="white" stop-opacity="0"/>
<stop offset="1" stop-color="white"/>
</radialGradient>
<radialGradient id="paint51_radial_0_4140" cx="0" cy="0" r="1" gradientUnits="userSpaceOnUse" gradientTransform="translate(1324.82 115.516) rotate(90) scale(1.40241 1.4035)">
<stop stop-color="white" stop-opacity="0"/>
<stop offset="1" stop-color="white"/>
</radialGradient>
<radialGradient id="paint52_radial_0_4140" cx="0" cy="0" r="1" gradientUnits="userSpaceOnUse" gradientTransform="translate(275.953 842.613) rotate(90) scale(1.40243 1.40333)">
<stop stop-color="white" stop-opacity="0"/>
<stop offset="1" stop-color="white"/>
</radialGradient>
<radialGradient id="paint53_radial_0_4140" cx="0" cy="0" r="1" gradientUnits="userSpaceOnUse" gradientTransform="translate(1268.95 116.811) rotate(90) scale(1.40243 1.56521)">
<stop stop-color="white" stop-opacity="0"/>
<stop offset="1" stop-color="white"/>
</radialGradient>
<radialGradient id="paint54_radial_0_4140" cx="0" cy="0" r="1" gradientUnits="userSpaceOnUse" gradientTransform="translate(1267.39 97.8238) rotate(90) scale(1.40242 1.40341)">
<stop stop-color="white" stop-opacity="0"/>
<stop offset="1" stop-color="white"/>
</radialGradient>
<radialGradient id="paint55_radial_0_4140" cx="0" cy="0" r="1" gradientUnits="userSpaceOnUse" gradientTransform="translate(941.211 823.626) rotate(90) scale(1.40238 1.56521)">
<stop stop-color="white" stop-opacity="0"/>
<stop offset="1" stop-color="white"/>
</radialGradient>
<radialGradient id="paint56_radial_0_4140" cx="0" cy="0" r="1" gradientUnits="userSpaceOnUse" gradientTransform="translate(931.44 801.619) rotate(90) scale(1.40238 1.40341)">
<stop stop-color="white" stop-opacity="0"/>
<stop offset="1" stop-color="white"/>
</radialGradient>
<radialGradient id="paint57_radial_0_4140" cx="0" cy="0" r="1" gradientUnits="userSpaceOnUse" gradientTransform="translate(878.111 800.54) rotate(90) scale(3.12848 3.13066)">
<stop stop-color="white" stop-opacity="0"/>
<stop offset="1" stop-color="white"/>
</radialGradient>
<radialGradient id="paint58_radial_0_4140" cx="0" cy="0" r="1" gradientUnits="userSpaceOnUse" gradientTransform="translate(916.972 803.129) rotate(90) scale(3.12848 3.13066)">
<stop stop-color="white" stop-opacity="0"/>
<stop offset="1" stop-color="white"/>
</radialGradient>
<radialGradient id="paint59_radial_0_4140" cx="0" cy="0" r="1" gradientUnits="userSpaceOnUse" gradientTransform="translate(248.262 560.188) rotate(90) scale(3.12848 2.9687)">
<stop stop-color="white" stop-opacity="0"/>
<stop offset="1" stop-color="white"/>
</radialGradient>
<radialGradient id="paint60_radial_0_4140" cx="0" cy="0" r="1" gradientUnits="userSpaceOnUse" gradientTransform="translate(299.488 465.256) rotate(90) scale(6.25692 6.26124)">
<stop stop-color="white" stop-opacity="0"/>
<stop offset="1" stop-color="white"/>
</radialGradient>
<radialGradient id="paint61_radial_0_4140" cx="0" cy="0" r="1" gradientUnits="userSpaceOnUse" gradientTransform="translate(355.623 428.146) rotate(90) scale(3.12846 3.13058)">
<stop stop-color="white" stop-opacity="0"/>
<stop offset="1" stop-color="white"/>
</radialGradient>
<radialGradient id="paint62_radial_0_4140" cx="0" cy="0" r="1" gradientUnits="userSpaceOnUse" gradientTransform="translate(316.488 413.906) rotate(90) scale(3.12846 2.9687)">
<stop stop-color="white" stop-opacity="0"/>
<stop offset="1" stop-color="white"/>
</radialGradient>
<radialGradient id="paint63_radial_0_4140" cx="0" cy="0" r="1" gradientUnits="userSpaceOnUse" gradientTransform="translate(274.443 438.07) rotate(90) scale(1.29453 1.29542)">
<stop stop-color="white" stop-opacity="0"/>
<stop offset="1" stop-color="white"/>
</radialGradient>
<radialGradient id="paint64_radial_0_4140" cx="0" cy="0" r="1" gradientUnits="userSpaceOnUse" gradientTransform="translate(306.828 436.776) rotate(90) scale(1.29453 1.29542)">
<stop stop-color="white" stop-opacity="0"/>
<stop offset="1" stop-color="white"/>
</radialGradient>
<radialGradient id="paint65_radial_0_4140" cx="0" cy="0" r="1" gradientUnits="userSpaceOnUse" gradientTransform="translate(266.669 463.961) rotate(90) scale(3.12848 3.13058)">
<stop stop-color="white" stop-opacity="0"/>
<stop offset="1" stop-color="white"/>
</radialGradient>
<radialGradient id="paint66_radial_0_4140" cx="0" cy="0" r="1" gradientUnits="userSpaceOnUse" gradientTransform="translate(970.358 148.311) rotate(90) scale(2.91479 2.86186)">
<stop stop-color="white" stop-opacity="0"/>
<stop offset="1" stop-color="white"/>
</radialGradient>
<radialGradient id="paint67_radial_0_4140" cx="0" cy="0" r="1" gradientUnits="userSpaceOnUse" gradientTransform="translate(1169.58 96.3135) rotate(90) scale(3.12846 3.13066)">
<stop stop-color="white" stop-opacity="0"/>
<stop offset="1" stop-color="white"/>
</radialGradient>
<radialGradient id="paint68_radial_0_4140" cx="0" cy="0" r="1" gradientUnits="userSpaceOnUse" gradientTransform="translate(454.938 812.191) rotate(90) scale(6.25692 6.26124)">
<stop stop-color="white" stop-opacity="0"/>
<stop offset="1" stop-color="white"/>
</radialGradient>
<radialGradient id="paint69_radial_0_4140" cx="0" cy="0" r="1" gradientUnits="userSpaceOnUse" gradientTransform="translate(463.142 622.757) rotate(90) scale(6.25692 6.26124)">
<stop stop-color="white" stop-opacity="0"/>
<stop offset="1" stop-color="white"/>
</radialGradient>
<radialGradient id="paint70_radial_0_4140" cx="0" cy="0" r="1" gradientUnits="userSpaceOnUse" gradientTransform="translate(435.074 895.904) rotate(90) scale(4.74666 4.74991)">
<stop stop-color="white" stop-opacity="0"/>
<stop offset="1" stop-color="white"/>
</radialGradient>
<radialGradient id="paint71_radial_0_4140" cx="0" cy="0" r="1" gradientUnits="userSpaceOnUse" gradientTransform="translate(464.437 825.999) rotate(90) scale(3.12848 3.13066)">
<stop stop-color="white" stop-opacity="0"/>
<stop offset="1" stop-color="white"/>
</radialGradient>
<radialGradient id="paint72_radial_0_4140" cx="0" cy="0" r="1" gradientUnits="userSpaceOnUse" gradientTransform="translate(510.641 775.081) rotate(90) scale(3.02056 3.02266)">
<stop stop-color="white" stop-opacity="0"/>
<stop offset="1" stop-color="white"/>
</radialGradient>
<radialGradient id="paint73_radial_0_4140" cx="0" cy="0" r="1" gradientUnits="userSpaceOnUse" gradientTransform="translate(565.211 600.75) rotate(90) scale(3.12848 2.9687)">
<stop stop-color="white" stop-opacity="0"/>
<stop offset="1" stop-color="white"/>
</radialGradient>
<radialGradient id="paint74_radial_0_4140" cx="0" cy="0" r="1" gradientUnits="userSpaceOnUse" gradientTransform="translate(471.941 761.273) rotate(90) scale(3.12844 2.9687)">
<stop stop-color="white" stop-opacity="0"/>
<stop offset="1" stop-color="white"/>
</radialGradient>
<radialGradient id="paint75_radial_0_4140" cx="0" cy="0" r="1" gradientUnits="userSpaceOnUse" gradientTransform="translate(429.893 785.437) rotate(90) scale(1.29455 1.29542)">
<stop stop-color="white" stop-opacity="0"/>
<stop offset="1" stop-color="white"/>
</radialGradient>
<radialGradient id="paint76_radial_0_4140" cx="0" cy="0" r="1" gradientUnits="userSpaceOnUse" gradientTransform="translate(462.278 784.143) rotate(90) scale(1.29455 1.29542)">
<stop stop-color="white" stop-opacity="0"/>
<stop offset="1" stop-color="white"/>
</radialGradient>
<radialGradient id="paint77_radial_0_4140" cx="0" cy="0" r="1" gradientUnits="userSpaceOnUse" gradientTransform="translate(422.12 810.897) rotate(90) scale(3.12844 3.13058)">
<stop stop-color="white" stop-opacity="0"/>
<stop offset="1" stop-color="white"/>
</radialGradient>
<radialGradient id="paint78_radial_0_4140" cx="0" cy="0" r="1" gradientUnits="userSpaceOnUse" gradientTransform="translate(222.191 809.17) rotate(90) scale(3.12848 3.13058)">
<stop stop-color="white" stop-opacity="0"/>
<stop offset="1" stop-color="white"/>
</radialGradient>
<radialGradient id="paint79_radial_0_4140" cx="0" cy="0" r="1" gradientUnits="userSpaceOnUse" gradientTransform="translate(1223.29 117.026) rotate(90) scale(3.12846 2.9687)">
<stop stop-color="white" stop-opacity="0"/>
<stop offset="1" stop-color="white"/>
</radialGradient>
<radialGradient id="paint80_radial_0_4140" cx="0" cy="0" r="1" gradientUnits="userSpaceOnUse" gradientTransform="translate(1264.58 249.068) rotate(90) scale(3.12846 3.13074)">
<stop stop-color="white" stop-opacity="0"/>
<stop offset="1" stop-color="white"/>
</radialGradient>
<radialGradient id="paint81_radial_0_4140" cx="0" cy="0" r="1" gradientUnits="userSpaceOnUse" gradientTransform="translate(962.045 882.527) rotate(90) scale(3.12848 2.96862)">
<stop stop-color="white" stop-opacity="0"/>
<stop offset="1" stop-color="white"/>
</radialGradient>
<radialGradient id="paint82_radial_0_4140" cx="0" cy="0" r="1" gradientUnits="userSpaceOnUse" gradientTransform="translate(1083.13 -2.5025) rotate(90) scale(2.93646 2.84563)">
<stop stop-color="white" stop-opacity="0"/>
<stop offset="1" stop-color="white"/>
</radialGradient>
<radialGradient id="paint83_radial_0_4140" cx="0" cy="0" r="1" gradientUnits="userSpaceOnUse" gradientTransform="translate(1124.58 0.0868537) rotate(90) scale(2.93646 2.84555)">
<stop stop-color="white" stop-opacity="0"/>
<stop offset="1" stop-color="white"/>
</radialGradient>
<radialGradient id="paint84_radial_0_4140" cx="0" cy="0" r="1" gradientUnits="userSpaceOnUse" gradientTransform="translate(1410.97 226.199) rotate(90) scale(3.02056 3.02266)">
<stop stop-color="white" stop-opacity="0"/>
<stop offset="1" stop-color="white"/>
</radialGradient>
<radialGradient id="paint85_radial_0_4140" cx="0" cy="0" r="1" gradientUnits="userSpaceOnUse" gradientTransform="translate(695.241 79.2691) rotate(90) scale(8.84599 8.85207)">
<stop stop-color="white" stop-opacity="0"/>
<stop offset="1" stop-color="white"/>
</radialGradient>
<radialGradient id="paint86_radial_0_4140" cx="0" cy="0" r="1" gradientUnits="userSpaceOnUse" gradientTransform="translate(611.253 293.946) rotate(90) scale(8.63022 8.63624)">
<stop stop-color="white" stop-opacity="0"/>
<stop offset="1" stop-color="white"/>
</radialGradient>
<radialGradient id="paint87_radial_0_4140" cx="0" cy="0" r="1" gradientUnits="userSpaceOnUse" gradientTransform="translate(750.889 214.979) rotate(90) scale(6.25692 6.09945)">
<stop stop-color="white" stop-opacity="0"/>
<stop offset="1" stop-color="white"/>
</radialGradient>
<radialGradient id="paint88_radial_0_4140" cx="0" cy="0" r="1" gradientUnits="userSpaceOnUse" gradientTransform="translate(731.348 298.909) rotate(90) scale(4.53088 4.69587)">
<stop stop-color="white" stop-opacity="0"/>
<stop offset="1" stop-color="white"/>
</radialGradient>
<radialGradient id="paint89_radial_0_4140" cx="0" cy="0" r="1" gradientUnits="userSpaceOnUse" gradientTransform="translate(768 388.015) rotate(90) scale(4.74662 4.74999)">
<stop stop-color="white" stop-opacity="0"/>
<stop offset="1" stop-color="white"/>
</radialGradient>
<radialGradient id="paint90_radial_0_4140" cx="0" cy="0" r="1" gradientUnits="userSpaceOnUse" gradientTransform="translate(659.185 91.9981) rotate(90) scale(3.02058 3.02266)">
<stop stop-color="white" stop-opacity="0"/>
<stop offset="1" stop-color="white"/>
</radialGradient>
<radialGradient id="paint91_radial_0_4140" cx="0" cy="0" r="1" gradientUnits="userSpaceOnUse" gradientTransform="translate(760.388 228.788) rotate(90) scale(3.12848 2.96862)">
<stop stop-color="white" stop-opacity="0"/>
<stop offset="1" stop-color="white"/>
</radialGradient>
<radialGradient id="paint92_radial_0_4140" cx="0" cy="0" r="1" gradientUnits="userSpaceOnUse" gradientTransform="translate(613.843 266.761) rotate(90) scale(3.12846 3.13058)">
<stop stop-color="white" stop-opacity="0"/>
<stop offset="1" stop-color="white"/>
</radialGradient>
<radialGradient id="paint93_radial_0_4140" cx="0" cy="0" r="1" gradientUnits="userSpaceOnUse" gradientTransform="translate(940.885 202.897) rotate(90) scale(3.12846 2.9687)">
<stop stop-color="white" stop-opacity="0"/>
<stop offset="1" stop-color="white"/>
</radialGradient>
<radialGradient id="paint94_radial_0_4140" cx="0" cy="0" r="1" gradientUnits="userSpaceOnUse" gradientTransform="translate(1030.11 180.89) rotate(90) scale(3.12846 3.13066)">
<stop stop-color="white" stop-opacity="0"/>
<stop offset="1" stop-color="white"/>
</radialGradient>
<radialGradient id="paint95_radial_0_4140" cx="0" cy="0" r="1" gradientUnits="userSpaceOnUse" gradientTransform="translate(807.023 178.301) rotate(90) scale(3.12848 2.9687)">
<stop stop-color="white" stop-opacity="0"/>
<stop offset="1" stop-color="white"/>
</radialGradient>
<radialGradient id="paint96_radial_0_4140" cx="0" cy="0" r="1" gradientUnits="userSpaceOnUse" gradientTransform="translate(768 164.061) rotate(90) scale(3.12846 3.13066)">
<stop stop-color="white" stop-opacity="0"/>
<stop offset="1" stop-color="white"/>
</radialGradient>
<radialGradient id="paint97_radial_0_4140" cx="0" cy="0" r="1" gradientUnits="userSpaceOnUse" gradientTransform="translate(725.897 188.441) rotate(90) scale(1.40241 1.40333)">
<stop stop-color="white" stop-opacity="0"/>
<stop offset="1" stop-color="white"/>
</radialGradient>
<radialGradient id="paint98_radial_0_4140" cx="0" cy="0" r="1" gradientUnits="userSpaceOnUse" gradientTransform="translate(840.326 331.703) rotate(90) scale(1.40243 1.40341)">
<stop stop-color="white" stop-opacity="0"/>
<stop offset="1" stop-color="white"/>
</radialGradient>
<radialGradient id="paint99_radial_0_4140" cx="0" cy="0" r="1" gradientUnits="userSpaceOnUse" gradientTransform="translate(841.839 434.618) rotate(90) scale(1.29455 1.29542)">
<stop stop-color="white" stop-opacity="0"/>
<stop offset="1" stop-color="white"/>
</radialGradient>
<radialGradient id="paint100_radial_0_4140" cx="0" cy="0" r="1" gradientUnits="userSpaceOnUse" gradientTransform="translate(786.135 435.913) rotate(90) scale(1.29457 1.29542)">
<stop stop-color="white" stop-opacity="0"/>
<stop offset="1" stop-color="white"/>
</radialGradient>
<radialGradient id="paint101_radial_0_4140" cx="0" cy="0" r="1" gradientUnits="userSpaceOnUse" gradientTransform="translate(784.409 416.927) rotate(90) scale(1.29451 1.29542)">
<stop stop-color="white" stop-opacity="0"/>
<stop offset="1" stop-color="white"/>
</radialGradient>
<radialGradient id="paint102_radial_0_4140" cx="0" cy="0" r="1" gradientUnits="userSpaceOnUse" gradientTransform="translate(758.555 187.147) rotate(90) scale(1.40245 1.56529)">
<stop stop-color="white" stop-opacity="0"/>
<stop offset="1" stop-color="white"/>
</radialGradient>
<radialGradient id="paint103_radial_0_4140" cx="0" cy="0" r="1" gradientUnits="userSpaceOnUse" gradientTransform="translate(718.343 213.685) rotate(90) scale(3.12846 3.13066)">
<stop stop-color="white" stop-opacity="0"/>
<stop offset="1" stop-color="white"/>
</radialGradient>
<radialGradient id="paint104_radial_0_4140" cx="0" cy="0" r="1" gradientUnits="userSpaceOnUse" gradientTransform="translate(811.179 310.775) rotate(90) scale(3.12848 3.13058)">
<stop stop-color="white" stop-opacity="0"/>
<stop offset="1" stop-color="white"/>
</radialGradient>
<radialGradient id="paint105_radial_0_4140" cx="0" cy="0" r="1" gradientUnits="userSpaceOnUse" gradientTransform="translate(1158.95 44.1006) rotate(90) scale(3.12845 2.96862)">
<stop stop-color="white" stop-opacity="0"/>
<stop offset="1" stop-color="white"/>
</radialGradient>
<radialGradient id="paint106_radial_0_4140" cx="0" cy="0" r="1" gradientUnits="userSpaceOnUse" gradientTransform="translate(1085.81 313.795) rotate(90) scale(3.12844 3.13066)">
<stop stop-color="white" stop-opacity="0"/>
<stop offset="1" stop-color="white"/>
</radialGradient>
<radialGradient id="paint107_radial_0_4140" cx="0" cy="0" r="1" gradientUnits="userSpaceOnUse" gradientTransform="translate(686.819 415.632) rotate(90) scale(3.12846 3.13058)">
<stop stop-color="white" stop-opacity="0"/>
<stop offset="1" stop-color="white"/>
</radialGradient>
<radialGradient id="paint108_radial_0_4140" cx="0" cy="0" r="1" gradientUnits="userSpaceOnUse" gradientTransform="translate(1199.54 17.7788) rotate(90) scale(3.12846 2.9687)">
<stop stop-color="white" stop-opacity="0"/>
<stop offset="1" stop-color="white"/>
</radialGradient>
<radialGradient id="paint109_radial_0_4140" cx="0" cy="0" r="1" gradientUnits="userSpaceOnUse" gradientTransform="translate(740.365 436.344) rotate(90) scale(3.12846 3.13058)">
<stop stop-color="white" stop-opacity="0"/>
<stop offset="1" stop-color="white"/>
</radialGradient>
<radialGradient id="paint110_radial_0_4140" cx="0" cy="0" r="1" gradientUnits="userSpaceOnUse" gradientTransform="translate(781.818 568.387) rotate(90) scale(3.12848 3.13066)">
<stop stop-color="white" stop-opacity="0"/>
<stop offset="1" stop-color="white"/>
</radialGradient>
<radialGradient id="paint111_radial_0_4140" cx="0" cy="0" r="1" gradientUnits="userSpaceOnUse" gradientTransform="translate(623.343 343.138) rotate(90) scale(3.12846 3.13058)">
<stop stop-color="white" stop-opacity="0"/>
<stop offset="1" stop-color="white"/>
</radialGradient>
<clipPath id="clip0_0_4140">
<rect width="1440" height="900" fill="white"/>
</clipPath>
<clipPath id="clip1_0_4140">
<rect width="1460" height="341" fill="white" transform="translate(-10 516)"/>
</clipPath>
</defs>
</svg>
