<svg width="1440" height="900" viewBox="0 0 1440 900" fill="none" xmlns="http://www.w3.org/2000/svg">
<g clip-path="url(#clip0_0_4481)">
<rect width="1440" height="900" fill="#345BA4"/>
<g opacity="0.2" clip-path="url(#clip1_0_4481)">
<path opacity="0.2" fill-rule="evenodd" clip-rule="evenodd" d="M1450 675.479C1450 675.479 1299.17 695.9 1211.91 718.752C1124.65 741.604 1041.78 779.529 1018.1 783.257C994.419 786.985 897.432 802.544 872.779 806.433C848.127 810.323 770.926 828.799 693.077 834.958C615.228 841.117 415.252 799.788 340.971 767.05C266.69 734.311 201.977 727.504 160.133 720.859C118.289 714.214 -8.8647 735.122 -8.8647 735.122L-10 856.676L1446.92 857L1450 675.479Z" fill="#1B174E"/>
<path fill-rule="evenodd" clip-rule="evenodd" d="M-10 856.676C-10 856.676 7.84048 710.325 22.7616 676.127C22.7616 676.127 49.3601 623.616 81.3108 621.185C81.3108 621.185 111.964 665.755 119.425 671.427C126.723 677.1 134.184 693.145 134.184 693.145L144.563 689.741C144.563 689.741 158.025 623.454 173.433 609.678L199.22 602.871C199.22 602.871 206.519 539.987 223.224 516C223.224 516 248.363 519.404 255.174 539.987L263.932 723.615L275.448 729.773C275.448 729.773 291.504 783.095 295.721 816.644C295.721 816.644 319.724 812.106 325.401 818.103C331.078 824.261 347.458 836.741 347.458 836.741C347.458 836.741 378.598 823.451 398.223 823.451C417.847 823.451 486.29 823.451 486.29 823.451C486.29 823.451 496.507 700.6 506.401 676.289C516.294 651.979 528.458 647.441 528.458 647.441C528.458 647.441 538.351 657.165 542.082 676.289C545.812 695.414 547.596 715.997 547.596 715.997V652.141C547.596 652.141 553.11 559.111 571.113 527.183L590.089 516C590.089 516 615.552 682.448 620.418 807.568C620.418 807.568 637.609 810.647 645.07 822.803L661.451 856.676H-10Z" fill="#1B174E"/>
<path fill-rule="evenodd" clip-rule="evenodd" d="M564.626 646.306L584.575 627.506L596.901 610.65L600.145 590.391L604.199 622.319L582.629 636.582L564.626 646.306Z" fill="#1B174E"/>
<path fill-rule="evenodd" clip-rule="evenodd" d="M557.651 573.86L586.034 563.325L593.495 540.149L590.089 516C590.089 516 575.167 522.969 571.275 527.021C567.383 531.073 557.976 568.511 557.651 573.86Z" fill="#1B174E"/>
<path fill-rule="evenodd" clip-rule="evenodd" d="M505.104 678.721C505.104 678.721 518.241 691.362 526.35 694.442C534.459 697.521 544.19 692.821 544.19 692.821C544.19 692.821 544.353 669.969 538.838 660.568C533.162 651.168 528.62 647.279 528.62 647.279C528.62 647.279 513.051 654.896 505.104 678.721Z" fill="#1B174E"/>
<path fill-rule="evenodd" clip-rule="evenodd" d="M495.858 733.663L505.103 746.629L511.59 755.867L542.081 771.264C542.081 771.264 508.347 758.46 500.562 756.353C492.615 754.57 495.858 733.663 495.858 733.663Z" fill="#1B174E"/>
<path fill-rule="evenodd" clip-rule="evenodd" d="M620.418 807.568L577.438 826.206L528.458 833.013L495.696 838.524C495.696 838.524 542.892 838.524 581.006 836.903C619.12 835.282 644.908 822.803 644.908 822.803C644.908 822.803 642.475 814.051 620.418 807.568Z" fill="#1B174E"/>
<path fill-rule="evenodd" clip-rule="evenodd" d="M223.224 516C223.224 516 216.412 532.045 217.223 540.149C218.034 548.252 249.174 574.994 252.904 574.184C256.635 573.211 255.013 540.149 255.013 540.149C255.013 540.149 245.444 515.027 223.224 516Z" fill="#1B174E"/>
<path fill-rule="evenodd" clip-rule="evenodd" d="M199.219 602.871V633.34C199.219 633.34 183.163 636.582 176.351 630.423C169.377 624.264 173.432 609.678 173.432 609.678L199.219 602.871Z" fill="#1B174E"/>
<path fill-rule="evenodd" clip-rule="evenodd" d="M263.932 723.777L231.982 741.605L182.028 756.191L130.453 767.05C130.453 767.05 219.493 761.215 238.307 758.46C257.121 755.705 275.448 729.935 275.448 729.935L263.932 723.777Z" fill="#1B174E"/>
<path fill-rule="evenodd" clip-rule="evenodd" d="M279.989 745.656L264.743 756.029L306.749 760.729L346.161 769.157L305.452 746.791L279.989 745.656Z" fill="#1B174E"/>
<path fill-rule="evenodd" clip-rule="evenodd" d="M34.7637 656.354C34.7637 656.354 70.1203 669.644 82.933 669.32C95.9079 668.996 113.262 665.106 113.262 665.106C113.262 665.106 98.9894 631.071 81.1489 621.185C81.1489 621.185 57.3075 622.806 34.7637 656.354Z" fill="#1B174E"/>
<path fill-rule="evenodd" clip-rule="evenodd" d="M134.021 693.307L108.234 702.545L68.3359 714.539L110.667 715.673L144.563 689.741L134.021 693.307Z" fill="#1B174E"/>
<path fill-rule="evenodd" clip-rule="evenodd" d="M16.5994 695.576L38.1702 704.976L59.7409 712.756L22.7625 711.621L12.8691 709.514L16.5994 695.576Z" fill="#1B174E"/>
<path fill-rule="evenodd" clip-rule="evenodd" d="M13.1934 785.04L41.2516 775.315L100.287 769.157C100.287 769.157 70.9316 782.609 56.8214 785.202C42.3869 787.633 13.1934 785.04 13.1934 785.04Z" fill="#1B174E"/>
</g>
<path d="M183.158 -122.168C271.768 -118.892 357.489 -90.1793 440.705 -59.5395C486.744 -42.5816 540.296 -25.431 582.289 -50.6751C592.306 -56.6489 601.167 -64.9352 611.184 -71.1017C662.616 -102.898 727.918 -75.3411 786.093 -59.1541C850.431 -41.2327 919.008 -38.3422 984.695 -50.8679C1021.49 -57.8052 1061.94 -73.9922 1074.46 -109.257C1082.55 -132.189 1076.19 -157.818 1080.43 -181.906C1085.44 -210.619 1106.63 -235.863 1133.79 -246.076C1161.14 -256.289 1193.7 -250.894 1216.24 -232.587C1245.32 -209.077 1259.77 -165.719 1295.99 -156.276C1325.46 -148.568 1356.09 -169.188 1371.69 -195.395C1387.29 -221.603 1392.11 -252.628 1399.81 -282.111C1407.52 -311.595 1420.04 -342.042 1445.47 -359C1471.86 -340.115 1485.54 -307.934 1491.31 -275.945C1497.09 -243.956 1495.94 -211.389 1499.02 -179.015C1507.88 -85.5544 1551.22 1032.53 1548.91 1126.38C1548.72 1135.82 1547.95 1145.65 1543.71 1154.32C1531.19 1179.18 1497.29 1181.69 1469.35 1180.53C986.621 1162.42 503.888 1144.5 21.1554 1126.38C-0.0339813 1125.61 -22.5718 1124.45 -39.9086 1112.51C-66.6843 1094.2 -72.0779 28.3331 -70.3442 -1.92126C-68.6106 -31.7902 -54.5485 -45.0868 -31.2402 -62.2373C30.4017 -107.33 108.032 -125.059 183.158 -122.168Z" fill="#1B174E"/>
<g opacity="0.54">
<g opacity="0.54">
<path opacity="0.54" d="M254.579 16.3627C257.917 16.3627 260.624 13.6579 260.624 10.3214C260.624 6.98497 257.917 4.28027 254.579 4.28027C251.24 4.28027 248.533 6.98497 248.533 10.3214C248.533 13.6579 251.24 16.3627 254.579 16.3627Z" fill="url(#paint0_radial_0_4481)"/>
<path opacity="0.54" d="M666.524 31.0338C669.148 31.0338 671.274 28.9087 671.274 26.2872C671.274 23.6657 669.148 21.5405 666.524 21.5405C663.901 21.5405 661.774 23.6657 661.774 26.2872C661.774 28.9087 663.901 31.0338 666.524 31.0338Z" fill="url(#paint1_radial_0_4481)"/>
</g>
</g>
</g>
<defs>
<radialGradient id="paint0_radial_0_4481" cx="0" cy="0" r="1" gradientUnits="userSpaceOnUse" gradientTransform="translate(254.579 10.3215) rotate(90) scale(6.04121 6.04541)">
<stop stop-color="white" stop-opacity="0"/>
<stop offset="1" stop-color="white"/>
</radialGradient>
<radialGradient id="paint1_radial_0_4481" cx="0" cy="0" r="1" gradientUnits="userSpaceOnUse" gradientTransform="translate(666.524 26.2872) rotate(90) scale(4.74666 4.74991)">
<stop stop-color="white" stop-opacity="0"/>
<stop offset="1" stop-color="white"/>
</radialGradient>
<clipPath id="clip0_0_4481">
<rect width="1440" height="900" fill="white"/>
</clipPath>
<clipPath id="clip1_0_4481">
<rect width="1460" height="341" fill="white" transform="translate(-10 516)"/>
</clipPath>
</defs>
</svg>
